<?xml version="1.0" encoding="UTF-8"?>
<svg width="901px" height="600px" viewBox="0 0 901 600" version="1.1" xmlns="http://www.w3.org/2000/svg" xmlns:xlink="http://www.w3.org/1999/xlink">
    <!-- Generator: Sketch 51.3 (57544) - http://www.bohemiancoding.com/sketch -->
    <title>distance formula v2</title>
    <desc>Created with Sketch.</desc>
    <defs>
        <path d="M603,161 L603,450 L317,450" id="path-1"></path>
        <mask id="mask-2" maskContentUnits="userSpaceOnUse" maskUnits="objectBoundingBox" x="0" y="0" width="286" height="289" fill="white">
            <use xlink:href="#path-1"></use>
        </mask>
    </defs>
    <g id="distance-formula-v2" stroke="none" stroke-width="1" fill="none" fill-rule="evenodd">
        <rect fill="#FFFFFF" x="0" y="0" width="901" height="600"></rect>
        <rect id="Rectangle" fill="#FAFAFA" x="0" y="0" width="901" height="745"></rect>
        <g id="Group-4" transform="translate(-1.000000, -1.000000)" fill-rule="nonzero" stroke="#DBE5FD" stroke-linecap="square" stroke-width="3">
            <path d="M145.5,0.570552147 L145.5,743.429448" id="Line-3"></path>
            <path d="M300.5,0.570868345 L300.5,743.841453" id="Line-3-Copy"></path>
            <path d="M451.5,1.71260503 L451.5,744.98319" id="Line-3-Copy-2"></path>
            <path d="M605.5,1.71260503 L605.5,744.98319" id="Line-3-Copy-3"></path>
            <path d="M756.5,0.570868345 L756.5,743.841453" id="Line-3-Copy-4"></path>
            <path d="M0,145 L902.5,145" id="Line-3-Copy-4"></path>
            <path d="M0,296.25 L902.5,296.25" id="Line-3-Copy-5"></path>
            <path d="M0,448.25 L902.5,448.25" id="Line-3-Copy-6"></path>
            <path d="M0,600.25 L902.5,600.25" id="Line-3-Copy-7"></path>
        </g>
        <use id="Rectangle-3" stroke="#4C7EF3" mask="url(#mask-2)" stroke-width="12" stroke-dasharray="18,15" xlink:href="#path-1"></use>
        <text id="d" font-family="Oxygen-Regular, Oxygen" font-size="42" font-weight="normal" fill="#4C7EF3">
            <tspan x="410.08252" y="281">d</tspan>
        </text>
        <circle id="Oval-Copy" fill="#4C7EF3" cx="599.5" cy="146.5" r="10.5"></circle>
        <path d="M311.5,434.5 L590.488351,155.511649" id="Line" stroke="#4C7EF3" stroke-width="6" stroke-linecap="square"></path>
        <g id="Group-2-Copy-3" transform="translate(459.000000, 484.000000) rotate(-180.000000) translate(-459.000000, -484.000000) translate(370.000000, 464.000000)" stroke="#B4CBFF" stroke-linecap="round" stroke-width="4">
            <path d="M0,40 C0,18.8214753 21.6253323,14.6137058 43.5276535,14.6137058 C83.5035013,14.6137058 89,0 89,0" id="Path-2"></path>
            <path d="M89,40 C89,18.8214753 110.625332,14.6137058 132.527654,14.6137058 C172.503501,14.6137058 178,0 178,0" id="Path-2" transform="translate(133.500000, 20.000000) scale(-1, 1) translate(-133.500000, -20.000000) "></path>
        </g>
        <g id="Group-2-Copy-4" transform="translate(637.250000, 302.511364) rotate(-270.000000) translate(-637.250000, -302.511364) translate(545.750000, 281.511364)" stroke="#B4CBFF" stroke-linecap="round" stroke-width="4">
            <path d="M0,41.5 C0,19.5272807 22.2300243,15.1617198 44.7447827,15.1617198 C85.8384434,15.1617198 91.4886364,0 91.4886364,0" id="Path-2"></path>
            <path d="M91.4886364,41.5 C91.4886364,19.5272807 113.718661,15.1617198 136.233419,15.1617198 C177.32708,15.1617198 182.977273,0 182.977273,0" id="Path-2" transform="translate(137.232955, 20.750000) scale(-1, 1) translate(-137.232955, -20.750000) "></path>
        </g>
        <circle id="Oval" fill="#4C7EF3" cx="304.5" cy="445.5" r="10.5"></circle>
        <path d="M399.182129,534.736328 C399.182129,528.037076 401.048321,521.966824 404.780762,516.525391 L407.959473,516.525391 C404.432111,522.021512 402.668457,528.06442 402.668457,534.654297 C402.668457,537.744156 403.133296,540.861312 404.062988,544.005859 C404.99268,547.150406 406.291496,550.000964 407.959473,552.557617 L404.821777,552.557617 C403.058097,550.110339 401.677251,547.352066 400.679199,544.282715 C399.681147,541.213364 399.182129,538.031266 399.182129,534.736328 Z M418.992676,544.703125 C420.619637,544.703125 422.051752,544.255376 423.289062,543.359863 C424.526373,542.464351 425.322752,541.25782 425.678223,539.740234 L425.678223,535.946289 C425.609863,535.946289 425.196293,535.980468 424.4375,536.048828 C423.678707,536.117188 423.183107,536.158203 422.950684,536.171875 C419.983872,536.431642 417.916021,536.916989 416.74707,537.62793 C415.578119,538.338871 414.993652,539.480461 414.993652,541.052734 C414.993652,542.255865 415.349118,543.165036 416.060059,543.780273 C416.771,544.395511 417.748529,544.703125 418.992676,544.703125 Z M426.437012,547 C426.231933,546.124996 426.033692,545.181646 425.842285,544.169922 C424.598138,545.414069 423.429205,546.275388 422.335449,546.753906 C421.241694,547.232424 419.95655,547.47168 418.47998,547.47168 C416.374501,547.47168 414.682624,546.921392 413.404297,545.820801 C412.12597,544.720209 411.486816,543.137706 411.486816,541.073242 C411.486816,538.776356 412.35839,537.074224 414.101562,535.966797 C415.844735,534.859369 418.356917,534.168947 421.638184,533.895508 C422.089358,533.854492 422.769527,533.796387 423.678711,533.721191 C424.587895,533.645996 425.268064,533.587891 425.719238,533.546875 L425.719238,531.557617 C425.719238,529.971672 425.350101,528.795902 424.611816,528.030273 C423.873531,527.264645 422.711434,526.881836 421.125488,526.881836 C418.910633,526.881836 416.675304,527.428705 414.419434,528.522461 C414.351074,528.358398 414.173341,527.883305 413.88623,527.097168 C413.59912,526.311031 413.448731,525.904297 413.435059,525.876953 C414.43311,525.316403 415.619134,524.868654 416.993164,524.533691 C418.367194,524.198729 419.76513,524.03125 421.187012,524.03125 C423.98976,524.03125 426.009759,524.64306 427.24707,525.866699 C428.484381,527.090338 429.103027,529.17186 429.103027,532.111328 L429.103027,547 L426.437012,547 Z M466.878418,533.157227 L466.878418,536.192383 L445.406738,536.192383 L445.406738,533.157227 L466.878418,533.157227 Z M487.210449,526.881836 C485.03661,526.881836 483.372076,527.630364 482.216797,529.127441 C481.061518,530.624519 480.483887,532.822251 480.483887,535.720703 C480.483887,541.654327 482.719216,544.621094 487.189941,544.621094 C488.297369,544.621094 489.27148,544.392092 490.112305,543.934082 C490.953129,543.476072 491.616209,542.8335 492.101562,542.006348 C492.586916,541.179195 492.949218,540.246099 493.188477,539.207031 C493.427736,538.167964 493.547363,537.012702 493.547363,535.741211 C493.547363,534.018546 493.345705,532.514655 492.942383,531.229492 C492.53906,529.94433 491.852056,528.898442 490.881348,528.091797 C489.91064,527.285152 488.687019,526.881836 487.210449,526.881836 Z M487.559082,524.03125 C489.555186,524.03125 491.277825,524.537104 492.727051,525.548828 C494.176277,526.560552 495.26318,527.934562 495.987793,529.670898 C496.712406,531.407235 497.074707,533.396473 497.074707,535.638672 C497.074707,537.962902 496.715824,540.006827 495.998047,541.770508 C495.28027,543.534189 494.193367,544.925288 492.737305,545.943848 C491.281243,546.962407 489.541514,547.47168 487.518066,547.47168 C486.027825,547.47168 484.667487,547.150394 483.437012,546.507812 C482.206537,545.865231 481.181156,544.99024 480.36084,543.882812 L480.012207,547 L477.07959,547 L477.07959,515.766602 L480.504395,515.561523 L480.504395,523.005859 C480.504395,524.8379 480.477051,526.41015 480.422363,527.722656 C481.215336,526.587885 482.244134,525.688968 483.508789,525.025879 C484.773444,524.36279 486.123528,524.03125 487.559082,524.03125 Z M522.817871,534.736328 C522.817871,538.031266 522.318853,541.209946 521.320801,544.272461 C520.322749,547.334976 518.935067,550.096667 517.157715,552.557617 L514.040527,552.557617 C515.708504,550.000964 517.00732,547.150406 517.937012,544.005859 C518.866704,540.861312 519.331543,537.744156 519.331543,534.654297 C519.331543,528.091764 517.561053,522.048856 514.02002,516.525391 L517.19873,516.525391 C520.944843,522.048856 522.817871,528.119108 522.817871,534.736328 Z" id="(a-–-b-)" fill="#4C7EF3"></path>
        <path d="M437.392578,539.390625 L438.945312,539.390625 L438.945312,554 L437.216797,554 L437.216797,541.197266 C436.559242,541.626955 435.755213,541.99479 434.804688,542.300781 L434.804688,540.669922 C434.908855,540.624349 435.120441,540.533204 435.439453,540.396484 C435.758465,540.259765 435.997721,540.155599 436.157227,540.083984 C436.316733,540.012369 436.516926,539.911459 436.757812,539.78125 C436.998699,539.651041 437.210286,539.520834 437.392578,539.390625 Z" id="1" fill="#4C7EF3"></path>
        <path d="M505.392578,539.390625 L506.945312,539.390625 L506.945312,554 L505.216797,554 L505.216797,541.197266 C504.559242,541.626955 503.755213,541.99479 502.804688,542.300781 L502.804688,540.669922 C502.908855,540.624349 503.120441,540.533204 503.439453,540.396484 C503.758465,540.259765 503.997721,540.155599 504.157227,540.083984 C504.316733,540.012369 504.516926,539.911459 504.757812,539.78125 C504.998699,539.651041 505.210286,539.520834 505.392578,539.390625 Z" id="1" fill="#4C7EF3"></path>
        <path d="M675.182129,303.736328 C675.182129,297.037076 677.048321,290.966824 680.780762,285.525391 L683.959473,285.525391 C680.432111,291.021512 678.668457,297.06442 678.668457,303.654297 C678.668457,306.744156 679.133296,309.861312 680.062988,313.005859 C680.99268,316.150406 682.291496,319.000964 683.959473,321.557617 L680.821777,321.557617 C679.058097,319.110339 677.677251,316.352066 676.679199,313.282715 C675.681147,310.213364 675.182129,307.031266 675.182129,303.736328 Z M694.992676,313.703125 C696.619637,313.703125 698.051752,313.255376 699.289062,312.359863 C700.526373,311.464351 701.322752,310.25782 701.678223,308.740234 L701.678223,304.946289 C701.609863,304.946289 701.196293,304.980468 700.4375,305.048828 C699.678707,305.117188 699.183107,305.158203 698.950684,305.171875 C695.983872,305.431642 693.916021,305.916989 692.74707,306.62793 C691.578119,307.338871 690.993652,308.480461 690.993652,310.052734 C690.993652,311.255865 691.349118,312.165036 692.060059,312.780273 C692.771,313.395511 693.748529,313.703125 694.992676,313.703125 Z M702.437012,316 C702.231933,315.124996 702.033692,314.181646 701.842285,313.169922 C700.598138,314.414069 699.429205,315.275388 698.335449,315.753906 C697.241694,316.232424 695.95655,316.47168 694.47998,316.47168 C692.374501,316.47168 690.682624,315.921392 689.404297,314.820801 C688.12597,313.720209 687.486816,312.137706 687.486816,310.073242 C687.486816,307.776356 688.35839,306.074224 690.101562,304.966797 C691.844735,303.859369 694.356917,303.168947 697.638184,302.895508 C698.089358,302.854492 698.769527,302.796387 699.678711,302.721191 C700.587895,302.645996 701.268064,302.587891 701.719238,302.546875 L701.719238,300.557617 C701.719238,298.971672 701.350101,297.795902 700.611816,297.030273 C699.873531,296.264645 698.711434,295.881836 697.125488,295.881836 C694.910633,295.881836 692.675304,296.428705 690.419434,297.522461 C690.351074,297.358398 690.173341,296.883305 689.88623,296.097168 C689.59912,295.311031 689.448731,294.904297 689.435059,294.876953 C690.43311,294.316403 691.619134,293.868654 692.993164,293.533691 C694.367194,293.198729 695.76513,293.03125 697.187012,293.03125 C699.98976,293.03125 702.009759,293.64306 703.24707,294.866699 C704.484381,296.090338 705.103027,298.17186 705.103027,301.111328 L705.103027,316 L702.437012,316 Z M742.878418,302.157227 L742.878418,305.192383 L721.406738,305.192383 L721.406738,302.157227 L742.878418,302.157227 Z M763.210449,295.881836 C761.03661,295.881836 759.372076,296.630364 758.216797,298.127441 C757.061518,299.624519 756.483887,301.822251 756.483887,304.720703 C756.483887,310.654327 758.719216,313.621094 763.189941,313.621094 C764.297369,313.621094 765.27148,313.392092 766.112305,312.934082 C766.953129,312.476072 767.616209,311.8335 768.101562,311.006348 C768.586916,310.179195 768.949218,309.246099 769.188477,308.207031 C769.427736,307.167964 769.547363,306.012702 769.547363,304.741211 C769.547363,303.018546 769.345705,301.514655 768.942383,300.229492 C768.53906,298.94433 767.852056,297.898442 766.881348,297.091797 C765.91064,296.285152 764.687019,295.881836 763.210449,295.881836 Z M763.559082,293.03125 C765.555186,293.03125 767.277825,293.537104 768.727051,294.548828 C770.176277,295.560552 771.26318,296.934562 771.987793,298.670898 C772.712406,300.407235 773.074707,302.396473 773.074707,304.638672 C773.074707,306.962902 772.715824,309.006827 771.998047,310.770508 C771.28027,312.534189 770.193367,313.925288 768.737305,314.943848 C767.281243,315.962407 765.541514,316.47168 763.518066,316.47168 C762.027825,316.47168 760.667487,316.150394 759.437012,315.507812 C758.206537,314.865231 757.181156,313.99024 756.36084,312.882812 L756.012207,316 L753.07959,316 L753.07959,284.766602 L756.504395,284.561523 L756.504395,292.005859 C756.504395,293.8379 756.477051,295.41015 756.422363,296.722656 C757.215336,295.587885 758.244134,294.688968 759.508789,294.025879 C760.773444,293.36279 762.123528,293.03125 763.559082,293.03125 Z M798.817871,303.736328 C798.817871,307.031266 798.318853,310.209946 797.320801,313.272461 C796.322749,316.334976 794.935067,319.096667 793.157715,321.557617 L790.040527,321.557617 C791.708504,319.000964 793.00732,316.150406 793.937012,313.005859 C794.866704,309.861312 795.331543,306.744156 795.331543,303.654297 C795.331543,297.091764 793.561053,291.048856 790.02002,285.525391 L793.19873,285.525391 C796.944843,291.048856 798.817871,297.119108 798.817871,303.736328 Z" id="(a-–-b-)" fill="#4C7EF3"></path>
        <path d="M709.154297,323 L708.929688,321.398438 L713.978516,315.792969 C714.317059,315.415363 714.644204,314.927086 714.959961,314.328125 C715.275718,313.729164 715.505208,313.221356 715.648438,312.804688 L715.873047,312.189453 C715.873047,311.382157 715.64844,310.755536 715.199219,310.30957 C714.749998,309.863605 714.111983,309.640625 713.285156,309.640625 C711.904941,309.640625 710.817712,310.041012 710.023438,310.841797 L709.457031,309.376953 C710.355473,308.530595 711.670564,308.107422 713.402344,308.107422 C714.730475,308.107422 715.788408,308.467119 716.576172,309.186523 C717.363936,309.905928 717.757812,310.867833 717.757812,312.072266 C717.731771,312.163412 717.692709,312.285481 717.640625,312.438477 C717.588541,312.591472 717.476238,312.889321 717.303711,313.332031 C717.131184,313.774742 716.950522,314.194659 716.761719,314.591797 C716.572916,314.988934 716.33366,315.425128 716.043945,315.900391 C715.75423,316.375653 715.459637,316.772785 715.160156,317.091797 L711.039062,321.496094 L717.806641,321.496094 L717.699219,323 L709.154297,323 Z" id="2" fill="#4C7EF3"></path>
        <path d="M777.154297,323 L776.929688,321.398438 L781.978516,315.792969 C782.317059,315.415363 782.644204,314.927086 782.959961,314.328125 C783.275718,313.729164 783.505208,313.221356 783.648438,312.804688 L783.873047,312.189453 C783.873047,311.382157 783.64844,310.755536 783.199219,310.30957 C782.749998,309.863605 782.111983,309.640625 781.285156,309.640625 C779.904941,309.640625 778.817712,310.041012 778.023438,310.841797 L777.457031,309.376953 C778.355473,308.530595 779.670564,308.107422 781.402344,308.107422 C782.730475,308.107422 783.788408,308.467119 784.576172,309.186523 C785.363936,309.905928 785.757812,310.867833 785.757812,312.072266 C785.731771,312.163412 785.692709,312.285481 785.640625,312.438477 C785.588541,312.591472 785.476238,312.889321 785.303711,313.332031 C785.131184,313.774742 784.950522,314.194659 784.761719,314.591797 C784.572916,314.988934 784.33366,315.425128 784.043945,315.900391 C783.75423,316.375653 783.459637,316.772785 783.160156,317.091797 L779.039062,321.496094 L785.806641,321.496094 L785.699219,323 L777.154297,323 Z" id="2" fill="#4C7EF3"></path>
        <path d="M261.154297,460 L260.929688,458.398438 L265.978516,452.792969 C266.317059,452.415363 266.644204,451.927086 266.959961,451.328125 C267.275718,450.729164 267.505208,450.221356 267.648438,449.804688 L267.873047,449.189453 C267.873047,448.382157 267.64844,447.755536 267.199219,447.30957 C266.749998,446.863605 266.111983,446.640625 265.285156,446.640625 C263.904941,446.640625 262.817712,447.041012 262.023438,447.841797 L261.457031,446.376953 C262.355473,445.530595 263.670564,445.107422 265.402344,445.107422 C266.730475,445.107422 267.788408,445.467119 268.576172,446.186523 C269.363936,446.905928 269.757812,447.867833 269.757812,449.072266 C269.731771,449.163412 269.692709,449.285481 269.640625,449.438477 C269.588541,449.591472 269.476238,449.889321 269.303711,450.332031 C269.131184,450.774742 268.950522,451.194659 268.761719,451.591797 C268.572916,451.988934 268.33366,452.425128 268.043945,452.900391 C267.75423,453.375653 267.459637,453.772785 267.160156,454.091797 L263.039062,458.496094 L269.806641,458.496094 L269.699219,460 L261.154297,460 Z" id="2" fill="#4C7EF3"></path>
        <path d="M215.392578,445.390625 L216.945312,445.390625 L216.945312,460 L215.216797,460 L215.216797,447.197266 C214.559242,447.626955 213.755213,447.99479 212.804688,448.300781 L212.804688,446.669922 C212.908855,446.624349 213.120441,446.533204 213.439453,446.396484 C213.758465,446.259765 213.997721,446.155599 214.157227,446.083984 C214.316733,446.012369 214.516926,445.911459 214.757812,445.78125 C214.998699,445.651041 215.210286,445.520834 215.392578,445.390625 Z" id="1" fill="#4C7EF3"></path>
        <path d="M181.203125,443.65625 C181.203125,438.552058 182.624986,433.927104 185.46875,429.78125 L187.890625,429.78125 C185.203112,433.968771 183.859375,438.572892 183.859375,443.59375 C183.859375,445.947928 184.213538,448.322905 184.921875,450.71875 C185.630212,453.114595 186.619785,455.286449 187.890625,457.234375 L185.5,457.234375 C184.156243,455.369782 183.10417,453.268241 182.34375,450.929688 C181.58333,448.591134 181.203125,446.166679 181.203125,443.65625 Z M199.140625,437.671875 C197.484367,437.671875 196.21615,438.242182 195.335938,439.382812 C194.455725,440.523443 194.015625,442.197906 194.015625,444.40625 C194.015625,448.927106 195.718733,451.1875 199.125,451.1875 C199.968754,451.1875 200.710934,451.013023 201.351562,450.664062 C201.992191,450.315102 202.497394,449.825524 202.867188,449.195312 C203.236981,448.565101 203.51302,447.854171 203.695312,447.0625 C203.877605,446.270829 203.96875,445.39063 203.96875,444.421875 C203.96875,443.109368 203.815106,441.963547 203.507812,440.984375 C203.200519,440.005203 202.677087,439.208336 201.9375,438.59375 C201.197913,437.979164 200.265631,437.671875 199.140625,437.671875 Z M199.40625,435.5 C200.927091,435.5 202.239578,435.885413 203.34375,436.65625 C204.447922,437.427087 205.276039,438.473952 205.828125,439.796875 C206.380211,441.119798 206.65625,442.635408 206.65625,444.34375 C206.65625,446.114592 206.382815,447.671868 205.835938,449.015625 C205.28906,450.359382 204.460943,451.419267 203.351562,452.195312 C202.242182,452.971358 200.916674,453.359375 199.375,453.359375 C198.239578,453.359375 197.20313,453.114586 196.265625,452.625 C195.32812,452.135414 194.546878,451.468754 193.921875,450.625 L193.65625,453 L191.421875,453 L191.421875,429.203125 L194.03125,429.046875 L194.03125,434.71875 C194.03125,436.11459 194.010417,437.312495 193.96875,438.3125 C194.57292,437.447912 195.356766,436.763023 196.320312,436.257812 C197.283859,435.752602 198.312495,435.5 199.40625,435.5 Z M225.765625,457.34375 C225.796875,457.041665 225.88802,456.242194 226.039062,454.945312 C226.190105,453.648431 226.307291,452.557296 226.390625,451.671875 C226.473959,450.786454 226.536458,450.01042 226.578125,449.34375 L229.65625,449.34375 L229.65625,450.03125 C229.145831,452.09376 228.395838,454.531236 227.40625,457.34375 L225.765625,457.34375 Z M249.96875,437.671875 C248.312492,437.671875 247.044275,438.242182 246.164062,439.382812 C245.28385,440.523443 244.84375,442.197906 244.84375,444.40625 C244.84375,448.927106 246.546858,451.1875 249.953125,451.1875 C250.796879,451.1875 251.539059,451.013023 252.179688,450.664062 C252.820316,450.315102 253.325519,449.825524 253.695312,449.195312 C254.065106,448.565101 254.341145,447.854171 254.523438,447.0625 C254.70573,446.270829 254.796875,445.39063 254.796875,444.421875 C254.796875,443.109368 254.643231,441.963547 254.335938,440.984375 C254.028644,440.005203 253.505212,439.208336 252.765625,438.59375 C252.026038,437.979164 251.093756,437.671875 249.96875,437.671875 Z M250.234375,435.5 C251.755216,435.5 253.067703,435.885413 254.171875,436.65625 C255.276047,437.427087 256.104164,438.473952 256.65625,439.796875 C257.208336,441.119798 257.484375,442.635408 257.484375,444.34375 C257.484375,446.114592 257.21094,447.671868 256.664062,449.015625 C256.117185,450.359382 255.289068,451.419267 254.179688,452.195312 C253.070307,452.971358 251.744799,453.359375 250.203125,453.359375 C249.067703,453.359375 248.031255,453.114586 247.09375,452.625 C246.156245,452.135414 245.375003,451.468754 244.75,450.625 L244.484375,453 L242.25,453 L242.25,429.203125 L244.859375,429.046875 L244.859375,434.71875 C244.859375,436.11459 244.838542,437.312495 244.796875,438.3125 C245.401045,437.447912 246.184891,436.763023 247.148438,436.257812 C248.111984,435.752602 249.14062,435.5 250.234375,435.5 Z M282.796875,443.65625 C282.796875,446.166679 282.41667,448.58853 281.65625,450.921875 C280.89583,453.25522 279.838548,455.359366 278.484375,457.234375 L276.109375,457.234375 C277.380215,455.286449 278.369788,453.114595 279.078125,450.71875 C279.786462,448.322905 280.140625,445.947928 280.140625,443.59375 C280.140625,438.593725 278.79168,433.989604 276.09375,429.78125 L278.515625,429.78125 C281.369806,433.989604 282.796875,438.614558 282.796875,443.65625 Z" id="(b-,-b-)" fill="#4C7EF3"></path>
        <path d="M558.53125,104.65625 C558.53125,99.5520578 559.953111,94.9271041 562.796875,90.78125 L565.21875,90.78125 C562.531237,94.9687709 561.1875,99.5728916 561.1875,104.59375 C561.1875,106.947928 561.541663,109.322905 562.25,111.71875 C562.958337,114.114595 563.94791,116.286449 565.21875,118.234375 L562.828125,118.234375 C561.484368,116.369782 560.432295,114.268241 559.671875,111.929688 C558.911455,109.591134 558.53125,107.166679 558.53125,104.65625 Z M573.625,112.25 C574.86459,112.25 575.955724,111.908858 576.898438,111.226562 C577.841151,110.544267 578.447915,109.625006 578.71875,108.46875 L578.71875,105.578125 C578.666666,105.578125 578.351565,105.604166 577.773438,105.65625 C577.19531,105.708334 576.817709,105.739583 576.640625,105.75 C574.380197,105.947918 572.804692,106.317706 571.914062,106.859375 C571.023433,107.401044 570.578125,108.270827 570.578125,109.46875 C570.578125,110.385421 570.848956,111.078123 571.390625,111.546875 C571.932294,112.015627 572.677079,112.25 573.625,112.25 Z M579.296875,114 C579.140624,113.33333 578.989584,112.614587 578.84375,111.84375 C577.895829,112.791671 577.005212,113.447915 576.171875,113.8125 C575.338538,114.177085 574.359381,114.359375 573.234375,114.359375 C571.6302,114.359375 570.341151,113.940108 569.367188,113.101562 C568.393224,112.263017 567.90625,111.0573 567.90625,109.484375 C567.90625,107.734366 568.570306,106.437504 569.898438,105.59375 C571.226569,104.749996 573.140612,104.223959 575.640625,104.015625 C575.984377,103.984375 576.502601,103.940104 577.195312,103.882812 C577.888024,103.825521 578.406248,103.78125 578.75,103.75 L578.75,102.234375 C578.75,101.026036 578.468753,100.130211 577.90625,99.546875 C577.343747,98.9635387 576.458339,98.671875 575.25,98.671875 C573.562492,98.671875 571.859384,99.0885375 570.140625,99.921875 C570.088541,99.7968744 569.953126,99.4348988 569.734375,98.8359375 C569.515624,98.2369762 569.401042,97.9270834 569.390625,97.90625 C570.151045,97.4791645 571.054682,97.1380221 572.101562,96.8828125 C573.148443,96.6276029 574.213536,96.5 575.296875,96.5 C577.432302,96.5 578.971349,96.9661412 579.914062,97.8984375 C580.856776,98.8307338 581.328125,100.416655 581.328125,102.65625 L581.328125,114 L579.296875,114 Z M601.265625,118.34375 C601.296875,118.041665 601.38802,117.242194 601.539062,115.945312 C601.690105,114.648431 601.807291,113.557296 601.890625,112.671875 C601.973959,111.786454 602.036458,111.01042 602.078125,110.34375 L605.15625,110.34375 L605.15625,111.03125 C604.645831,113.09376 603.895838,115.531236 602.90625,118.34375 L601.265625,118.34375 Z M622.625,112.25 C623.86459,112.25 624.955724,111.908858 625.898438,111.226562 C626.841151,110.544267 627.447915,109.625006 627.71875,108.46875 L627.71875,105.578125 C627.666666,105.578125 627.351565,105.604166 626.773438,105.65625 C626.19531,105.708334 625.817709,105.739583 625.640625,105.75 C623.380197,105.947918 621.804692,106.317706 620.914062,106.859375 C620.023433,107.401044 619.578125,108.270827 619.578125,109.46875 C619.578125,110.385421 619.848956,111.078123 620.390625,111.546875 C620.932294,112.015627 621.677079,112.25 622.625,112.25 Z M628.296875,114 C628.140624,113.33333 627.989584,112.614587 627.84375,111.84375 C626.895829,112.791671 626.005212,113.447915 625.171875,113.8125 C624.338538,114.177085 623.359381,114.359375 622.234375,114.359375 C620.6302,114.359375 619.341151,113.940108 618.367188,113.101562 C617.393224,112.263017 616.90625,111.0573 616.90625,109.484375 C616.90625,107.734366 617.570306,106.437504 618.898438,105.59375 C620.226569,104.749996 622.140612,104.223959 624.640625,104.015625 C624.984377,103.984375 625.502601,103.940104 626.195312,103.882812 C626.888024,103.825521 627.406248,103.78125 627.75,103.75 L627.75,102.234375 C627.75,101.026036 627.468753,100.130211 626.90625,99.546875 C626.343747,98.9635387 625.458339,98.671875 624.25,98.671875 C622.562492,98.671875 620.859384,99.0885375 619.140625,99.921875 C619.088541,99.7968744 618.953126,99.4348988 618.734375,98.8359375 C618.515624,98.2369762 618.401042,97.9270834 618.390625,97.90625 C619.151045,97.4791645 620.054682,97.1380221 621.101562,96.8828125 C622.148443,96.6276029 623.213536,96.5 624.296875,96.5 C626.432302,96.5 627.971349,96.9661412 628.914062,97.8984375 C629.856776,98.8307338 630.328125,100.416655 630.328125,102.65625 L630.328125,114 L628.296875,114 Z M656.46875,104.65625 C656.46875,107.166679 656.088545,109.58853 655.328125,111.921875 C654.567705,114.25522 653.510423,116.359366 652.15625,118.234375 L649.78125,118.234375 C651.05209,116.286449 652.041663,114.114595 652.75,111.71875 C653.458337,109.322905 653.8125,106.947928 653.8125,104.59375 C653.8125,99.593725 652.463555,94.9896044 649.765625,90.78125 L652.1875,90.78125 C655.041681,94.9896044 656.46875,99.6145581 656.46875,104.65625 Z" id="(a-,-a-)" fill="#4C7EF3"></path>
        <path d="M591.392578,104.390625 L592.945312,104.390625 L592.945312,119 L591.216797,119 L591.216797,106.197266 C590.559242,106.626955 589.755213,106.99479 588.804688,107.300781 L588.804688,105.669922 C588.908855,105.624349 589.120441,105.533204 589.439453,105.396484 C589.758465,105.259765 589.997721,105.155599 590.157227,105.083984 C590.316733,105.012369 590.516926,104.911459 590.757812,104.78125 C590.998699,104.651041 591.210286,104.520834 591.392578,104.390625 Z" id="1" fill="#4C7EF3"></path>
        <path d="M636.154297,119 L635.929688,117.398438 L640.978516,111.792969 C641.317059,111.415363 641.644204,110.927086 641.959961,110.328125 C642.275718,109.729164 642.505208,109.221356 642.648438,108.804688 L642.873047,108.189453 C642.873047,107.382157 642.64844,106.755536 642.199219,106.30957 C641.749998,105.863605 641.111983,105.640625 640.285156,105.640625 C638.904941,105.640625 637.817712,106.041012 637.023438,106.841797 L636.457031,105.376953 C637.355473,104.530595 638.670564,104.107422 640.402344,104.107422 C641.730475,104.107422 642.788408,104.467119 643.576172,105.186523 C644.363936,105.905928 644.757812,106.867833 644.757812,108.072266 C644.731771,108.163412 644.692709,108.285481 644.640625,108.438477 C644.588541,108.591472 644.476238,108.889321 644.303711,109.332031 C644.131184,109.774742 643.950522,110.194659 643.761719,110.591797 C643.572916,110.988934 643.33366,111.425128 643.043945,111.900391 C642.75423,112.375653 642.459637,112.772785 642.160156,113.091797 L638.039062,117.496094 L644.806641,117.496094 L644.699219,119 L636.154297,119 Z" id="2" fill="#4C7EF3"></path>
    </g>
</svg>