<?xml version="1.0" encoding="UTF-8"?>
<svg width="901px" height="600px" viewBox="0 0 901 600" version="1.1" xmlns="http://www.w3.org/2000/svg" xmlns:xlink="http://www.w3.org/1999/xlink">
    <!-- Generator: Sketch 51.3 (57544) - http://www.bohemiancoding.com/sketch -->
    <title>manhattan distance v2</title>
    <desc>Created with Sketch.</desc>
    <defs></defs>
    <g id="manhattan-distance-v2" stroke="none" stroke-width="1" fill="none" fill-rule="evenodd">
        <rect fill="#FFFFFF" x="0" y="0" width="901" height="600"></rect>
        <rect id="Rectangle" fill="#FAFAFA" x="-3" y="0" width="901" height="745"></rect>
        <g id="Group-4" transform="translate(0.000000, -1.000000)" fill-rule="nonzero" stroke="#DBE5FD" stroke-linecap="square" stroke-width="3">
            <path d="M145.5,0.570552147 L145.5,743.429448" id="Line-3"></path>
            <path d="M300.5,0.570868345 L300.5,743.841453" id="Line-3-Copy"></path>
            <path d="M451.5,1.71260503 L451.5,744.98319" id="Line-3-Copy-2"></path>
            <path d="M605.5,1.71260503 L605.5,744.98319" id="Line-3-Copy-3"></path>
            <path d="M756.5,0.570868345 L756.5,743.841453" id="Line-3-Copy-4"></path>
            <path d="M0,145 L902.5,145" id="Line-3-Copy-4"></path>
            <path d="M0,296.25 L902.5,296.25" id="Line-3-Copy-5"></path>
            <path d="M0,448.25 L902.5,448.25" id="Line-3-Copy-6"></path>
            <path d="M0,600.25 L902.5,600.25" id="Line-3-Copy-7"></path>
        </g>
        <path d="M397.879395,482.618164 L400.853027,482.618164 L400.853027,523.203125 L397.879395,523.203125 L397.879395,482.618164 Z M416.992676,512.703125 C418.619637,512.703125 420.051752,512.255376 421.289062,511.359863 C422.526373,510.464351 423.322752,509.25782 423.678223,507.740234 L423.678223,503.946289 C423.609863,503.946289 423.196293,503.980468 422.4375,504.048828 C421.678707,504.117188 421.183107,504.158203 420.950684,504.171875 C417.983872,504.431642 415.916021,504.916989 414.74707,505.62793 C413.578119,506.338871 412.993652,507.480461 412.993652,509.052734 C412.993652,510.255865 413.349118,511.165036 414.060059,511.780273 C414.771,512.395511 415.748529,512.703125 416.992676,512.703125 Z M424.437012,515 C424.231933,514.124996 424.033692,513.181646 423.842285,512.169922 C422.598138,513.414069 421.429205,514.275388 420.335449,514.753906 C419.241694,515.232424 417.95655,515.47168 416.47998,515.47168 C414.374501,515.47168 412.682624,514.921392 411.404297,513.820801 C410.12597,512.720209 409.486816,511.137706 409.486816,509.073242 C409.486816,506.776356 410.35839,505.074224 412.101562,503.966797 C413.844735,502.859369 416.356917,502.168947 419.638184,501.895508 C420.089358,501.854492 420.769527,501.796387 421.678711,501.721191 C422.587895,501.645996 423.268064,501.587891 423.719238,501.546875 L423.719238,499.557617 C423.719238,497.971672 423.350101,496.795902 422.611816,496.030273 C421.873531,495.264645 420.711434,494.881836 419.125488,494.881836 C416.910633,494.881836 414.675304,495.428705 412.419434,496.522461 C412.351074,496.358398 412.173341,495.883305 411.88623,495.097168 C411.59912,494.311031 411.448731,493.904297 411.435059,493.876953 C412.43311,493.316403 413.619134,492.868654 414.993164,492.533691 C416.367194,492.198729 417.76513,492.03125 419.187012,492.03125 C421.98976,492.03125 424.009759,492.64306 425.24707,493.866699 C426.484381,495.090338 427.103027,497.17186 427.103027,500.111328 L427.103027,515 L424.437012,515 Z M464.878418,501.157227 L464.878418,504.192383 L443.406738,504.192383 L443.406738,501.157227 L464.878418,501.157227 Z M485.210449,494.881836 C483.03661,494.881836 481.372076,495.630364 480.216797,497.127441 C479.061518,498.624519 478.483887,500.822251 478.483887,503.720703 C478.483887,509.654327 480.719216,512.621094 485.189941,512.621094 C486.297369,512.621094 487.27148,512.392092 488.112305,511.934082 C488.953129,511.476072 489.616209,510.8335 490.101562,510.006348 C490.586916,509.179195 490.949218,508.246099 491.188477,507.207031 C491.427736,506.167964 491.547363,505.012702 491.547363,503.741211 C491.547363,502.018546 491.345705,500.514655 490.942383,499.229492 C490.53906,497.94433 489.852056,496.898442 488.881348,496.091797 C487.91064,495.285152 486.687019,494.881836 485.210449,494.881836 Z M485.559082,492.03125 C487.555186,492.03125 489.277825,492.537104 490.727051,493.548828 C492.176277,494.560552 493.26318,495.934562 493.987793,497.670898 C494.712406,499.407235 495.074707,501.396473 495.074707,503.638672 C495.074707,505.962902 494.715824,508.006827 493.998047,509.770508 C493.28027,511.534189 492.193367,512.925288 490.737305,513.943848 C489.281243,514.962407 487.541514,515.47168 485.518066,515.47168 C484.027825,515.47168 482.667487,515.150394 481.437012,514.507812 C480.206537,513.865231 479.181156,512.99024 478.36084,511.882812 L478.012207,515 L475.07959,515 L475.07959,483.766602 L478.504395,483.561523 L478.504395,491.005859 C478.504395,492.8379 478.477051,494.41015 478.422363,495.722656 C479.215336,494.587885 480.244134,493.688968 481.508789,493.025879 C482.773444,492.36279 484.123528,492.03125 485.559082,492.03125 Z M517.146973,482.618164 L520.120605,482.618164 L520.120605,523.203125 L517.146973,523.203125 L517.146973,482.618164 Z" id="|a-–-b-|" fill="#4C7EF3"></path>
        <path d="M436.392578,507.390625 L437.945312,507.390625 L437.945312,522 L436.216797,522 L436.216797,509.197266 C435.559242,509.626955 434.755213,509.99479 433.804688,510.300781 L433.804688,508.669922 C433.908855,508.624349 434.120441,508.533204 434.439453,508.396484 C434.758465,508.259765 434.997721,508.155599 435.157227,508.083984 C435.316733,508.012369 435.516926,507.911459 435.757812,507.78125 C435.998699,507.651041 436.210286,507.520834 436.392578,507.390625 Z" id="1" fill="#4C7EF3"></path>
        <path d="M504.392578,507.390625 L505.945312,507.390625 L505.945312,522 L504.216797,522 L504.216797,509.197266 C503.559242,509.626955 502.755213,509.99479 501.804688,510.300781 L501.804688,508.669922 C501.908855,508.624349 502.120441,508.533204 502.439453,508.396484 C502.758465,508.259765 502.997721,508.155599 503.157227,508.083984 C503.316733,508.012369 503.516926,507.911459 503.757812,507.78125 C503.998699,507.651041 504.210286,507.520834 504.392578,507.390625 Z" id="1" fill="#4C7EF3"></path>
        <path d="M261.154297,460 L260.929688,458.398438 L265.978516,452.792969 C266.317059,452.415363 266.644204,451.927086 266.959961,451.328125 C267.275718,450.729164 267.505208,450.221356 267.648438,449.804688 L267.873047,449.189453 C267.873047,448.382157 267.64844,447.755536 267.199219,447.30957 C266.749998,446.863605 266.111983,446.640625 265.285156,446.640625 C263.904941,446.640625 262.817712,447.041012 262.023438,447.841797 L261.457031,446.376953 C262.355473,445.530595 263.670564,445.107422 265.402344,445.107422 C266.730475,445.107422 267.788408,445.467119 268.576172,446.186523 C269.363936,446.905928 269.757812,447.867833 269.757812,449.072266 C269.731771,449.163412 269.692709,449.285481 269.640625,449.438477 C269.588541,449.591472 269.476238,449.889321 269.303711,450.332031 C269.131184,450.774742 268.950522,451.194659 268.761719,451.591797 C268.572916,451.988934 268.33366,452.425128 268.043945,452.900391 C267.75423,453.375653 267.459637,453.772785 267.160156,454.091797 L263.039062,458.496094 L269.806641,458.496094 L269.699219,460 L261.154297,460 Z" id="2" fill="#4C7EF3"></path>
        <path d="M215.392578,445.390625 L216.945312,445.390625 L216.945312,460 L215.216797,460 L215.216797,447.197266 C214.559242,447.626955 213.755213,447.99479 212.804688,448.300781 L212.804688,446.669922 C212.908855,446.624349 213.120441,446.533204 213.439453,446.396484 C213.758465,446.259765 213.997721,446.155599 214.157227,446.083984 C214.316733,446.012369 214.516926,445.911459 214.757812,445.78125 C214.998699,445.651041 215.210286,445.520834 215.392578,445.390625 Z" id="1" fill="#4C7EF3"></path>
        <path d="M603,444 L597,450 L597,444 L603,444 Z M597,157.060811 L603,151 L603,450 L307,450 L312.939799,444 L597,444 L597,157.060811 Z M603,444 L597,450 L597,444 L603,444 Z M597,157.060811 L603,151 L603,450 L307,450 L312.939799,444 L597,444 L597,157.060811 Z" id="Rectangle-3" fill="#4C7EF3" fill-rule="nonzero"></path>
        <circle id="Oval" fill="#4C7EF3" cx="304.5" cy="445.5" r="10.5"></circle>
        <path d="M181.203125,443.65625 C181.203125,438.552058 182.624986,433.927104 185.46875,429.78125 L187.890625,429.78125 C185.203112,433.968771 183.859375,438.572892 183.859375,443.59375 C183.859375,445.947928 184.213538,448.322905 184.921875,450.71875 C185.630212,453.114595 186.619785,455.286449 187.890625,457.234375 L185.5,457.234375 C184.156243,455.369782 183.10417,453.268241 182.34375,450.929688 C181.58333,448.591134 181.203125,446.166679 181.203125,443.65625 Z M199.140625,437.671875 C197.484367,437.671875 196.21615,438.242182 195.335938,439.382812 C194.455725,440.523443 194.015625,442.197906 194.015625,444.40625 C194.015625,448.927106 195.718733,451.1875 199.125,451.1875 C199.968754,451.1875 200.710934,451.013023 201.351562,450.664062 C201.992191,450.315102 202.497394,449.825524 202.867188,449.195312 C203.236981,448.565101 203.51302,447.854171 203.695312,447.0625 C203.877605,446.270829 203.96875,445.39063 203.96875,444.421875 C203.96875,443.109368 203.815106,441.963547 203.507812,440.984375 C203.200519,440.005203 202.677087,439.208336 201.9375,438.59375 C201.197913,437.979164 200.265631,437.671875 199.140625,437.671875 Z M199.40625,435.5 C200.927091,435.5 202.239578,435.885413 203.34375,436.65625 C204.447922,437.427087 205.276039,438.473952 205.828125,439.796875 C206.380211,441.119798 206.65625,442.635408 206.65625,444.34375 C206.65625,446.114592 206.382815,447.671868 205.835938,449.015625 C205.28906,450.359382 204.460943,451.419267 203.351562,452.195312 C202.242182,452.971358 200.916674,453.359375 199.375,453.359375 C198.239578,453.359375 197.20313,453.114586 196.265625,452.625 C195.32812,452.135414 194.546878,451.468754 193.921875,450.625 L193.65625,453 L191.421875,453 L191.421875,429.203125 L194.03125,429.046875 L194.03125,434.71875 C194.03125,436.11459 194.010417,437.312495 193.96875,438.3125 C194.57292,437.447912 195.356766,436.763023 196.320312,436.257812 C197.283859,435.752602 198.312495,435.5 199.40625,435.5 Z M225.765625,457.34375 C225.796875,457.041665 225.88802,456.242194 226.039062,454.945312 C226.190105,453.648431 226.307291,452.557296 226.390625,451.671875 C226.473959,450.786454 226.536458,450.01042 226.578125,449.34375 L229.65625,449.34375 L229.65625,450.03125 C229.145831,452.09376 228.395838,454.531236 227.40625,457.34375 L225.765625,457.34375 Z M249.96875,437.671875 C248.312492,437.671875 247.044275,438.242182 246.164062,439.382812 C245.28385,440.523443 244.84375,442.197906 244.84375,444.40625 C244.84375,448.927106 246.546858,451.1875 249.953125,451.1875 C250.796879,451.1875 251.539059,451.013023 252.179688,450.664062 C252.820316,450.315102 253.325519,449.825524 253.695312,449.195312 C254.065106,448.565101 254.341145,447.854171 254.523438,447.0625 C254.70573,446.270829 254.796875,445.39063 254.796875,444.421875 C254.796875,443.109368 254.643231,441.963547 254.335938,440.984375 C254.028644,440.005203 253.505212,439.208336 252.765625,438.59375 C252.026038,437.979164 251.093756,437.671875 249.96875,437.671875 Z M250.234375,435.5 C251.755216,435.5 253.067703,435.885413 254.171875,436.65625 C255.276047,437.427087 256.104164,438.473952 256.65625,439.796875 C257.208336,441.119798 257.484375,442.635408 257.484375,444.34375 C257.484375,446.114592 257.21094,447.671868 256.664062,449.015625 C256.117185,450.359382 255.289068,451.419267 254.179688,452.195312 C253.070307,452.971358 251.744799,453.359375 250.203125,453.359375 C249.067703,453.359375 248.031255,453.114586 247.09375,452.625 C246.156245,452.135414 245.375003,451.468754 244.75,450.625 L244.484375,453 L242.25,453 L242.25,429.203125 L244.859375,429.046875 L244.859375,434.71875 C244.859375,436.11459 244.838542,437.312495 244.796875,438.3125 C245.401045,437.447912 246.184891,436.763023 247.148438,436.257812 C248.111984,435.752602 249.14062,435.5 250.234375,435.5 Z M282.796875,443.65625 C282.796875,446.166679 282.41667,448.58853 281.65625,450.921875 C280.89583,453.25522 279.838548,455.359366 278.484375,457.234375 L276.109375,457.234375 C277.380215,455.286449 278.369788,453.114595 279.078125,450.71875 C279.786462,448.322905 280.140625,445.947928 280.140625,443.59375 C280.140625,438.593725 278.79168,433.989604 276.09375,429.78125 L278.515625,429.78125 C281.369806,433.989604 282.796875,438.614558 282.796875,443.65625 Z" id="(b-,-b-)" fill="#4C7EF3"></path>
        <circle id="Oval-Copy" fill="#4C7EF3" cx="599.5" cy="146.5" r="10.5"></circle>
        <path d="M558.53125,104.65625 C558.53125,99.5520578 559.953111,94.9271041 562.796875,90.78125 L565.21875,90.78125 C562.531237,94.9687709 561.1875,99.5728916 561.1875,104.59375 C561.1875,106.947928 561.541663,109.322905 562.25,111.71875 C562.958337,114.114595 563.94791,116.286449 565.21875,118.234375 L562.828125,118.234375 C561.484368,116.369782 560.432295,114.268241 559.671875,111.929688 C558.911455,109.591134 558.53125,107.166679 558.53125,104.65625 Z M573.625,112.25 C574.86459,112.25 575.955724,111.908858 576.898438,111.226562 C577.841151,110.544267 578.447915,109.625006 578.71875,108.46875 L578.71875,105.578125 C578.666666,105.578125 578.351565,105.604166 577.773438,105.65625 C577.19531,105.708334 576.817709,105.739583 576.640625,105.75 C574.380197,105.947918 572.804692,106.317706 571.914062,106.859375 C571.023433,107.401044 570.578125,108.270827 570.578125,109.46875 C570.578125,110.385421 570.848956,111.078123 571.390625,111.546875 C571.932294,112.015627 572.677079,112.25 573.625,112.25 Z M579.296875,114 C579.140624,113.33333 578.989584,112.614587 578.84375,111.84375 C577.895829,112.791671 577.005212,113.447915 576.171875,113.8125 C575.338538,114.177085 574.359381,114.359375 573.234375,114.359375 C571.6302,114.359375 570.341151,113.940108 569.367188,113.101562 C568.393224,112.263017 567.90625,111.0573 567.90625,109.484375 C567.90625,107.734366 568.570306,106.437504 569.898438,105.59375 C571.226569,104.749996 573.140612,104.223959 575.640625,104.015625 C575.984377,103.984375 576.502601,103.940104 577.195312,103.882812 C577.888024,103.825521 578.406248,103.78125 578.75,103.75 L578.75,102.234375 C578.75,101.026036 578.468753,100.130211 577.90625,99.546875 C577.343747,98.9635387 576.458339,98.671875 575.25,98.671875 C573.562492,98.671875 571.859384,99.0885375 570.140625,99.921875 C570.088541,99.7968744 569.953126,99.4348988 569.734375,98.8359375 C569.515624,98.2369762 569.401042,97.9270834 569.390625,97.90625 C570.151045,97.4791645 571.054682,97.1380221 572.101562,96.8828125 C573.148443,96.6276029 574.213536,96.5 575.296875,96.5 C577.432302,96.5 578.971349,96.9661412 579.914062,97.8984375 C580.856776,98.8307338 581.328125,100.416655 581.328125,102.65625 L581.328125,114 L579.296875,114 Z M601.265625,118.34375 C601.296875,118.041665 601.38802,117.242194 601.539062,115.945312 C601.690105,114.648431 601.807291,113.557296 601.890625,112.671875 C601.973959,111.786454 602.036458,111.01042 602.078125,110.34375 L605.15625,110.34375 L605.15625,111.03125 C604.645831,113.09376 603.895838,115.531236 602.90625,118.34375 L601.265625,118.34375 Z M622.625,112.25 C623.86459,112.25 624.955724,111.908858 625.898438,111.226562 C626.841151,110.544267 627.447915,109.625006 627.71875,108.46875 L627.71875,105.578125 C627.666666,105.578125 627.351565,105.604166 626.773438,105.65625 C626.19531,105.708334 625.817709,105.739583 625.640625,105.75 C623.380197,105.947918 621.804692,106.317706 620.914062,106.859375 C620.023433,107.401044 619.578125,108.270827 619.578125,109.46875 C619.578125,110.385421 619.848956,111.078123 620.390625,111.546875 C620.932294,112.015627 621.677079,112.25 622.625,112.25 Z M628.296875,114 C628.140624,113.33333 627.989584,112.614587 627.84375,111.84375 C626.895829,112.791671 626.005212,113.447915 625.171875,113.8125 C624.338538,114.177085 623.359381,114.359375 622.234375,114.359375 C620.6302,114.359375 619.341151,113.940108 618.367188,113.101562 C617.393224,112.263017 616.90625,111.0573 616.90625,109.484375 C616.90625,107.734366 617.570306,106.437504 618.898438,105.59375 C620.226569,104.749996 622.140612,104.223959 624.640625,104.015625 C624.984377,103.984375 625.502601,103.940104 626.195312,103.882812 C626.888024,103.825521 627.406248,103.78125 627.75,103.75 L627.75,102.234375 C627.75,101.026036 627.468753,100.130211 626.90625,99.546875 C626.343747,98.9635387 625.458339,98.671875 624.25,98.671875 C622.562492,98.671875 620.859384,99.0885375 619.140625,99.921875 C619.088541,99.7968744 618.953126,99.4348988 618.734375,98.8359375 C618.515624,98.2369762 618.401042,97.9270834 618.390625,97.90625 C619.151045,97.4791645 620.054682,97.1380221 621.101562,96.8828125 C622.148443,96.6276029 623.213536,96.5 624.296875,96.5 C626.432302,96.5 627.971349,96.9661412 628.914062,97.8984375 C629.856776,98.8307338 630.328125,100.416655 630.328125,102.65625 L630.328125,114 L628.296875,114 Z M656.46875,104.65625 C656.46875,107.166679 656.088545,109.58853 655.328125,111.921875 C654.567705,114.25522 653.510423,116.359366 652.15625,118.234375 L649.78125,118.234375 C651.05209,116.286449 652.041663,114.114595 652.75,111.71875 C653.458337,109.322905 653.8125,106.947928 653.8125,104.59375 C653.8125,99.593725 652.463555,94.9896044 649.765625,90.78125 L652.1875,90.78125 C655.041681,94.9896044 656.46875,99.6145581 656.46875,104.65625 Z" id="(a-,-a-)" fill="#4C7EF3"></path>
        <path d="M634.879395,274.618164 L637.853027,274.618164 L637.853027,315.203125 L634.879395,315.203125 L634.879395,274.618164 Z M653.992676,304.703125 C655.619637,304.703125 657.051752,304.255376 658.289062,303.359863 C659.526373,302.464351 660.322752,301.25782 660.678223,299.740234 L660.678223,295.946289 C660.609863,295.946289 660.196293,295.980468 659.4375,296.048828 C658.678707,296.117188 658.183107,296.158203 657.950684,296.171875 C654.983872,296.431642 652.916021,296.916989 651.74707,297.62793 C650.578119,298.338871 649.993652,299.480461 649.993652,301.052734 C649.993652,302.255865 650.349118,303.165036 651.060059,303.780273 C651.771,304.395511 652.748529,304.703125 653.992676,304.703125 Z M661.437012,307 C661.231933,306.124996 661.033692,305.181646 660.842285,304.169922 C659.598138,305.414069 658.429205,306.275388 657.335449,306.753906 C656.241694,307.232424 654.95655,307.47168 653.47998,307.47168 C651.374501,307.47168 649.682624,306.921392 648.404297,305.820801 C647.12597,304.720209 646.486816,303.137706 646.486816,301.073242 C646.486816,298.776356 647.35839,297.074224 649.101562,295.966797 C650.844735,294.859369 653.356917,294.168947 656.638184,293.895508 C657.089358,293.854492 657.769527,293.796387 658.678711,293.721191 C659.587895,293.645996 660.268064,293.587891 660.719238,293.546875 L660.719238,291.557617 C660.719238,289.971672 660.350101,288.795902 659.611816,288.030273 C658.873531,287.264645 657.711434,286.881836 656.125488,286.881836 C653.910633,286.881836 651.675304,287.428705 649.419434,288.522461 C649.351074,288.358398 649.173341,287.883305 648.88623,287.097168 C648.59912,286.311031 648.448731,285.904297 648.435059,285.876953 C649.43311,285.316403 650.619134,284.868654 651.993164,284.533691 C653.367194,284.198729 654.76513,284.03125 656.187012,284.03125 C658.98976,284.03125 661.009759,284.64306 662.24707,285.866699 C663.484381,287.090338 664.103027,289.17186 664.103027,292.111328 L664.103027,307 L661.437012,307 Z M701.878418,293.157227 L701.878418,296.192383 L680.406738,296.192383 L680.406738,293.157227 L701.878418,293.157227 Z M722.210449,286.881836 C720.03661,286.881836 718.372076,287.630364 717.216797,289.127441 C716.061518,290.624519 715.483887,292.822251 715.483887,295.720703 C715.483887,301.654327 717.719216,304.621094 722.189941,304.621094 C723.297369,304.621094 724.27148,304.392092 725.112305,303.934082 C725.953129,303.476072 726.616209,302.8335 727.101562,302.006348 C727.586916,301.179195 727.949218,300.246099 728.188477,299.207031 C728.427736,298.167964 728.547363,297.012702 728.547363,295.741211 C728.547363,294.018546 728.345705,292.514655 727.942383,291.229492 C727.53906,289.94433 726.852056,288.898442 725.881348,288.091797 C724.91064,287.285152 723.687019,286.881836 722.210449,286.881836 Z M722.559082,284.03125 C724.555186,284.03125 726.277825,284.537104 727.727051,285.548828 C729.176277,286.560552 730.26318,287.934562 730.987793,289.670898 C731.712406,291.407235 732.074707,293.396473 732.074707,295.638672 C732.074707,297.962902 731.715824,300.006827 730.998047,301.770508 C730.28027,303.534189 729.193367,304.925288 727.737305,305.943848 C726.281243,306.962407 724.541514,307.47168 722.518066,307.47168 C721.027825,307.47168 719.667487,307.150394 718.437012,306.507812 C717.206537,305.865231 716.181156,304.99024 715.36084,303.882812 L715.012207,307 L712.07959,307 L712.07959,275.766602 L715.504395,275.561523 L715.504395,283.005859 C715.504395,284.8379 715.477051,286.41015 715.422363,287.722656 C716.215336,286.587885 717.244134,285.688968 718.508789,285.025879 C719.773444,284.36279 721.123528,284.03125 722.559082,284.03125 Z M754.146973,274.618164 L757.120605,274.618164 L757.120605,315.203125 L754.146973,315.203125 L754.146973,274.618164 Z" id="|a-–-b-|" fill="#4C7EF3"></path>
        <path d="M670.154297,314 L669.929688,312.398438 L674.978516,306.792969 C675.317059,306.415363 675.644204,305.927086 675.959961,305.328125 C676.275718,304.729164 676.505208,304.221356 676.648438,303.804688 L676.873047,303.189453 C676.873047,302.382157 676.64844,301.755536 676.199219,301.30957 C675.749998,300.863605 675.111983,300.640625 674.285156,300.640625 C672.904941,300.640625 671.817712,301.041012 671.023438,301.841797 L670.457031,300.376953 C671.355473,299.530595 672.670564,299.107422 674.402344,299.107422 C675.730475,299.107422 676.788408,299.467119 677.576172,300.186523 C678.363936,300.905928 678.757812,301.867833 678.757812,303.072266 C678.731771,303.163412 678.692709,303.285481 678.640625,303.438477 C678.588541,303.591472 678.476238,303.889321 678.303711,304.332031 C678.131184,304.774742 677.950522,305.194659 677.761719,305.591797 C677.572916,305.988934 677.33366,306.425128 677.043945,306.900391 C676.75423,307.375653 676.459637,307.772785 676.160156,308.091797 L672.039062,312.496094 L678.806641,312.496094 L678.699219,314 L670.154297,314 Z" id="2" fill="#4C7EF3"></path>
        <path d="M738.154297,314 L737.929688,312.398438 L742.978516,306.792969 C743.317059,306.415363 743.644204,305.927086 743.959961,305.328125 C744.275718,304.729164 744.505208,304.221356 744.648438,303.804688 L744.873047,303.189453 C744.873047,302.382157 744.64844,301.755536 744.199219,301.30957 C743.749998,300.863605 743.111983,300.640625 742.285156,300.640625 C740.904941,300.640625 739.817712,301.041012 739.023438,301.841797 L738.457031,300.376953 C739.355473,299.530595 740.670564,299.107422 742.402344,299.107422 C743.730475,299.107422 744.788408,299.467119 745.576172,300.186523 C746.363936,300.905928 746.757812,301.867833 746.757812,303.072266 C746.731771,303.163412 746.692709,303.285481 746.640625,303.438477 C746.588541,303.591472 746.476238,303.889321 746.303711,304.332031 C746.131184,304.774742 745.950522,305.194659 745.761719,305.591797 C745.572916,305.988934 745.33366,306.425128 745.043945,306.900391 C744.75423,307.375653 744.459637,307.772785 744.160156,308.091797 L740.039062,312.496094 L746.806641,312.496094 L746.699219,314 L738.154297,314 Z" id="2" fill="#4C7EF3"></path>
        <path d="M591.392578,104.390625 L592.945312,104.390625 L592.945312,119 L591.216797,119 L591.216797,106.197266 C590.559242,106.626955 589.755213,106.99479 588.804688,107.300781 L588.804688,105.669922 C588.908855,105.624349 589.120441,105.533204 589.439453,105.396484 C589.758465,105.259765 589.997721,105.155599 590.157227,105.083984 C590.316733,105.012369 590.516926,104.911459 590.757812,104.78125 C590.998699,104.651041 591.210286,104.520834 591.392578,104.390625 Z" id="1" fill="#4C7EF3"></path>
        <path d="M636.154297,119 L635.929688,117.398438 L640.978516,111.792969 C641.317059,111.415363 641.644204,110.927086 641.959961,110.328125 C642.275718,109.729164 642.505208,109.221356 642.648438,108.804688 L642.873047,108.189453 C642.873047,107.382157 642.64844,106.755536 642.199219,106.30957 C641.749998,105.863605 641.111983,105.640625 640.285156,105.640625 C638.904941,105.640625 637.817712,106.041012 637.023438,106.841797 L636.457031,105.376953 C637.355473,104.530595 638.670564,104.107422 640.402344,104.107422 C641.730475,104.107422 642.788408,104.467119 643.576172,105.186523 C644.363936,105.905928 644.757812,106.867833 644.757812,108.072266 C644.731771,108.163412 644.692709,108.285481 644.640625,108.438477 C644.588541,108.591472 644.476238,108.889321 644.303711,109.332031 C644.131184,109.774742 643.950522,110.194659 643.761719,110.591797 C643.572916,110.988934 643.33366,111.425128 643.043945,111.900391 C642.75423,112.375653 642.459637,112.772785 642.160156,113.091797 L638.039062,117.496094 L644.806641,117.496094 L644.699219,119 L636.154297,119 Z" id="2" fill="#4C7EF3"></path>
    </g>
</svg>