<?xml version="1.0" encoding="UTF-8"?>
<svg width="1214px" height="599px" viewBox="0 0 1214 599" version="1.1" xmlns="http://www.w3.org/2000/svg" xmlns:xlink="http://www.w3.org/1999/xlink">
    <!-- Generator: Sketch 51.2 (57519) - http://www.bohemiancoding.com/sketch -->
    <title>bayes theorem </title>
    <desc>Created with Sketch.</desc>
    <defs></defs>
    <g id="bayes-theorem-" stroke="none" stroke-width="1" fill="none" fill-rule="evenodd">
        <g id="Group" transform="translate(210.000000, 160.000000)">
            <path d="M88.6875,146.244141 C88.7812505,145.283198 88.9980452,144.685548 89.3378906,144.451172 C89.4785163,144.357421 89.7773415,144.304688 90.234375,144.292969 L91.9394531,144.292969 L96.8261719,124.710938 L95.3144531,124.710938 C94.6230434,124.710938 94.2773438,124.447268 94.2773438,123.919922 C94.3710942,122.935542 94.5996076,122.337892 94.9628906,122.126953 C95.0800787,122.05664 95.2968734,122.021484 95.6132812,122.021484 L107.847656,122.021484 C108.808599,122.021484 109.725582,122.109374 110.598633,122.285156 C111.471684,122.460938 112.324215,122.753904 113.15625,123.164062 C113.988285,123.574221 114.650388,124.18066 115.142578,124.983398 C115.634768,125.786137 115.880859,126.738276 115.880859,127.839844 C115.880859,129.925792 115.010751,131.900381 113.270508,133.763672 C111.530265,135.626962 109.072282,136.740233 105.896484,137.103516 C105.3457,137.173828 104.507818,137.208984 103.382812,137.208984 L97.1601562,137.208984 L95.3847656,144.292969 L96.8964844,144.292969 C97.6113317,144.292969 97.9746093,144.544919 97.9863281,145.048828 C97.8925777,146.056646 97.6640643,146.660155 97.3007812,146.859375 C97.1132803,146.953125 96.884767,147 96.6152344,147 L89.7421875,147 C89.039059,147 88.6875,146.748049 88.6875,146.244141 Z M97.7578125,134.501953 L103.417969,134.501953 C106.828142,134.501953 109.230462,133.822272 110.625,132.462891 C111.820318,131.314447 112.417969,129.943367 112.417969,128.349609 C112.417969,127.529293 112.224611,126.855471 111.837891,126.328125 C111.45117,125.800779 110.885746,125.431642 110.141602,125.220703 C109.397457,125.009765 108.738284,124.872071 108.164062,124.807617 C107.589841,124.743164 106.857426,124.710938 105.966797,124.710938 L100.183594,124.710938 L97.7578125,134.501953 Z M120.486328,144.521484 C120.486328,142.576162 120.732419,140.54005 121.224609,138.413086 C121.716799,136.286122 122.455073,134.138683 123.439453,131.970703 C124.423833,129.802724 125.748039,127.696299 127.412109,125.651367 C129.07618,123.606435 130.974599,121.880866 133.107422,120.474609 C133.587893,120.158202 134.009764,120 134.373047,120 L135.304688,120 C135.878909,120 136.171875,120.134764 136.183594,120.404297 C136.183594,120.544923 135.978518,120.767577 135.568359,121.072266 C131.748028,123.732435 128.783214,127.303689 126.673828,131.786133 C124.564443,136.268577 123.509766,140.607401 123.509766,144.802734 C123.509766,146.607431 123.706053,148.233391 124.098633,149.680664 C124.491213,151.127937 124.933591,152.200192 125.425781,152.897461 C125.917971,153.59473 126.363279,154.189451 126.761719,154.681641 C127.160158,155.173831 127.359375,155.478515 127.359375,155.595703 C127.359375,155.865236 127.14258,156 126.708984,156 L125.583984,156 C125.150388,156 124.746096,155.794924 124.371094,155.384766 C121.781237,152.677721 120.486328,149.056663 120.486328,144.521484 Z M135.779297,146.244141 C135.873047,145.283198 136.089842,144.685548 136.429688,144.451172 C136.570313,144.357421 136.904294,144.304688 137.431641,144.292969 C137.865237,144.292969 138.486324,144.269531 139.294922,144.222656 L153.445312,122.513672 C153.878908,121.869137 154.441403,121.546875 155.132812,121.546875 L156.398438,121.546875 C156.66797,121.546875 156.884765,121.599609 157.048828,121.705078 C157.212891,121.810547 157.321289,121.936523 157.374023,122.083008 C157.426758,122.229493 157.476562,122.42578 157.523438,122.671875 L160.792969,144.292969 L162.550781,144.292969 C163.242191,144.292969 163.59375,144.544919 163.605469,145.048828 C163.511718,146.103521 163.259768,146.718749 162.849609,146.894531 C162.662108,146.964844 162.457032,147 162.234375,147 L155.888672,147 C155.173825,147 154.816406,146.748049 154.816406,146.244141 C154.910157,145.212885 155.13867,144.603517 155.501953,144.416016 C155.642579,144.345703 155.882811,144.304688 156.222656,144.292969 L157.224609,144.292969 L156.503906,139.546875 L146.0625,139.546875 C145.792967,139.570313 145.582032,139.693358 145.429688,139.916016 C145.359375,139.986328 144.398447,141.43358 142.546875,144.257812 L142.898438,144.257812 C143.062501,144.257812 143.182617,144.263672 143.258789,144.275391 C143.334961,144.287109 143.437499,144.298828 143.566406,144.310547 C143.695313,144.322266 143.791992,144.348633 143.856445,144.389648 C143.920899,144.430664 143.988281,144.480468 144.058594,144.539062 C144.128907,144.597657 144.175781,144.667968 144.199219,144.75 C144.222656,144.832032 144.234375,144.93164 144.234375,145.048828 C144.234375,145.142579 144.175782,145.458982 144.058594,145.998047 C143.964843,146.384768 143.844727,146.642577 143.698242,146.771484 C143.551757,146.900391 143.308595,146.976562 142.96875,147 L136.816406,147 C136.124997,147 135.779297,146.748049 135.779297,146.244141 Z M147.363281,136.839844 L156.082031,136.839844 L154.464844,125.90625 L147.363281,136.839844 Z M170.355469,154.523438 L170.355469,121.617188 C170.355469,120.562495 170.715817,120.035156 171.436523,120.035156 C172.15723,120.035156 172.517578,120.503902 172.517578,121.441406 L172.517578,154.382812 C172.517578,155.437505 172.15723,155.964844 171.436523,155.964844 C170.715817,155.964844 170.355469,155.48438 170.355469,154.523438 Z M181.253906,146.208984 C181.347657,145.201167 181.57617,144.603517 181.939453,144.416016 C182.056641,144.345703 182.361326,144.304688 182.853516,144.292969 L184.505859,144.292969 L189.392578,124.710938 L187.951172,124.710938 C187.212887,124.710938 186.84375,124.458987 186.84375,123.955078 C186.84375,123.474607 186.960936,122.994143 187.195312,122.513672 C187.359376,122.185545 187.681638,122.021484 188.162109,122.021484 L200.238281,122.021484 C204.457052,122.021484 207.093745,123.00585 208.148438,124.974609 C208.488283,125.572269 208.658203,126.292965 208.658203,127.136719 C208.658203,128.414069 208.207036,129.615229 207.304688,130.740234 C206.402339,131.86524 205.125008,132.738278 203.472656,133.359375 C203.062498,133.500001 202.453129,133.693358 201.644531,133.939453 C203.109382,134.173829 204.351557,134.68066 205.371094,135.459961 C206.39063,136.239262 206.900391,137.349602 206.900391,138.791016 C206.900391,139.271487 206.809571,139.825192 206.62793,140.452148 C206.446288,141.079105 206.0918,141.788082 205.564453,142.579102 C205.037107,143.370121 204.377934,144.082028 203.586914,144.714844 C202.795894,145.347659 201.708991,145.886717 200.326172,146.332031 C198.943352,146.777346 197.378915,147 195.632812,147 L182.273438,147 C181.593747,147 181.253906,146.736331 181.253906,146.208984 Z M187.775391,144.292969 L194.947266,144.292969 C195.908208,144.269531 196.57324,144.240235 196.942383,144.205078 C197.311525,144.169922 197.862301,144.076173 198.594727,143.923828 C199.327152,143.771484 200.015622,143.525392 200.660156,143.185547 C202.582041,142.201167 203.542969,140.841806 203.542969,139.107422 C203.542969,138.052729 203.170902,137.214847 202.426758,136.59375 C201.682613,135.972653 200.689459,135.591798 199.447266,135.451172 C199.037107,135.404297 198.421879,135.375 197.601562,135.363281 L189.972656,135.363281 L187.775391,144.292969 Z M190.693359,132.638672 L196.705078,132.638672 C200.044939,132.638672 202.458977,131.941413 203.947266,130.546875 C204.908208,129.632808 205.388672,128.695317 205.388672,127.734375 C205.388672,125.71874 203.584002,124.710938 199.974609,124.710938 L192.644531,124.710938 L190.693359,132.638672 Z M209.730469,155.595703 C209.730469,155.548828 209.742187,155.501953 209.765625,155.455078 C209.789063,155.408203 209.824219,155.355469 209.871094,155.296875 C209.917969,155.238281 209.964844,155.197266 210.011719,155.173828 C210.058594,155.150391 210.117187,155.109375 210.1875,155.050781 C210.257813,154.992187 210.322265,154.951172 210.380859,154.927734 C213.017591,153.076163 215.276358,150.714858 217.157227,147.84375 C219.038095,144.972642 220.388668,142.133803 221.208984,139.327148 C222.029301,136.520494 222.439453,133.822279 222.439453,131.232422 C222.439453,129.427725 222.234377,127.801765 221.824219,126.354492 C221.41406,124.907219 220.968752,123.834964 220.488281,123.137695 C220.00781,122.440426 219.562502,121.839846 219.152344,121.335938 C218.742185,120.832029 218.537109,120.521485 218.537109,120.404297 C218.537109,120.134764 218.753904,120 219.1875,120 L220.382812,120 C220.570313,120 220.731445,120.023437 220.866211,120.070312 C221.000977,120.117188 221.200194,120.2666 221.463867,120.518555 C221.72754,120.770509 222.064451,121.148435 222.474609,121.652344 C224.466807,124.2422 225.462891,127.529277 225.462891,131.513672 C225.462891,133.341806 225.234377,135.269521 224.777344,137.296875 C224.32031,139.324229 223.64063,141.395497 222.738281,143.510742 C221.835933,145.625987 220.605477,147.691396 219.046875,149.707031 C217.488273,151.722666 215.712901,153.462883 213.720703,154.927734 C213.626953,154.998047 213.489259,155.097656 213.307617,155.226562 C213.125976,155.355469 213.011719,155.4375 212.964844,155.472656 C212.917969,155.507813 212.827149,155.569335 212.692383,155.657227 C212.557617,155.745118 212.472656,155.800781 212.4375,155.824219 C212.402344,155.847656 212.337891,155.882812 212.244141,155.929688 C212.15039,155.976563 212.06836,156 211.998047,156 C211.927734,156 211.848633,156.005859 211.760742,156.017578 C211.672851,156.029297 211.570313,156.035156 211.453125,156.035156 C211.40625,156.035156 211.330079,156.029297 211.224609,156.017578 C211.11914,156.005859 211.040039,156 210.987305,156 C210.93457,156 210.861329,156.005859 210.767578,156.017578 C210.673828,156.029297 210.603516,156.035156 210.556641,156.035156 C210.005857,156.035156 209.730469,155.888673 209.730469,155.595703 Z M246.169922,142.289062 C246.169922,141.949217 246.284179,141.647462 246.512695,141.383789 C246.741212,141.120116 247.025389,140.976563 247.365234,140.953125 C247.552735,140.929687 247.863279,140.917969 248.296875,140.917969 L272.0625,140.917969 C272.519534,140.917969 272.879881,141.014647 273.143555,141.208008 C273.407228,141.401368 273.568359,141.580077 273.626953,141.744141 C273.685547,141.908204 273.714844,142.089843 273.714844,142.289062 C273.714844,143.179692 273.140631,143.619141 271.992188,143.607422 L247.892578,143.607422 C246.744135,143.619141 246.169922,143.179692 246.169922,142.289062 Z M248.332031,133.754883 C248.332031,132.846675 248.894526,132.392578 250.019531,132.392578 L274.171875,132.392578 C274.628909,132.392578 274.989256,132.486327 275.25293,132.673828 C275.516603,132.861329 275.680664,133.040038 275.745117,133.209961 C275.809571,133.379884 275.841797,133.561522 275.841797,133.754883 C275.841797,133.948243 275.809571,134.126952 275.745117,134.291016 C275.680664,134.455079 275.510744,134.633788 275.235352,134.827148 C274.95996,135.020509 274.593752,135.117188 274.136719,135.117188 L250.019531,135.117188 C248.894526,135.117188 248.332031,134.66309 248.332031,133.754883 Z" id="P(A|B)-=" fill="#37C3BE"></path>
            <path d="M368.500977,99.2441406 C368.594727,98.2831983 368.811522,97.685548 369.151367,97.4511719 C369.291993,97.3574214 369.590818,97.3046876 370.047852,97.2929688 L371.75293,97.2929688 L376.639648,77.7109375 L375.12793,77.7109375 C374.43652,77.7109375 374.09082,77.4472683 374.09082,76.9199219 C374.184571,75.935542 374.413084,75.3378917 374.776367,75.1269531 C374.893555,75.0566403 375.11035,75.0214844 375.426758,75.0214844 L387.661133,75.0214844 C388.622075,75.0214844 389.539058,75.1093741 390.412109,75.2851562 C391.285161,75.4609384 392.137691,75.7539042 392.969727,76.1640625 C393.801762,76.5742208 394.463865,77.18066 394.956055,77.9833984 C395.448245,78.7861368 395.694336,79.7382757 395.694336,80.8398438 C395.694336,82.9257917 394.824227,84.9003813 393.083984,86.7636719 C391.343741,88.6269624 388.885758,89.7402326 385.709961,90.1035156 C385.159177,90.1738285 384.321295,90.2089844 383.196289,90.2089844 L376.973633,90.2089844 L375.198242,97.2929688 L376.709961,97.2929688 C377.424808,97.2929688 377.788086,97.5449194 377.799805,98.0488281 C377.706054,99.0566457 377.477541,99.6601553 377.114258,99.859375 C376.926757,99.9531255 376.698244,100 376.428711,100 L369.555664,100 C368.852536,100 368.500977,99.7480494 368.500977,99.2441406 Z M377.571289,87.5019531 L383.231445,87.5019531 C386.641619,87.5019531 389.043938,86.8222724 390.438477,85.4628906 C391.633795,84.3144474 392.231445,82.9433673 392.231445,81.3496094 C392.231445,80.5292928 392.038088,79.8554714 391.651367,79.328125 C391.264647,78.8007786 390.699222,78.4316417 389.955078,78.2207031 C389.210934,78.0097646 388.551761,77.8720706 387.977539,77.8076172 C387.403317,77.7431637 386.670903,77.7109375 385.780273,77.7109375 L379.99707,77.7109375 L377.571289,87.5019531 Z M400.299805,97.5214844 C400.299805,95.5761621 400.545896,93.5400497 401.038086,91.4130859 C401.530276,89.2861222 402.26855,87.1386827 403.25293,84.9707031 C404.23731,82.8027235 405.561515,80.6962993 407.225586,78.6513672 C408.889657,76.6064351 410.788075,74.8808664 412.920898,73.4746094 C413.40137,73.1582015 413.82324,73 414.186523,73 L415.118164,73 C415.692386,73 415.985352,73.1347643 415.99707,73.4042969 C415.99707,73.5449226 415.791994,73.7675766 415.381836,74.0722656 C411.561504,76.7324352 408.59669,80.3036885 406.487305,84.7861328 C404.377919,89.2685771 403.323242,93.6074009 403.323242,97.8027344 C403.323242,99.6074309 403.519529,101.233391 403.912109,102.680664 C404.304689,104.127937 404.747068,105.200192 405.239258,105.897461 C405.731448,106.59473 406.176756,107.189451 406.575195,107.681641 C406.973635,108.173831 407.172852,108.478515 407.172852,108.595703 C407.172852,108.865236 406.956057,109 406.522461,109 L405.397461,109 C404.963865,109 404.559572,108.794924 404.18457,108.384766 C401.594714,105.677721 400.299805,102.056663 400.299805,97.5214844 Z M416.911133,99.2089844 C417.004883,98.2011668 417.233397,97.6035166 417.59668,97.4160156 C417.713868,97.3457028 418.018552,97.3046876 418.510742,97.2929688 L420.163086,97.2929688 L425.049805,77.7109375 L423.608398,77.7109375 C422.870113,77.7109375 422.500977,77.4589869 422.500977,76.9550781 C422.500977,76.474607 422.618163,75.994143 422.852539,75.5136719 C423.016602,75.1855452 423.338865,75.0214844 423.819336,75.0214844 L435.895508,75.0214844 C440.114279,75.0214844 442.750971,76.0058495 443.805664,77.9746094 C444.14551,78.5722686 444.31543,79.2929645 444.31543,80.1367188 C444.31543,81.4140689 443.864262,82.6152287 442.961914,83.7402344 C442.059566,84.86524 440.782235,85.7382781 439.129883,86.359375 C438.719725,86.5000007 438.110356,86.6933581 437.301758,86.9394531 C438.766609,87.1738293 440.008784,87.6806602 441.02832,88.4599609 C442.047857,89.2392617 442.557617,90.3496022 442.557617,91.7910156 C442.557617,92.2714868 442.466798,92.8251922 442.285156,93.4521484 C442.103515,94.0791047 441.749026,94.788082 441.22168,95.5791016 C440.694333,96.3701211 440.03516,97.0820281 439.244141,97.7148438 C438.453121,98.3476594 437.366218,98.8867165 435.983398,99.3320312 C434.600579,99.777346 433.036142,100 431.290039,100 L417.930664,100 C417.250973,100 416.911133,99.7363308 416.911133,99.2089844 Z M423.432617,97.2929688 L430.604492,97.2929688 C431.565434,97.2695311 432.230467,97.2402346 432.599609,97.2050781 C432.968752,97.1699217 433.519528,97.0761726 434.251953,96.9238281 C434.984379,96.7714836 435.672848,96.5253923 436.317383,96.1855469 C438.239267,95.201167 439.200195,93.8418055 439.200195,92.1074219 C439.200195,91.0527291 438.828129,90.2148469 438.083984,89.59375 C437.33984,88.9726531 436.346686,88.5917976 435.104492,88.4511719 C434.694334,88.4042966 434.079106,88.3750001 433.258789,88.3632812 L425.629883,88.3632812 L423.432617,97.2929688 Z M426.350586,85.6386719 L432.362305,85.6386719 C435.702165,85.6386719 438.116203,84.9414132 439.604492,83.546875 C440.565434,82.6328079 441.045898,81.6953173 441.045898,80.734375 C441.045898,78.7187399 439.241229,77.7109375 435.631836,77.7109375 L428.301758,77.7109375 L426.350586,85.6386719 Z M448.727539,107.523438 L448.727539,74.6171875 C448.727539,73.5624947 449.087887,73.0351562 449.808594,73.0351562 C450.5293,73.0351562 450.889648,73.5039016 450.889648,74.4414062 L450.889648,107.382812 C450.889648,108.437505 450.5293,108.964844 449.808594,108.964844 C449.087887,108.964844 448.727539,108.48438 448.727539,107.523438 Z M458.307617,99.2441406 C458.401368,98.2831983 458.618162,97.685548 458.958008,97.4511719 C459.098634,97.3574214 459.432615,97.3046876 459.959961,97.2929688 C460.393557,97.2929688 461.014644,97.2695315 461.823242,97.2226562 L475.973633,75.5136719 C476.407229,74.8691374 476.969723,74.546875 477.661133,74.546875 L478.926758,74.546875 C479.19629,74.546875 479.413085,74.5996088 479.577148,74.7050781 C479.741212,74.8105474 479.849609,74.9365227 479.902344,75.0830078 C479.955078,75.2294929 480.004883,75.42578 480.051758,75.671875 L483.321289,97.2929688 L485.079102,97.2929688 C485.770511,97.2929688 486.12207,97.5449194 486.133789,98.0488281 C486.040039,99.1035209 485.788088,99.7187491 485.37793,99.8945312 C485.190429,99.9648441 484.985353,100 484.762695,100 L478.416992,100 C477.702145,100 477.344727,99.7480494 477.344727,99.2441406 C477.438477,98.2128855 477.66699,97.6035166 478.030273,97.4160156 C478.170899,97.3457028 478.411131,97.3046876 478.750977,97.2929688 L479.75293,97.2929688 L479.032227,92.546875 L468.59082,92.546875 C468.321288,92.5703126 468.110352,92.6933583 467.958008,92.9160156 C467.887695,92.9863285 466.926767,94.4335796 465.075195,97.2578125 L465.426758,97.2578125 C465.590821,97.2578125 465.710937,97.2636718 465.787109,97.2753906 C465.863282,97.2871094 465.96582,97.2988281 466.094727,97.3105469 C466.223633,97.3222657 466.320312,97.3486326 466.384766,97.3896484 C466.449219,97.4306643 466.516601,97.4804685 466.586914,97.5390625 C466.657227,97.5976565 466.704101,97.6679683 466.727539,97.75 C466.750977,97.8320317 466.762695,97.93164 466.762695,98.0488281 C466.762695,98.1425786 466.704102,98.4589817 466.586914,98.9980469 C466.493164,99.3847676 466.373048,99.6425775 466.226562,99.7714844 C466.080077,99.9003913 465.836916,99.9765624 465.49707,100 L459.344727,100 C458.653317,100 458.307617,99.7480494 458.307617,99.2441406 Z M469.891602,89.8398438 L478.610352,89.8398438 L476.993164,78.90625 L469.891602,89.8398438 Z M489.543945,108.595703 C489.543945,108.548828 489.555664,108.501953 489.579102,108.455078 C489.602539,108.408203 489.637695,108.355469 489.68457,108.296875 C489.731446,108.238281 489.77832,108.197266 489.825195,108.173828 C489.872071,108.150391 489.930664,108.109375 490.000977,108.050781 C490.071289,107.992187 490.135742,107.951172 490.194336,107.927734 C492.831068,106.076163 495.089834,103.714858 496.970703,100.84375 C498.851572,97.9726419 500.202144,95.1338031 501.022461,92.3271484 C501.842778,89.5204938 502.25293,86.8222786 502.25293,84.2324219 C502.25293,82.4277254 502.047854,80.801765 501.637695,79.3544922 C501.227537,77.9072193 500.782229,76.8349644 500.301758,76.1376953 C499.821287,75.4404262 499.375979,74.8398463 498.96582,74.3359375 C498.555662,73.8320287 498.350586,73.521485 498.350586,73.4042969 C498.350586,73.1347643 498.567381,73 499.000977,73 L500.196289,73 C500.38379,73 500.544921,73.0234373 500.679688,73.0703125 C500.814454,73.1171877 501.013671,73.2666003 501.277344,73.5185547 C501.541017,73.7705091 501.877928,74.148435 502.288086,74.6523438 C504.280283,77.2422004 505.276367,80.529277 505.276367,84.5136719 C505.276367,86.341806 505.047854,88.2695211 504.59082,90.296875 C504.133787,92.3242289 503.454106,94.3954972 502.551758,96.5107422 C501.64941,98.6259871 500.418953,100.691396 498.860352,102.707031 C497.30175,104.722666 495.526377,106.462883 493.53418,107.927734 C493.440429,107.998047 493.302735,108.097656 493.121094,108.226562 C492.939452,108.355469 492.825196,108.4375 492.77832,108.472656 C492.731445,108.507813 492.640626,108.569335 492.505859,108.657227 C492.371093,108.745118 492.286133,108.800781 492.250977,108.824219 C492.21582,108.847656 492.151368,108.882812 492.057617,108.929688 C491.963867,108.976563 491.881836,109 491.811523,109 C491.741211,109 491.66211,109.005859 491.574219,109.017578 C491.486328,109.029297 491.38379,109.035156 491.266602,109.035156 C491.219726,109.035156 491.143555,109.029297 491.038086,109.017578 C490.932617,109.005859 490.853516,109 490.800781,109 C490.748047,109 490.674805,109.005859 490.581055,109.017578 C490.487304,109.029297 490.416992,109.035156 490.370117,109.035156 C489.819333,109.035156 489.543945,108.888673 489.543945,108.595703 Z M555.21582,99.2441406 C555.309571,98.2831983 555.526365,97.685548 555.866211,97.4511719 C556.006837,97.3574214 556.305662,97.3046876 556.762695,97.2929688 L558.467773,97.2929688 L563.354492,77.7109375 L561.842773,77.7109375 C561.151364,77.7109375 560.805664,77.4472683 560.805664,76.9199219 C560.899415,75.935542 561.127928,75.3378917 561.491211,75.1269531 C561.608399,75.0566403 561.825194,75.0214844 562.141602,75.0214844 L574.375977,75.0214844 C575.336919,75.0214844 576.253902,75.1093741 577.126953,75.2851562 C578.000004,75.4609384 578.852535,75.7539042 579.68457,76.1640625 C580.516606,76.5742208 581.178708,77.18066 581.670898,77.9833984 C582.163088,78.7861368 582.40918,79.7382757 582.40918,80.8398438 C582.40918,82.9257917 581.539071,84.9003813 579.798828,86.7636719 C578.058585,88.6269624 575.600602,89.7402326 572.424805,90.1035156 C571.874021,90.1738285 571.036138,90.2089844 569.911133,90.2089844 L563.688477,90.2089844 L561.913086,97.2929688 L563.424805,97.2929688 C564.139652,97.2929688 564.50293,97.5449194 564.514648,98.0488281 C564.420898,99.0566457 564.192385,99.6601553 563.829102,99.859375 C563.641601,99.9531255 563.413087,100 563.143555,100 L556.270508,100 C555.567379,100 555.21582,99.7480494 555.21582,99.2441406 Z M564.286133,87.5019531 L569.946289,87.5019531 C573.356462,87.5019531 575.758782,86.8222724 577.15332,85.4628906 C578.348639,84.3144474 578.946289,82.9433673 578.946289,81.3496094 C578.946289,80.5292928 578.752932,79.8554714 578.366211,79.328125 C577.97949,78.8007786 577.414066,78.4316417 576.669922,78.2207031 C575.925778,78.0097646 575.266604,77.8720706 574.692383,77.8076172 C574.118161,77.7431637 573.385747,77.7109375 572.495117,77.7109375 L566.711914,77.7109375 L564.286133,87.5019531 Z M587.014648,97.5214844 C587.014648,95.5761621 587.26074,93.5400497 587.75293,91.4130859 C588.24512,89.2861222 588.983394,87.1386827 589.967773,84.9707031 C590.952153,82.8027235 592.276359,80.6962993 593.94043,78.6513672 C595.604501,76.6064351 597.502919,74.8808664 599.635742,73.4746094 C600.116213,73.1582015 600.538084,73 600.901367,73 L601.833008,73 C602.407229,73 602.700195,73.1347643 602.711914,73.4042969 C602.711914,73.5449226 602.506838,73.7675766 602.09668,74.0722656 C598.276348,76.7324352 595.311534,80.3036885 593.202148,84.7861328 C591.092763,89.2685771 590.038086,93.6074009 590.038086,97.8027344 C590.038086,99.6074309 590.234373,101.233391 590.626953,102.680664 C591.019533,104.127937 591.461912,105.200192 591.954102,105.897461 C592.446292,106.59473 592.8916,107.189451 593.290039,107.681641 C593.688479,108.173831 593.887695,108.478515 593.887695,108.595703 C593.887695,108.865236 593.670901,109 593.237305,109 L592.112305,109 C591.678709,109 591.274416,108.794924 590.899414,108.384766 C588.309557,105.677721 587.014648,102.056663 587.014648,97.5214844 Z M602.307617,99.2441406 C602.401368,98.2831983 602.618162,97.685548 602.958008,97.4511719 C603.098634,97.3574214 603.432615,97.3046876 603.959961,97.2929688 C604.393557,97.2929688 605.014644,97.2695315 605.823242,97.2226562 L619.973633,75.5136719 C620.407229,74.8691374 620.969723,74.546875 621.661133,74.546875 L622.926758,74.546875 C623.19629,74.546875 623.413085,74.5996088 623.577148,74.7050781 C623.741212,74.8105474 623.849609,74.9365227 623.902344,75.0830078 C623.955078,75.2294929 624.004883,75.42578 624.051758,75.671875 L627.321289,97.2929688 L629.079102,97.2929688 C629.770511,97.2929688 630.12207,97.5449194 630.133789,98.0488281 C630.040039,99.1035209 629.788088,99.7187491 629.37793,99.8945312 C629.190429,99.9648441 628.985353,100 628.762695,100 L622.416992,100 C621.702145,100 621.344727,99.7480494 621.344727,99.2441406 C621.438477,98.2128855 621.66699,97.6035166 622.030273,97.4160156 C622.170899,97.3457028 622.411131,97.3046876 622.750977,97.2929688 L623.75293,97.2929688 L623.032227,92.546875 L612.59082,92.546875 C612.321288,92.5703126 612.110352,92.6933583 611.958008,92.9160156 C611.887695,92.9863285 610.926767,94.4335796 609.075195,97.2578125 L609.426758,97.2578125 C609.590821,97.2578125 609.710937,97.2636718 609.787109,97.2753906 C609.863282,97.2871094 609.96582,97.2988281 610.094727,97.3105469 C610.223633,97.3222657 610.320312,97.3486326 610.384766,97.3896484 C610.449219,97.4306643 610.516601,97.4804685 610.586914,97.5390625 C610.657227,97.5976565 610.704101,97.6679683 610.727539,97.75 C610.750977,97.8320317 610.762695,97.93164 610.762695,98.0488281 C610.762695,98.1425786 610.704102,98.4589817 610.586914,98.9980469 C610.493164,99.3847676 610.373048,99.6425775 610.226562,99.7714844 C610.080077,99.9003913 609.836916,99.9765624 609.49707,100 L603.344727,100 C602.653317,100 602.307617,99.7480494 602.307617,99.2441406 Z M613.891602,89.8398438 L622.610352,89.8398438 L620.993164,78.90625 L613.891602,89.8398438 Z M633.543945,108.595703 C633.543945,108.548828 633.555664,108.501953 633.579102,108.455078 C633.602539,108.408203 633.637695,108.355469 633.68457,108.296875 C633.731446,108.238281 633.77832,108.197266 633.825195,108.173828 C633.872071,108.150391 633.930664,108.109375 634.000977,108.050781 C634.071289,107.992187 634.135742,107.951172 634.194336,107.927734 C636.831068,106.076163 639.089834,103.714858 640.970703,100.84375 C642.851572,97.9726419 644.202144,95.1338031 645.022461,92.3271484 C645.842778,89.5204938 646.25293,86.8222786 646.25293,84.2324219 C646.25293,82.4277254 646.047854,80.801765 645.637695,79.3544922 C645.227537,77.9072193 644.782229,76.8349644 644.301758,76.1376953 C643.821287,75.4404262 643.375979,74.8398463 642.96582,74.3359375 C642.555662,73.8320287 642.350586,73.521485 642.350586,73.4042969 C642.350586,73.1347643 642.567381,73 643.000977,73 L644.196289,73 C644.38379,73 644.544921,73.0234373 644.679688,73.0703125 C644.814454,73.1171877 645.013671,73.2666003 645.277344,73.5185547 C645.541017,73.7705091 645.877928,74.148435 646.288086,74.6523438 C648.280283,77.2422004 649.276367,80.529277 649.276367,84.5136719 C649.276367,86.341806 649.047854,88.2695211 648.59082,90.296875 C648.133787,92.3242289 647.454106,94.3954972 646.551758,96.5107422 C645.64941,98.6259871 644.418953,100.691396 642.860352,102.707031 C641.30175,104.722666 639.526377,106.462883 637.53418,107.927734 C637.440429,107.998047 637.302735,108.097656 637.121094,108.226562 C636.939452,108.355469 636.825196,108.4375 636.77832,108.472656 C636.731445,108.507813 636.640626,108.569335 636.505859,108.657227 C636.371093,108.745118 636.286133,108.800781 636.250977,108.824219 C636.21582,108.847656 636.151368,108.882812 636.057617,108.929688 C635.963867,108.976563 635.881836,109 635.811523,109 C635.741211,109 635.66211,109.005859 635.574219,109.017578 C635.486328,109.029297 635.38379,109.035156 635.266602,109.035156 C635.219726,109.035156 635.143555,109.029297 635.038086,109.017578 C634.932617,109.005859 634.853516,109 634.800781,109 C634.748047,109 634.674805,109.005859 634.581055,109.017578 C634.487304,109.029297 634.416992,109.035156 634.370117,109.035156 C633.819333,109.035156 633.543945,108.888673 633.543945,108.595703 Z" id="P(B|A)-P(A)" fill="#37C3BE"></path>
            <path d="M526.458984,90.5283203 C526.458984,89.2216732 526.930659,88.0512747 527.874023,87.0170898 C528.817388,85.982905 530.027336,85.4658203 531.503906,85.4658203 C532.500005,85.4658203 533.296872,85.733884 533.894531,86.2700195 C534.49219,86.806155 534.791016,87.5400344 534.791016,88.4716797 C534.791016,89.7783268 534.320805,90.9487253 533.380371,91.9829102 C532.439937,93.017095 531.231453,93.5341797 529.754883,93.5341797 C528.758784,93.5341797 527.960452,93.2675808 527.359863,92.734375 C526.759274,92.2011692 526.458984,91.465825 526.458984,90.5283203 Z" id="•" fill="#37C3BE"></path>
            <path d="M462.579102,202.244141 C462.672852,201.283198 462.889647,200.685548 463.229492,200.451172 C463.370118,200.357421 463.668943,200.304688 464.125977,200.292969 L465.831055,200.292969 L470.717773,180.710938 L469.206055,180.710938 C468.514645,180.710938 468.168945,180.447268 468.168945,179.919922 C468.262696,178.935542 468.491209,178.337892 468.854492,178.126953 C468.97168,178.05664 469.188475,178.021484 469.504883,178.021484 L481.739258,178.021484 C482.7002,178.021484 483.617183,178.109374 484.490234,178.285156 C485.363286,178.460938 486.215816,178.753904 487.047852,179.164062 C487.879887,179.574221 488.54199,180.18066 489.03418,180.983398 C489.52637,181.786137 489.772461,182.738276 489.772461,183.839844 C489.772461,185.925792 488.902352,187.900381 487.162109,189.763672 C485.421866,191.626962 482.963883,192.740233 479.788086,193.103516 C479.237302,193.173828 478.39942,193.208984 477.274414,193.208984 L471.051758,193.208984 L469.276367,200.292969 L470.788086,200.292969 C471.502933,200.292969 471.866211,200.544919 471.87793,201.048828 C471.784179,202.056646 471.555666,202.660155 471.192383,202.859375 C471.004882,202.953125 470.776369,203 470.506836,203 L463.633789,203 C462.930661,203 462.579102,202.748049 462.579102,202.244141 Z M471.649414,190.501953 L477.30957,190.501953 C480.719744,190.501953 483.122063,189.822272 484.516602,188.462891 C485.71192,187.314447 486.30957,185.943367 486.30957,184.349609 C486.30957,183.529293 486.116213,182.855471 485.729492,182.328125 C485.342772,181.800779 484.777347,181.431642 484.033203,181.220703 C483.289059,181.009765 482.629886,180.872071 482.055664,180.807617 C481.481442,180.743164 480.749028,180.710938 479.858398,180.710938 L474.075195,180.710938 L471.649414,190.501953 Z M494.37793,200.521484 C494.37793,198.576162 494.624021,196.54005 495.116211,194.413086 C495.608401,192.286122 496.346675,190.138683 497.331055,187.970703 C498.315435,185.802724 499.63964,183.696299 501.303711,181.651367 C502.967782,179.606435 504.8662,177.880866 506.999023,176.474609 C507.479495,176.158202 507.901365,176 508.264648,176 L509.196289,176 C509.770511,176 510.063477,176.134764 510.075195,176.404297 C510.075195,176.544923 509.870119,176.767577 509.459961,177.072266 C505.639629,179.732435 502.674815,183.303689 500.56543,187.786133 C498.456044,192.268577 497.401367,196.607401 497.401367,200.802734 C497.401367,202.607431 497.597654,204.233391 497.990234,205.680664 C498.382814,207.127937 498.825193,208.200192 499.317383,208.897461 C499.809573,209.59473 500.254881,210.189451 500.65332,210.681641 C501.05176,211.173831 501.250977,211.478515 501.250977,211.595703 C501.250977,211.865236 501.034182,212 500.600586,212 L499.475586,212 C499.04199,212 498.637697,211.794924 498.262695,211.384766 C495.672839,208.677721 494.37793,205.056663 494.37793,200.521484 Z M510.989258,202.208984 C511.083008,201.201167 511.311522,200.603517 511.674805,200.416016 C511.791993,200.345703 512.096677,200.304688 512.588867,200.292969 L514.241211,200.292969 L519.12793,180.710938 L517.686523,180.710938 C516.948238,180.710938 516.579102,180.458987 516.579102,179.955078 C516.579102,179.474607 516.696288,178.994143 516.930664,178.513672 C517.094727,178.185545 517.41699,178.021484 517.897461,178.021484 L529.973633,178.021484 C534.192404,178.021484 536.829096,179.00585 537.883789,180.974609 C538.223635,181.572269 538.393555,182.292965 538.393555,183.136719 C538.393555,184.414069 537.942387,185.615229 537.040039,186.740234 C536.137691,187.86524 534.86036,188.738278 533.208008,189.359375 C532.79785,189.500001 532.188481,189.693358 531.379883,189.939453 C532.844734,190.173829 534.086909,190.68066 535.106445,191.459961 C536.125982,192.239262 536.635742,193.349602 536.635742,194.791016 C536.635742,195.271487 536.544923,195.825192 536.363281,196.452148 C536.18164,197.079105 535.827151,197.788082 535.299805,198.579102 C534.772458,199.370121 534.113285,200.082028 533.322266,200.714844 C532.531246,201.347659 531.444343,201.886717 530.061523,202.332031 C528.678704,202.777346 527.114267,203 525.368164,203 L512.008789,203 C511.329098,203 510.989258,202.736331 510.989258,202.208984 Z M517.510742,200.292969 L524.682617,200.292969 C525.643559,200.269531 526.308592,200.240235 526.677734,200.205078 C527.046877,200.169922 527.597653,200.076173 528.330078,199.923828 C529.062504,199.771484 529.750973,199.525392 530.395508,199.185547 C532.317392,198.201167 533.27832,196.841806 533.27832,195.107422 C533.27832,194.052729 532.906254,193.214847 532.162109,192.59375 C531.417965,191.972653 530.424811,191.591798 529.182617,191.451172 C528.772459,191.404297 528.157231,191.375 527.336914,191.363281 L519.708008,191.363281 L517.510742,200.292969 Z M520.428711,188.638672 L526.44043,188.638672 C529.78029,188.638672 532.194328,187.941413 533.682617,186.546875 C534.643559,185.632808 535.124023,184.695317 535.124023,183.734375 C535.124023,181.71874 533.319354,180.710938 529.709961,180.710938 L522.379883,180.710938 L520.428711,188.638672 Z M539.46582,211.595703 C539.46582,211.548828 539.477539,211.501953 539.500977,211.455078 C539.524414,211.408203 539.55957,211.355469 539.606445,211.296875 C539.653321,211.238281 539.700195,211.197266 539.74707,211.173828 C539.793946,211.150391 539.852539,211.109375 539.922852,211.050781 C539.993164,210.992187 540.057617,210.951172 540.116211,210.927734 C542.752943,209.076163 545.011709,206.714858 546.892578,203.84375 C548.773447,200.972642 550.124019,198.133803 550.944336,195.327148 C551.764653,192.520494 552.174805,189.822279 552.174805,187.232422 C552.174805,185.427725 551.969729,183.801765 551.55957,182.354492 C551.149412,180.907219 550.704104,179.834964 550.223633,179.137695 C549.743162,178.440426 549.297854,177.839846 548.887695,177.335938 C548.477537,176.832029 548.272461,176.521485 548.272461,176.404297 C548.272461,176.134764 548.489256,176 548.922852,176 L550.118164,176 C550.305665,176 550.466796,176.023437 550.601562,176.070312 C550.736329,176.117188 550.935546,176.2666 551.199219,176.518555 C551.462892,176.770509 551.799803,177.148435 552.209961,177.652344 C554.202158,180.2422 555.198242,183.529277 555.198242,187.513672 C555.198242,189.341806 554.969729,191.269521 554.512695,193.296875 C554.055662,195.324229 553.375981,197.395497 552.473633,199.510742 C551.571285,201.625987 550.340828,203.691396 548.782227,205.707031 C547.223625,207.722666 545.448252,209.462883 543.456055,210.927734 C543.362304,210.998047 543.22461,211.097656 543.042969,211.226562 C542.861327,211.355469 542.747071,211.4375 542.700195,211.472656 C542.65332,211.507813 542.562501,211.569335 542.427734,211.657227 C542.292968,211.745118 542.208008,211.800781 542.172852,211.824219 C542.137695,211.847656 542.073243,211.882812 541.979492,211.929688 C541.885742,211.976563 541.803711,212 541.733398,212 C541.663086,212 541.583985,212.005859 541.496094,212.017578 C541.408203,212.029297 541.305665,212.035156 541.188477,212.035156 C541.141601,212.035156 541.06543,212.029297 540.959961,212.017578 C540.854492,212.005859 540.775391,212 540.722656,212 C540.669922,212 540.59668,212.005859 540.50293,212.017578 C540.409179,212.029297 540.338867,212.035156 540.291992,212.035156 C539.741208,212.035156 539.46582,211.888673 539.46582,211.595703 Z" id="P(B)" fill="#37C3BE"></path>
            <path d="M304,139.5 L711.5,139.5" id="Line" stroke="#37C3BE" stroke-width="3" stroke-linecap="square"></path>
            <rect id="Rectangle-2" stroke="#37C3BE" stroke-width="4" fill-rule="nonzero" x="2" y="2" width="791" height="276" rx="18"></rect>
        </g>
    </g>
</svg>