<?xml version="1.0" encoding="UTF-8"?>
<svg width="421px" height="213px" viewBox="0 0 421 213" version="1.1" xmlns="http://www.w3.org/2000/svg" xmlns:xlink="http://www.w3.org/1999/xlink">
    <!-- Generator: Sketch 53 (72520) - https://sketchapp.com -->
    <title>0-100</title>
    <desc>Created with Sketch.</desc>
    <g id="0-100" stroke="none" stroke-width="1" fill="none" fill-rule="evenodd">
        <g id="Group" transform="translate(29.000000, 31.000000)" fill-rule="nonzero">
            <circle id="Oval-Copy-5" fill="#4C7EF3" cx="140.5" cy="117.5" r="2.5"></circle>
            <circle id="Oval-Copy-7" fill="#4C7EF3" cx="167.5" cy="117.5" r="2.5"></circle>
            <circle id="Oval-Copy-6" fill="#4C7EF3" cx="193.5" cy="117.5" r="2.5"></circle>
            <circle id="Oval-Copy-12" fill="#4C7EF3" cx="186.5" cy="117.5" r="2.5"></circle>
            <circle id="Oval-Copy-10" fill="#4C7EF3" cx="211.5" cy="117.5" r="2.5"></circle>
            <circle id="Oval-Copy-23" fill="#4C7EF3" cx="273.5" cy="117.5" r="2.5"></circle>
            <circle id="Oval-Copy-35" fill="#4C7EF3" cx="293.5" cy="117.5" r="2.5"></circle>
            <circle id="Oval-Copy-37" fill="#4C7EF3" cx="286.5" cy="117.5" r="2.5"></circle>
            <circle id="Oval-Copy-30" fill="#4C7EF3" cx="334.5" cy="117.5" r="2.5"></circle>
            <circle id="Oval-Copy-42" fill="#4C7EF3" cx="348.5" cy="117.5" r="2.5"></circle>
            <circle id="Oval-Copy-38" fill="#4C7EF3" cx="307.5" cy="117.5" r="2.5"></circle>
            <circle id="Oval-Copy-33" fill="#4C7EF3" cx="322.5" cy="117.5" r="2.5"></circle>
            <circle id="Oval-Copy-28" fill="#4C7EF3" cx="273.5" cy="108.5" r="2.5"></circle>
            <circle id="Oval-Copy-36" fill="#4C7EF3" cx="293.5" cy="108.5" r="2.5"></circle>
            <circle id="Oval-Copy-31" fill="#4C7EF3" cx="334.5" cy="108.5" r="2.5"></circle>
            <circle id="Oval-Copy-43" fill="#4C7EF3" cx="348.5" cy="108.5" r="2.5"></circle>
            <circle id="Oval-Copy-39" fill="#4C7EF3" cx="307.5" cy="108.5" r="2.5"></circle>
            <circle id="Oval-Copy-34" fill="#4C7EF3" cx="322.5" cy="108.5" r="2.5"></circle>
            <circle id="Oval-Copy-29" fill="#4C7EF3" cx="273.5" cy="99.5" r="2.5"></circle>
            <circle id="Oval-Copy-32" fill="#4C7EF3" cx="334.5" cy="99.5" r="2.5"></circle>
            <circle id="Oval-Copy-44" fill="#4C7EF3" cx="348.5" cy="99.5" r="2.5"></circle>
            <circle id="Oval-Copy-41" fill="#4C7EF3" cx="322.5" cy="99.5" r="2.5"></circle>
            <circle id="Oval-Copy-40" fill="#4C7EF3" cx="307.5" cy="99.5" r="2.5"></circle>
            <circle id="Oval-Copy-26" fill="#4C7EF3" cx="245.5" cy="117.5" r="2.5"></circle>
            <circle id="Oval-Copy-27" fill="#4C7EF3" cx="254.5" cy="117.5" r="2.5"></circle>
            <circle id="Oval-Copy-25" fill="#4C7EF3" cx="235.5" cy="117.5" r="2.5"></circle>
            <circle id="Oval-Copy-24" fill="#4C7EF3" cx="218.5" cy="117.5" r="2.5"></circle>
            <circle id="Oval-Copy-9" fill="#4C7EF3" cx="193.5" cy="108.5" r="2.5"></circle>
            <circle id="Oval-Copy-11" fill="#4C7EF3" cx="211.5" cy="108.5" r="2.5"></circle>
            <circle id="Oval-Copy-8" fill="#4C7EF3" cx="86.5" cy="117.5" r="2.5"></circle>
            <path d="M51.39,155.31 L51.39,156 L46.85,156 L46.85,155.38 L49.32,152.66 C49.653335,152.286665 49.8949992,151.951668 50.045,151.655 C50.1950007,151.358332 50.27,151.060001 50.27,150.76 C50.27,150.373331 50.1566678,150.076668 49.93,149.87 C49.7033322,149.663332 49.3833354,149.56 48.97,149.56 C48.2899966,149.56 47.6233366,149.829997 46.97,150.37 L46.66,149.74 C46.9400014,149.473332 47.2916645,149.261667 47.715,149.105 C48.1383354,148.948333 48.5633312,148.87 48.99,148.87 C49.6366699,148.87 50.1483314,149.036665 50.525,149.37 C50.9016685,149.703335 51.09,150.15333 51.09,150.72 C51.09,151.126669 50.9983342,151.516665 50.815,151.89 C50.6316657,152.263335 50.3300021,152.679998 49.91,153.14 L47.91,155.31 L51.39,155.31 Z M55,156.08 C54.1933293,156.08 53.5800021,155.773336 53.16,155.16 C52.7399979,154.546664 52.53,153.653339 52.53,152.48 C52.53,151.299994 52.7399979,150.403336 53.16,149.79 C53.5800021,149.176664 54.1933293,148.87 55,148.87 C55.8066707,148.87 56.4199979,149.174997 56.84,149.785 C57.2600021,150.395003 57.47,151.289994 57.47,152.47 C57.47,153.650006 57.2600021,154.546664 56.84,155.16 C56.4199979,155.773336 55.8066707,156.08 55,156.08 Z M55,155.39 C55.5600028,155.39 55.973332,155.153336 56.24,154.68 C56.506668,154.206664 56.64,153.470005 56.64,152.47 C56.64,151.463328 56.5083346,150.728336 56.245,150.265 C55.9816653,149.801664 55.5666695,149.57 55,149.57 C54.4399972,149.57 54.026668,149.803331 53.76,150.27 C53.493332,150.736669 53.36,151.469995 53.36,152.47 C53.36,153.470005 53.493332,154.206664 53.76,154.68 C54.026668,155.153336 54.4399972,155.39 55,155.39 Z" id="20" fill="#0F1931"></path>
            <path d="M13.67,155.31 L15.22,155.31 L15.22,156 L11.3,156 L11.3,155.31 L12.85,155.31 L12.85,149.97 L11.61,150.75 L11.23,150.12 L13.08,148.95 L13.67,148.95 L13.67,155.31 Z M19,156.08 C18.1933293,156.08 17.5800021,155.773336 17.16,155.16 C16.7399979,154.546664 16.53,153.653339 16.53,152.48 C16.53,151.299994 16.7399979,150.403336 17.16,149.79 C17.5800021,149.176664 18.1933293,148.87 19,148.87 C19.8066707,148.87 20.4199979,149.174997 20.84,149.785 C21.2600021,150.395003 21.47,151.289994 21.47,152.47 C21.47,153.650006 21.2600021,154.546664 20.84,155.16 C20.4199979,155.773336 19.8066707,156.08 19,156.08 Z M19,155.39 C19.5600028,155.39 19.973332,155.153336 20.24,154.68 C20.506668,154.206664 20.64,153.470005 20.64,152.47 C20.64,151.463328 20.5083347,150.728336 20.245,150.265 C19.9816654,149.801664 19.5666695,149.57 19,149.57 C18.4399972,149.57 18.026668,149.803331 17.76,150.27 C17.493332,150.736669 17.36,151.469995 17.36,152.47 C17.36,153.470005 17.493332,154.206664 17.76,154.68 C18.026668,155.153336 18.4399972,155.39 19,155.39 Z" id="10" fill="#0F1931"></path>
            <path d="M86.97,152.38 C87.3833354,152.500001 87.6999989,152.704999 87.92,152.995 C88.1400011,153.285001 88.25,153.649998 88.25,154.09 C88.25,154.703336 88.0416687,155.186665 87.625,155.54 C87.2083313,155.893335 86.6433369,156.07 85.93,156.07 C85.4766644,156.07 85.0400021,155.993334 84.62,155.84 C84.1999979,155.686666 83.8466681,155.473335 83.56,155.2 L83.87,154.57 C84.5100032,155.110003 85.1899964,155.38 85.91,155.38 C86.4100025,155.38 86.7899987,155.268334 87.05,155.045 C87.3100013,154.821666 87.44,154.493335 87.44,154.06 C87.44,153.199996 86.9000054,152.77 85.82,152.77 L85.01,152.77 L85.01,152.08 L85.66,152.08 C86.1800026,152.08 86.5799986,151.965001 86.86,151.735 C87.1400014,151.504999 87.28,151.173335 87.28,150.74 C87.28,150.359998 87.1666678,150.068334 86.94,149.865 C86.7133322,149.661666 86.3900021,149.56 85.97,149.56 C85.2899966,149.56 84.6233366,149.829997 83.97,150.37 L83.66,149.74 C83.9466681,149.466665 84.2966646,149.253334 84.71,149.1 C85.1233354,148.946666 85.5533311,148.87 86,148.87 C86.6400032,148.87 87.1483315,149.031665 87.525,149.355 C87.9016685,149.678335 88.09,150.113331 88.09,150.66 C88.09,151.066669 87.9916676,151.421665 87.795,151.725 C87.5983323,152.028335 87.3233351,152.246666 86.97,152.38 Z M92,156.08 C91.1933293,156.08 90.5800021,155.773336 90.16,155.16 C89.7399979,154.546664 89.53,153.653339 89.53,152.48 C89.53,151.299994 89.7399979,150.403336 90.16,149.79 C90.5800021,149.176664 91.1933293,148.87 92,148.87 C92.8066707,148.87 93.4199979,149.174997 93.84,149.785 C94.2600021,150.395003 94.47,151.289994 94.47,152.47 C94.47,153.650006 94.2600021,154.546664 93.84,155.16 C93.4199979,155.773336 92.8066707,156.08 92,156.08 Z M92,155.39 C92.5600028,155.39 92.973332,155.153336 93.24,154.68 C93.506668,154.206664 93.64,153.470005 93.64,152.47 C93.64,151.463328 93.5083346,150.728336 93.245,150.265 C92.9816654,149.801664 92.5666695,149.57 92,149.57 C91.4399972,149.57 91.026668,149.803331 90.76,150.27 C90.493332,150.736669 90.36,151.469995 90.36,152.47 C90.36,153.470005 90.493332,154.206664 90.76,154.68 C91.026668,155.153336 91.4399972,155.39 92,155.39 Z" id="30" fill="#0F1931"></path>
            <path d="M196.305,151.57 C196.731669,151.57 197.111665,151.663332 197.445,151.85 C197.778335,152.036668 198.038332,152.299998 198.225,152.64 C198.411668,152.980002 198.505,153.369998 198.505,153.81 C198.505,154.243335 198.408334,154.633332 198.215,154.98 C198.021666,155.326668 197.751668,155.596666 197.405,155.79 C197.058332,155.983334 196.668336,156.08 196.235,156.08 C195.381662,156.08 194.723336,155.783336 194.26,155.19 C193.796664,154.596664 193.565,153.750005 193.565,152.65 C193.565,151.856663 193.673332,151.176669 193.89,150.61 C194.106668,150.04333 194.418331,149.611668 194.825,149.315 C195.231669,149.018332 195.718331,148.87 196.285,148.87 C196.691669,148.87 197.088331,148.944999 197.475,149.095 C197.861669,149.245001 198.201665,149.459999 198.495,149.74 L198.185,150.37 C197.851665,150.089999 197.533335,149.885001 197.23,149.755 C196.926665,149.624999 196.618335,149.56 196.305,149.56 C195.69833,149.56 195.226668,149.828331 194.89,150.365 C194.553332,150.901669 194.385,151.659995 194.385,152.64 L194.385,152.79 C194.538334,152.416665 194.784998,152.120001 195.125,151.9 C195.465002,151.679999 195.858331,151.57 196.305,151.57 Z M196.195,155.39 C196.648336,155.39 197.011665,155.246668 197.285,154.96 C197.558335,154.673332 197.695,154.293336 197.695,153.82 C197.695,153.353331 197.556668,152.976668 197.28,152.69 C197.003332,152.403332 196.638336,152.26 196.185,152.26 C195.724998,152.26 195.350001,152.404999 195.06,152.695 C194.769999,152.985001 194.625,153.359998 194.625,153.82 C194.625,154.286669 194.769999,154.664999 195.06,154.955 C195.350001,155.245001 195.728331,155.39 196.195,155.39 Z M201.995,156.08 C201.188329,156.08 200.575002,155.773336 200.155,155.16 C199.734998,154.546664 199.525,153.653339 199.525,152.48 C199.525,151.299994 199.734998,150.403336 200.155,149.79 C200.575002,149.176664 201.188329,148.87 201.995,148.87 C202.801671,148.87 203.414998,149.174997 203.835,149.785 C204.255002,150.395003 204.465,151.289994 204.465,152.47 C204.465,153.650006 204.255002,154.546664 203.835,155.16 C203.414998,155.773336 202.801671,156.08 201.995,156.08 Z M201.995,155.39 C202.555003,155.39 202.968332,155.153336 203.235,154.68 C203.501668,154.206664 203.635,153.470005 203.635,152.47 C203.635,151.463328 203.503335,150.728336 203.24,150.265 C202.976665,149.801664 202.561669,149.57 201.995,149.57 C201.434997,149.57 201.021668,149.803331 200.755,150.27 C200.488332,150.736669 200.355,151.469995 200.355,152.47 C200.355,153.470005 200.488332,154.206664 200.755,154.68 C201.021668,155.153336 201.434997,155.39 201.995,155.39 Z" id="60" fill="#0F1931"></path>
            <path d="M230.67,148.95 L235.33,148.95 L235.33,149.56 L232.03,156 L231.14,156 L234.43,149.64 L230.67,149.64 L230.67,148.95 Z M239,156.08 C238.193329,156.08 237.580002,155.773336 237.16,155.16 C236.739998,154.546664 236.53,153.653339 236.53,152.48 C236.53,151.299994 236.739998,150.403336 237.16,149.79 C237.580002,149.176664 238.193329,148.87 239,148.87 C239.806671,148.87 240.419998,149.174997 240.84,149.785 C241.260002,150.395003 241.47,151.289994 241.47,152.47 C241.47,153.650006 241.260002,154.546664 240.84,155.16 C240.419998,155.773336 239.806671,156.08 239,156.08 Z M239,155.39 C239.560003,155.39 239.973332,155.153336 240.24,154.68 C240.506668,154.206664 240.64,153.470005 240.64,152.47 C240.64,151.463328 240.508335,150.728336 240.245,150.265 C239.981665,149.801664 239.566669,149.57 239,149.57 C238.439997,149.57 238.026668,149.803331 237.76,150.27 C237.493332,150.736669 237.36,151.469995 237.36,152.47 C237.36,153.470005 237.493332,154.206664 237.76,154.68 C238.026668,155.153336 238.439997,155.39 239,155.39 Z" id="70" fill="#0F1931"></path>
            <path d="M271.22,152.38 C271.633335,152.506667 271.954999,152.723332 272.185,153.03 C272.415001,153.336668 272.53,153.703331 272.53,154.13 C272.53,154.73667 272.310002,155.211665 271.87,155.555 C271.429998,155.898335 270.806671,156.07 270,156.07 C269.193329,156.07 268.570002,155.898335 268.13,155.555 C267.689998,155.211665 267.47,154.73667 267.47,154.13 C267.47,153.696664 267.586665,153.326668 267.82,153.02 C268.053335,152.713332 268.376665,152.500001 268.79,152.38 C268.436665,152.246666 268.156668,152.036668 267.95,151.75 C267.743332,151.463332 267.64,151.126669 267.64,150.74 C267.64,150.166664 267.848331,149.711668 268.265,149.375 C268.681669,149.038332 269.259996,148.87 270,148.87 C270.740004,148.87 271.318331,149.038332 271.735,149.375 C272.151669,149.711668 272.36,150.166664 272.36,150.74 C272.36,151.126669 272.256668,151.464999 272.05,151.755 C271.843332,152.045001 271.566668,152.253333 271.22,152.38 Z M268.45,150.8 C268.45,151.213335 268.581665,151.529999 268.845,151.75 C269.108335,151.970001 269.493331,152.08 270,152.08 C270.506669,152.08 270.891665,151.970001 271.155,151.75 C271.418335,151.529999 271.55,151.213335 271.55,150.8 C271.55,150.406665 271.418335,150.100001 271.155,149.88 C270.891665,149.659999 270.506669,149.55 270,149.55 C269.493331,149.55 269.108335,149.659999 268.845,149.88 C268.581665,150.100001 268.45,150.406665 268.45,150.8 Z M270,155.39 C271.146672,155.39 271.72,154.953338 271.72,154.08 C271.72,153.206662 271.146672,152.77 270,152.77 C268.853328,152.77 268.28,153.206662 268.28,154.08 C268.28,154.953338 268.853328,155.39 270,155.39 Z M276,156.08 C275.193329,156.08 274.580002,155.773336 274.16,155.16 C273.739998,154.546664 273.53,153.653339 273.53,152.48 C273.53,151.299994 273.739998,150.403336 274.16,149.79 C274.580002,149.176664 275.193329,148.87 276,148.87 C276.806671,148.87 277.419998,149.174997 277.84,149.785 C278.260002,150.395003 278.47,151.289994 278.47,152.47 C278.47,153.650006 278.260002,154.546664 277.84,155.16 C277.419998,155.773336 276.806671,156.08 276,156.08 Z M276,155.39 C276.560003,155.39 276.973332,155.153336 277.24,154.68 C277.506668,154.206664 277.64,153.470005 277.64,152.47 C277.64,151.463328 277.508335,150.728336 277.245,150.265 C276.981665,149.801664 276.566669,149.57 276,149.57 C275.439997,149.57 275.026668,149.803331 274.76,150.27 C274.493332,150.736669 274.36,151.469995 274.36,152.47 C274.36,153.470005 274.493332,154.206664 274.76,154.68 C275.026668,155.153336 275.439997,155.39 276,155.39 Z" id="80" fill="#0F1931"></path>
            <path d="M306.78,148.87 C307.633338,148.87 308.291664,149.166664 308.755,149.76 C309.218336,150.353336 309.45,151.199994 309.45,152.3 C309.45,153.493339 309.210002,154.421663 308.73,155.085 C308.249998,155.748337 307.580004,156.08 306.72,156.08 C306.319998,156.08 305.926669,156.005001 305.54,155.855 C305.153331,155.704999 304.813335,155.490001 304.52,155.21 L304.83,154.58 C305.163335,154.860001 305.481665,155.064999 305.785,155.195 C306.088335,155.325001 306.396665,155.39 306.71,155.39 C307.31667,155.39 307.786665,155.121669 308.12,154.585 C308.453335,154.048331 308.62,153.290005 308.62,152.31 L308.62,152.18 C308.466666,152.553335 308.218335,152.846666 307.875,153.06 C307.531665,153.273334 307.143335,153.38 306.71,153.38 C306.283331,153.38 305.903335,153.286668 305.57,153.1 C305.236665,152.913332 304.976668,152.650002 304.79,152.31 C304.603332,151.969998 304.51,151.580002 304.51,151.14 C304.51,150.706664 304.606666,150.316668 304.8,149.97 C304.993334,149.623332 305.263332,149.353334 305.61,149.16 C305.956668,148.966666 306.346664,148.87 306.78,148.87 Z M306.83,152.69 C307.290002,152.69 307.664999,152.545001 307.955,152.255 C308.245001,151.964999 308.39,151.590002 308.39,151.13 C308.39,150.663331 308.245001,150.285001 307.955,149.995 C307.664999,149.704999 307.286669,149.56 306.82,149.56 C306.366664,149.56 306.003335,149.703332 305.73,149.99 C305.456665,150.276668 305.32,150.656664 305.32,151.13 C305.32,151.603336 305.458332,151.981665 305.735,152.265 C306.011668,152.548335 306.376664,152.69 306.83,152.69 Z M313,156.08 C312.193329,156.08 311.580002,155.773336 311.16,155.16 C310.739998,154.546664 310.53,153.653339 310.53,152.48 C310.53,151.299994 310.739998,150.403336 311.16,149.79 C311.580002,149.176664 312.193329,148.87 313,148.87 C313.806671,148.87 314.419998,149.174997 314.84,149.785 C315.260002,150.395003 315.47,151.289994 315.47,152.47 C315.47,153.650006 315.260002,154.546664 314.84,155.16 C314.419998,155.773336 313.806671,156.08 313,156.08 Z M313,155.39 C313.560003,155.39 313.973332,155.153336 314.24,154.68 C314.506668,154.206664 314.64,153.470005 314.64,152.47 C314.64,151.463328 314.508335,150.728336 314.245,150.265 C313.981665,149.801664 313.566669,149.57 313,149.57 C312.439997,149.57 312.026668,149.803331 311.76,150.27 C311.493332,150.736669 311.36,151.469995 311.36,152.47 C311.36,153.470005 311.493332,154.206664 311.76,154.68 C312.026668,155.153336 312.439997,155.39 313,155.39 Z" id="90" fill="#0F1931"></path>
            <path d="M125.64,153.79 L125.64,154.47 L124.58,154.47 L124.58,156 L123.77,156 L123.77,154.47 L120.51,154.47 L120.51,153.85 L123.91,148.95 L124.58,148.95 L124.58,153.79 L125.64,153.79 Z M121.36,153.79 L123.77,153.79 L123.77,150.32 L121.36,153.79 Z M129,156.08 C128.193329,156.08 127.580002,155.773336 127.16,155.16 C126.739998,154.546664 126.53,153.653339 126.53,152.48 C126.53,151.299994 126.739998,150.403336 127.16,149.79 C127.580002,149.176664 128.193329,148.87 129,148.87 C129.806671,148.87 130.419998,149.174997 130.84,149.785 C131.260002,150.395003 131.47,151.289994 131.47,152.47 C131.47,153.650006 131.260002,154.546664 130.84,155.16 C130.419998,155.773336 129.806671,156.08 129,156.08 Z M129,155.39 C129.560003,155.39 129.973332,155.153336 130.24,154.68 C130.506668,154.206664 130.64,153.470005 130.64,152.47 C130.64,151.463328 130.508335,150.728336 130.245,150.265 C129.981665,149.801664 129.566669,149.57 129,149.57 C128.439997,149.57 128.026668,149.803331 127.76,150.27 C127.493332,150.736669 127.36,151.469995 127.36,152.47 C127.36,153.470005 127.493332,154.206664 127.76,154.68 C128.026668,155.153336 128.439997,155.39 129,155.39 Z" id="40" fill="#0F1931"></path>
            <path d="M160.3,151.58 C160.746669,151.58 161.134998,151.673332 161.465,151.86 C161.795002,152.046668 162.049999,152.308332 162.23,152.645 C162.410001,152.981668 162.5,153.369998 162.5,153.81 C162.5,154.256669 162.401668,154.649998 162.205,154.99 C162.008332,155.330002 161.730002,155.594999 161.37,155.785 C161.009998,155.975001 160.590002,156.07 160.11,156.07 C159.683331,156.07 159.261669,155.991667 158.845,155.835 C158.428331,155.678333 158.076668,155.466668 157.79,155.2 L158.1,154.57 C158.753337,155.110003 159.42333,155.38 160.11,155.38 C160.603336,155.38 160.989999,155.240001 161.27,154.96 C161.550001,154.679999 161.69,154.300002 161.69,153.82 C161.69,153.353331 161.551668,152.976668 161.275,152.69 C160.998332,152.403332 160.630002,152.26 160.17,152.26 C159.496663,152.26 158.960002,152.533331 158.56,153.08 L157.99,153.08 L157.99,148.95 L162.22,148.95 L162.22,149.63 L158.8,149.63 L158.8,152.14 C158.986668,151.959999 159.208332,151.821667 159.465,151.725 C159.721668,151.628333 159.999998,151.58 160.3,151.58 Z M166,156.08 C165.193329,156.08 164.580002,155.773336 164.16,155.16 C163.739998,154.546664 163.53,153.653339 163.53,152.48 C163.53,151.299994 163.739998,150.403336 164.16,149.79 C164.580002,149.176664 165.193329,148.87 166,148.87 C166.806671,148.87 167.419998,149.174997 167.84,149.785 C168.260002,150.395003 168.47,151.289994 168.47,152.47 C168.47,153.650006 168.260002,154.546664 167.84,155.16 C167.419998,155.773336 166.806671,156.08 166,156.08 Z M166,155.39 C166.560003,155.39 166.973332,155.153336 167.24,154.68 C167.506668,154.206664 167.64,153.470005 167.64,152.47 C167.64,151.463328 167.508335,150.728336 167.245,150.265 C166.981665,149.801664 166.566669,149.57 166,149.57 C165.439997,149.57 165.026668,149.803331 164.76,150.27 C164.493332,150.736669 164.36,151.469995 164.36,152.47 C164.36,153.470005 164.493332,154.206664 164.76,154.68 C165.026668,155.153336 165.439997,155.39 166,155.39 Z" id="50" fill="#0F1931"></path>
            <path d="M341.17,155.31 L342.72,155.31 L342.72,156 L338.8,156 L338.8,155.31 L340.35,155.31 L340.35,149.97 L339.11,150.75 L338.73,150.12 L340.58,148.95 L341.17,148.95 L341.17,155.31 Z M346.5,156.08 C345.693329,156.08 345.080002,155.773336 344.66,155.16 C344.239998,154.546664 344.03,153.653339 344.03,152.48 C344.03,151.299994 344.239998,150.403336 344.66,149.79 C345.080002,149.176664 345.693329,148.87 346.5,148.87 C347.306671,148.87 347.919998,149.174997 348.34,149.785 C348.760002,150.395003 348.97,151.289994 348.97,152.47 C348.97,153.650006 348.760002,154.546664 348.34,155.16 C347.919998,155.773336 347.306671,156.08 346.5,156.08 Z M346.5,155.39 C347.060003,155.39 347.473332,155.153336 347.74,154.68 C348.006668,154.206664 348.14,153.470005 348.14,152.47 C348.14,151.463328 348.008335,150.728336 347.745,150.265 C347.481665,149.801664 347.066669,149.57 346.5,149.57 C345.939997,149.57 345.526668,149.803331 345.26,150.27 C344.993332,150.736669 344.86,151.469995 344.86,152.47 C344.86,153.470005 344.993332,154.206664 345.26,154.68 C345.526668,155.153336 345.939997,155.39 346.5,155.39 Z M352.5,156.08 C351.693329,156.08 351.080002,155.773336 350.66,155.16 C350.239998,154.546664 350.03,153.653339 350.03,152.48 C350.03,151.299994 350.239998,150.403336 350.66,149.79 C351.080002,149.176664 351.693329,148.87 352.5,148.87 C353.306671,148.87 353.919998,149.174997 354.34,149.785 C354.760002,150.395003 354.97,151.289994 354.97,152.47 C354.97,153.650006 354.760002,154.546664 354.34,155.16 C353.919998,155.773336 353.306671,156.08 352.5,156.08 Z M352.5,155.39 C353.060003,155.39 353.473332,155.153336 353.74,154.68 C354.006668,154.206664 354.14,153.470005 354.14,152.47 C354.14,151.463328 354.008335,150.728336 353.745,150.265 C353.481665,149.801664 353.066669,149.57 352.5,149.57 C351.939997,149.57 351.526668,149.803331 351.26,150.27 C350.993332,150.736669 350.86,151.469995 350.86,152.47 C350.86,153.470005 350.993332,154.206664 351.26,154.68 C351.526668,155.153336 351.939997,155.39 352.5,155.39 Z" id="100" fill="#0F1931"></path>
            <path d="M20.5,137.5 C21.0522847,137.5 21.5,137.947715 21.5,138.5 C21.5,139.052285 21.0522847,139.5 20.5,139.5 L11.5,139.5 C10.9477153,139.5 10.5,139.052285 10.5,138.5 C10.5,137.947715 10.9477153,137.5 11.5,137.5 L20.5,137.5 Z" id="1" fill="#0F1931" transform="translate(16.000000, 138.500000) rotate(-90.000000) translate(-16.000000, -138.500000) "></path>
            <path d="M56.5,137.5 C57.0522847,137.5 57.5,137.947715 57.5,138.5 C57.5,139.052285 57.0522847,139.5 56.5,139.5 L47.5,139.5 C46.9477153,139.5 46.5,139.052285 46.5,138.5 C46.5,137.947715 46.9477153,137.5 47.5,137.5 L56.5,137.5 Z" id="1-copy-6" fill="#0F1931" transform="translate(52.000000, 138.500000) rotate(-90.000000) translate(-52.000000, -138.500000) "></path>
            <path d="M93.5,137.5 C94.0522847,137.5 94.5,137.947715 94.5,138.5 C94.5,139.052285 94.0522847,139.5 93.5,139.5 L84.5,139.5 C83.9477153,139.5 83.5,139.052285 83.5,138.5 C83.5,137.947715 83.9477153,137.5 84.5,137.5 L93.5,137.5 Z" id="1-copy-7" fill="#0F1931" transform="translate(89.000000, 138.500000) rotate(-90.000000) translate(-89.000000, -138.500000) "></path>
            <path d="M130.5,137.5 C131.052285,137.5 131.5,137.947715 131.5,138.5 C131.5,139.052285 131.052285,139.5 130.5,139.5 L121.5,139.5 C120.947715,139.5 120.5,139.052285 120.5,138.5 C120.5,137.947715 120.947715,137.5 121.5,137.5 L130.5,137.5 Z" id="1-copy-9" fill="#0F1931" transform="translate(126.000000, 138.500000) rotate(-90.000000) translate(-126.000000, -138.500000) "></path>
            <path d="M167.5,137.5 C168.052285,137.5 168.5,137.947715 168.5,138.5 C168.5,139.052285 168.052285,139.5 167.5,139.5 L158.5,139.5 C157.947715,139.5 157.5,139.052285 157.5,138.5 C157.5,137.947715 157.947715,137.5 158.5,137.5 L167.5,137.5 Z" id="3" fill="#0F1931" transform="translate(163.000000, 138.500000) rotate(-90.000000) translate(-163.000000, -138.500000) "></path>
            <path d="M203.5,137.5 C204.052285,137.5 204.5,137.947715 204.5,138.5 C204.5,139.052285 204.052285,139.5 203.5,139.5 L194.5,139.5 C193.947715,139.5 193.5,139.052285 193.5,138.5 C193.5,137.947715 193.947715,137.5 194.5,137.5 L203.5,137.5 Z" id="5-copy-2" fill="#0F1931" transform="translate(199.000000, 138.500000) rotate(-90.000000) translate(-199.000000, -138.500000) "></path>
            <path d="M240.5,137.5 C241.052285,137.5 241.5,137.947715 241.5,138.5 C241.5,139.052285 241.052285,139.5 240.5,139.5 L231.5,139.5 C230.947715,139.5 230.5,139.052285 230.5,138.5 C230.5,137.947715 230.947715,137.5 231.5,137.5 L240.5,137.5 Z" id="5-copy-3" fill="#0F1931" transform="translate(236.000000, 138.500000) rotate(-90.000000) translate(-236.000000, -138.500000) "></path>
            <path d="M277.5,137.5 C278.052285,137.5 278.5,137.947715 278.5,138.5 C278.5,139.052285 278.052285,139.5 277.5,139.5 L268.5,139.5 C267.947715,139.5 267.5,139.052285 267.5,138.5 C267.5,137.947715 267.947715,137.5 268.5,137.5 L277.5,137.5 Z" id="5-copy-7" fill="#0F1931" transform="translate(273.000000, 138.500000) rotate(-90.000000) translate(-273.000000, -138.500000) "></path>
            <path d="M314.5,137.5 C315.052285,137.5 315.5,137.947715 315.5,138.5 C315.5,139.052285 315.052285,139.5 314.5,139.5 L305.5,139.5 C304.947715,139.5 304.5,139.052285 304.5,138.5 C304.5,137.947715 304.947715,137.5 305.5,137.5 L314.5,137.5 Z" id="5-copy-10" fill="#0F1931" transform="translate(310.000000, 138.500000) rotate(-90.000000) translate(-310.000000, -138.500000) "></path>
            <path d="M351.5,137.5 C352.052285,137.5 352.5,137.947715 352.5,138.5 C352.5,139.052285 352.052285,139.5 351.5,139.5 L342.5,139.5 C341.947715,139.5 341.5,139.052285 341.5,138.5 C341.5,137.947715 341.947715,137.5 342.5,137.5 L351.5,137.5 Z" id="6" fill="#0F1931" transform="translate(347.000000, 138.500000) rotate(-90.000000) translate(-347.000000, -138.500000) "></path>
            <path d="M1,140 C0.44771525,140 0,139.552285 0,139 C0,138.447715 0.44771525,138 1,138 L362,138 C362.552285,138 363,138.447715 363,139 C363,139.552285 362.552285,140 362,140 L1,140 Z" id="Line" fill="#0F1931"></path>
            <rect id="Rectangle-Copy-17" fill="#4C7EF3" x="176" y="4.54747351e-13" width="2" height="144"></rect>
            <rect id="Rectangle-Copy-18" fill="#4C7EF3" x="204" y="4.54747351e-13" width="2" height="144"></rect>
            <rect id="Rectangle-Copy-19" fill="#4C7EF3" x="228" y="4.54747351e-13" width="2" height="144"></rect>
            <rect id="Rectangle-Copy-20" fill="#4C7EF3" x="262" y="4.54747351e-13" width="2" height="144"></rect>
            <rect id="Rectangle-Copy-21" fill="#4C7EF3" x="279" y="4.54747351e-13" width="2" height="144"></rect>
            <rect id="Rectangle-Copy-23" fill="#4C7EF3" x="299" y="4.54747351e-13" width="2" height="144"></rect>
            <rect id="Rectangle-Copy-22" fill="#4C7EF3" x="316" y="4.54747351e-13" width="2" height="144"></rect>
            <rect id="Rectangle-Copy-25" fill="#4C7EF3" x="328" y="4.54747351e-13" width="2" height="144"></rect>
            <rect id="Rectangle-Copy-27" fill="#4C7EF3" x="340" y="4.54747351e-13" width="2" height="144"></rect>
        </g>
    </g>
</svg>