<?xml version="1.0" encoding="UTF-8"?>
<svg width="421px" height="251px" viewBox="0 0 421 251" version="1.1" xmlns="http://www.w3.org/2000/svg" xmlns:xlink="http://www.w3.org/1999/xlink">
    <!-- Generator: Sketch 53 (72520) - https://sketchapp.com -->
    <title>interquartile</title>
    <desc>Created with Sketch.</desc>
    <g id="interquartile" stroke="none" stroke-width="1" fill="none" fill-rule="evenodd">
        <g id="Group" transform="translate(30.000000, 31.000000)" fill-rule="nonzero">
            <rect id="Rectangle-Copy-16" fill="#FA4359" x="80" y="18" width="2" height="134"></rect>
            <rect id="Rectangle-Copy-4" fill="#FFC107" x="239" y="18" width="2" height="134"></rect>
            <circle id="Oval-Copy-5" fill="#4C7EF3" cx="28" cy="137" r="4"></circle>
            <circle id="Oval-Copy-6" fill="#4C7EF3" cx="41" cy="137" r="4"></circle>
            <circle id="Oval-Copy-10" fill="#4C7EF3" cx="107" cy="137" r="4"></circle>
            <circle id="Oval-Copy-20" fill="#4C7EF3" cx="279" cy="137" r="4"></circle>
            <circle id="Oval-Copy-15" fill="#4C7EF3" cx="134" cy="137" r="4"></circle>
            <circle id="Oval-Copy-16" fill="#4C7EF3" cx="147" cy="137" r="4"></circle>
            <circle id="Oval-Copy-17" fill="#4C7EF3" cx="173" cy="137" r="4"></circle>
            <circle id="Oval-Copy-18" fill="#4C7EF3" cx="200" cy="137" r="4"></circle>
            <circle id="Oval-Copy-22" fill="#4C7EF3" cx="266" cy="137" r="4"></circle>
            <circle id="Oval-Copy-23" fill="#4C7EF3" cx="293" cy="137" r="4"></circle>
            <circle id="Oval-Copy-24" fill="#4C7EF3" cx="319" cy="137" r="4"></circle>
            <circle id="Oval-Copy-19" fill="#4C7EF3" cx="213" cy="137" r="4"></circle>
            <circle id="Oval-Copy-12" fill="#4C7EF3" cx="94" cy="137" r="4"></circle>
            <circle id="Oval-Copy-9" fill="#4C7EF3" cx="41" cy="123" r="4"></circle>
            <circle id="Oval-Copy-11" fill="#4C7EF3" cx="107" cy="123" r="4"></circle>
            <circle id="Oval-Copy-21" fill="#4C7EF3" cx="279" cy="123" r="4"></circle>
            <circle id="Oval-Copy-13" fill="#4C7EF3" cx="94" cy="123" r="4"></circle>
            <circle id="Oval-Copy-14" fill="#4C7EF3" cx="94" cy="109" r="4"></circle>
            <circle id="Oval-Copy-7" fill="#4C7EF3" cx="54" cy="137" r="4"></circle>
            <circle id="Oval-Copy-8" fill="#4C7EF3" cx="67" cy="137" r="4"></circle>
            <path d="M15.3,169.58 C15.7466689,169.58 16.1349984,169.673332 16.465,169.86 C16.7950016,170.046668 17.0499991,170.308332 17.23,170.645 C17.4100009,170.981668 17.5,171.369998 17.5,171.81 C17.5,172.256669 17.4016677,172.649998 17.205,172.99 C17.0083323,173.330002 16.7300018,173.594999 16.37,173.785 C16.0099982,173.975001 15.5900024,174.07 15.11,174.07 C14.6833312,174.07 14.2616688,173.991667 13.845,173.835 C13.4283312,173.678333 13.0766681,173.466668 12.79,173.2 L13.1,172.57 C13.7533366,173.110003 14.4233299,173.38 15.11,173.38 C15.6033358,173.38 15.9899986,173.240001 16.27,172.96 C16.5500014,172.679999 16.69,172.300002 16.69,171.82 C16.69,171.353331 16.551668,170.976668 16.275,170.69 C15.998332,170.403332 15.6300023,170.26 15.17,170.26 C14.4966633,170.26 13.960002,170.533331 13.56,171.08 L12.99,171.08 L12.99,166.95 L17.22,166.95 L17.22,167.63 L13.8,167.63 L13.8,170.14 C13.9866676,169.959999 14.208332,169.821667 14.465,169.725 C14.721668,169.628333 14.9999985,169.58 15.3,169.58 Z" id="5" fill="#0F1931"></path>
            <path d="M78.67,173.31 L80.22,173.31 L80.22,174 L76.3,174 L76.3,173.31 L77.85,173.31 L77.85,167.97 L76.61,168.75 L76.23,168.12 L78.08,166.95 L78.67,166.95 L78.67,173.31 Z M84,174.08 C83.1933293,174.08 82.5800021,173.773336 82.16,173.16 C81.7399979,172.546664 81.53,171.653339 81.53,170.48 C81.53,169.299994 81.7399979,168.403336 82.16,167.79 C82.5800021,167.176664 83.1933293,166.87 84,166.87 C84.8066707,166.87 85.4199979,167.174997 85.84,167.785 C86.2600021,168.395003 86.47,169.289994 86.47,170.47 C86.47,171.650006 86.2600021,172.546664 85.84,173.16 C85.4199979,173.773336 84.8066707,174.08 84,174.08 Z M84,173.39 C84.5600028,173.39 84.973332,173.153336 85.24,172.68 C85.506668,172.206664 85.64,171.470005 85.64,170.47 C85.64,169.463328 85.5083346,168.728336 85.245,168.265 C84.9816654,167.801664 84.5666695,167.57 84,167.57 C83.4399972,167.57 83.026668,167.803331 82.76,168.27 C82.493332,168.736669 82.36,169.469995 82.36,170.47 C82.36,171.470005 82.493332,172.206664 82.76,172.68 C83.026668,173.153336 83.4399972,173.39 84,173.39 Z" id="10" fill="#0F1931"></path>
            <path d="M144.67,173.31 L146.22,173.31 L146.22,174 L142.3,174 L142.3,173.31 L143.85,173.31 L143.85,167.97 L142.61,168.75 L142.23,168.12 L144.08,166.95 L144.67,166.95 L144.67,173.31 Z M150.3,169.58 C150.746669,169.58 151.134998,169.673332 151.465,169.86 C151.795002,170.046668 152.049999,170.308332 152.23,170.645 C152.410001,170.981668 152.5,171.369998 152.5,171.81 C152.5,172.256669 152.401668,172.649998 152.205,172.99 C152.008332,173.330002 151.730002,173.594999 151.37,173.785 C151.009998,173.975001 150.590002,174.07 150.11,174.07 C149.683331,174.07 149.261669,173.991667 148.845,173.835 C148.428331,173.678333 148.076668,173.466668 147.79,173.2 L148.1,172.57 C148.753337,173.110003 149.42333,173.38 150.11,173.38 C150.603336,173.38 150.989999,173.240001 151.27,172.96 C151.550001,172.679999 151.69,172.300002 151.69,171.82 C151.69,171.353331 151.551668,170.976668 151.275,170.69 C150.998332,170.403332 150.630002,170.26 150.17,170.26 C149.496663,170.26 148.960002,170.533331 148.56,171.08 L147.99,171.08 L147.99,166.95 L152.22,166.95 L152.22,167.63 L148.8,167.63 L148.8,170.14 C148.986668,169.959999 149.208332,169.821667 149.465,169.725 C149.721668,169.628333 149.999999,169.58 150.3,169.58 Z" id="15" fill="#0F1931"></path>
            <path d="M212.39,173.31 L212.39,174 L207.85,174 L207.85,173.38 L210.32,170.66 C210.653335,170.286665 210.894999,169.951668 211.045,169.655 C211.195001,169.358332 211.27,169.060001 211.27,168.76 C211.27,168.373331 211.156668,168.076668 210.93,167.87 C210.703332,167.663332 210.383335,167.56 209.97,167.56 C209.289997,167.56 208.623337,167.829997 207.97,168.37 L207.66,167.74 C207.940001,167.473332 208.291665,167.261667 208.715,167.105 C209.138335,166.948333 209.563331,166.87 209.99,166.87 C210.63667,166.87 211.148331,167.036665 211.525,167.37 C211.901669,167.703335 212.09,168.153331 212.09,168.72 C212.09,169.126669 211.998334,169.516665 211.815,169.89 C211.631666,170.263335 211.330002,170.679998 210.91,171.14 L208.91,173.31 L212.39,173.31 Z M216,174.08 C215.193329,174.08 214.580002,173.773336 214.16,173.16 C213.739998,172.546664 213.53,171.653339 213.53,170.48 C213.53,169.299994 213.739998,168.403336 214.16,167.79 C214.580002,167.176664 215.193329,166.87 216,166.87 C216.806671,166.87 217.419998,167.174997 217.84,167.785 C218.260002,168.395003 218.47,169.289994 218.47,170.47 C218.47,171.650006 218.260002,172.546664 217.84,173.16 C217.419998,173.773336 216.806671,174.08 216,174.08 Z M216,173.39 C216.560003,173.39 216.973332,173.153336 217.24,172.68 C217.506668,172.206664 217.64,171.470005 217.64,170.47 C217.64,169.463328 217.508335,168.728336 217.245,168.265 C216.981665,167.801664 216.566669,167.57 216,167.57 C215.439997,167.57 215.026668,167.803331 214.76,168.27 C214.493332,168.736669 214.36,169.469995 214.36,170.47 C214.36,171.470005 214.493332,172.206664 214.76,172.68 C215.026668,173.153336 215.439997,173.39 216,173.39 Z" id="20" fill="#0F1931"></path>
            <path d="M278.39,173.31 L278.39,174 L273.85,174 L273.85,173.38 L276.32,170.66 C276.653335,170.286665 276.894999,169.951668 277.045,169.655 C277.195001,169.358332 277.27,169.060001 277.27,168.76 C277.27,168.373331 277.156668,168.076668 276.93,167.87 C276.703332,167.663332 276.383335,167.56 275.97,167.56 C275.289997,167.56 274.623337,167.829997 273.97,168.37 L273.66,167.74 C273.940001,167.473332 274.291665,167.261667 274.715,167.105 C275.138335,166.948333 275.563331,166.87 275.99,166.87 C276.63667,166.87 277.148331,167.036665 277.525,167.37 C277.901669,167.703335 278.09,168.153331 278.09,168.72 C278.09,169.126669 277.998334,169.516665 277.815,169.89 C277.631666,170.263335 277.330002,170.679998 276.91,171.14 L274.91,173.31 L278.39,173.31 Z M282.3,169.58 C282.746669,169.58 283.134998,169.673332 283.465,169.86 C283.795002,170.046668 284.049999,170.308332 284.23,170.645 C284.410001,170.981668 284.5,171.369998 284.5,171.81 C284.5,172.256669 284.401668,172.649998 284.205,172.99 C284.008332,173.330002 283.730002,173.594999 283.37,173.785 C283.009998,173.975001 282.590002,174.07 282.11,174.07 C281.683331,174.07 281.261669,173.991667 280.845,173.835 C280.428331,173.678333 280.076668,173.466668 279.79,173.2 L280.1,172.57 C280.753337,173.110003 281.42333,173.38 282.11,173.38 C282.603336,173.38 282.989999,173.240001 283.27,172.96 C283.550001,172.679999 283.69,172.300002 283.69,171.82 C283.69,171.353331 283.551668,170.976668 283.275,170.69 C282.998332,170.403332 282.630002,170.26 282.17,170.26 C281.496663,170.26 280.960002,170.533331 280.56,171.08 L279.99,171.08 L279.99,166.95 L284.22,166.95 L284.22,167.63 L280.8,167.63 L280.8,170.14 C280.986668,169.959999 281.208332,169.821667 281.465,169.725 C281.721668,169.628333 281.999999,169.58 282.3,169.58 Z" id="25" fill="#0F1931"></path>
            <path d="M343.97,170.38 C344.383335,170.500001 344.699999,170.704999 344.92,170.995 C345.140001,171.285001 345.25,171.649998 345.25,172.09 C345.25,172.703336 345.041669,173.186665 344.625,173.54 C344.208331,173.893335 343.643337,174.07 342.93,174.07 C342.476664,174.07 342.040002,173.993334 341.62,173.84 C341.199998,173.686666 340.846668,173.473335 340.56,173.2 L340.87,172.57 C341.510003,173.110003 342.189996,173.38 342.91,173.38 C343.410003,173.38 343.789999,173.268334 344.05,173.045 C344.310001,172.821666 344.44,172.493336 344.44,172.06 C344.44,171.199996 343.900005,170.77 342.82,170.77 L342.01,170.77 L342.01,170.08 L342.66,170.08 C343.180003,170.08 343.579999,169.965001 343.86,169.735 C344.140001,169.504999 344.28,169.173336 344.28,168.74 C344.28,168.359998 344.166668,168.068334 343.94,167.865 C343.713332,167.661666 343.390002,167.56 342.97,167.56 C342.289997,167.56 341.623337,167.829997 340.97,168.37 L340.66,167.74 C340.946668,167.466665 341.296665,167.253334 341.71,167.1 C342.123335,166.946666 342.553331,166.87 343,166.87 C343.640003,166.87 344.148331,167.031665 344.525,167.355 C344.901669,167.678335 345.09,168.113331 345.09,168.66 C345.09,169.066669 344.991668,169.421665 344.795,169.725 C344.598332,170.028335 344.323335,170.246666 343.97,170.38 Z M349,174.08 C348.193329,174.08 347.580002,173.773336 347.16,173.16 C346.739998,172.546664 346.53,171.653339 346.53,170.48 C346.53,169.299994 346.739998,168.403336 347.16,167.79 C347.580002,167.176664 348.193329,166.87 349,166.87 C349.806671,166.87 350.419998,167.174997 350.84,167.785 C351.260002,168.395003 351.47,169.289994 351.47,170.47 C351.47,171.650006 351.260002,172.546664 350.84,173.16 C350.419998,173.773336 349.806671,174.08 349,174.08 Z M349,173.39 C349.560003,173.39 349.973332,173.153336 350.24,172.68 C350.506668,172.206664 350.64,171.470005 350.64,170.47 C350.64,169.463328 350.508335,168.728336 350.245,168.265 C349.981665,167.801664 349.566669,167.57 349,167.57 C348.439997,167.57 348.026668,167.803331 347.76,168.27 C347.493332,168.736669 347.36,169.469995 347.36,170.47 C347.36,171.470005 347.493332,172.206664 347.76,172.68 C348.026668,173.153336 348.439997,173.39 349,173.39 Z" id="30" fill="#0F1931"></path>
            <path d="M19.5,155.5 C20.0522847,155.5 20.5,155.947715 20.5,156.5 C20.5,157.052285 20.0522847,157.5 19.5,157.5 L10.5,157.5 C9.94771525,157.5 9.5,157.052285 9.5,156.5 C9.5,155.947715 9.94771525,155.5 10.5,155.5 L19.5,155.5 Z" id="1" fill="#0F1931" transform="translate(15.000000, 156.500000) rotate(-90.000000) translate(-15.000000, -156.500000) "></path>
            <path d="M32.5,155.5 C33.0522847,155.5 33.5,155.947715 33.5,156.5 C33.5,157.052285 33.0522847,157.5 32.5,157.5 L23.5,157.5 C22.9477153,157.5 22.5,157.052285 22.5,156.5 C22.5,155.947715 22.9477153,155.5 23.5,155.5 L32.5,155.5 Z" id="1-copy-3" fill="#0F1931" transform="translate(28.000000, 156.500000) rotate(-90.000000) translate(-28.000000, -156.500000) "></path>
            <path d="M45.5,155.5 C46.0522847,155.5 46.5,155.947715 46.5,156.5 C46.5,157.052285 46.0522847,157.5 45.5,157.5 L36.5,157.5 C35.9477153,157.5 35.5,157.052285 35.5,156.5 C35.5,155.947715 35.9477153,155.5 36.5,155.5 L45.5,155.5 Z" id="1-copy-4" fill="#0F1931" transform="translate(41.000000, 156.500000) rotate(-90.000000) translate(-41.000000, -156.500000) "></path>
            <path d="M58.5,155.5 C59.0522847,155.5 59.5,155.947715 59.5,156.5 C59.5,157.052285 59.0522847,157.5 58.5,157.5 L49.5,157.5 C48.9477153,157.5 48.5,157.052285 48.5,156.5 C48.5,155.947715 48.9477153,155.5 49.5,155.5 L58.5,155.5 Z" id="1-copy-5" fill="#0F1931" transform="translate(54.000000, 156.500000) rotate(-90.000000) translate(-54.000000, -156.500000) "></path>
            <path d="M71.5,155.5 C72.0522847,155.5 72.5,155.947715 72.5,156.5 C72.5,157.052285 72.0522847,157.5 71.5,157.5 L62.5,157.5 C61.9477153,157.5 61.5,157.052285 61.5,156.5 C61.5,155.947715 61.9477153,155.5 62.5,155.5 L71.5,155.5 Z" id="1-copy-6" fill="#0F1931" transform="translate(67.000000, 156.500000) rotate(-90.000000) translate(-67.000000, -156.500000) "></path>
            <path d="M98.5,155.5 C99.0522847,155.5 99.5,155.947715 99.5,156.5 C99.5,157.052285 99.0522847,157.5 98.5,157.5 L89.5,157.5 C88.9477153,157.5 88.5,157.052285 88.5,156.5 C88.5,155.947715 88.9477153,155.5 89.5,155.5 L98.5,155.5 Z" id="1-copy-8" fill="#0F1931" transform="translate(94.000000, 156.500000) rotate(-90.000000) translate(-94.000000, -156.500000) "></path>
            <path d="M111.5,155.5 C112.052285,155.5 112.5,155.947715 112.5,156.5 C112.5,157.052285 112.052285,157.5 111.5,157.5 L102.5,157.5 C101.947715,157.5 101.5,157.052285 101.5,156.5 C101.5,155.947715 101.947715,155.5 102.5,155.5 L111.5,155.5 Z" id="1-copy" fill="#0F1931" transform="translate(107.000000, 156.500000) rotate(-90.000000) translate(-107.000000, -156.500000) "></path>
            <path d="M138.5,155.5 C139.052285,155.5 139.5,155.947715 139.5,156.5 C139.5,157.052285 139.052285,157.5 138.5,157.5 L129.5,157.5 C128.947715,157.5 128.5,157.052285 128.5,156.5 C128.5,155.947715 128.947715,155.5 129.5,155.5 L138.5,155.5 Z" id="1-copy-10" fill="#0F1931" transform="translate(134.000000, 156.500000) rotate(-90.000000) translate(-134.000000, -156.500000) "></path>
            <path d="M151.5,155.5 C152.052285,155.5 152.5,155.947715 152.5,156.5 C152.5,157.052285 152.052285,157.5 151.5,157.5 L142.5,157.5 C141.947715,157.5 141.5,157.052285 141.5,156.5 C141.5,155.947715 141.947715,155.5 142.5,155.5 L151.5,155.5 Z" id="1-copy-2" fill="#0F1931" transform="translate(147.000000, 156.500000) rotate(-90.000000) translate(-147.000000, -156.500000) "></path>
            <path d="M164.5,155.5 C165.052285,155.5 165.5,155.947715 165.5,156.5 C165.5,157.052285 165.052285,157.5 164.5,157.5 L155.5,157.5 C154.947715,157.5 154.5,157.052285 154.5,156.5 C154.5,155.947715 154.947715,155.5 155.5,155.5 L164.5,155.5 Z" id="3" fill="#0F1931" transform="translate(160.000000, 156.500000) rotate(-90.000000) translate(-160.000000, -156.500000) "></path>
            <path d="M177.5,155.5 C178.052285,155.5 178.5,155.947715 178.5,156.5 C178.5,157.052285 178.052285,157.5 177.5,157.5 L168.5,157.5 C167.947715,157.5 167.5,157.052285 167.5,156.5 C167.5,155.947715 167.947715,155.5 168.5,155.5 L177.5,155.5 Z" id="3-copy" fill="#0F1931" transform="translate(173.000000, 156.500000) rotate(-90.000000) translate(-173.000000, -156.500000) "></path>
            <path d="M191.5,155.5 C192.052285,155.5 192.5,155.947715 192.5,156.5 C192.5,157.052285 192.052285,157.5 191.5,157.5 L182.5,157.5 C181.947715,157.5 181.5,157.052285 181.5,156.5 C181.5,155.947715 181.947715,155.5 182.5,155.5 L191.5,155.5 Z" id="3-copy-2" fill="#0F1931" transform="translate(187.000000, 156.500000) rotate(-90.000000) translate(-187.000000, -156.500000) "></path>
            <path d="M217.5,155.5 C218.052285,155.5 218.5,155.947715 218.5,156.5 C218.5,157.052285 218.052285,157.5 217.5,157.5 L208.5,157.5 C207.947715,157.5 207.5,157.052285 207.5,156.5 C207.5,155.947715 207.947715,155.5 208.5,155.5 L217.5,155.5 Z" id="5" fill="#0F1931" transform="translate(213.000000, 156.500000) rotate(-90.000000) translate(-213.000000, -156.500000) "></path>
            <path d="M230.5,155.5 C231.052285,155.5 231.5,155.947715 231.5,156.5 C231.5,157.052285 231.052285,157.5 230.5,157.5 L221.5,157.5 C220.947715,157.5 220.5,157.052285 220.5,156.5 C220.5,155.947715 220.947715,155.5 221.5,155.5 L230.5,155.5 Z" id="5-copy-2" fill="#0F1931" transform="translate(226.000000, 156.500000) rotate(-90.000000) translate(-226.000000, -156.500000) "></path>
            <path d="M257.5,155.5 C258.052285,155.5 258.5,155.947715 258.5,156.5 C258.5,157.052285 258.052285,157.5 257.5,157.5 L248.5,157.5 C247.947715,157.5 247.5,157.052285 247.5,156.5 C247.5,155.947715 247.947715,155.5 248.5,155.5 L257.5,155.5 Z" id="5-copy-4" fill="#0F1931" transform="translate(253.000000, 156.500000) rotate(-90.000000) translate(-253.000000, -156.500000) "></path>
            <path d="M270.5,155.5 C271.052285,155.5 271.5,155.947715 271.5,156.5 C271.5,157.052285 271.052285,157.5 270.5,157.5 L261.5,157.5 C260.947715,157.5 260.5,157.052285 260.5,156.5 C260.5,155.947715 260.947715,155.5 261.5,155.5 L270.5,155.5 Z" id="5-copy-5" fill="#0F1931" transform="translate(266.000000, 156.500000) rotate(-90.000000) translate(-266.000000, -156.500000) "></path>
            <path d="M283.5,155.5 C284.052285,155.5 284.5,155.947715 284.5,156.5 C284.5,157.052285 284.052285,157.5 283.5,157.5 L274.5,157.5 C273.947715,157.5 273.5,157.052285 273.5,156.5 C273.5,155.947715 273.947715,155.5 274.5,155.5 L283.5,155.5 Z" id="5-copy-6" fill="#0F1931" transform="translate(279.000000, 156.500000) rotate(-90.000000) translate(-279.000000, -156.500000) "></path>
            <path d="M297.5,155.5 C298.052285,155.5 298.5,155.947715 298.5,156.5 C298.5,157.052285 298.052285,157.5 297.5,157.5 L288.5,157.5 C287.947715,157.5 287.5,157.052285 287.5,156.5 C287.5,155.947715 287.947715,155.5 288.5,155.5 L297.5,155.5 Z" id="5-copy-7" fill="#0F1931" transform="translate(293.000000, 156.500000) rotate(-90.000000) translate(-293.000000, -156.500000) "></path>
            <path d="M310.5,155.5 C311.052285,155.5 311.5,155.947715 311.5,156.5 C311.5,157.052285 311.052285,157.5 310.5,157.5 L301.5,157.5 C300.947715,157.5 300.5,157.052285 300.5,156.5 C300.5,155.947715 300.947715,155.5 301.5,155.5 L310.5,155.5 Z" id="5-copy-8" fill="#0F1931" transform="translate(306.000000, 156.500000) rotate(-90.000000) translate(-306.000000, -156.500000) "></path>
            <path d="M323.5,155.5 C324.052285,155.5 324.5,155.947715 324.5,156.5 C324.5,157.052285 324.052285,157.5 323.5,157.5 L314.5,157.5 C313.947715,157.5 313.5,157.052285 313.5,156.5 C313.5,155.947715 313.947715,155.5 314.5,155.5 L323.5,155.5 Z" id="5-copy-9" fill="#0F1931" transform="translate(319.000000, 156.500000) rotate(-90.000000) translate(-319.000000, -156.500000) "></path>
            <path d="M336.5,155.5 C337.052285,155.5 337.5,155.947715 337.5,156.5 C337.5,157.052285 337.052285,157.5 336.5,157.5 L327.5,157.5 C326.947715,157.5 326.5,157.052285 326.5,156.5 C326.5,155.947715 326.947715,155.5 327.5,155.5 L336.5,155.5 Z" id="5-copy-10" fill="#0F1931" transform="translate(332.000000, 156.500000) rotate(-90.000000) translate(-332.000000, -156.500000) "></path>
            <path d="M350.5,155.5 C351.052285,155.5 351.5,155.947715 351.5,156.5 C351.5,157.052285 351.052285,157.5 350.5,157.5 L341.5,157.5 C340.947715,157.5 340.5,157.052285 340.5,156.5 C340.5,155.947715 340.947715,155.5 341.5,155.5 L350.5,155.5 Z" id="6" fill="#0F1931" transform="translate(346.000000, 156.500000) rotate(-90.000000) translate(-346.000000, -156.500000) "></path>
            <path d="M204.5,155.5 C205.052285,155.5 205.5,155.947715 205.5,156.5 C205.5,157.052285 205.052285,157.5 204.5,157.5 L195.5,157.5 C194.947715,157.5 194.5,157.052285 194.5,156.5 C194.5,155.947715 194.947715,155.5 195.5,155.5 L204.5,155.5 Z" id="7" fill="#000000" transform="translate(200.000000, 156.500000) rotate(270.000000) translate(-200.000000, -156.500000) "></path>
            <path d="M0,158 C-0.55228475,158 -1,157.552285 -1,157 C-1,156.447715 -0.55228475,156 0,156 L361,156 C361.552285,156 362,156.447715 362,157 C362,157.552285 361.552285,158 361,158 L0,158 Z" id="Line" fill="#0F1931"></path>
            <path d="M70.515,9.77 C70.6750008,9.8166669 70.8149994,9.89166615 70.935,9.995 C71.0550006,10.0983338 71.1716661,10.2433324 71.285,10.43 L72.005,11.6 L70.925,12.12 L69.955,10.55 C69.7683324,10.2433318 69.4516689,10.09 69.005,10.09 C68.3183299,10.09 67.7233358,9.9433348 67.22,9.65 C66.7166641,9.3566652 66.3283347,8.9366694 66.055,8.39 C65.7816653,7.8433306 65.645,7.203337 65.645,6.47 C65.645,5.736663 65.7816653,5.09833605 66.055,4.555 C66.3283347,4.01166395 66.7166641,3.5933348 67.22,3.3 C67.7233358,3.0066652 68.3183299,2.86 69.005,2.86 C69.6850034,2.86 70.2766642,3.0066652 70.78,3.3 C71.2833359,3.5933348 71.6716653,4.01166395 71.945,4.555 C72.2183347,5.09833605 72.355,5.736663 72.355,6.47 C72.355,7.270004 72.1966683,7.95499715 71.88,8.525 C71.5633318,9.09500285 71.1083363,9.5099987 70.515,9.77 Z M69.005,9.06 C69.6516699,9.06 70.1566648,8.8366689 70.52,8.39 C70.8833351,7.9433311 71.065,7.3033375 71.065,6.47 C71.065,5.6366625 70.8833351,4.99833555 70.52,4.555 C70.1566648,4.11166445 69.6516699,3.89 69.005,3.89 C68.3516634,3.89 67.8433352,4.11166445 67.48,4.555 C67.1166649,4.99833555 66.935,5.6366625 66.935,6.47 C66.935,7.3033375 67.1166649,7.9433311 67.48,8.39 C67.8433352,8.8366689 68.3516634,9.06 69.005,9.06 Z M76.855,8.96 L78.385,8.96 L78.385,10 L74.035,10 L74.035,8.96 L75.565,8.96 L75.565,4.42 L74.355,5.15 L73.845,4.21 L75.935,2.95 L76.855,2.95 L76.855,8.96 Z M84.335,5.7 L84.335,6.58 L79.455,6.58 L79.455,5.7 L84.335,5.7 Z M84.335,7.7 L84.335,8.58 L79.455,8.58 L79.455,7.7 L84.335,7.7 Z M88.855,8.96 L90.385,8.96 L90.385,10 L86.035,10 L86.035,8.96 L87.565,8.96 L87.565,4.42 L86.355,5.15 L85.845,4.21 L87.935,2.95 L88.855,2.95 L88.855,8.96 Z M93.895,10.09 C93.0616625,10.09 92.4250022,9.78166975 91.985,9.165 C91.5449978,8.54833025 91.325,7.6500059 91.325,6.47 C91.325,5.3033275 91.5449978,4.4133364 91.985,3.8 C92.4250022,3.1866636 93.0616625,2.88 93.895,2.88 C94.7283375,2.88 95.3649978,3.1866636 95.805,3.8 C96.2450022,4.4133364 96.465,5.3033275 96.465,6.47 C96.465,7.6433392 96.2450022,8.5399969 95.805,9.16 C95.3649978,9.7800031 94.7283375,10.09 93.895,10.09 Z M93.895,9.08 C94.3483356,9.08 94.6783323,8.87166875 94.885,8.455 C95.0916677,8.03833125 95.195,7.3766712 95.195,6.47 C95.195,5.5699955 95.0916677,4.91500205 94.885,4.505 C94.6783323,4.09499795 94.3483356,3.89 93.895,3.89 C93.4416644,3.89 93.1116677,4.09499795 92.905,4.505 C92.6983323,4.91500205 92.595,5.5699955 92.595,6.47 C92.595,7.3766712 92.6983323,8.03833125 92.905,8.455 C93.1116677,8.87166875 93.4416644,9.08 93.895,9.08 Z" id="Q1=10" fill="#FA4359"></path>
            <path d="M117.325,36 L117.325,28.95 L118.615,28.95 L118.615,36 L117.325,36 Z M122.865,30.99 C123.45167,30.99 123.888332,31.156665 124.175,31.49 C124.461668,31.823335 124.605,32.3266633 124.605,33 L124.605,36 L123.355,36 L123.355,33.07 C123.355,32.6899981 123.283334,32.4133342 123.14,32.24 C122.996666,32.0666658 122.771668,31.98 122.465,31.98 C122.104998,31.98 121.816668,32.0933322 121.6,32.32 C121.383332,32.5466678 121.275,32.8499981 121.275,33.23 L121.275,36 L120.025,36 L120.025,31.11 L121.245,31.11 L121.245,31.84 C121.411668,31.5666653 121.634999,31.3566674 121.915,31.21 C122.195001,31.0633326 122.511665,30.99 122.865,30.99 Z M128.375,35.14 C128.521667,35.14 128.674999,35.1300001 128.835,35.11 L128.775,36.04 C128.574999,36.0600001 128.391668,36.07 128.225,36.07 C127.53833,36.07 127.031668,35.9116682 126.705,35.595 C126.378332,35.2783317 126.215,34.8066698 126.215,34.18 L126.215,32.05 L125.275,32.05 L125.275,31.11 L126.215,31.11 L126.215,29.65 L127.465,29.65 L127.465,31.11 L128.755,31.11 L128.755,32.05 L127.465,32.05 L127.465,34.16 C127.465,34.8133366 127.76833,35.14 128.375,35.14 Z M133.855,33.78 L130.525,33.78 C130.565,34.2333356 130.701665,34.5699989 130.935,34.79 C131.168335,35.0100011 131.501665,35.12 131.935,35.12 C132.475003,35.12 132.968331,34.9466684 133.415,34.6 L133.775,35.46 C133.548332,35.6466676 133.263335,35.7966661 132.92,35.91 C132.576665,36.0233339 132.231668,36.08 131.885,36.08 C131.084996,36.08 130.453336,35.8533356 129.99,35.4 C129.526664,34.9466644 129.295,34.3266706 129.295,33.54 C129.295,33.0399975 129.394999,32.5966686 129.595,32.21 C129.795001,31.8233314 130.076665,31.5233344 130.44,31.31 C130.803335,31.0966656 131.214998,30.99 131.675,30.99 C132.348337,30.99 132.879998,31.2066645 133.27,31.64 C133.660002,32.0733355 133.855,32.6699962 133.855,33.43 L133.855,33.78 Z M131.705,31.87 C131.371665,31.87 131.103334,31.9766656 130.9,32.19 C130.696666,32.4033344 130.571667,32.709998 130.525,33.11 L132.785,33.11 C132.771667,32.7033313 132.671668,32.395001 132.485,32.185 C132.298332,31.9749989 132.038335,31.87 131.705,31.87 Z M138.095,32.03 L137.365,32.1 C136.538329,32.1866671 136.125,32.6066629 136.125,33.36 L136.125,36 L134.875,36 L134.875,31.11 L136.065,31.11 L136.065,31.97 C136.318335,31.3833304 136.841663,31.0633336 137.635,31.01 L138.015,30.98 L138.095,32.03 Z M143.425,31.11 L143.425,37.8 L142.175,37.8 L142.175,35.23 C142.028333,35.496668 141.816668,35.7049993 141.54,35.855 C141.263332,36.0050008 140.951668,36.08 140.605,36.08 C140.178331,36.08 139.801668,35.9766677 139.475,35.77 C139.148332,35.5633323 138.893334,35.2700019 138.71,34.89 C138.526666,34.5099981 138.435,34.0666692 138.435,33.56 C138.435,33.0533308 138.526666,32.605002 138.71,32.215 C138.893334,31.824998 139.149998,31.5233344 139.48,31.31 C139.810002,31.0966656 140.184998,30.99 140.605,30.99 C140.958335,30.99 141.273332,31.0649992 141.55,31.215 C141.826668,31.3650008 142.038333,31.5766653 142.185,31.85 L142.185,31.11 L143.425,31.11 Z M140.945,35.11 C141.338335,35.11 141.643332,34.9733347 141.86,34.7 C142.076668,34.4266653 142.185,34.0400025 142.185,33.54 C142.185,33.0333308 142.076668,32.6433347 141.86,32.37 C141.643332,32.0966653 141.335002,31.96 140.935,31.96 C140.541665,31.96 140.235001,32.0999986 140.015,32.38 C139.794999,32.6600014 139.685,33.0533308 139.685,33.56 C139.685,34.0533358 139.794999,34.4349986 140.015,34.705 C140.235001,34.9750013 140.544998,35.11 140.945,35.11 Z M149.205,31.11 L149.205,36 L147.985,36 L147.985,35.25 C147.831666,35.516668 147.625001,35.721666 147.365,35.865 C147.104999,36.0083341 146.811668,36.08 146.485,36.08 C145.284994,36.08 144.685,35.4066734 144.685,34.06 L144.685,31.11 L145.935,31.11 L145.935,34.07 C145.935,34.4166684 146.004999,34.6733325 146.145,34.84 C146.285001,35.0066675 146.504998,35.09 146.805,35.09 C147.151668,35.09 147.429999,34.9750011 147.64,34.745 C147.850001,34.5149988 147.955,34.2100019 147.955,33.83 L147.955,31.11 L149.205,31.11 Z M152.605,30.99 C153.29167,30.99 153.801665,31.156665 154.135,31.49 C154.468335,31.823335 154.635,32.3366632 154.635,33.03 L154.635,36 L153.445,36 L153.445,35.25 C153.331666,35.5100013 153.153335,35.7133326 152.91,35.86 C152.666665,36.0066674 152.385002,36.08 152.065,36.08 C151.738332,36.08 151.441668,36.013334 151.175,35.88 C150.908332,35.746666 150.698334,35.5633345 150.545,35.33 C150.391666,35.0966655 150.315,34.8366681 150.315,34.55 C150.315,34.1899982 150.406666,33.9066677 150.59,33.7 C150.773334,33.4933323 151.071665,33.3433338 151.485,33.25 C151.898335,33.1566662 152.46833,33.11 153.195,33.11 L153.445,33.11 L153.445,32.88 C153.445,32.546665 153.373334,32.3066674 153.23,32.16 C153.086666,32.0133326 152.848335,31.94 152.515,31.94 C152.254999,31.94 151.983335,31.9849995 151.7,32.075 C151.416665,32.1650005 151.138335,32.2899992 150.865,32.45 L150.515,31.59 C150.788335,31.4166658 151.118331,31.2733339 151.505,31.16 C151.891669,31.0466661 152.258332,30.99 152.605,30.99 Z M152.315,35.18 C152.648335,35.18 152.919999,35.0683345 153.13,34.845 C153.340001,34.6216656 153.445,34.3333351 153.445,33.98 L153.445,33.77 L153.265,33.77 C152.818331,33.77 152.471668,33.7899998 152.225,33.83 C151.978332,33.8700002 151.801667,33.9399995 151.695,34.04 C151.588333,34.1400005 151.535,34.2766658 151.535,34.45 C151.535,34.6633344 151.608333,34.8383326 151.755,34.975 C151.901667,35.1116673 152.088332,35.18 152.315,35.18 Z M159.125,32.03 L158.395,32.1 C157.568329,32.1866671 157.155,32.6066629 157.155,33.36 L157.155,36 L155.905,36 L155.905,31.11 L157.095,31.11 L157.095,31.97 C157.348335,31.3833304 157.871663,31.0633336 158.665,31.01 L159.045,30.98 L159.125,32.03 Z M162.235,35.14 C162.381667,35.14 162.534999,35.1300001 162.695,35.11 L162.635,36.04 C162.434999,36.0600001 162.251667,36.07 162.085,36.07 C161.39833,36.07 160.891668,35.9116682 160.565,35.595 C160.238332,35.2783317 160.075,34.8066698 160.075,34.18 L160.075,32.05 L159.135,32.05 L159.135,31.11 L160.075,31.11 L160.075,29.65 L161.325,29.65 L161.325,31.11 L162.615,31.11 L162.615,32.05 L161.325,32.05 L161.325,34.16 C161.325,34.8133366 161.62833,35.14 162.235,35.14 Z M163.425,36 L163.425,31.11 L164.675,31.11 L164.675,36 L163.425,36 Z M163.355,28.84 L164.735,28.84 L164.735,30.07 L163.355,30.07 L163.355,28.84 Z M165.965,36 L165.965,28.95 L167.215,28.95 L167.215,36 L165.965,36 Z M172.795,33.78 L169.465,33.78 C169.505,34.2333356 169.641665,34.5699989 169.875,34.79 C170.108335,35.0100011 170.441665,35.12 170.875,35.12 C171.415003,35.12 171.908331,34.9466684 172.355,34.6 L172.715,35.46 C172.488332,35.6466676 172.203335,35.7966661 171.86,35.91 C171.516665,36.0233339 171.171668,36.08 170.825,36.08 C170.024996,36.08 169.393336,35.8533356 168.93,35.4 C168.466664,34.9466644 168.235,34.3266706 168.235,33.54 C168.235,33.0399975 168.334999,32.5966686 168.535,32.21 C168.735001,31.8233314 169.016665,31.5233344 169.38,31.31 C169.743335,31.0966656 170.154998,30.99 170.615,30.99 C171.288337,30.99 171.819998,31.2066645 172.21,31.64 C172.600002,32.0733355 172.795,32.6699962 172.795,33.43 L172.795,33.78 Z M170.645,31.87 C170.311665,31.87 170.043334,31.9766656 169.84,32.19 C169.636666,32.4033344 169.511667,32.709998 169.465,33.11 L171.725,33.11 C171.711667,32.7033313 171.611668,32.395001 171.425,32.185 C171.238332,31.9749989 170.978335,31.87 170.645,31.87 Z M182.545,36 L181.145,36 L179.935,33.75 C179.821666,33.5366656 179.681668,33.3866671 179.515,33.3 C179.348332,33.2133329 179.138335,33.17 178.885,33.17 L177.905,33.17 L177.905,36 L176.635,36 L176.635,28.95 L179.755,28.95 C180.555004,28.95 181.163331,29.1283315 181.58,29.485 C181.996669,29.8416685 182.205,30.3566633 182.205,31.03 C182.205,31.5700027 182.053335,32.0149982 181.75,32.365 C181.446665,32.7150017 181.018336,32.9433328 180.465,33.05 C180.838335,33.1500005 181.138332,33.4133312 181.365,33.84 L182.545,36 Z M179.575,32.18 C180.061669,32.18 180.418332,32.0883343 180.645,31.905 C180.871668,31.7216657 180.985,31.4400019 180.985,31.06 C180.985,30.6733314 180.871668,30.3916676 180.645,30.215 C180.418332,30.0383324 180.061669,29.95 179.575,29.95 L177.895,29.95 L177.895,32.18 L179.575,32.18 Z M185.575,30.99 C186.26167,30.99 186.771665,31.156665 187.105,31.49 C187.438335,31.823335 187.605,32.3366632 187.605,33.03 L187.605,36 L186.415,36 L186.415,35.25 C186.301666,35.5100013 186.123335,35.7133326 185.88,35.86 C185.636665,36.0066674 185.355002,36.08 185.035,36.08 C184.708332,36.08 184.411668,36.013334 184.145,35.88 C183.878332,35.746666 183.668334,35.5633345 183.515,35.33 C183.361666,35.0966655 183.285,34.8366681 183.285,34.55 C183.285,34.1899982 183.376666,33.9066677 183.56,33.7 C183.743334,33.4933323 184.041665,33.3433338 184.455,33.25 C184.868335,33.1566662 185.43833,33.11 186.165,33.11 L186.415,33.11 L186.415,32.88 C186.415,32.546665 186.343334,32.3066674 186.2,32.16 C186.056666,32.0133326 185.818335,31.94 185.485,31.94 C185.224999,31.94 184.953335,31.9849995 184.67,32.075 C184.386665,32.1650005 184.108335,32.2899992 183.835,32.45 L183.485,31.59 C183.758335,31.4166658 184.088331,31.2733339 184.475,31.16 C184.861669,31.0466661 185.228332,30.99 185.575,30.99 Z M185.285,35.18 C185.618335,35.18 185.889999,35.0683345 186.1,34.845 C186.310001,34.6216656 186.415,34.3333351 186.415,33.98 L186.415,33.77 L186.235,33.77 C185.788331,33.77 185.441668,33.7899998 185.195,33.83 C184.948332,33.8700002 184.771667,33.9399995 184.665,34.04 C184.558333,34.1400005 184.505,34.2766658 184.505,34.45 C184.505,34.6633344 184.578333,34.8383326 184.725,34.975 C184.871667,35.1116673 185.058332,35.18 185.285,35.18 Z M191.715,30.99 C192.30167,30.99 192.738332,31.156665 193.025,31.49 C193.311668,31.823335 193.455,32.3266633 193.455,33 L193.455,36 L192.205,36 L192.205,33.07 C192.205,32.6899981 192.133334,32.4133342 191.99,32.24 C191.846666,32.0666658 191.621668,31.98 191.315,31.98 C190.954998,31.98 190.666668,32.0933322 190.45,32.32 C190.233332,32.5466678 190.125,32.8499981 190.125,33.23 L190.125,36 L188.875,36 L188.875,31.11 L190.095,31.11 L190.095,31.84 C190.261668,31.5666653 190.484999,31.3566674 190.765,31.21 C191.045001,31.0633326 191.361665,30.99 191.715,30.99 Z M199.485,31.11 L199.485,35.55 C199.485,36.3166705 199.273335,36.8966647 198.85,37.29 C198.426665,37.6833353 197.801671,37.88 196.975,37.88 C196.548331,37.88 196.138335,37.8250005 195.745,37.715 C195.351665,37.6049995 195.008335,37.450001 194.715,37.25 L195.065,36.37 C195.67167,36.7366685 196.29833,36.92 196.945,36.92 C197.811671,36.92 198.245,36.4933376 198.245,35.64 L198.245,35 C198.098333,35.2733347 197.885001,35.4849993 197.605,35.635 C197.324999,35.7850008 197.005002,35.86 196.645,35.86 C196.218331,35.86 195.840002,35.7583343 195.51,35.555 C195.179998,35.3516657 194.921668,35.0666685 194.735,34.7 C194.548332,34.3333315 194.455,33.9100024 194.455,33.43 C194.455,32.9499976 194.546666,32.5250019 194.73,32.155 C194.913334,31.7849981 195.171665,31.4983344 195.505,31.295 C195.838335,31.0916656 196.218331,30.99 196.645,30.99 C197.005002,30.99 197.324999,31.0649992 197.605,31.215 C197.885001,31.3650008 198.098333,31.5766653 198.245,31.85 L198.245,31.11 L199.485,31.11 Z M196.975,34.89 C197.375002,34.89 197.686666,34.7600013 197.91,34.5 C198.133334,34.2399987 198.245,33.8833356 198.245,33.43 C198.245,32.9699977 198.133334,32.6100013 197.91,32.35 C197.686666,32.0899987 197.375002,31.96 196.975,31.96 C196.581665,31.96 196.271668,32.0899987 196.045,32.35 C195.818332,32.6100013 195.705,32.9699977 195.705,33.43 C195.705,33.8766689 195.818332,34.2316654 196.045,34.495 C196.271668,34.7583347 196.581665,34.89 196.975,34.89 Z M205.065,33.78 L201.735,33.78 C201.775,34.2333356 201.911665,34.5699989 202.145,34.79 C202.378334,35.0100011 202.711664,35.12 203.145,35.12 C203.685003,35.12 204.178331,34.9466684 204.625,34.6 L204.985,35.46 C204.758332,35.6466676 204.473335,35.7966661 204.13,35.91 C203.786665,36.0233339 203.441668,36.08 203.095,36.08 C202.294996,36.08 201.663336,35.8533356 201.2,35.4 C200.736664,34.9466644 200.505,34.3266706 200.505,33.54 C200.505,33.0399975 200.604999,32.5966686 200.805,32.21 C201.005001,31.8233314 201.286665,31.5233344 201.65,31.31 C202.013335,31.0966656 202.424998,30.99 202.885,30.99 C203.558337,30.99 204.089998,31.2066645 204.48,31.64 C204.870002,32.0733355 205.065,32.6699962 205.065,33.43 L205.065,33.78 Z M202.915,31.87 C202.581665,31.87 202.313334,31.9766656 202.11,32.19 C201.906666,32.4033344 201.781667,32.709998 201.735,33.11 L203.995,33.11 C203.981667,32.7033313 203.881668,32.395001 203.695,32.185 C203.508332,31.9749989 203.248335,31.87 202.915,31.87 Z" id="InterquartileRange" fill="#4C7EF3"></path>
            <path d="M125.13,196 L125.13,188.95 L126.42,188.95 L126.42,196 L125.13,196 Z M132.59,195.77 C132.750001,195.816667 132.889999,195.891666 133.01,195.995 C133.130001,196.098334 133.246666,196.243332 133.36,196.43 L134.08,197.6 L133,198.12 L132.03,196.55 C131.843332,196.243332 131.526669,196.09 131.08,196.09 C130.39333,196.09 129.798336,195.943335 129.295,195.65 C128.791664,195.356665 128.403335,194.936669 128.13,194.39 C127.856665,193.843331 127.72,193.203337 127.72,192.47 C127.72,191.736663 127.856665,191.098336 128.13,190.555 C128.403335,190.011664 128.791664,189.593335 129.295,189.3 C129.798336,189.006665 130.39333,188.86 131.08,188.86 C131.760003,188.86 132.351664,189.006665 132.855,189.3 C133.358336,189.593335 133.746665,190.011664 134.02,190.555 C134.293335,191.098336 134.43,191.736663 134.43,192.47 C134.43,193.270004 134.271668,193.954997 133.955,194.525 C133.638332,195.095003 133.183336,195.509999 132.59,195.77 Z M131.08,195.06 C131.72667,195.06 132.231665,194.836669 132.595,194.39 C132.958335,193.943331 133.14,193.303337 133.14,192.47 C133.14,191.636662 132.958335,190.998336 132.595,190.555 C132.231665,190.111664 131.72667,189.89 131.08,189.89 C130.426663,189.89 129.918335,190.111664 129.555,190.555 C129.191665,190.998336 129.01,191.636662 129.01,192.47 C129.01,193.303337 129.191665,193.943331 129.555,194.39 C129.918335,194.836669 130.426663,195.06 131.08,195.06 Z M141.64,196 L140.24,196 L139.03,193.75 C138.916666,193.536666 138.776668,193.386667 138.61,193.3 C138.443332,193.213333 138.233335,193.17 137.98,193.17 L137,193.17 L137,196 L135.73,196 L135.73,188.95 L138.85,188.95 C139.650004,188.95 140.258331,189.128332 140.675,189.485 C141.091669,189.841668 141.3,190.356663 141.3,191.03 C141.3,191.570003 141.148335,192.014998 140.845,192.365 C140.541665,192.715002 140.113336,192.943333 139.56,193.05 C139.933335,193.150001 140.233332,193.413331 140.46,193.84 L141.64,196 Z M138.67,192.18 C139.156669,192.18 139.513332,192.088334 139.74,191.905 C139.966668,191.721666 140.08,191.440002 140.08,191.06 C140.08,190.673331 139.966668,190.391668 139.74,190.215 C139.513332,190.038332 139.156669,189.95 138.67,189.95 L136.99,189.95 L136.99,192.18 L138.67,192.18 Z M150.07,191.7 L150.07,192.58 L145.19,192.58 L145.19,191.7 L150.07,191.7 Z M150.07,193.7 L150.07,194.58 L145.19,194.58 L145.19,193.7 L150.07,193.7 Z M158.75,195.77 C158.910001,195.816667 159.049999,195.891666 159.17,195.995 C159.290001,196.098334 159.406666,196.243332 159.52,196.43 L160.24,197.6 L159.16,198.12 L158.19,196.55 C158.003332,196.243332 157.686669,196.09 157.24,196.09 C156.55333,196.09 155.958336,195.943335 155.455,195.65 C154.951664,195.356665 154.563335,194.936669 154.29,194.39 C154.016665,193.843331 153.88,193.203337 153.88,192.47 C153.88,191.736663 154.016665,191.098336 154.29,190.555 C154.563335,190.011664 154.951664,189.593335 155.455,189.3 C155.958336,189.006665 156.55333,188.86 157.24,188.86 C157.920003,188.86 158.511664,189.006665 159.015,189.3 C159.518336,189.593335 159.906665,190.011664 160.18,190.555 C160.453335,191.098336 160.59,191.736663 160.59,192.47 C160.59,193.270004 160.431668,193.954997 160.115,194.525 C159.798332,195.095003 159.343336,195.509999 158.75,195.77 Z M157.24,195.06 C157.88667,195.06 158.391665,194.836669 158.755,194.39 C159.118335,193.943331 159.3,193.303337 159.3,192.47 C159.3,191.636662 159.118335,190.998336 158.755,190.555 C158.391665,190.111664 157.88667,189.89 157.24,189.89 C156.586663,189.89 156.078335,190.111664 155.715,190.555 C155.351665,190.998336 155.17,191.636662 155.17,192.47 C155.17,193.303337 155.351665,193.943331 155.715,194.39 C156.078335,194.836669 156.586663,195.06 157.24,195.06 Z M165.22,192.38 C165.633335,192.486667 165.951666,192.688332 166.175,192.985 C166.398334,193.281668 166.51,193.649998 166.51,194.09 C166.51,194.703336 166.285002,195.188332 165.835,195.545 C165.384998,195.901668 164.773337,196.08 164,196.08 C163.526664,196.08 163.071669,196.006667 162.635,195.86 C162.198331,195.713333 161.836668,195.513335 161.55,195.26 L161.98,194.32 C162.593336,194.806669 163.249997,195.05 163.95,195.05 C164.396669,195.05 164.729999,194.961668 164.95,194.785 C165.170001,194.608332 165.28,194.340002 165.28,193.98 C165.28,193.626665 165.168334,193.365001 164.945,193.195 C164.721666,193.024999 164.376669,192.94 163.91,192.94 L162.98,192.94 L162.98,191.92 L163.74,191.92 C164.653338,191.92 165.11,191.57667 165.11,190.89 C165.11,190.569998 165.011668,190.323334 164.815,190.15 C164.618332,189.976666 164.340002,189.89 163.98,189.89 C163.666665,189.89 163.348335,189.951666 163.025,190.075 C162.701665,190.198334 162.386668,190.379999 162.08,190.62 L161.65,189.68 C161.930001,189.426665 162.288331,189.226667 162.725,189.08 C163.161669,188.933333 163.606664,188.86 164.06,188.86 C164.753337,188.86 165.306665,189.028332 165.72,189.365 C166.133335,189.701668 166.34,190.156664 166.34,190.73 C166.333333,191.123335 166.231668,191.464999 166.035,191.755 C165.838332,192.045001 165.566668,192.253333 165.22,192.38 Z M167.81,193.82 L167.81,192.83 L170.79,192.83 L170.79,193.82 L167.81,193.82 Z M176.88,195.77 C177.040001,195.816667 177.179999,195.891666 177.3,195.995 C177.420001,196.098334 177.536666,196.243332 177.65,196.43 L178.37,197.6 L177.29,198.12 L176.32,196.55 C176.133332,196.243332 175.816669,196.09 175.37,196.09 C174.68333,196.09 174.088336,195.943335 173.585,195.65 C173.081664,195.356665 172.693335,194.936669 172.42,194.39 C172.146665,193.843331 172.01,193.203337 172.01,192.47 C172.01,191.736663 172.146665,191.098336 172.42,190.555 C172.693335,190.011664 173.081664,189.593335 173.585,189.3 C174.088336,189.006665 174.68333,188.86 175.37,188.86 C176.050003,188.86 176.641664,189.006665 177.145,189.3 C177.648336,189.593335 178.036665,190.011664 178.31,190.555 C178.583335,191.098336 178.72,191.736663 178.72,192.47 C178.72,193.270004 178.561668,193.954997 178.245,194.525 C177.928332,195.095003 177.473336,195.509999 176.88,195.77 Z M175.37,195.06 C176.01667,195.06 176.521665,194.836669 176.885,194.39 C177.248335,193.943331 177.43,193.303337 177.43,192.47 C177.43,191.636662 177.248335,190.998336 176.885,190.555 C176.521665,190.111664 176.01667,189.89 175.37,189.89 C174.716663,189.89 174.208335,190.111664 173.845,190.555 C173.481665,190.998336 173.3,191.636662 173.3,192.47 C173.3,193.303337 173.481665,193.943331 173.845,194.39 C174.208335,194.836669 174.716663,195.06 175.37,195.06 Z M183.22,194.96 L184.75,194.96 L184.75,196 L180.4,196 L180.4,194.96 L181.93,194.96 L181.93,190.42 L180.72,191.15 L180.21,190.21 L182.3,188.95 L183.22,188.95 L183.22,194.96 Z M190.7,191.7 L190.7,192.58 L185.82,192.58 L185.82,191.7 L190.7,191.7 Z M190.7,193.7 L190.7,194.58 L185.82,194.58 L185.82,193.7 L190.7,193.7 Z M196.73,194.96 L196.73,196 L191.99,196 L191.99,195.05 L194.39,192.47 C194.670001,192.163332 194.874999,191.881668 195.005,191.625 C195.135001,191.368332 195.2,191.113335 195.2,190.86 C195.2,190.539998 195.108334,190.298334 194.925,190.135 C194.741666,189.971666 194.473335,189.89 194.12,189.89 C193.486663,189.89 192.850003,190.133331 192.21,190.62 L191.78,189.68 C192.060001,189.433332 192.418331,189.235001 192.855,189.085 C193.291669,188.934999 193.729998,188.86 194.17,188.86 C194.87667,188.86 195.436665,189.033332 195.85,189.38 C196.263335,189.726668 196.47,190.19333 196.47,190.78 C196.47,191.186669 196.383334,191.568332 196.21,191.925 C196.036666,192.281668 195.743335,192.679998 195.33,193.12 L193.6,194.96 L196.73,194.96 Z M202.74,194.96 L202.74,196 L198,196 L198,195.05 L200.4,192.47 C200.680001,192.163332 200.884999,191.881668 201.015,191.625 C201.145001,191.368332 201.21,191.113335 201.21,190.86 C201.21,190.539998 201.118334,190.298334 200.935,190.135 C200.751666,189.971666 200.483335,189.89 200.13,189.89 C199.496664,189.89 198.860003,190.133331 198.22,190.62 L197.79,189.68 C198.070001,189.433332 198.428331,189.235001 198.865,189.085 C199.301669,188.934999 199.739998,188.86 200.18,188.86 C200.88667,188.86 201.446665,189.033332 201.86,189.38 C202.273335,189.726668 202.48,190.19333 202.48,190.78 C202.48,191.186669 202.393334,191.568332 202.22,191.925 C202.046666,192.281668 201.753335,192.679998 201.34,193.12 L199.61,194.96 L202.74,194.96 Z M203.96,193.82 L203.96,192.83 L206.94,192.83 L206.94,193.82 L203.96,193.82 Z M211.58,194.96 L213.11,194.96 L213.11,196 L208.76,196 L208.76,194.96 L210.29,194.96 L210.29,190.42 L209.08,191.15 L208.57,190.21 L210.66,188.95 L211.58,188.95 L211.58,194.96 Z M216.62,196.09 C215.786663,196.09 215.150002,195.78167 214.71,195.165 C214.269998,194.54833 214.05,193.650006 214.05,192.47 C214.05,191.303327 214.269998,190.413336 214.71,189.8 C215.150002,189.186664 215.786663,188.88 216.62,188.88 C217.453338,188.88 218.089998,189.186664 218.53,189.8 C218.970002,190.413336 219.19,191.303327 219.19,192.47 C219.19,193.643339 218.970002,194.539997 218.53,195.16 C218.089998,195.780003 217.453338,196.09 216.62,196.09 Z M216.62,195.08 C217.073336,195.08 217.403332,194.871669 217.61,194.455 C217.816668,194.038331 217.92,193.376671 217.92,192.47 C217.92,191.569996 217.816668,190.915002 217.61,190.505 C217.403332,190.094998 217.073336,189.89 216.62,189.89 C216.166664,189.89 215.836668,190.094998 215.63,190.505 C215.423332,190.915002 215.32,191.569996 215.32,192.47 C215.32,193.376671 215.423332,194.038331 215.63,194.455 C215.836668,194.871669 216.166664,195.08 216.62,195.08 Z M225.06,191.7 L225.06,192.58 L220.18,192.58 L220.18,191.7 L225.06,191.7 Z M225.06,193.7 L225.06,194.58 L220.18,194.58 L220.18,193.7 L225.06,193.7 Z M229.58,194.96 L231.11,194.96 L231.11,196 L226.76,196 L226.76,194.96 L228.29,194.96 L228.29,190.42 L227.08,191.15 L226.57,190.21 L228.66,188.95 L229.58,188.95 L229.58,194.96 Z M237.09,194.96 L237.09,196 L232.35,196 L232.35,195.05 L234.75,192.47 C235.030001,192.163332 235.234999,191.881668 235.365,191.625 C235.495001,191.368332 235.56,191.113335 235.56,190.86 C235.56,190.539998 235.468334,190.298334 235.285,190.135 C235.101666,189.971666 234.833335,189.89 234.48,189.89 C233.846664,189.89 233.210003,190.133331 232.57,190.62 L232.14,189.68 C232.420001,189.433332 232.778331,189.235001 233.215,189.085 C233.651669,188.934999 234.089998,188.86 234.53,188.86 C235.23667,188.86 235.796665,189.033332 236.21,189.38 C236.623335,189.726668 236.83,190.19333 236.83,190.78 C236.83,191.186669 236.743334,191.568332 236.57,191.925 C236.396666,192.281668 236.103335,192.679998 235.69,193.12 L233.96,194.96 L237.09,194.96 Z" id="IQR=Q3-Q1=22-10=12" fill="#000000"></path>
            <path d="M229.505,9.77 C229.665001,9.8166669 229.804999,9.89166615 229.925,9.995 C230.045001,10.0983338 230.161666,10.2433324 230.275,10.43 L230.995,11.6 L229.915,12.12 L228.945,10.55 C228.758332,10.2433318 228.441669,10.09 227.995,10.09 C227.30833,10.09 226.713336,9.9433348 226.21,9.65 C225.706664,9.3566652 225.318335,8.9366694 225.045,8.39 C224.771665,7.8433306 224.635,7.203337 224.635,6.47 C224.635,5.736663 224.771665,5.09833605 225.045,4.555 C225.318335,4.01166395 225.706664,3.5933348 226.21,3.3 C226.713336,3.0066652 227.30833,2.86 227.995,2.86 C228.675003,2.86 229.266664,3.0066652 229.77,3.3 C230.273336,3.5933348 230.661665,4.01166395 230.935,4.555 C231.208335,5.09833605 231.345,5.736663 231.345,6.47 C231.345,7.270004 231.186668,7.95499715 230.87,8.525 C230.553332,9.09500285 230.098336,9.5099987 229.505,9.77 Z M227.995,9.06 C228.64167,9.06 229.146665,8.8366689 229.51,8.39 C229.873335,7.9433311 230.055,7.3033375 230.055,6.47 C230.055,5.6366625 229.873335,4.99833555 229.51,4.555 C229.146665,4.11166445 228.64167,3.89 227.995,3.89 C227.341663,3.89 226.833335,4.11166445 226.47,4.555 C226.106665,4.99833555 225.925,5.6366625 225.925,6.47 C225.925,7.3033375 226.106665,7.9433311 226.47,8.39 C226.833335,8.8366689 227.341663,9.06 227.995,9.06 Z M235.975,6.38 C236.388335,6.4866672 236.706666,6.68833185 236.93,6.985 C237.153334,7.28166815 237.265,7.6499978 237.265,8.09 C237.265,8.7033364 237.040002,9.18833155 236.59,9.545 C236.139998,9.90166845 235.528337,10.08 234.755,10.08 C234.281664,10.08 233.826669,10.0066674 233.39,9.86 C232.953331,9.7133326 232.591668,9.5133346 232.305,9.26 L232.735,8.32 C233.348336,8.8066691 234.004997,9.05 234.705,9.05 C235.151669,9.05 235.484999,8.96166755 235.705,8.785 C235.925001,8.60833245 236.035,8.3400018 236.035,7.98 C236.035,7.6266649 235.923334,7.36500085 235.7,7.195 C235.476666,7.02499915 235.131669,6.94 234.665,6.94 L233.735,6.94 L233.735,5.92 L234.495,5.92 C235.408338,5.92 235.865,5.5766701 235.865,4.89 C235.865,4.5699984 235.766668,4.3233342 235.57,4.15 C235.373332,3.9766658 235.095002,3.89 234.735,3.89 C234.421665,3.89 234.103335,3.95166605 233.78,4.075 C233.456665,4.19833395 233.141668,4.3799988 232.835,4.62 L232.405,3.68 C232.685001,3.4266654 233.043331,3.2266674 233.48,3.08 C233.916669,2.9333326 234.361664,2.86 234.815,2.86 C235.508337,2.86 236.061665,3.02833165 236.475,3.365 C236.888335,3.70166835 237.095,4.1566638 237.095,4.73 C237.088333,5.1233353 236.986668,5.46499855 236.79,5.755 C236.593332,6.04500145 236.321668,6.2533327 235.975,6.38 Z M243.325,5.7 L243.325,6.58 L238.445,6.58 L238.445,5.7 L243.325,5.7 Z M243.325,7.7 L243.325,8.58 L238.445,8.58 L238.445,7.7 L243.325,7.7 Z M249.355,8.96 L249.355,10 L244.615,10 L244.615,9.05 L247.015,6.47 C247.295001,6.1633318 247.499999,5.88166795 247.63,5.625 C247.760001,5.36833205 247.825,5.1133346 247.825,4.86 C247.825,4.5399984 247.733334,4.29833415 247.55,4.135 C247.366666,3.97166585 247.098335,3.89 246.745,3.89 C246.111663,3.89 245.475003,4.1333309 244.835,4.62 L244.405,3.68 C244.685001,3.4333321 245.043331,3.23500075 245.48,3.085 C245.916669,2.93499925 246.354998,2.86 246.795,2.86 C247.50167,2.86 248.061665,3.0333316 248.475,3.38 C248.888335,3.7266684 249.095,4.1933304 249.095,4.78 C249.095,5.1866687 249.008334,5.56833155 248.835,5.925 C248.661666,6.28166845 248.368335,6.6799978 247.955,7.12 L246.225,8.96 L249.355,8.96 Z M255.365,8.96 L255.365,10 L250.625,10 L250.625,9.05 L253.025,6.47 C253.305001,6.1633318 253.509999,5.88166795 253.64,5.625 C253.770001,5.36833205 253.835,5.1133346 253.835,4.86 C253.835,4.5399984 253.743334,4.29833415 253.56,4.135 C253.376666,3.97166585 253.108335,3.89 252.755,3.89 C252.121664,3.89 251.485003,4.1333309 250.845,4.62 L250.415,3.68 C250.695001,3.4333321 251.053331,3.23500075 251.49,3.085 C251.926669,2.93499925 252.364998,2.86 252.805,2.86 C253.51167,2.86 254.071665,3.0333316 254.485,3.38 C254.898335,3.7266684 255.105,4.1933304 255.105,4.78 C255.105,5.1866687 255.018334,5.56833155 254.845,5.925 C254.671666,6.28166845 254.378335,6.6799978 253.965,7.12 L252.235,8.96 L255.365,8.96 Z" id="Q3=22" fill="#FFC107"></path>
            <path d="M85.5,155.5 C86.0522847,155.5 86.5,155.947715 86.5,156.5 C86.5,157.052285 86.0522847,157.5 85.5,157.5 L76.5,157.5 C75.9477153,157.5 75.5,157.052285 75.5,156.5 C75.5,155.947715 75.9477153,155.5 76.5,155.5 L85.5,155.5 Z" id="1-copy-7" fill="#FA4359" transform="translate(81.000000, 156.500000) rotate(-90.000000) translate(-81.000000, -156.500000) "></path>
            <path d="M124.5,155.5 C125.052285,155.5 125.5,155.947715 125.5,156.5 C125.5,157.052285 125.052285,157.5 124.5,157.5 L115.5,157.5 C114.947715,157.5 114.5,157.052285 114.5,156.5 C114.5,155.947715 114.947715,155.5 115.5,155.5 L124.5,155.5 Z" id="1-copy-9" fill="#000000" transform="translate(120.000000, 156.500000) rotate(-90.000000) translate(-120.000000, -156.500000) "></path>
            <path d="M244.5,155.5 C245.052285,155.5 245.5,155.947715 245.5,156.5 C245.5,157.052285 245.052285,157.5 244.5,157.5 L235.5,157.5 C234.947715,157.5 234.5,157.052285 234.5,156.5 C234.5,155.947715 234.947715,155.5 235.5,155.5 L244.5,155.5 Z" id="5-copy-3" fill="#FFC107" transform="translate(240.000000, 156.500000) rotate(-90.000000) translate(-240.000000, -156.500000) "></path>
            <path d="M86,46 C85.4477153,46 85,45.5522847 85,45 C85,44.4477153 85.4477153,44 86,44 L92,44 C92.5522847,44 93,44.4477153 93,45 C93,45.5522847 92.5522847,46 92,46 L86,46 Z M98,46 C97.4477153,46 97,45.5522847 97,45 C97,44.4477153 97.4477153,44 98,44 L104,44 C104.552285,44 105,44.4477153 105,45 C105,45.5522847 104.552285,46 104,46 L98,46 Z M110,46 C109.447715,46 109,45.5522847 109,45 C109,44.4477153 109.447715,44 110,44 L116,44 C116.552285,44 117,44.4477153 117,45 C117,45.5522847 116.552285,46 116,46 L110,46 Z M122,46 C121.447715,46 121,45.5522847 121,45 C121,44.4477153 121.447715,44 122,44 L128,44 C128.552285,44 129,44.4477153 129,45 C129,45.5522847 128.552285,46 128,46 L122,46 Z M134,46 C133.447715,46 133,45.5522847 133,45 C133,44.4477153 133.447715,44 134,44 L140,44 C140.552285,44 141,44.4477153 141,45 C141,45.5522847 140.552285,46 140,46 L134,46 Z M146,46 C145.447715,46 145,45.5522847 145,45 C145,44.4477153 145.447715,44 146,44 L152,44 C152.552285,44 153,44.4477153 153,45 C153,45.5522847 152.552285,46 152,46 L146,46 Z M158,46 C157.447715,46 157,45.5522847 157,45 C157,44.4477153 157.447715,44 158,44 L164,44 C164.552285,44 165,44.4477153 165,45 C165,45.5522847 164.552285,46 164,46 L158,46 Z M170,46 C169.447715,46 169,45.5522847 169,45 C169,44.4477153 169.447715,44 170,44 L176,44 C176.552285,44 177,44.4477153 177,45 C177,45.5522847 176.552285,46 176,46 L170,46 Z M182,46 C181.447715,46 181,45.5522847 181,45 C181,44.4477153 181.447715,44 182,44 L188,44 C188.552285,44 189,44.4477153 189,45 C189,45.5522847 188.552285,46 188,46 L182,46 Z M194,46 C193.447715,46 193,45.5522847 193,45 C193,44.4477153 193.447715,44 194,44 L200,44 C200.552285,44 201,44.4477153 201,45 C201,45.5522847 200.552285,46 200,46 L194,46 Z M206,46 C205.447715,46 205,45.5522847 205,45 C205,44.4477153 205.447715,44 206,44 L212,44 C212.552285,44 213,44.4477153 213,45 C213,45.5522847 212.552285,46 212,46 L206,46 Z M218,46 C217.447715,46 217,45.5522847 217,45 C217,44.4477153 217.447715,44 218,44 L224,44 C224.552285,44 225,44.4477153 225,45 C225,45.5522847 224.552285,46 224,46 L218,46 Z M230,46 C229.447715,46 229,45.5522847 229,45 C229,44.4477153 229.447715,44 230,44 L236,44 C236.552285,44 237,44.4477153 237,45 C237,45.5522847 236.552285,46 236,46 L230,46 Z" id="Line-2" fill="#4C7EF3"></path>
        </g>
    </g>
</svg>