<?xml version="1.0" encoding="UTF-8"?>
<svg width="421px" height="233px" viewBox="0 0 421 233" version="1.1" xmlns="http://www.w3.org/2000/svg" xmlns:xlink="http://www.w3.org/1999/xlink">
    <!-- Generator: Sketch 53 (72520) - https://sketchapp.com -->
    <title>quartiles</title>
    <desc>Created with Sketch.</desc>
    <g id="quartiles" stroke="none" stroke-width="1" fill="none" fill-rule="evenodd">
        <g id="Group" transform="translate(29.000000, 33.000000)" fill-rule="nonzero">
            <rect id="Rectangle-Copy-16" fill="#FA4359" x="81" y="16" width="2" height="134"></rect>
            <rect id="Rectangle-Copy-26" fill="#37C3BE" x="120" y="16" width="2" height="134"></rect>
            <rect id="Rectangle-Copy-4" fill="#FFC107" x="240" y="16" width="2" height="134"></rect>
            <circle id="Oval-Copy-5" fill="#4C7EF3" cx="29" cy="135" r="4"></circle>
            <circle id="Oval-Copy-6" fill="#4C7EF3" cx="42" cy="135" r="4"></circle>
            <circle id="Oval-Copy-10" fill="#4C7EF3" cx="108" cy="135" r="4"></circle>
            <circle id="Oval-Copy-20" fill="#4C7EF3" cx="280" cy="135" r="4"></circle>
            <circle id="Oval-Copy-15" fill="#4C7EF3" cx="135" cy="135" r="4"></circle>
            <circle id="Oval-Copy-16" fill="#4C7EF3" cx="148" cy="135" r="4"></circle>
            <circle id="Oval-Copy-17" fill="#4C7EF3" cx="174" cy="135" r="4"></circle>
            <circle id="Oval-Copy-18" fill="#4C7EF3" cx="201" cy="135" r="4"></circle>
            <circle id="Oval-Copy-22" fill="#4C7EF3" cx="267" cy="135" r="4"></circle>
            <circle id="Oval-Copy-23" fill="#4C7EF3" cx="294" cy="135" r="4"></circle>
            <circle id="Oval-Copy-24" fill="#4C7EF3" cx="320" cy="135" r="4"></circle>
            <circle id="Oval-Copy-19" fill="#4C7EF3" cx="214" cy="135" r="4"></circle>
            <circle id="Oval-Copy-12" fill="#4C7EF3" cx="95" cy="135" r="4"></circle>
            <circle id="Oval-Copy-9" fill="#4C7EF3" cx="42" cy="121" r="4"></circle>
            <circle id="Oval-Copy-11" fill="#4C7EF3" cx="108" cy="121" r="4"></circle>
            <circle id="Oval-Copy-21" fill="#4C7EF3" cx="280" cy="121" r="4"></circle>
            <circle id="Oval-Copy-13" fill="#4C7EF3" cx="95" cy="121" r="4"></circle>
            <circle id="Oval-Copy-14" fill="#4C7EF3" cx="95" cy="107" r="4"></circle>
            <circle id="Oval-Copy-7" fill="#4C7EF3" cx="55" cy="135" r="4"></circle>
            <circle id="Oval-Copy-8" fill="#4C7EF3" cx="68" cy="135" r="4"></circle>
            <path d="M16.3,167.58 C16.7466689,167.58 17.1349984,167.673332 17.465,167.86 C17.7950017,168.046668 18.0499991,168.308332 18.23,168.645 C18.4100009,168.981668 18.5,169.369998 18.5,169.81 C18.5,170.256669 18.4016677,170.649998 18.205,170.99 C18.0083324,171.330002 17.7300018,171.594999 17.37,171.785 C17.0099982,171.975001 16.5900024,172.07 16.11,172.07 C15.6833312,172.07 15.2616688,171.991667 14.845,171.835 C14.4283313,171.678333 14.0766681,171.466668 13.79,171.2 L14.1,170.57 C14.7533366,171.110003 15.4233299,171.38 16.11,171.38 C16.6033358,171.38 16.9899986,171.240001 17.27,170.96 C17.5500014,170.679999 17.69,170.300002 17.69,169.82 C17.69,169.353331 17.5516681,168.976668 17.275,168.69 C16.998332,168.403332 16.6300023,168.26 16.17,168.26 C15.4966633,168.26 14.960002,168.533331 14.56,169.08 L13.99,169.08 L13.99,164.95 L18.22,164.95 L18.22,165.63 L14.8,165.63 L14.8,168.14 C14.9866676,167.959999 15.2083321,167.821667 15.465,167.725 C15.721668,167.628333 15.9999985,167.58 16.3,167.58 Z" id="5" fill="#0F1931"></path>
            <path d="M79.67,171.31 L81.22,171.31 L81.22,172 L77.3,172 L77.3,171.31 L78.85,171.31 L78.85,165.97 L77.61,166.75 L77.23,166.12 L79.08,164.95 L79.67,164.95 L79.67,171.31 Z M85,172.08 C84.1933293,172.08 83.5800021,171.773336 83.16,171.16 C82.7399979,170.546664 82.53,169.653339 82.53,168.48 C82.53,167.299994 82.7399979,166.403336 83.16,165.79 C83.5800021,165.176664 84.1933293,164.87 85,164.87 C85.8066707,164.87 86.4199979,165.174997 86.84,165.785 C87.2600021,166.395003 87.47,167.289994 87.47,168.47 C87.47,169.650006 87.2600021,170.546664 86.84,171.16 C86.4199979,171.773336 85.8066707,172.08 85,172.08 Z M85,171.39 C85.5600028,171.39 85.973332,171.153336 86.24,170.68 C86.506668,170.206664 86.64,169.470005 86.64,168.47 C86.64,167.463328 86.5083347,166.728336 86.245,166.265 C85.9816654,165.801664 85.5666695,165.57 85,165.57 C84.4399972,165.57 84.026668,165.803331 83.76,166.27 C83.493332,166.736669 83.36,167.469995 83.36,168.47 C83.36,169.470005 83.493332,170.206664 83.76,170.68 C84.026668,171.153336 84.4399972,171.39 85,171.39 Z" id="10" fill="#0F1931"></path>
            <path d="M145.67,171.31 L147.22,171.31 L147.22,172 L143.3,172 L143.3,171.31 L144.85,171.31 L144.85,165.97 L143.61,166.75 L143.23,166.12 L145.08,164.95 L145.67,164.95 L145.67,171.31 Z M151.3,167.58 C151.746669,167.58 152.134998,167.673332 152.465,167.86 C152.795002,168.046668 153.049999,168.308332 153.23,168.645 C153.410001,168.981668 153.5,169.369998 153.5,169.81 C153.5,170.256669 153.401668,170.649998 153.205,170.99 C153.008332,171.330002 152.730002,171.594999 152.37,171.785 C152.009998,171.975001 151.590002,172.07 151.11,172.07 C150.683331,172.07 150.261669,171.991667 149.845,171.835 C149.428331,171.678333 149.076668,171.466668 148.79,171.2 L149.1,170.57 C149.753337,171.110003 150.42333,171.38 151.11,171.38 C151.603336,171.38 151.989999,171.240001 152.27,170.96 C152.550001,170.679999 152.69,170.300002 152.69,169.82 C152.69,169.353331 152.551668,168.976668 152.275,168.69 C151.998332,168.403332 151.630002,168.26 151.17,168.26 C150.496663,168.26 149.960002,168.533331 149.56,169.08 L148.99,169.08 L148.99,164.95 L153.22,164.95 L153.22,165.63 L149.8,165.63 L149.8,168.14 C149.986668,167.959999 150.208332,167.821667 150.465,167.725 C150.721668,167.628333 150.999999,167.58 151.3,167.58 Z" id="15" fill="#0F1931"></path>
            <path d="M213.39,171.31 L213.39,172 L208.85,172 L208.85,171.38 L211.32,168.66 C211.653335,168.286665 211.894999,167.951668 212.045,167.655 C212.195001,167.358332 212.27,167.060001 212.27,166.76 C212.27,166.373331 212.156668,166.076668 211.93,165.87 C211.703332,165.663332 211.383335,165.56 210.97,165.56 C210.289997,165.56 209.623337,165.829997 208.97,166.37 L208.66,165.74 C208.940001,165.473332 209.291665,165.261667 209.715,165.105 C210.138335,164.948333 210.563331,164.87 210.99,164.87 C211.63667,164.87 212.148331,165.036665 212.525,165.37 C212.901669,165.703335 213.09,166.153331 213.09,166.72 C213.09,167.126669 212.998334,167.516665 212.815,167.89 C212.631666,168.263335 212.330002,168.679998 211.91,169.14 L209.91,171.31 L213.39,171.31 Z M217,172.08 C216.193329,172.08 215.580002,171.773336 215.16,171.16 C214.739998,170.546664 214.53,169.653339 214.53,168.48 C214.53,167.299994 214.739998,166.403336 215.16,165.79 C215.580002,165.176664 216.193329,164.87 217,164.87 C217.806671,164.87 218.419998,165.174997 218.84,165.785 C219.260002,166.395003 219.47,167.289994 219.47,168.47 C219.47,169.650006 219.260002,170.546664 218.84,171.16 C218.419998,171.773336 217.806671,172.08 217,172.08 Z M217,171.39 C217.560003,171.39 217.973332,171.153336 218.24,170.68 C218.506668,170.206664 218.64,169.470005 218.64,168.47 C218.64,167.463328 218.508335,166.728336 218.245,166.265 C217.981665,165.801664 217.566669,165.57 217,165.57 C216.439997,165.57 216.026668,165.803331 215.76,166.27 C215.493332,166.736669 215.36,167.469995 215.36,168.47 C215.36,169.470005 215.493332,170.206664 215.76,170.68 C216.026668,171.153336 216.439997,171.39 217,171.39 Z" id="20" fill="#0F1931"></path>
            <path d="M279.39,171.31 L279.39,172 L274.85,172 L274.85,171.38 L277.32,168.66 C277.653335,168.286665 277.894999,167.951668 278.045,167.655 C278.195001,167.358332 278.27,167.060001 278.27,166.76 C278.27,166.373331 278.156668,166.076668 277.93,165.87 C277.703332,165.663332 277.383335,165.56 276.97,165.56 C276.289997,165.56 275.623337,165.829997 274.97,166.37 L274.66,165.74 C274.940001,165.473332 275.291665,165.261667 275.715,165.105 C276.138335,164.948333 276.563331,164.87 276.99,164.87 C277.63667,164.87 278.148331,165.036665 278.525,165.37 C278.901669,165.703335 279.09,166.153331 279.09,166.72 C279.09,167.126669 278.998334,167.516665 278.815,167.89 C278.631666,168.263335 278.330002,168.679998 277.91,169.14 L275.91,171.31 L279.39,171.31 Z M283.3,167.58 C283.746669,167.58 284.134998,167.673332 284.465,167.86 C284.795002,168.046668 285.049999,168.308332 285.23,168.645 C285.410001,168.981668 285.5,169.369998 285.5,169.81 C285.5,170.256669 285.401668,170.649998 285.205,170.99 C285.008332,171.330002 284.730002,171.594999 284.37,171.785 C284.009998,171.975001 283.590002,172.07 283.11,172.07 C282.683331,172.07 282.261669,171.991667 281.845,171.835 C281.428331,171.678333 281.076668,171.466668 280.79,171.2 L281.1,170.57 C281.753337,171.110003 282.42333,171.38 283.11,171.38 C283.603336,171.38 283.989999,171.240001 284.27,170.96 C284.550001,170.679999 284.69,170.300002 284.69,169.82 C284.69,169.353331 284.551668,168.976668 284.275,168.69 C283.998332,168.403332 283.630002,168.26 283.17,168.26 C282.496663,168.26 281.960002,168.533331 281.56,169.08 L280.99,169.08 L280.99,164.95 L285.22,164.95 L285.22,165.63 L281.8,165.63 L281.8,168.14 C281.986668,167.959999 282.208332,167.821667 282.465,167.725 C282.721668,167.628333 282.999999,167.58 283.3,167.58 Z" id="25" fill="#0F1931"></path>
            <path d="M344.97,168.38 C345.383335,168.500001 345.699999,168.704999 345.92,168.995 C346.140001,169.285001 346.25,169.649998 346.25,170.09 C346.25,170.703336 346.041669,171.186665 345.625,171.54 C345.208331,171.893335 344.643337,172.07 343.93,172.07 C343.476664,172.07 343.040002,171.993334 342.62,171.84 C342.199998,171.686666 341.846668,171.473335 341.56,171.2 L341.87,170.57 C342.510003,171.110003 343.189996,171.38 343.91,171.38 C344.410002,171.38 344.789999,171.268334 345.05,171.045 C345.310001,170.821666 345.44,170.493336 345.44,170.06 C345.44,169.199996 344.900005,168.77 343.82,168.77 L343.01,168.77 L343.01,168.08 L343.66,168.08 C344.180003,168.08 344.579999,167.965001 344.86,167.735 C345.140001,167.504999 345.28,167.173336 345.28,166.74 C345.28,166.359998 345.166668,166.068334 344.94,165.865 C344.713332,165.661666 344.390002,165.56 343.97,165.56 C343.289997,165.56 342.623337,165.829997 341.97,166.37 L341.66,165.74 C341.946668,165.466665 342.296665,165.253334 342.71,165.1 C343.123335,164.946666 343.553331,164.87 344,164.87 C344.640003,164.87 345.148331,165.031665 345.525,165.355 C345.901669,165.678335 346.09,166.113331 346.09,166.66 C346.09,167.066669 345.991668,167.421665 345.795,167.725 C345.598332,168.028335 345.323335,168.246666 344.97,168.38 Z M350,172.08 C349.193329,172.08 348.580002,171.773336 348.16,171.16 C347.739998,170.546664 347.53,169.653339 347.53,168.48 C347.53,167.299994 347.739998,166.403336 348.16,165.79 C348.580002,165.176664 349.193329,164.87 350,164.87 C350.806671,164.87 351.419998,165.174997 351.84,165.785 C352.260002,166.395003 352.47,167.289994 352.47,168.47 C352.47,169.650006 352.260002,170.546664 351.84,171.16 C351.419998,171.773336 350.806671,172.08 350,172.08 Z M350,171.39 C350.560003,171.39 350.973332,171.153336 351.24,170.68 C351.506668,170.206664 351.64,169.470005 351.64,168.47 C351.64,167.463328 351.508335,166.728336 351.245,166.265 C350.981665,165.801664 350.566669,165.57 350,165.57 C349.439997,165.57 349.026668,165.803331 348.76,166.27 C348.493332,166.736669 348.36,167.469995 348.36,168.47 C348.36,169.470005 348.493332,170.206664 348.76,170.68 C349.026668,171.153336 349.439997,171.39 350,171.39 Z" id="30" fill="#0F1931"></path>
            <path d="M20.5,153.5 C21.0522847,153.5 21.5,153.947715 21.5,154.5 C21.5,155.052285 21.0522847,155.5 20.5,155.5 L11.5,155.5 C10.9477153,155.5 10.5,155.052285 10.5,154.5 C10.5,153.947715 10.9477153,153.5 11.5,153.5 L20.5,153.5 Z" id="1" fill="#0F1931" transform="translate(16.000000, 154.500000) rotate(-90.000000) translate(-16.000000, -154.500000) "></path>
            <path d="M33.5,153.5 C34.0522847,153.5 34.5,153.947715 34.5,154.5 C34.5,155.052285 34.0522847,155.5 33.5,155.5 L24.5,155.5 C23.9477153,155.5 23.5,155.052285 23.5,154.5 C23.5,153.947715 23.9477153,153.5 24.5,153.5 L33.5,153.5 Z" id="1-copy-3" fill="#0F1931" transform="translate(29.000000, 154.500000) rotate(-90.000000) translate(-29.000000, -154.500000) "></path>
            <path d="M46.5,153.5 C47.0522847,153.5 47.5,153.947715 47.5,154.5 C47.5,155.052285 47.0522847,155.5 46.5,155.5 L37.5,155.5 C36.9477153,155.5 36.5,155.052285 36.5,154.5 C36.5,153.947715 36.9477153,153.5 37.5,153.5 L46.5,153.5 Z" id="1-copy-4" fill="#0F1931" transform="translate(42.000000, 154.500000) rotate(-90.000000) translate(-42.000000, -154.500000) "></path>
            <path d="M59.5,153.5 C60.0522847,153.5 60.5,153.947715 60.5,154.5 C60.5,155.052285 60.0522847,155.5 59.5,155.5 L50.5,155.5 C49.9477153,155.5 49.5,155.052285 49.5,154.5 C49.5,153.947715 49.9477153,153.5 50.5,153.5 L59.5,153.5 Z" id="1-copy-5" fill="#0F1931" transform="translate(55.000000, 154.500000) rotate(-90.000000) translate(-55.000000, -154.500000) "></path>
            <path d="M72.5,153.5 C73.0522847,153.5 73.5,153.947715 73.5,154.5 C73.5,155.052285 73.0522847,155.5 72.5,155.5 L63.5,155.5 C62.9477153,155.5 62.5,155.052285 62.5,154.5 C62.5,153.947715 62.9477153,153.5 63.5,153.5 L72.5,153.5 Z" id="1-copy-6" fill="#0F1931" transform="translate(68.000000, 154.500000) rotate(-90.000000) translate(-68.000000, -154.500000) "></path>
            <path d="M99.5,153.5 C100.052285,153.5 100.5,153.947715 100.5,154.5 C100.5,155.052285 100.052285,155.5 99.5,155.5 L90.5,155.5 C89.9477153,155.5 89.5,155.052285 89.5,154.5 C89.5,153.947715 89.9477153,153.5 90.5,153.5 L99.5,153.5 Z" id="1-copy-8" fill="#0F1931" transform="translate(95.000000, 154.500000) rotate(-90.000000) translate(-95.000000, -154.500000) "></path>
            <path d="M112.5,153.5 C113.052285,153.5 113.5,153.947715 113.5,154.5 C113.5,155.052285 113.052285,155.5 112.5,155.5 L103.5,155.5 C102.947715,155.5 102.5,155.052285 102.5,154.5 C102.5,153.947715 102.947715,153.5 103.5,153.5 L112.5,153.5 Z" id="1-copy" fill="#0F1931" transform="translate(108.000000, 154.500000) rotate(-90.000000) translate(-108.000000, -154.500000) "></path>
            <path d="M139.5,153.5 C140.052285,153.5 140.5,153.947715 140.5,154.5 C140.5,155.052285 140.052285,155.5 139.5,155.5 L130.5,155.5 C129.947715,155.5 129.5,155.052285 129.5,154.5 C129.5,153.947715 129.947715,153.5 130.5,153.5 L139.5,153.5 Z" id="1-copy-10" fill="#0F1931" transform="translate(135.000000, 154.500000) rotate(-90.000000) translate(-135.000000, -154.500000) "></path>
            <path d="M152.5,153.5 C153.052285,153.5 153.5,153.947715 153.5,154.5 C153.5,155.052285 153.052285,155.5 152.5,155.5 L143.5,155.5 C142.947715,155.5 142.5,155.052285 142.5,154.5 C142.5,153.947715 142.947715,153.5 143.5,153.5 L152.5,153.5 Z" id="1-copy-2" fill="#0F1931" transform="translate(148.000000, 154.500000) rotate(-90.000000) translate(-148.000000, -154.500000) "></path>
            <path d="M165.5,153.5 C166.052285,153.5 166.5,153.947715 166.5,154.5 C166.5,155.052285 166.052285,155.5 165.5,155.5 L156.5,155.5 C155.947715,155.5 155.5,155.052285 155.5,154.5 C155.5,153.947715 155.947715,153.5 156.5,153.5 L165.5,153.5 Z" id="3" fill="#0F1931" transform="translate(161.000000, 154.500000) rotate(-90.000000) translate(-161.000000, -154.500000) "></path>
            <path d="M178.5,153.5 C179.052285,153.5 179.5,153.947715 179.5,154.5 C179.5,155.052285 179.052285,155.5 178.5,155.5 L169.5,155.5 C168.947715,155.5 168.5,155.052285 168.5,154.5 C168.5,153.947715 168.947715,153.5 169.5,153.5 L178.5,153.5 Z" id="3-copy" fill="#0F1931" transform="translate(174.000000, 154.500000) rotate(-90.000000) translate(-174.000000, -154.500000) "></path>
            <path d="M192.5,153.5 C193.052285,153.5 193.5,153.947715 193.5,154.5 C193.5,155.052285 193.052285,155.5 192.5,155.5 L183.5,155.5 C182.947715,155.5 182.5,155.052285 182.5,154.5 C182.5,153.947715 182.947715,153.5 183.5,153.5 L192.5,153.5 Z" id="3-copy-2" fill="#0F1931" transform="translate(188.000000, 154.500000) rotate(-90.000000) translate(-188.000000, -154.500000) "></path>
            <path d="M218.5,153.5 C219.052285,153.5 219.5,153.947715 219.5,154.5 C219.5,155.052285 219.052285,155.5 218.5,155.5 L209.5,155.5 C208.947715,155.5 208.5,155.052285 208.5,154.5 C208.5,153.947715 208.947715,153.5 209.5,153.5 L218.5,153.5 Z" id="5" fill="#0F1931" transform="translate(214.000000, 154.500000) rotate(-90.000000) translate(-214.000000, -154.500000) "></path>
            <path d="M231.5,153.5 C232.052285,153.5 232.5,153.947715 232.5,154.5 C232.5,155.052285 232.052285,155.5 231.5,155.5 L222.5,155.5 C221.947715,155.5 221.5,155.052285 221.5,154.5 C221.5,153.947715 221.947715,153.5 222.5,153.5 L231.5,153.5 Z" id="5-copy-2" fill="#0F1931" transform="translate(227.000000, 154.500000) rotate(-90.000000) translate(-227.000000, -154.500000) "></path>
            <path d="M258.5,153.5 C259.052285,153.5 259.5,153.947715 259.5,154.5 C259.5,155.052285 259.052285,155.5 258.5,155.5 L249.5,155.5 C248.947715,155.5 248.5,155.052285 248.5,154.5 C248.5,153.947715 248.947715,153.5 249.5,153.5 L258.5,153.5 Z" id="5-copy-4" fill="#0F1931" transform="translate(254.000000, 154.500000) rotate(-90.000000) translate(-254.000000, -154.500000) "></path>
            <path d="M271.5,153.5 C272.052285,153.5 272.5,153.947715 272.5,154.5 C272.5,155.052285 272.052285,155.5 271.5,155.5 L262.5,155.5 C261.947715,155.5 261.5,155.052285 261.5,154.5 C261.5,153.947715 261.947715,153.5 262.5,153.5 L271.5,153.5 Z" id="5-copy-5" fill="#0F1931" transform="translate(267.000000, 154.500000) rotate(-90.000000) translate(-267.000000, -154.500000) "></path>
            <path d="M284.5,153.5 C285.052285,153.5 285.5,153.947715 285.5,154.5 C285.5,155.052285 285.052285,155.5 284.5,155.5 L275.5,155.5 C274.947715,155.5 274.5,155.052285 274.5,154.5 C274.5,153.947715 274.947715,153.5 275.5,153.5 L284.5,153.5 Z" id="5-copy-6" fill="#0F1931" transform="translate(280.000000, 154.500000) rotate(-90.000000) translate(-280.000000, -154.500000) "></path>
            <path d="M298.5,153.5 C299.052285,153.5 299.5,153.947715 299.5,154.5 C299.5,155.052285 299.052285,155.5 298.5,155.5 L289.5,155.5 C288.947715,155.5 288.5,155.052285 288.5,154.5 C288.5,153.947715 288.947715,153.5 289.5,153.5 L298.5,153.5 Z" id="5-copy-7" fill="#0F1931" transform="translate(294.000000, 154.500000) rotate(-90.000000) translate(-294.000000, -154.500000) "></path>
            <path d="M311.5,153.5 C312.052285,153.5 312.5,153.947715 312.5,154.5 C312.5,155.052285 312.052285,155.5 311.5,155.5 L302.5,155.5 C301.947715,155.5 301.5,155.052285 301.5,154.5 C301.5,153.947715 301.947715,153.5 302.5,153.5 L311.5,153.5 Z" id="5-copy-8" fill="#0F1931" transform="translate(307.000000, 154.500000) rotate(-90.000000) translate(-307.000000, -154.500000) "></path>
            <path d="M324.5,153.5 C325.052285,153.5 325.5,153.947715 325.5,154.5 C325.5,155.052285 325.052285,155.5 324.5,155.5 L315.5,155.5 C314.947715,155.5 314.5,155.052285 314.5,154.5 C314.5,153.947715 314.947715,153.5 315.5,153.5 L324.5,153.5 Z" id="5-copy-9" fill="#0F1931" transform="translate(320.000000, 154.500000) rotate(-90.000000) translate(-320.000000, -154.500000) "></path>
            <path d="M337.5,153.5 C338.052285,153.5 338.5,153.947715 338.5,154.5 C338.5,155.052285 338.052285,155.5 337.5,155.5 L328.5,155.5 C327.947715,155.5 327.5,155.052285 327.5,154.5 C327.5,153.947715 327.947715,153.5 328.5,153.5 L337.5,153.5 Z" id="5-copy-10" fill="#0F1931" transform="translate(333.000000, 154.500000) rotate(-90.000000) translate(-333.000000, -154.500000) "></path>
            <path d="M351.5,153.5 C352.052285,153.5 352.5,153.947715 352.5,154.5 C352.5,155.052285 352.052285,155.5 351.5,155.5 L342.5,155.5 C341.947715,155.5 341.5,155.052285 341.5,154.5 C341.5,153.947715 341.947715,153.5 342.5,153.5 L351.5,153.5 Z" id="6" fill="#0F1931" transform="translate(347.000000, 154.500000) rotate(-90.000000) translate(-347.000000, -154.500000) "></path>
            <path d="M205.5,153.5 C206.052285,153.5 206.5,153.947715 206.5,154.5 C206.5,155.052285 206.052285,155.5 205.5,155.5 L196.5,155.5 C195.947715,155.5 195.5,155.052285 195.5,154.5 C195.5,153.947715 195.947715,153.5 196.5,153.5 L205.5,153.5 Z" id="7" fill="#000000" transform="translate(201.000000, 154.500000) rotate(270.000000) translate(-201.000000, -154.500000) "></path>
            <path d="M1,156 C0.44771525,156 0,155.552285 0,155 C0,154.447715 0.44771525,154 1,154 L362,154 C362.552285,154 363,154.447715 363,155 C363,155.552285 362.552285,156 362,156 L1,156 Z" id="Line" fill="#0F1931"></path>
            <path d="M71.515,7.77 C71.6750008,7.8166669 71.8149994,7.89166615 71.935,7.995 C72.0550006,8.09833385 72.1716661,8.2433324 72.285,8.43 L73.005,9.6 L71.925,10.12 L70.955,8.55 C70.7683324,8.2433318 70.4516689,8.09 70.005,8.09 C69.3183299,8.09 68.7233358,7.9433348 68.22,7.65 C67.7166641,7.3566652 67.3283347,6.9366694 67.055,6.39 C66.7816653,5.8433306 66.645,5.203337 66.645,4.47 C66.645,3.736663 66.7816653,3.09833605 67.055,2.555 C67.3283347,2.01166395 67.7166641,1.5933348 68.22,1.3 C68.7233358,1.0066652 69.3183299,0.86 70.005,0.86 C70.6850034,0.86 71.2766641,1.0066652 71.78,1.3 C72.2833358,1.5933348 72.6716653,2.01166395 72.945,2.555 C73.2183347,3.09833605 73.355,3.736663 73.355,4.47 C73.355,5.270004 73.1966682,5.95499715 72.88,6.525 C72.5633317,7.09500285 72.1083363,7.5099987 71.515,7.77 Z M70.005,7.06 C70.6516699,7.06 71.1566648,6.8366689 71.52,6.39 C71.8833351,5.9433311 72.065,5.3033375 72.065,4.47 C72.065,3.6366625 71.8833351,2.99833555 71.52,2.555 C71.1566648,2.11166445 70.6516699,1.89 70.005,1.89 C69.3516634,1.89 68.8433351,2.11166445 68.48,2.555 C68.1166648,2.99833555 67.935,3.6366625 67.935,4.47 C67.935,5.3033375 68.1166648,5.9433311 68.48,6.39 C68.8433351,6.8366689 69.3516634,7.06 70.005,7.06 Z M77.855,6.96 L79.385,6.96 L79.385,8 L75.035,8 L75.035,6.96 L76.565,6.96 L76.565,2.42 L75.355,3.15 L74.845,2.21 L76.935,0.95 L77.855,0.95 L77.855,6.96 Z M85.335,3.7 L85.335,4.58 L80.455,4.58 L80.455,3.7 L85.335,3.7 Z M85.335,5.7 L85.335,6.58 L80.455,6.58 L80.455,5.7 L85.335,5.7 Z M89.855,6.96 L91.385,6.96 L91.385,8 L87.035,8 L87.035,6.96 L88.565,6.96 L88.565,2.42 L87.355,3.15 L86.845,2.21 L88.935,0.95 L89.855,0.95 L89.855,6.96 Z M94.895,8.09 C94.0616625,8.09 93.4250022,7.78166975 92.985,7.165 C92.5449978,6.54833025 92.325,5.6500059 92.325,4.47 C92.325,3.3033275 92.5449978,2.4133364 92.985,1.8 C93.4250022,1.1866636 94.0616625,0.88 94.895,0.88 C95.7283375,0.88 96.3649978,1.1866636 96.805,1.8 C97.2450022,2.4133364 97.465,3.3033275 97.465,4.47 C97.465,5.6433392 97.2450022,6.5399969 96.805,7.16 C96.3649978,7.7800031 95.7283375,8.09 94.895,8.09 Z M94.895,7.08 C95.3483356,7.08 95.6783323,6.87166875 95.885,6.455 C96.0916677,6.03833125 96.195,5.3766712 96.195,4.47 C96.195,3.5699955 96.0916677,2.91500205 95.885,2.505 C95.6783323,2.09499795 95.3483356,1.89 94.895,1.89 C94.4416644,1.89 94.1116677,2.09499795 93.905,2.505 C93.6983323,2.91500205 93.595,3.5699955 93.595,4.47 C93.595,5.3766712 93.6983323,6.03833125 93.905,6.455 C94.1116677,6.87166875 94.4416644,7.08 94.895,7.08 Z" id="Q1=10" fill="#FA4359"></path>
            <path d="M110.51,7.77 C110.670001,7.8166669 110.809999,7.89166615 110.93,7.995 C111.050001,8.09833385 111.166666,8.2433324 111.28,8.43 L112,9.6 L110.92,10.12 L109.95,8.55 C109.763332,8.2433318 109.446669,8.09 109,8.09 C108.31333,8.09 107.718336,7.9433348 107.215,7.65 C106.711664,7.3566652 106.323335,6.9366694 106.05,6.39 C105.776665,5.8433306 105.64,5.203337 105.64,4.47 C105.64,3.736663 105.776665,3.09833605 106.05,2.555 C106.323335,2.01166395 106.711664,1.5933348 107.215,1.3 C107.718336,1.0066652 108.31333,0.86 109,0.86 C109.680003,0.86 110.271664,1.0066652 110.775,1.3 C111.278336,1.5933348 111.666665,2.01166395 111.94,2.555 C112.213335,3.09833605 112.35,3.736663 112.35,4.47 C112.35,5.270004 112.191668,5.95499715 111.875,6.525 C111.558332,7.09500285 111.103336,7.5099987 110.51,7.77 Z M109,7.06 C109.64667,7.06 110.151665,6.8366689 110.515,6.39 C110.878335,5.9433311 111.06,5.3033375 111.06,4.47 C111.06,3.6366625 110.878335,2.99833555 110.515,2.555 C110.151665,2.11166445 109.64667,1.89 109,1.89 C108.346663,1.89 107.838335,2.11166445 107.475,2.555 C107.111665,2.99833555 106.93,3.6366625 106.93,4.47 C106.93,5.3033375 107.111665,5.9433311 107.475,6.39 C107.838335,6.8366689 108.346663,7.06 109,7.06 Z M118.36,6.96 L118.36,8 L113.62,8 L113.62,7.05 L116.02,4.47 C116.300001,4.1633318 116.504999,3.88166795 116.635,3.625 C116.765001,3.36833205 116.83,3.1133346 116.83,2.86 C116.83,2.5399984 116.738334,2.29833415 116.555,2.135 C116.371666,1.97166585 116.103335,1.89 115.75,1.89 C115.116663,1.89 114.480003,2.1333309 113.84,2.62 L113.41,1.68 C113.690001,1.4333321 114.048331,1.23500075 114.485,1.085 C114.921669,0.93499925 115.359998,0.86 115.8,0.86 C116.50667,0.86 117.066665,1.0333316 117.48,1.38 C117.893335,1.7266684 118.1,2.1933304 118.1,2.78 C118.1,3.1866687 118.013334,3.56833155 117.84,3.925 C117.666666,4.28166845 117.373335,4.6799978 116.96,5.12 L115.23,6.96 L118.36,6.96 Z M124.34,3.7 L124.34,4.58 L119.46,4.58 L119.46,3.7 L124.34,3.7 Z M124.34,5.7 L124.34,6.58 L119.46,6.58 L119.46,5.7 L124.34,5.7 Z M128.86,6.96 L130.39,6.96 L130.39,8 L126.04,8 L126.04,6.96 L127.57,6.96 L127.57,2.42 L126.36,3.15 L125.85,2.21 L127.94,0.95 L128.86,0.95 L128.86,6.96 Z M134.99,4.38 C135.403335,4.4866672 135.721666,4.68833185 135.945,4.985 C136.168334,5.28166815 136.28,5.6499978 136.28,6.09 C136.28,6.7033364 136.055002,7.18833155 135.605,7.545 C135.154998,7.90166845 134.543337,8.08 133.77,8.08 C133.296664,8.08 132.841669,8.0066674 132.405,7.86 C131.968331,7.7133326 131.606668,7.5133346 131.32,7.26 L131.75,6.32 C132.363336,6.8066691 133.019996,7.05 133.72,7.05 C134.166669,7.05 134.499999,6.96166755 134.72,6.785 C134.940001,6.60833245 135.05,6.3400018 135.05,5.98 C135.05,5.6266649 134.938334,5.36500085 134.715,5.195 C134.491666,5.02499915 134.146669,4.94 133.68,4.94 L132.75,4.94 L132.75,3.92 L133.51,3.92 C134.423338,3.92 134.88,3.5766701 134.88,2.89 C134.88,2.5699984 134.781668,2.3233342 134.585,2.15 C134.388332,1.9766658 134.110002,1.89 133.75,1.89 C133.436665,1.89 133.118335,1.95166605 132.795,2.075 C132.471665,2.19833395 132.156668,2.3799988 131.85,2.62 L131.42,1.68 C131.700001,1.4266654 132.058331,1.2266674 132.495,1.08 C132.931669,0.9333326 133.376664,0.86 133.83,0.86 C134.523337,0.86 135.076665,1.02833165 135.49,1.365 C135.903335,1.70166835 136.11,2.1566638 136.11,2.73 C136.103333,3.1233353 136.001668,3.46499855 135.805,3.755 C135.608332,4.04500145 135.336668,4.2533327 134.99,4.38 Z" id="Q2=13" fill="#37C3BE"></path>
            <path d="M230.505,7.77 C230.665001,7.8166669 230.804999,7.89166615 230.925,7.995 C231.045001,8.09833385 231.161666,8.2433324 231.275,8.43 L231.995,9.6 L230.915,10.12 L229.945,8.55 C229.758332,8.2433318 229.441669,8.09 228.995,8.09 C228.30833,8.09 227.713336,7.9433348 227.21,7.65 C226.706664,7.3566652 226.318335,6.9366694 226.045,6.39 C225.771665,5.8433306 225.635,5.203337 225.635,4.47 C225.635,3.736663 225.771665,3.09833605 226.045,2.555 C226.318335,2.01166395 226.706664,1.5933348 227.21,1.3 C227.713336,1.0066652 228.30833,0.86 228.995,0.86 C229.675003,0.86 230.266664,1.0066652 230.77,1.3 C231.273336,1.5933348 231.661665,2.01166395 231.935,2.555 C232.208335,3.09833605 232.345,3.736663 232.345,4.47 C232.345,5.270004 232.186668,5.95499715 231.87,6.525 C231.553332,7.09500285 231.098336,7.5099987 230.505,7.77 Z M228.995,7.06 C229.64167,7.06 230.146665,6.8366689 230.51,6.39 C230.873335,5.9433311 231.055,5.3033375 231.055,4.47 C231.055,3.6366625 230.873335,2.99833555 230.51,2.555 C230.146665,2.11166445 229.64167,1.89 228.995,1.89 C228.341663,1.89 227.833335,2.11166445 227.47,2.555 C227.106665,2.99833555 226.925,3.6366625 226.925,4.47 C226.925,5.3033375 227.106665,5.9433311 227.47,6.39 C227.833335,6.8366689 228.341663,7.06 228.995,7.06 Z M236.975,4.38 C237.388335,4.4866672 237.706666,4.68833185 237.93,4.985 C238.153334,5.28166815 238.265,5.6499978 238.265,6.09 C238.265,6.7033364 238.040002,7.18833155 237.59,7.545 C237.139998,7.90166845 236.528337,8.08 235.755,8.08 C235.281664,8.08 234.826669,8.0066674 234.39,7.86 C233.953331,7.7133326 233.591668,7.5133346 233.305,7.26 L233.735,6.32 C234.348336,6.8066691 235.004997,7.05 235.705,7.05 C236.151669,7.05 236.484999,6.96166755 236.705,6.785 C236.925001,6.60833245 237.035,6.3400018 237.035,5.98 C237.035,5.6266649 236.923334,5.36500085 236.7,5.195 C236.476666,5.02499915 236.131669,4.94 235.665,4.94 L234.735,4.94 L234.735,3.92 L235.495,3.92 C236.408338,3.92 236.865,3.5766701 236.865,2.89 C236.865,2.5699984 236.766668,2.3233342 236.57,2.15 C236.373332,1.9766658 236.095002,1.89 235.735,1.89 C235.421665,1.89 235.103335,1.95166605 234.78,2.075 C234.456665,2.19833395 234.141668,2.3799988 233.835,2.62 L233.405,1.68 C233.685001,1.4266654 234.043331,1.2266674 234.48,1.08 C234.916669,0.9333326 235.361664,0.86 235.815,0.86 C236.508337,0.86 237.061665,1.02833165 237.475,1.365 C237.888335,1.70166835 238.095,2.1566638 238.095,2.73 C238.088333,3.1233353 237.986668,3.46499855 237.79,3.755 C237.593332,4.04500145 237.321668,4.2533327 236.975,4.38 Z M244.325,3.7 L244.325,4.58 L239.445,4.58 L239.445,3.7 L244.325,3.7 Z M244.325,5.7 L244.325,6.58 L239.445,6.58 L239.445,5.7 L244.325,5.7 Z M250.355,6.96 L250.355,8 L245.615,8 L245.615,7.05 L248.015,4.47 C248.295001,4.1633318 248.499999,3.88166795 248.63,3.625 C248.760001,3.36833205 248.825,3.1133346 248.825,2.86 C248.825,2.5399984 248.733334,2.29833415 248.55,2.135 C248.366666,1.97166585 248.098335,1.89 247.745,1.89 C247.111663,1.89 246.475003,2.1333309 245.835,2.62 L245.405,1.68 C245.685001,1.4333321 246.043331,1.23500075 246.48,1.085 C246.916669,0.93499925 247.354998,0.86 247.795,0.86 C248.50167,0.86 249.061665,1.0333316 249.475,1.38 C249.888335,1.7266684 250.095,2.1933304 250.095,2.78 C250.095,3.1866687 250.008334,3.56833155 249.835,3.925 C249.661666,4.28166845 249.368335,4.6799978 248.955,5.12 L247.225,6.96 L250.355,6.96 Z M256.365,6.96 L256.365,8 L251.625,8 L251.625,7.05 L254.025,4.47 C254.305001,4.1633318 254.509999,3.88166795 254.64,3.625 C254.770001,3.36833205 254.835,3.1133346 254.835,2.86 C254.835,2.5399984 254.743334,2.29833415 254.56,2.135 C254.376666,1.97166585 254.108335,1.89 253.755,1.89 C253.121664,1.89 252.485003,2.1333309 251.845,2.62 L251.415,1.68 C251.695001,1.4333321 252.053331,1.23500075 252.49,1.085 C252.926669,0.93499925 253.364998,0.86 253.805,0.86 C254.51167,0.86 255.071665,1.0333316 255.485,1.38 C255.898335,1.7266684 256.105,2.1933304 256.105,2.78 C256.105,3.1866687 256.018334,3.56833155 255.845,3.925 C255.671666,4.28166845 255.378335,4.6799978 254.965,5.12 L253.235,6.96 L256.365,6.96 Z" id="Q3=22" fill="#FFC107"></path>
            <path d="M86.5,153.5 C87.0522847,153.5 87.5,153.947715 87.5,154.5 C87.5,155.052285 87.0522847,155.5 86.5,155.5 L77.5,155.5 C76.9477153,155.5 76.5,155.052285 76.5,154.5 C76.5,153.947715 76.9477153,153.5 77.5,153.5 L86.5,153.5 Z" id="1-copy-7" fill="#FA4359" transform="translate(82.000000, 154.500000) rotate(-90.000000) translate(-82.000000, -154.500000) "></path>
            <path d="M125.5,153.5 C126.052285,153.5 126.5,153.947715 126.5,154.5 C126.5,155.052285 126.052285,155.5 125.5,155.5 L116.5,155.5 C115.947715,155.5 115.5,155.052285 115.5,154.5 C115.5,153.947715 115.947715,153.5 116.5,153.5 L125.5,153.5 Z" id="1-copy-9" fill="#37C3BE" transform="translate(121.000000, 154.500000) rotate(-90.000000) translate(-121.000000, -154.500000) "></path>
            <path d="M245.5,153.5 C246.052285,153.5 246.5,153.947715 246.5,154.5 C246.5,155.052285 246.052285,155.5 245.5,155.5 L236.5,155.5 C235.947715,155.5 235.5,155.052285 235.5,154.5 C235.5,153.947715 235.947715,153.5 236.5,153.5 L245.5,153.5 Z" id="5-copy-3" fill="#FFC107" transform="translate(241.000000, 154.500000) rotate(-90.000000) translate(-241.000000, -154.500000) "></path>
        </g>
    </g>
</svg>