<?xml version="1.0" encoding="UTF-8"?>
<svg width="1214px" height="866px" viewBox="0 0 1214 866" version="1.1" xmlns="http://www.w3.org/2000/svg" xmlns:xlink="http://www.w3.org/1999/xlink">
    <!-- Generator: Sketch 59.1 (86144) - https://sketch.com -->
    <title>Matrix reference diagram</title>
    <desc>Created with Sketch.</desc>
    <g id="Matrix-reference-diagram" stroke="none" stroke-width="1" fill="none" fill-rule="evenodd">
        <polygon id="1" fill="#4C7EF3" fill-rule="nonzero" points="558.688 411.564563 562.972 411.564563 562.972 414.476562 550.792 414.476562 550.792 411.564563 555.076 411.564563 555.076 398.852562 551.688 400.896563 550.26 398.264563 556.112 394.736562 558.688 394.736562"></polygon>
        <polygon id="1" fill="#4C7EF3" fill-rule="nonzero" points="385.188 439.564563 389.472 439.564563 389.472 442.476562 377.292 442.476562 377.292 439.564563 381.576 439.564563 381.576 426.852562 378.188 428.896563 376.76 426.264563 382.612 422.736562 385.188 422.736562"></polygon>
        <polygon id="1" fill="#4C7EF3" fill-rule="nonzero" points="758.688 411.564563 762.972 411.564563 762.972 414.476562 750.792 414.476562 750.792 411.564563 755.076 411.564563 755.076 398.852562 751.688 400.896563 750.26 398.264563 756.112 394.736562 758.688 394.736562"></polygon>
        <path d="M811.402,411.564563 L811.402,414.476562 L798.13,414.476562 L798.13,411.816562 L804.85,404.592562 C805.634004,403.733892 806.207998,402.945233 806.572,402.226562 C806.936002,401.507892 807.118,400.793899 807.118,400.084563 C807.118,399.188558 806.861336,398.511898 806.348,398.054562 C805.834664,397.597227 805.083338,397.368562 804.094,397.368562 C802.320658,397.368562 800.538009,398.049889 798.746,399.412562 L797.542,396.780562 C798.326004,396.089892 799.329327,395.534565 800.552,395.114562 C801.774673,394.69456 803.001994,394.484562 804.234,394.484562 C806.212677,394.484562 807.780661,394.969891 808.938,395.940562 C810.095339,396.911234 810.674,398.217888 810.674,399.860563 C810.674,400.999235 810.431336,402.067891 809.946,403.066562 C809.460664,404.065234 808.639339,405.180556 807.482,406.412562 L802.638,411.564563 L811.402,411.564563 Z" id="2" fill="#FF9B21" fill-rule="nonzero"></path>
        <path d="M759.052,460.340562 C760.209339,460.639231 761.100664,461.203892 761.726,462.034562 C762.351336,462.865233 762.664,463.896556 762.664,465.128562 C762.664,466.845904 762.034006,468.203891 760.774,469.202562 C759.513994,470.201234 757.801344,470.700562 755.636,470.700562 C754.31066,470.700562 753.036673,470.495231 751.814,470.084563 C750.591327,469.673894 749.578671,469.113899 748.776,468.404562 L749.98,465.772562 C751.697342,467.135236 753.53599,467.816562 755.496,467.816562 C756.746673,467.816562 757.679997,467.569232 758.296,467.074563 C758.912003,466.579893 759.22,465.828568 759.22,464.820562 C759.22,463.831224 758.907336,463.098565 758.282,462.622563 C757.656664,462.14656 756.690673,461.908563 755.384,461.908563 L752.78,461.908563 L752.78,459.052563 L754.908,459.052563 C757.465346,459.052563 758.744,458.091239 758.744,456.168563 C758.744,455.272558 758.468669,454.581898 757.918,454.096563 C757.367331,453.611227 756.588005,453.368562 755.58,453.368562 C754.702662,453.368562 753.811338,453.541227 752.906,453.886563 C752.000662,454.231898 751.118671,454.740559 750.26,455.412562 L749.056,452.780562 C749.840004,452.071226 750.843327,451.511231 752.066,451.100563 C753.288673,450.689894 754.53466,450.484562 755.804,450.484562 C757.745343,450.484562 759.294661,450.955891 760.452,451.898563 C761.609339,452.841234 762.188,454.115221 762.188,455.720563 C762.169333,456.821901 761.884669,457.778558 761.334,458.590562 C760.783331,459.402567 760.022672,459.985894 759.052,460.340562 Z" id="3" fill="#4FE0B0" fill-rule="nonzero"></path>
        <path d="M809.372,450.736562 L809.372,463.812563 L812.144,463.812563 L812.144,466.612563 L809.372,466.612563 L809.372,470.476562 L805.844,470.476562 L805.844,466.612563 L797.276,466.612563 L797.276,463.952562 L806.46,450.736562 L809.372,450.736562 Z M805.844,456.280562 L800.636,463.812563 L805.844,463.812563 L805.844,456.280562 Z" id="4" fill="#FD4D3F" fill-rule="nonzero"></path>
        <polygon id="Path-2-Copy-2" fill="#FFFFFF" fill-rule="nonzero" points="722 496.476562 722 370 745.949219 370 745.949219 368 720 368 720 498.476562 745.949219 498.476562 745.949219 496.476562"></polygon>
        <polygon id="Path-2-Copy-3" fill="#FFFFFF" fill-rule="nonzero" transform="translate(827.974609, 433.238281) rotate(-180.000000) translate(-827.974609, -433.238281) " points="817 496.476562 817 370 840.949219 370 840.949219 368 815 368 815 498.476562 840.949219 498.476562 840.949219 496.476562"></polygon>
        <path d="M562.902,467.564563 L562.902,470.476562 L549.63,470.476562 L549.63,467.816562 L556.35,460.592562 C557.134004,459.733892 557.707998,458.945233 558.072,458.226562 C558.436002,457.507892 558.618,456.793899 558.618,456.084563 C558.618,455.188558 558.361336,454.511898 557.848,454.054562 C557.334664,453.597227 556.583338,453.368562 555.594,453.368562 C553.820658,453.368562 552.038009,454.049889 550.246,455.412562 L549.042,452.780562 C549.826004,452.089892 550.829327,451.534565 552.052,451.114562 C553.274673,450.69456 554.501994,450.484562 555.734,450.484562 C557.712677,450.484562 559.280661,450.969891 560.438,451.940562 C561.595339,452.911234 562.174,454.217888 562.174,455.860563 C562.174,456.999235 561.931336,458.067891 561.446,459.066562 C560.960664,460.065234 560.139339,461.180556 558.982,462.412562 L554.138,467.564563 L562.902,467.564563 Z" id="2" fill="#FF9B21" fill-rule="nonzero"></path>
        <polygon id="Path-2" fill="#FFFFFF" fill-rule="nonzero" points="522 496.476562 522 370 545.949219 370 545.949219 368 520 368 520 498.476562 545.949219 498.476562 545.949219 496.476562"></polygon>
        <polygon id="Path-2-Copy" fill="#FFFFFF" fill-rule="nonzero" transform="translate(577.974609, 433.238281) rotate(-180.000000) translate(-577.974609, -433.238281) " points="567 496.476562 567 370 590.949219 370 590.949219 368 565 368 565 498.476562 590.949219 498.476562 590.949219 496.476562"></polygon>
        <path d="M353.334,321.224 C350.253985,321.224 347.790009,320.393342 345.942,318.732 L346.838,316.968 C347.808672,317.789337 348.802662,318.377332 349.82,318.732 C350.837338,319.086668 352.017993,319.264 353.362,319.264 C354.948675,319.264 356.171329,318.956003 357.03,318.34 C357.888671,317.723997 358.318,316.856006 358.318,315.736 C358.318,315.082663 358.112669,314.550669 357.702,314.14 C357.291331,313.729331 356.750003,313.402668 356.078,313.16 C355.480664,312.944295 354.698975,312.721219 353.732915,312.490766 L353.362,312.404 C351.831326,312.049332 350.576005,311.676002 349.596,311.284 C348.615995,310.891998 347.82267,310.332004 347.216,309.604 C346.60933,308.875996 346.306,307.924006 346.306,306.748 C346.306,305.627994 346.599997,304.634004 347.188,303.766 C347.776003,302.897996 348.615995,302.226002 349.708,301.75 C350.800005,301.273998 352.064659,301.036 353.502,301.036 C354.864673,301.036 356.138661,301.250665 357.324,301.68 C358.509339,302.109335 359.512663,302.725329 360.334,303.528 L359.466,305.292 C358.532662,304.489329 357.585338,303.906002 356.624,303.542 C355.662662,303.177998 354.622006,302.996 353.502,302.996 C351.971326,302.996 350.772004,303.317997 349.904,303.962 C349.035996,304.606003 348.602,305.506661 348.602,306.664 C348.602,307.653338 348.984663,308.399997 349.75,308.904 C350.456465,309.369233 351.496929,309.770839 352.871419,310.108828 L353.222,310.192 C354.920675,310.602669 356.255328,310.980665 357.226,311.326 C358.196672,311.671335 359.003997,312.18933 359.648,312.88 C360.292003,313.57067 360.614,314.494661 360.614,315.652 C360.614,316.772006 360.320003,317.751996 359.732,318.592 C359.143997,319.432004 358.299339,320.080664 357.198,320.538 C356.096661,320.995336 354.808674,321.224 353.334,321.224 Z M369.77,321.196 C368.425993,321.196 367.259338,320.90667 366.27,320.328 C365.280662,319.74933 364.520003,318.932672 363.988,317.878 C363.455997,316.823328 363.19,315.586674 363.19,314.168 C363.19,312.749326 363.465331,311.503339 364.016,310.43 C364.566669,309.356661 365.341328,308.521336 366.34,307.924 C367.338672,307.326664 368.509993,307.028 369.854,307.028 C370.768671,307.028 371.664662,307.191332 372.542,307.518 C373.419338,307.844668 374.128664,308.278664 374.67,308.82 L373.914,310.5 C372.625994,309.454661 371.31934,308.932 369.994,308.932 C368.593993,308.932 367.502004,309.389329 366.718,310.304 C365.933996,311.218671 365.542,312.506658 365.542,314.168 C365.542,315.810675 365.933996,317.079996 366.718,317.976 C367.502004,318.872004 368.593993,319.32 369.994,319.32 C371.31934,319.32 372.625994,318.797339 373.914,317.752 L374.67,319.432 C374.09133,319.973336 373.363338,320.402665 372.486,320.72 C371.608662,321.037335 370.703338,321.196 369.77,321.196 Z M382.958,307.028 C384.694009,307.028 385.986662,307.471329 386.836,308.358 C387.685338,309.244671 388.11,310.593324 388.11,312.404 L388.11,321 L385.898,321 L385.898,318.676 C385.543332,319.478671 385.002004,320.099331 384.274,320.538 C383.545996,320.976669 382.706005,321.196 381.754,321.196 C380.876662,321.196 380.069337,321.018668 379.332,320.664 C378.594663,320.309332 378.011335,319.81467 377.582,319.18 C377.152665,318.54533 376.938,317.845337 376.938,317.08 C376.938,316.053328 377.199331,315.255336 377.722,314.686 C378.244669,314.116664 379.103327,313.706001 380.298,313.454 C381.413028,313.218799 382.934554,313.09336 384.86262,313.07768 L385.898,313.076 L385.898,312.152 C385.898,311.013328 385.664669,310.187336 385.198,309.674 C384.731331,309.160664 383.975339,308.904 382.93,308.904 C381.361992,308.904 379.803341,309.389328 378.254,310.36 L377.498,308.708 C378.207337,308.203997 379.061328,307.798002 380.06,307.49 C381.058672,307.181998 382.024662,307.028 382.958,307.028 Z M382.062,319.404 C383.182006,319.404 384.10133,319.026004 384.82,318.27 C385.53867,317.513996 385.898,316.538673 385.898,315.344 L385.898,314.532 L385.394,314.532 C383.751325,314.532 382.500671,314.601999 381.642,314.742 C380.783329,314.882001 380.172002,315.115332 379.808,315.442 C379.443998,315.768668 379.262,316.24933 379.262,316.884 C379.262,317.612004 379.527997,318.213998 380.06,318.69 C380.592003,319.166002 381.259329,319.404 382.062,319.404 Z M392.254,321 L392.254,301.26 L394.522,301.26 L394.522,321 L392.254,321 Z M404.294,307.028 C406.030009,307.028 407.322662,307.471329 408.172,308.358 C409.021338,309.244671 409.446,310.593324 409.446,312.404 L409.446,321 L407.234,321 L407.234,318.676 C406.879332,319.478671 406.338004,320.099331 405.61,320.538 C404.881996,320.976669 404.042005,321.196 403.09,321.196 C402.212662,321.196 401.405337,321.018668 400.668,320.664 C399.930663,320.309332 399.347335,319.81467 398.918,319.18 C398.488665,318.54533 398.274,317.845337 398.274,317.08 C398.274,316.053328 398.535331,315.255336 399.058,314.686 C399.580669,314.116664 400.439327,313.706001 401.634,313.454 C402.749028,313.218799 404.270554,313.09336 406.19862,313.07768 L407.234,313.076 L407.234,312.152 C407.234,311.013328 407.000669,310.187336 406.534,309.674 C406.067331,309.160664 405.311339,308.904 404.266,308.904 C402.697992,308.904 401.139341,309.389328 399.59,310.36 L398.834,308.708 C399.543337,308.203997 400.397328,307.798002 401.396,307.49 C402.394672,307.181998 403.360662,307.028 404.294,307.028 Z M403.398,319.404 C404.518006,319.404 405.43733,319.026004 406.156,318.27 C406.87467,317.513996 407.234,316.538673 407.234,315.344 L407.234,314.532 L406.73,314.532 C405.087325,314.532 403.836671,314.601999 402.978,314.742 C402.119329,314.882001 401.508002,315.115332 401.144,315.442 C400.779998,315.768668 400.598,316.24933 400.598,316.884 C400.598,317.612004 400.863997,318.213998 401.396,318.69 C401.928003,319.166002 402.595329,319.404 403.398,319.404 Z M421.318,308.988 L419.834,309.128 C418.433993,309.258667 417.421336,309.69733 416.796,310.444 C416.170664,311.19067 415.858,312.114661 415.858,313.216 L415.858,321 L413.59,321 L413.59,307.364 L415.802,307.364 L415.802,309.744 C416.567337,308.157325 418.069989,307.270668 420.31,307.084 L421.122,307.028 L421.318,308.988 Z" id="Scalar" fill="#FFFFFF" fill-rule="nonzero"></path>
        <path d="M531.71,301.26 L534.062,301.26 L525.438,321 L523.45,321 L514.826,301.26 L517.234,301.26 L524.458,318.116 L531.71,301.26 Z M547.642,314.532 L537.674,314.532 C537.748667,316.118675 538.177996,317.317996 538.962,318.13 C539.746004,318.942004 540.856659,319.348 542.294,319.348 C543.880675,319.348 545.33666,318.806672 546.662,317.724 L547.418,319.376 C546.820664,319.936003 546.055338,320.379332 545.122,320.706 C544.188662,321.032668 543.236672,321.196 542.266,321.196 C540.137989,321.196 538.462673,320.570673 537.24,319.32 C536.017327,318.069327 535.406,316.342678 535.406,314.14 C535.406,312.739993 535.676664,311.503339 536.218,310.43 C536.759336,309.356661 537.519995,308.521336 538.5,307.924 C539.480005,307.326664 540.595327,307.028 541.846,307.028 C543.656676,307.028 545.075328,307.620661 546.102,308.806 C547.128672,309.991339 547.642,311.61999 547.642,313.692 L547.642,314.532 Z M541.874,308.792 C540.679327,308.792 539.72267,309.16533 539.004,309.912 C538.28533,310.65867 537.860667,311.713327 537.73,313.076 L545.654,313.076 C545.616666,311.69466 545.271337,310.635337 544.618,309.898 C543.964663,309.160663 543.050006,308.792 541.874,308.792 Z M556.742,321.196 C555.397993,321.196 554.231338,320.90667 553.242,320.328 C552.252662,319.74933 551.492003,318.932672 550.96,317.878 C550.427997,316.823328 550.162,315.586674 550.162,314.168 C550.162,312.749326 550.437331,311.503339 550.988,310.43 C551.538669,309.356661 552.313328,308.521336 553.312,307.924 C554.310672,307.326664 555.481993,307.028 556.826,307.028 C557.740671,307.028 558.636662,307.191332 559.514,307.518 C560.391338,307.844668 561.100664,308.278664 561.642,308.82 L560.886,310.5 C559.597994,309.454661 558.29134,308.932 556.966,308.932 C555.565993,308.932 554.474004,309.389329 553.69,310.304 C552.905996,311.218671 552.514,312.506658 552.514,314.168 C552.514,315.810675 552.905996,317.079996 553.69,317.976 C554.474004,318.872004 555.565993,319.32 556.966,319.32 C558.29134,319.32 559.597994,318.797339 560.886,317.752 L561.642,319.432 C561.06333,319.973336 560.335338,320.402665 559.458,320.72 C558.580662,321.037335 557.675338,321.196 556.742,321.196 Z M570.378,319.376 C570.788669,319.376 571.199331,319.348 571.61,319.292 L571.498,321.084 C571.068665,321.158667 570.602003,321.196 570.098,321.196 C568.455325,321.196 567.218671,320.766671 566.388,319.908 C565.557329,319.049329 565.142,317.854674 565.142,316.324 L565.142,309.156 L562.482,309.156 L562.482,307.364 L565.142,307.364 L565.142,303.22 L567.41,303.22 L567.41,307.364 L571.274,307.364 L571.274,309.156 L567.41,309.156 L567.41,316.156 C567.41,318.302677 568.399323,319.376 570.378,319.376 Z M579.562,321.196 C578.273994,321.196 577.140005,320.90667 576.16,320.328 C575.179995,319.74933 574.424003,318.923339 573.892,317.85 C573.359997,316.776661 573.094,315.530674 573.094,314.112 C573.094,312.693326 573.359997,311.447339 573.892,310.374 C574.424003,309.300661 575.179995,308.47467 576.16,307.896 C577.140005,307.31733 578.273994,307.028 579.562,307.028 C580.850006,307.028 581.988662,307.31733 582.978,307.896 C583.967338,308.47467 584.727997,309.300661 585.26,310.374 C585.792003,311.447339 586.058,312.693326 586.058,314.112 C586.058,315.530674 585.792003,316.776661 585.26,317.85 C584.727997,318.923339 583.967338,319.74933 582.978,320.328 C581.988662,320.90667 580.850006,321.196 579.562,321.196 Z M579.562,319.32 C580.906007,319.32 581.93733,318.876671 582.656,317.99 C583.37467,317.103329 583.734,315.810675 583.734,314.112 C583.734,312.450658 583.370004,311.167338 582.642,310.262 C581.913996,309.356662 580.88734,308.904 579.562,308.904 C578.23666,308.904 577.210004,309.356662 576.482,310.262 C575.753996,311.167338 575.39,312.450658 575.39,314.112 C575.39,315.792008 575.74933,317.079996 576.468,317.976 C577.18667,318.872004 578.217993,319.32 579.562,319.32 Z M597.174,308.988 L595.69,309.128 C594.289993,309.258667 593.277336,309.69733 592.652,310.444 C592.026664,311.19067 591.714,312.114661 591.714,313.216 L591.714,321 L589.446,321 L589.446,307.364 L591.658,307.364 L591.658,309.744 C592.423337,308.157325 593.925989,307.270668 596.166,307.084 L596.978,307.028 L597.174,308.988 Z" id="Vector" fill="#FFFFFF" fill-rule="nonzero"></path>
        <path d="M760.812,301.26 L762.688,301.26 L762.688,321 L760.588,321 L760.616,305.712 L754.204,317.864 L752.58,317.864 L746.14,305.824 L746.168,321 L744.04,321 L744.04,301.26 L745.944,301.26 L753.42,315.568 L760.812,301.26 Z M772.796,307.028 C774.532009,307.028 775.824662,307.471329 776.674,308.358 C777.523338,309.244671 777.948,310.593324 777.948,312.404 L777.948,321 L775.736,321 L775.736,318.676 C775.381332,319.478671 774.840004,320.099331 774.112,320.538 C773.383996,320.976669 772.544005,321.196 771.592,321.196 C770.714662,321.196 769.907337,321.018668 769.17,320.664 C768.432663,320.309332 767.849335,319.81467 767.42,319.18 C766.990665,318.54533 766.776,317.845337 766.776,317.08 C766.776,316.053328 767.037331,315.255336 767.56,314.686 C768.082669,314.116664 768.941327,313.706001 770.136,313.454 C771.251028,313.218799 772.772554,313.09336 774.70062,313.07768 L775.736,313.076 L775.736,312.152 C775.736,311.013328 775.502669,310.187336 775.036,309.674 C774.569331,309.160664 773.813339,308.904 772.768,308.904 C771.199992,308.904 769.641341,309.389328 768.092,310.36 L767.336,308.708 C768.045337,308.203997 768.899328,307.798002 769.898,307.49 C770.896672,307.181998 771.862662,307.028 772.796,307.028 Z M771.9,319.404 C773.020006,319.404 773.93933,319.026004 774.658,318.27 C775.37667,317.513996 775.736,316.538673 775.736,315.344 L775.736,314.532 L775.232,314.532 C773.589325,314.532 772.338671,314.601999 771.48,314.742 C770.621329,314.882001 770.010002,315.115332 769.646,315.442 C769.281998,315.768668 769.1,316.24933 769.1,316.884 C769.1,317.612004 769.365997,318.213998 769.898,318.69 C770.430003,319.166002 771.097329,319.404 771.9,319.404 Z M788.084,319.376 C788.494669,319.376 788.905331,319.348 789.316,319.292 L789.204,321.084 C788.774665,321.158667 788.308003,321.196 787.804,321.196 C786.161325,321.196 784.924671,320.766671 784.094,319.908 C783.263329,319.049329 782.848,317.854674 782.848,316.324 L782.848,309.156 L780.188,309.156 L780.188,307.364 L782.848,307.364 L782.848,303.22 L785.116,303.22 L785.116,307.364 L788.98,307.364 L788.98,309.156 L785.116,309.156 L785.116,316.156 C785.116,318.302677 786.105323,319.376 788.084,319.376 Z M799.34,308.988 L797.856,309.128 C796.455993,309.258667 795.443336,309.69733 794.818,310.444 C794.192664,311.19067 793.88,312.114661 793.88,313.216 L793.88,321 L791.612,321 L791.612,307.364 L793.824,307.364 L793.824,309.744 C794.589337,308.157325 796.091989,307.270668 798.332,307.084 L799.144,307.028 L799.34,308.988 Z M801.496,321 L801.496,307.364 L803.764,307.364 L803.764,321 L801.496,321 Z M801.272,301.456 L804.016,301.456 L804.016,304.004 L801.272,304.004 L801.272,301.456 Z M814.488,313.972 L820.144,321 L817.4,321 L813.144,315.68 L808.916,321 L806.144,321 L811.8,313.972 L806.48,307.364 L809.224,307.364 L813.144,312.32 L817.064,307.364 L819.836,307.364 L814.488,313.972 Z" id="Matrix" fill="#FFFFFF" fill-rule="nonzero"></path>
    </g>
</svg>