<?xml version="1.0" encoding="UTF-8"?>
<svg width="1214px" height="866px" viewBox="0 0 1214 866" version="1.1" xmlns="http://www.w3.org/2000/svg" xmlns:xlink="http://www.w3.org/1999/xlink">
    <!-- Generator: Sketch 59.1 (86144) - https://sketch.com -->
    <title>GD Diagram</title>
    <desc>Created with Sketch.</desc>
    <g id="GD-Diagram" stroke="none" stroke-width="1" fill="none" fill-rule="evenodd">
        <g id="Group-6" transform="translate(94.000000, 303.000000)">
            <path d="M103.970002,15.8620003 C101.54999,15.8620003 99.6140094,15.2093402 98.1620021,13.9040003 L98.8660021,12.5180003 C99.6286726,13.1633368 100.409665,13.6253322 101.209002,13.9040003 C102.008339,14.1826684 102.935997,14.3220003 103.992002,14.3220003 C105.238675,14.3220003 106.199332,14.0800027 106.874002,13.5960003 C107.548672,13.1119979 107.886002,12.4300047 107.886002,11.5500003 C107.886002,11.0366643 107.724671,10.6186685 107.402002,10.2960002 C107.079334,9.97333194 106.654005,9.71666783 106.126002,9.52600021 C105.664,9.35916604 105.06164,9.18671953 104.31891,9.0086567 L103.992002,8.93200019 C102.78933,8.65333213 101.803006,8.36000172 101.033002,8.05200017 C100.262998,7.74399863 99.6396712,7.30400302 99.1630021,6.73200015 C98.686333,6.15999727 98.4480021,5.41200474 98.4480021,4.4880001 C98.4480021,3.60799568 98.6789998,2.82700347 99.1410021,2.14500005 C99.6030044,1.46299662 100.262998,0.93500189 101.121002,0.561000012 C101.979006,0.186998134 102.972663,0 104.102002,0 C105.172674,0 106.173664,0.168664984 107.105002,0.506000011 C108.03634,0.843335038 108.824666,1.32733021 109.470002,1.95800004 L108.788002,3.34400007 C108.054665,2.71333024 107.310339,2.25500148 106.555002,1.96900004 C105.799665,1.68299861 104.982007,1.54000003 104.102002,1.54000003 C102.89933,1.54000003 101.957006,1.79299751 101.275002,2.29900005 C100.592999,2.80500259 100.252002,3.5126622 100.252002,4.4220001 C100.252002,5.19933733 100.552666,5.78599815 101.154002,6.18200013 C101.695205,6.53840192 102.485878,6.84727938 103.526041,7.10863987 L103.882002,7.19400016 C105.216676,7.51666844 106.265332,7.81366548 107.028002,8.08500018 C107.790673,8.35633487 108.425,8.76333081 108.931002,9.3060002 C109.437005,9.84866959 109.690002,10.5746623 109.690002,11.4840002 C109.690002,12.3640047 109.459005,13.133997 108.997002,13.7940003 C108.535,14.4540036 107.87134,14.9636652 107.006002,15.3230003 C106.140665,15.6823355 105.128675,15.8620003 103.970002,15.8620003 Z M117.060002,14.4100003 C117.382671,14.4100003 117.705334,14.3880005 118.028003,14.3440003 L117.940003,15.7520003 C117.602667,15.8106673 117.236004,15.8400003 116.840002,15.8400003 C115.549329,15.8400003 114.577672,15.5026704 113.925002,14.8280003 C113.272332,14.1533303 112.946002,13.214673 112.946002,12.0120003 L112.946002,6.38000014 L110.856002,6.38000014 L110.856002,4.97200011 L112.946002,4.97200011 L112.946002,1.71600004 L114.728002,1.71600004 L114.728002,4.97200011 L117.764003,4.97200011 L117.764003,6.38000014 L114.728002,6.38000014 L114.728002,11.8800003 C114.728002,13.5666754 115.505328,14.4100003 117.060002,14.4100003 Z M124.276003,15.8400003 C123.263998,15.8400003 122.373006,15.6126693 121.603003,15.1580003 C120.832999,14.7033314 120.239005,14.0543379 119.821003,13.2110003 C119.403,12.3676627 119.194003,11.3886725 119.194003,10.2740002 C119.194003,9.15932796 119.403,8.18033773 119.821003,7.33700016 C120.239005,6.49366259 120.832999,5.84466907 121.603003,5.39000012 C122.373006,4.93533117 123.263998,4.7080001 124.276003,4.7080001 C125.288008,4.7080001 126.182665,4.93533117 126.960003,5.39000012 C127.73734,5.84466907 128.335001,6.49366259 128.753003,7.33700016 C129.171005,8.18033773 129.380003,9.15932796 129.380003,10.2740002 C129.380003,11.3886725 129.171005,12.3676627 128.753003,13.2110003 C128.335001,14.0543379 127.73734,14.7033314 126.960003,15.1580003 C126.182665,15.6126693 125.288008,15.8400003 124.276003,15.8400003 Z M124.276003,14.3660003 C125.332008,14.3660003 126.142333,14.0176705 126.707003,13.3210003 C127.271672,12.6243301 127.554003,11.6086736 127.554003,10.2740002 C127.554003,8.96866033 127.268006,7.96033706 126.696003,7.24900016 C126.124,6.53766325 125.317341,6.18200013 124.276003,6.18200013 C123.234664,6.18200013 122.428005,6.53766325 121.856003,7.24900016 C121.284,7.96033706 120.998003,8.96866033 120.998003,10.2740002 C120.998003,11.5940069 121.280333,12.6059968 121.845003,13.3100003 C122.409672,14.0140038 123.219997,14.3660003 124.276003,14.3660003 Z M136.574003,15.8400003 C135.517998,15.8400003 134.60134,15.6126693 133.824003,15.1580003 C133.046666,14.7033314 132.449005,14.0616711 132.031003,13.2330003 C131.613001,12.4043295 131.404003,11.4326725 131.404003,10.3180002 C131.404003,9.20332796 131.620334,8.22433773 132.053003,7.38100016 C132.485672,6.53766259 133.094332,5.88133581 133.879003,5.41200012 C134.663673,4.94266443 135.583998,4.7080001 136.640003,4.7080001 C137.358673,4.7080001 138.062666,4.83633215 138.752003,5.09300011 C139.44134,5.34966807 139.998668,5.69066466 140.424003,6.11600013 L139.830003,7.43600016 C138.817998,6.6146627 137.791341,6.20400013 136.750003,6.20400013 C135.649997,6.20400013 134.792006,6.56332988 134.176003,7.28200016 C133.56,8.00067043 133.252003,9.01266034 133.252003,10.3180002 C133.252003,11.6086734 133.56,12.6059968 134.176003,13.3100003 C134.792006,14.0140038 135.649997,14.3660003 136.750003,14.3660003 C137.791341,14.3660003 138.817998,13.9553377 139.830003,13.1340003 L140.424003,14.4540003 C139.969334,14.8793358 139.39734,15.2166657 138.708003,15.4660003 C138.018666,15.7153349 137.30734,15.8400003 136.574003,15.8400003 Z M147.970003,4.7080001 C150.536683,4.7080001 151.820003,6.12331931 151.820003,8.95400019 L151.820003,15.6860003 L150.038003,15.6860003 L150.038003,9.0640002 C150.038003,8.06666185 149.843672,7.3406691 149.455003,6.88600015 C149.066335,6.4313312 148.446674,6.20400013 147.596003,6.20400013 C146.613332,6.20400013 145.828673,6.5046638 145.242003,7.10600015 C144.655333,7.70733651 144.362003,8.52132838 144.362003,9.54800021 L144.362003,15.6860003 L142.580003,15.6860003 L142.580003,0.176000004 L144.362003,0.176000004 L144.362003,6.68800014 C144.714005,6.04266357 145.201667,5.55133514 145.825003,5.21400011 C146.44834,4.87666509 147.163332,4.7080001 147.970003,4.7080001 Z M159.432003,4.7080001 C160.79601,4.7080001 161.811667,5.05632996 162.479003,5.75300012 C163.14634,6.44967029 163.480003,7.50932638 163.480003,8.93200019 L163.480003,15.6860003 L161.742003,15.6860003 L161.742003,13.8600003 C161.463335,14.4906701 161.038006,14.9783319 160.466003,15.3230003 C159.894001,15.6676687 159.234007,15.8400003 158.486003,15.8400003 C157.796667,15.8400003 157.16234,15.7006684 156.583003,15.4220003 C156.003667,15.1433323 155.545338,14.7546695 155.208003,14.2560003 C154.870668,13.7573311 154.702003,13.2073366 154.702003,12.6060003 C154.702003,11.7993296 154.907335,11.1723358 155.318003,10.7250002 C155.728672,10.2776647 156.403332,9.95500121 157.342003,9.75700021 C158.202452,9.5754993 159.370988,9.47718755 160.847641,9.46206269 L161.742003,9.46000021 L161.742003,8.73400019 C161.742003,7.83932903 161.558672,7.19033551 161.192003,6.78700015 C160.825335,6.38366479 160.231341,6.18200013 159.410003,6.18200013 C158.177997,6.18200013 156.953343,6.56332966 155.736003,7.32600016 L155.142003,6.02800013 C155.699339,5.63199814 156.370333,5.31300133 157.155003,5.07100011 C157.939674,4.82899889 158.698666,4.7080001 159.432003,4.7080001 Z M158.728003,14.4320003 C159.608008,14.4320003 160.330334,14.1350033 160.895003,13.5410003 C161.459673,12.9469973 161.742003,12.1806716 161.742003,11.2420002 L161.742003,10.6040002 L161.346003,10.6040002 C160.05533,10.6040002 159.072673,10.6589997 158.398003,10.7690002 C157.723333,10.8790008 157.243005,11.0623323 156.957003,11.3190002 C156.671002,11.5756682 156.528003,11.9533311 156.528003,12.4520003 C156.528003,13.0240031 156.737001,13.4969984 157.155003,13.8710003 C157.573005,14.2450022 158.097334,14.4320003 158.728003,14.4320003 Z M170.366004,15.8400003 C168.561995,15.8400003 167.132009,15.378005 166.076004,14.4540003 L166.670004,13.1340003 C167.242006,13.5886692 167.825001,13.9149993 168.419004,14.1130003 C169.013007,14.3110013 169.684,14.4100003 170.432004,14.4100003 C171.224008,14.4100003 171.829002,14.274335 172.247004,14.0030003 C172.665006,13.7316656 172.874004,13.3393362 172.874004,12.8260003 C172.874004,12.4006648 172.734672,12.0633348 172.456004,11.8140003 C172.177336,11.5646657 171.71534,11.3666676 171.070004,11.2200002 L169.266004,10.8020002 C168.356666,10.5966659 167.660006,10.2446694 167.176004,9.74600021 C166.692001,9.24733104 166.450004,8.63133719 166.450004,7.89800017 C166.450004,6.94466205 166.824,6.17466973 167.572004,5.58800012 C168.320007,5.00133051 169.317331,4.7080001 170.564004,4.7080001 C171.312007,4.7080001 172.023334,4.82899889 172.698004,5.07100011 C173.372674,5.31300133 173.937335,5.66133118 174.392004,6.11600013 L173.798004,7.41400016 C172.815332,6.57799596 171.737343,6.16000013 170.564004,6.16000013 C169.816,6.16000013 169.233006,6.30299871 168.815004,6.58900014 C168.397002,6.87500158 168.188004,7.27466426 168.188004,7.78800017 C168.188004,8.21333564 168.316336,8.55433224 168.573004,8.81100019 C168.829672,9.06766815 169.244001,9.26199954 169.816004,9.3940002 L171.642004,9.83400021 C172.639342,10.0686681 173.380001,10.4243312 173.864004,10.9010002 C174.348006,11.3776693 174.590004,11.9973298 174.590004,12.7600003 C174.590004,13.6986717 174.212341,14.4466642 173.457004,15.0040003 C172.701667,15.5613365 171.671344,15.8400003 170.366004,15.8400003 Z M182.004004,14.4100003 C182.326672,14.4100003 182.649336,14.3880005 182.972004,14.3440003 L182.884004,15.7520003 C182.546669,15.8106673 182.180006,15.8400003 181.784004,15.8400003 C180.493331,15.8400003 179.521674,15.5026704 178.869004,14.8280003 C178.216334,14.1533303 177.890004,13.214673 177.890004,12.0120003 L177.890004,6.38000014 L175.800004,6.38000014 L175.800004,4.97200011 L177.890004,4.97200011 L177.890004,1.71600004 L179.672004,1.71600004 L179.672004,4.97200011 L182.708004,4.97200011 L182.708004,6.38000014 L179.672004,6.38000014 L179.672004,11.8800003 C179.672004,13.5666754 180.449329,14.4100003 182.004004,14.4100003 Z M184.776004,15.6860003 L184.776004,4.97200011 L186.558004,4.97200011 L186.558004,15.6860003 L184.776004,15.6860003 Z M184.600004,0.330000007 L186.756004,0.330000007 L186.756004,2.33200005 L184.600004,2.33200005 L184.600004,0.330000007 Z M194.412004,15.8400003 C193.355999,15.8400003 192.439341,15.6126693 191.662004,15.1580003 C190.884667,14.7033314 190.287006,14.0616711 189.869004,13.2330003 C189.451002,12.4043295 189.242004,11.4326725 189.242004,10.3180002 C189.242004,9.20332796 189.458335,8.22433773 189.891004,7.38100016 C190.323673,6.53766259 190.932334,5.88133581 191.717004,5.41200012 C192.501675,4.94266443 193.421999,4.7080001 194.478004,4.7080001 C195.196674,4.7080001 195.900667,4.83633215 196.590004,5.09300011 C197.279341,5.34966807 197.836669,5.69066466 198.262004,6.11600013 L197.668004,7.43600016 C196.655999,6.6146627 195.629343,6.20400013 194.588004,6.20400013 C193.487999,6.20400013 192.630007,6.56332988 192.014004,7.28200016 C191.398001,8.00067043 191.090004,9.01266034 191.090004,10.3180002 C191.090004,11.6086734 191.398001,12.6059968 192.014004,13.3100003 C192.630007,14.0140038 193.487999,14.3660003 194.588004,14.3660003 C195.629343,14.3660003 196.655999,13.9553377 197.668004,13.1340003 L198.262004,14.4540003 C197.807335,14.8793358 197.235341,15.2166657 196.546004,15.4660003 C195.856667,15.7153349 195.145341,15.8400003 194.412004,15.8400003 Z M218.634005,7.61200016 L218.634005,14.7840003 C218.018002,15.1066686 217.21501,15.3669993 216.225005,15.5650003 C215.235,15.7630013 214.23401,15.8620003 213.222005,15.8620003 C211.681997,15.8620003 210.354677,15.5466702 209.240004,14.9160003 C208.125332,14.2853305 207.271007,13.3760062 206.677004,12.1880003 C206.083001,11 205.786004,9.57734183 205.786004,7.92000017 C205.786004,6.27732526 206.079335,4.86200605 206.666004,3.67400008 C207.252674,2.48599411 208.095999,1.57666985 209.196004,0.946000021 C210.29601,0.315330187 211.593997,0 213.090005,0 C214.175343,0 215.172667,0.164998354 216.082005,0.495000011 C216.991343,0.825001668 217.768668,1.31266347 218.414005,1.95800004 L217.732005,3.34400007 C216.984001,2.6986635 216.247008,2.23666811 215.521005,1.95800004 C214.795001,1.67933198 213.984676,1.54000003 213.090005,1.54000003 C211.344662,1.54000003 210.002676,2.08999455 209.064004,3.19000007 C208.125333,4.29000559 207.656004,5.86665653 207.656004,7.92000017 C207.656004,10.017344 208.132666,11.6123281 209.086004,12.7050003 C210.039343,13.7976724 211.432662,14.3440003 213.266005,14.3440003 C214.600678,14.3440003 215.839999,14.1460023 216.984005,13.7500003 L216.984005,9.0200002 L213.134005,9.0200002 L213.134005,7.61200016 L218.634005,7.61200016 Z M228.094005,6.24800014 L226.928005,6.35800014 C225.827999,6.46066732 225.032341,6.80533055 224.541005,7.39200016 C224.049669,7.97866977 223.804005,8.70466253 223.804005,9.57000021 L223.804005,15.6860003 L222.022005,15.6860003 L222.022005,4.97200011 L223.760005,4.97200011 L223.760005,6.84200015 C224.361341,5.59532722 225.541996,4.89866751 227.302005,4.7520001 L227.940005,4.7080001 L228.094005,6.24800014 Z M234.144005,4.7080001 C235.508012,4.7080001 236.523668,5.05632996 237.191005,5.75300012 C237.858342,6.44967029 238.192005,7.50932638 238.192005,8.93200019 L238.192005,15.6860003 L236.454005,15.6860003 L236.454005,13.8600003 C236.175337,14.4906701 235.750008,14.9783319 235.178005,15.3230003 C234.606002,15.6676687 233.946009,15.8400003 233.198005,15.8400003 C232.508668,15.8400003 231.874341,15.7006684 231.295005,15.4220003 C230.715669,15.1433323 230.25734,14.7546695 229.920005,14.2560003 C229.58267,13.7573311 229.414005,13.2073366 229.414005,12.6060003 C229.414005,11.7993296 229.619336,11.1723358 230.030005,10.7250002 C230.440674,10.2776647 231.115334,9.95500121 232.054005,9.75700021 C232.914454,9.5754993 234.082989,9.47718755 235.559642,9.46206269 L236.454005,9.46000021 L236.454005,8.73400019 C236.454005,7.83932903 236.270674,7.19033551 235.904005,6.78700015 C235.537337,6.38366479 234.943342,6.18200013 234.122005,6.18200013 C232.889999,6.18200013 231.665344,6.56332966 230.448005,7.32600016 L229.854005,6.02800013 C230.411341,5.63199814 231.082334,5.31300133 231.867005,5.07100011 C232.651676,4.82899889 233.410668,4.7080001 234.144005,4.7080001 Z M233.440005,14.4320003 C234.320009,14.4320003 235.042336,14.1350033 235.607005,13.5410003 C236.171675,12.9469973 236.454005,12.1806716 236.454005,11.2420002 L236.454005,10.6040002 L236.058005,10.6040002 C234.767332,10.6040002 233.784675,10.6589997 233.110005,10.7690002 C232.435335,10.8790008 231.955006,11.0623323 231.669005,11.3190002 C231.383004,11.5756682 231.240005,11.9533311 231.240005,12.4520003 C231.240005,13.0240031 231.449003,13.4969984 231.867005,13.8710003 C232.285007,14.2450022 232.809335,14.4320003 233.440005,14.4320003 Z M250.952005,0.176000004 L250.952005,15.6860003 L249.170005,15.6860003 L249.170005,13.7280003 C248.847337,14.4026704 248.374342,14.9233318 247.751005,15.2900003 C247.127669,15.6566688 246.398009,15.8400003 245.562005,15.8400003 C244.623334,15.8400003 243.794676,15.605336 243.076005,15.1360003 C242.357335,14.6666646 241.800007,14.0103379 241.404005,13.1670003 C241.008003,12.3236627 240.810005,11.3446725 240.810005,10.2300002 C240.810005,9.1299947 241.008003,8.16200436 241.404005,7.32600016 C241.800007,6.48999596 242.357335,5.84466907 243.076005,5.39000012 C243.794676,4.93533117 244.623334,4.7080001 245.562005,4.7080001 C246.398009,4.7080001 247.127669,4.89133161 247.751005,5.25800011 C248.374342,5.62466862 248.847337,6.14533009 249.170005,6.82000015 L249.170005,0.176000004 L250.952005,0.176000004 Z M245.914005,14.3660003 C246.955344,14.3660003 247.758336,14.0103372 248.323005,13.2990003 C248.887675,12.5876634 249.170005,11.5793401 249.170005,10.2740002 C249.170005,8.96866033 248.887675,7.96400369 248.323005,7.26000016 C247.758336,6.55599662 246.955344,6.20400013 245.914005,6.20400013 C244.872667,6.20400013 244.062341,6.55599662 243.483005,7.26000016 C242.903669,7.96400369 242.614005,8.95400019 242.614005,10.2300002 C242.614005,11.5353401 242.903669,12.5509966 243.483005,13.2770003 C244.062341,14.0030039 244.872667,14.3660003 245.914005,14.3660003 Z M254.252005,15.6860003 L254.252005,4.97200011 L256.034006,4.97200011 L256.034006,15.6860003 L254.252005,15.6860003 Z M254.076005,0.330000007 L256.232006,0.330000007 L256.232006,2.33200005 L254.076005,2.33200005 L254.076005,0.330000007 Z M268.332006,10.6040002 L260.500006,10.6040002 C260.558673,11.8506732 260.896003,12.7929971 261.512006,13.4310003 C262.128009,14.0690035 263.000667,14.3880003 264.130006,14.3880003 C265.376679,14.3880003 266.520667,13.9626712 267.562006,13.1120003 L268.156006,14.4100003 C267.68667,14.8500025 267.085343,15.1983324 266.352006,15.4550003 C265.618669,15.7116683 264.870676,15.8400003 264.108006,15.8400003 C262.435997,15.8400003 261.119677,15.3486719 260.159006,14.3660003 C259.198334,13.3833287 258.718006,12.0266756 258.718006,10.2960002 C258.718006,9.1959947 258.93067,8.22433773 259.356006,7.38100016 C259.781341,6.53766259 260.379002,5.88133581 261.149006,5.41200012 C261.919009,4.94266443 262.795334,4.7080001 263.778006,4.7080001 C265.200679,4.7080001 266.315335,5.17366212 267.122006,6.10500013 C267.928676,7.03633814 268.332006,8.31599204 268.332006,9.94400022 L268.332006,10.6040002 Z M263.800006,6.09400013 C262.861334,6.09400013 262.109675,6.38733054 261.545006,6.97400015 C260.980336,7.56066976 260.646673,8.38932816 260.544006,9.46000021 L266.770006,9.46000021 C266.740672,8.37466142 266.469342,7.54233639 265.956006,6.96300015 C265.44267,6.38366391 264.72401,6.09400013 263.800006,6.09400013 Z M276.340006,4.7080001 C278.906686,4.7080001 280.190006,6.12331931 280.190006,8.95400019 L280.190006,15.6860003 L278.408006,15.6860003 L278.408006,9.0640002 C278.408006,8.06666185 278.213675,7.3406691 277.825006,6.88600015 C277.436337,6.4313312 276.816677,6.20400013 275.966006,6.20400013 C274.983334,6.20400013 274.198675,6.5046638 273.612006,7.10600015 C273.025336,7.70733651 272.732006,8.52132838 272.732006,9.54800021 L272.732006,15.6860003 L270.950006,15.6860003 L270.950006,4.97200011 L272.710006,4.97200011 L272.710006,6.73200015 C273.062008,6.07199683 273.553336,5.56966851 274.184006,5.22500011 C274.814676,4.88033172 275.533335,4.7080001 276.340006,4.7080001 Z M288.154006,14.4100003 C288.476674,14.4100003 288.799338,14.3880005 289.122006,14.3440003 L289.034006,15.7520003 C288.696671,15.8106673 288.330008,15.8400003 287.934006,15.8400003 C286.643333,15.8400003 285.671676,15.5026704 285.019006,14.8280003 C284.366336,14.1533303 284.040006,13.214673 284.040006,12.0120003 L284.040006,6.38000014 L281.950006,6.38000014 L281.950006,4.97200011 L284.040006,4.97200011 L284.040006,1.71600004 L285.822006,1.71600004 L285.822006,4.97200011 L288.858006,4.97200011 L288.858006,6.38000014 L285.822006,6.38000014 L285.822006,11.8800003 C285.822006,13.5666754 286.599332,14.4100003 288.154006,14.4100003 Z M296.866006,0.176000004 L302.080007,0.176000004 C304.558686,0.176000004 306.476333,0.846993308 307.833007,2.18900005 C309.18968,3.53100679 309.868007,5.44132106 309.868007,7.92000017 C309.868007,10.3986793 309.18968,12.3126602 307.833007,13.6620003 C306.476333,15.0113404 304.558686,15.6860003 302.080007,15.6860003 L296.866006,15.6860003 L296.866006,0.176000004 Z M301.970007,14.1460003 C305.988693,14.1460003 307.998007,12.0706877 307.998007,7.92000017 C307.998007,3.7839794 305.988693,1.71600004 301.970007,1.71600004 L298.670006,1.71600004 L298.670006,14.1460003 L301.970007,14.1460003 Z M321.836007,10.6040002 L314.004007,10.6040002 C314.062674,11.8506732 314.400004,12.7929971 315.016007,13.4310003 C315.63201,14.0690035 316.504668,14.3880003 317.634007,14.3880003 C318.88068,14.3880003 320.024668,13.9626712 321.066007,13.1120003 L321.660007,14.4100003 C321.190671,14.8500025 320.589344,15.1983324 319.856007,15.4550003 C319.12267,15.7116683 318.374677,15.8400003 317.612007,15.8400003 C315.939998,15.8400003 314.623678,15.3486719 313.663007,14.3660003 C312.702335,13.3833287 312.222007,12.0266756 312.222007,10.2960002 C312.222007,9.1959947 312.434671,8.22433773 312.860007,7.38100016 C313.285342,6.53766259 313.883003,5.88133581 314.653007,5.41200012 C315.423011,4.94266443 316.299335,4.7080001 317.282007,4.7080001 C318.704681,4.7080001 319.819336,5.17366212 320.626007,6.10500013 C321.432678,7.03633814 321.836007,8.31599204 321.836007,9.94400022 L321.836007,10.6040002 Z M317.304007,6.09400013 C316.365335,6.09400013 315.613676,6.38733054 315.049007,6.97400015 C314.484337,7.56066976 314.150674,8.38932816 314.048007,9.46000021 L320.274007,9.46000021 C320.244673,8.37466142 319.973343,7.54233639 319.460007,6.96300015 C318.946671,6.38366391 318.228011,6.09400013 317.304007,6.09400013 Z M328.084007,15.8400003 C326.279998,15.8400003 324.850012,15.378005 323.794007,14.4540003 L324.388007,13.1340003 C324.96001,13.5886692 325.543004,13.9149993 326.137007,14.1130003 C326.73101,14.3110013 327.402003,14.4100003 328.150007,14.4100003 C328.942011,14.4100003 329.547005,14.274335 329.965007,14.0030003 C330.383009,13.7316656 330.592007,13.3393362 330.592007,12.8260003 C330.592007,12.4006648 330.452675,12.0633348 330.174007,11.8140003 C329.895339,11.5646657 329.433344,11.3666676 328.788007,11.2200002 L326.984007,10.8020002 C326.074669,10.5966659 325.378009,10.2446694 324.894007,9.74600021 C324.410005,9.24733104 324.168007,8.63133719 324.168007,7.89800017 C324.168007,6.94466205 324.542003,6.17466973 325.290007,5.58800012 C326.038011,5.00133051 327.035334,4.7080001 328.282007,4.7080001 C329.030011,4.7080001 329.741337,4.82899889 330.416007,5.07100011 C331.090677,5.31300133 331.655338,5.66133118 332.110007,6.11600013 L331.516007,7.41400016 C330.533336,6.57799596 329.455346,6.16000013 328.282007,6.16000013 C327.534003,6.16000013 326.951009,6.30299871 326.533007,6.58900014 C326.115005,6.87500158 325.906007,7.27466426 325.906007,7.78800017 C325.906007,8.21333564 326.034339,8.55433224 326.291007,8.81100019 C326.547675,9.06766815 326.962004,9.26199954 327.534007,9.3940002 L329.360007,9.83400021 C330.357345,10.0686681 331.098005,10.4243312 331.582007,10.9010002 C332.06601,11.3776693 332.308007,11.9973298 332.308007,12.7600003 C332.308007,13.6986717 331.930344,14.4466642 331.175007,15.0040003 C330.41967,15.5613365 329.389347,15.8400003 328.084007,15.8400003 Z M339.546007,15.8400003 C338.490002,15.8400003 337.573344,15.6126693 336.796007,15.1580003 C336.01867,14.7033314 335.421009,14.0616711 335.003007,13.2330003 C334.585005,12.4043295 334.376007,11.4326725 334.376007,10.3180002 C334.376007,9.20332796 334.592338,8.22433773 335.025007,7.38100016 C335.457676,6.53766259 336.066337,5.88133581 336.851007,5.41200012 C337.635678,4.94266443 338.556002,4.7080001 339.612007,4.7080001 C340.330678,4.7080001 341.034671,4.83633215 341.724007,5.09300011 C342.413344,5.34966807 342.970672,5.69066466 343.396007,6.11600013 L342.802007,7.43600016 C341.790002,6.6146627 340.763346,6.20400013 339.722007,6.20400013 C338.622002,6.20400013 337.76401,6.56332988 337.148007,7.28200016 C336.532004,8.00067043 336.224007,9.01266034 336.224007,10.3180002 C336.224007,11.6086734 336.532004,12.6059968 337.148007,13.3100003 C337.76401,14.0140038 338.622002,14.3660003 339.722007,14.3660003 C340.763346,14.3660003 341.790002,13.9553377 342.802007,13.1340003 L343.396007,14.4540003 C342.941338,14.8793358 342.369344,15.2166657 341.680007,15.4660003 C340.990671,15.7153349 340.279344,15.8400003 339.546007,15.8400003 Z M354.528008,10.6040002 L346.696007,10.6040002 C346.754674,11.8506732 347.092004,12.7929971 347.708007,13.4310003 C348.324011,14.0690035 349.196669,14.3880003 350.326008,14.3880003 C351.57268,14.3880003 352.716669,13.9626712 353.758008,13.1120003 L354.352008,14.4100003 C353.882672,14.8500025 353.281345,15.1983324 352.548008,15.4550003 C351.814671,15.7116683 351.066678,15.8400003 350.304008,15.8400003 C348.631999,15.8400003 347.315679,15.3486719 346.355007,14.3660003 C345.394336,13.3833287 344.914007,12.0266756 344.914007,10.2960002 C344.914007,9.1959947 345.126672,8.22433773 345.552007,7.38100016 C345.977343,6.53766259 346.575004,5.88133581 347.345007,5.41200012 C348.115011,4.94266443 348.991336,4.7080001 349.974008,4.7080001 C351.396681,4.7080001 352.511337,5.17366212 353.318008,6.10500013 C354.124678,7.03633814 354.528008,8.31599204 354.528008,9.94400022 L354.528008,10.6040002 Z M349.996008,6.09400013 C349.057336,6.09400013 348.305677,6.38733054 347.741007,6.97400015 C347.176338,7.56066976 346.842675,8.38932816 346.740007,9.46000021 L352.966008,9.46000021 C352.936674,8.37466142 352.665344,7.54233639 352.152008,6.96300015 C351.638672,6.38366391 350.920012,6.09400013 349.996008,6.09400013 Z M362.536008,4.7080001 C365.102687,4.7080001 366.386008,6.12331931 366.386008,8.95400019 L366.386008,15.6860003 L364.604008,15.6860003 L364.604008,9.0640002 C364.604008,8.06666185 364.409676,7.3406691 364.021008,6.88600015 C363.632339,6.4313312 363.012679,6.20400013 362.162008,6.20400013 C361.179336,6.20400013 360.394677,6.5046638 359.808008,7.10600015 C359.221338,7.70733651 358.928008,8.52132838 358.928008,9.54800021 L358.928008,15.6860003 L357.146008,15.6860003 L357.146008,4.97200011 L358.906008,4.97200011 L358.906008,6.73200015 C359.25801,6.07199683 359.749338,5.56966851 360.380008,5.22500011 C361.010678,4.88033172 361.729337,4.7080001 362.536008,4.7080001 Z M374.350008,14.4100003 C374.672676,14.4100003 374.99534,14.3880005 375.318008,14.3440003 L375.230008,15.7520003 C374.892673,15.8106673 374.52601,15.8400003 374.130008,15.8400003 C372.839335,15.8400003 371.867678,15.5026704 371.215008,14.8280003 C370.562338,14.1533303 370.236008,13.214673 370.236008,12.0120003 L370.236008,6.38000014 L368.146008,6.38000014 L368.146008,4.97200011 L370.236008,4.97200011 L370.236008,1.71600004 L372.018008,1.71600004 L372.018008,4.97200011 L375.054008,4.97200011 L375.054008,6.38000014 L372.018008,6.38000014 L372.018008,11.8800003 C372.018008,13.5666754 372.795334,14.4100003 374.350008,14.4100003 Z" id="StochasticGradientDescent" fill="#FFFFFF" fill-rule="nonzero"></path>
            <path d="M722.676016,7.61200016 L722.676016,14.7840003 C722.060013,15.1066686 721.257021,15.3669993 720.267016,15.5650003 C719.277011,15.7630013 718.276021,15.8620003 717.264016,15.8620003 C715.724008,15.8620003 714.396688,15.5466702 713.282015,14.9160003 C712.167343,14.2853305 711.313018,13.3760062 710.719015,12.1880003 C710.125012,11 709.828015,9.57734183 709.828015,7.92000017 C709.828015,6.27732526 710.121346,4.86200605 710.708015,3.67400008 C711.294685,2.48599411 712.13801,1.57666985 713.238015,0.946000021 C714.338021,0.315330187 715.636008,0 717.132016,0 C718.217354,0 719.214678,0.164998354 720.124016,0.495000011 C721.033353,0.825001668 721.810679,1.31266347 722.456016,1.95800004 L721.774016,3.34400007 C721.026012,2.6986635 720.289019,2.23666811 719.563016,1.95800004 C718.837012,1.67933198 718.026687,1.54000003 717.132016,1.54000003 C715.386673,1.54000003 714.044687,2.08999455 713.106015,3.19000007 C712.167344,4.29000559 711.698015,5.86665653 711.698015,7.92000017 C711.698015,10.017344 712.174677,11.6123281 713.128015,12.7050003 C714.081354,13.7976724 715.474673,14.3440003 717.308016,14.3440003 C718.642689,14.3440003 719.88201,14.1460023 721.026016,13.7500003 L721.026016,9.0200002 L717.176016,9.0200002 L717.176016,7.61200016 L722.676016,7.61200016 Z M732.136016,6.24800014 L730.970016,6.35800014 C729.87001,6.46066732 729.074352,6.80533055 728.583016,7.39200016 C728.09168,7.97866977 727.846016,8.70466253 727.846016,9.57000021 L727.846016,15.6860003 L726.064016,15.6860003 L726.064016,4.97200011 L727.802016,4.97200011 L727.802016,6.84200015 C728.403352,5.59532722 729.584007,4.89866751 731.344016,4.7520001 L731.982016,4.7080001 L732.136016,6.24800014 Z M738.186016,4.7080001 C739.550023,4.7080001 740.565679,5.05632996 741.233016,5.75300012 C741.900353,6.44967029 742.234016,7.50932638 742.234016,8.93200019 L742.234016,15.6860003 L740.496016,15.6860003 L740.496016,13.8600003 C740.217348,14.4906701 739.792019,14.9783319 739.220016,15.3230003 C738.648013,15.6676687 737.98802,15.8400003 737.240016,15.8400003 C736.550679,15.8400003 735.916352,15.7006684 735.337016,15.4220003 C734.75768,15.1433323 734.299351,14.7546695 733.962016,14.2560003 C733.624681,13.7573311 733.456016,13.2073366 733.456016,12.6060003 C733.456016,11.7993296 733.661347,11.1723358 734.072016,10.7250002 C734.482685,10.2776647 735.157345,9.95500121 736.096016,9.75700021 C736.956465,9.5754993 738.125,9.47718755 739.601653,9.46206269 L740.496016,9.46000021 L740.496016,8.73400019 C740.496016,7.83932903 740.312685,7.19033551 739.946016,6.78700015 C739.579347,6.38366479 738.985353,6.18200013 738.164016,6.18200013 C736.93201,6.18200013 735.707355,6.56332966 734.490016,7.32600016 L733.896016,6.02800013 C734.453352,5.63199814 735.124345,5.31300133 735.909016,5.07100011 C736.693687,4.82899889 737.452679,4.7080001 738.186016,4.7080001 Z M737.482016,14.4320003 C738.36202,14.4320003 739.084346,14.1350033 739.649016,13.5410003 C740.213685,12.9469973 740.496016,12.1806716 740.496016,11.2420002 L740.496016,10.6040002 L740.100016,10.6040002 C738.809343,10.6040002 737.826686,10.6589997 737.152016,10.7690002 C736.477346,10.8790008 735.997017,11.0623323 735.711016,11.3190002 C735.425014,11.5756682 735.282016,11.9533311 735.282016,12.4520003 C735.282016,13.0240031 735.491014,13.4969984 735.909016,13.8710003 C736.327018,14.2450022 736.851346,14.4320003 737.482016,14.4320003 Z M754.994016,0.176000004 L754.994016,15.6860003 L753.212016,15.6860003 L753.212016,13.7280003 C752.889348,14.4026704 752.416353,14.9233318 751.793016,15.2900003 C751.16968,15.6566688 750.44002,15.8400003 749.604016,15.8400003 C748.665345,15.8400003 747.836686,15.605336 747.118016,15.1360003 C746.399346,14.6666646 745.842018,14.0103379 745.446016,13.1670003 C745.050014,12.3236627 744.852016,11.3446725 744.852016,10.2300002 C744.852016,9.1299947 745.050014,8.16200436 745.446016,7.32600016 C745.842018,6.48999596 746.399346,5.84466907 747.118016,5.39000012 C747.836686,4.93533117 748.665345,4.7080001 749.604016,4.7080001 C750.44002,4.7080001 751.16968,4.89133161 751.793016,5.25800011 C752.416353,5.62466862 752.889348,6.14533009 753.212016,6.82000015 L753.212016,0.176000004 L754.994016,0.176000004 Z M749.956016,14.3660003 C750.997355,14.3660003 751.800347,14.0103372 752.365016,13.2990003 C752.929686,12.5876634 753.212016,11.5793401 753.212016,10.2740002 C753.212016,8.96866033 752.929686,7.96400369 752.365016,7.26000016 C751.800347,6.55599662 750.997355,6.20400013 749.956016,6.20400013 C748.914678,6.20400013 748.104352,6.55599662 747.525016,7.26000016 C746.94568,7.96400369 746.656016,8.95400019 746.656016,10.2300002 C746.656016,11.5353401 746.94568,12.5509966 747.525016,13.2770003 C748.104352,14.0030039 748.914678,14.3660003 749.956016,14.3660003 Z M758.294016,15.6860003 L758.294016,4.97200011 L760.076016,4.97200011 L760.076016,15.6860003 L758.294016,15.6860003 Z M758.118016,0.330000007 L760.274016,0.330000007 L760.274016,2.33200005 L758.118016,2.33200005 L758.118016,0.330000007 Z M772.374017,10.6040002 L764.542017,10.6040002 C764.600683,11.8506732 764.938013,12.7929971 765.554017,13.4310003 C766.17002,14.0690035 767.042678,14.3880003 768.172017,14.3880003 C769.41869,14.3880003 770.562678,13.9626712 771.604017,13.1120003 L772.198017,14.4100003 C771.728681,14.8500025 771.127354,15.1983324 770.394017,15.4550003 C769.66068,15.7116683 768.912687,15.8400003 768.150017,15.8400003 C766.478008,15.8400003 765.161688,15.3486719 764.201017,14.3660003 C763.240345,13.3833287 762.760016,12.0266756 762.760016,10.2960002 C762.760016,9.1959947 762.972681,8.22433773 763.398017,7.38100016 C763.823352,6.53766259 764.421013,5.88133581 765.191017,5.41200012 C765.96102,4.94266443 766.837345,4.7080001 767.820017,4.7080001 C769.24269,4.7080001 770.357346,5.17366212 771.164017,6.10500013 C771.970687,7.03633814 772.374017,8.31599204 772.374017,9.94400022 L772.374017,10.6040002 Z M767.842017,6.09400013 C766.903345,6.09400013 766.151686,6.38733054 765.587017,6.97400015 C765.022347,7.56066976 764.688684,8.38932816 764.586017,9.46000021 L770.812017,9.46000021 C770.782683,8.37466142 770.511353,7.54233639 769.998017,6.96300015 C769.484681,6.38366391 768.766021,6.09400013 767.842017,6.09400013 Z M780.382017,4.7080001 C782.948696,4.7080001 784.232017,6.12331931 784.232017,8.95400019 L784.232017,15.6860003 L782.450017,15.6860003 L782.450017,9.0640002 C782.450017,8.06666185 782.255686,7.3406691 781.867017,6.88600015 C781.478348,6.4313312 780.858688,6.20400013 780.008017,6.20400013 C779.025345,6.20400013 778.240686,6.5046638 777.654017,7.10600015 C777.067347,7.70733651 776.774017,8.52132838 776.774017,9.54800021 L776.774017,15.6860003 L774.992017,15.6860003 L774.992017,4.97200011 L776.752017,4.97200011 L776.752017,6.73200015 C777.104019,6.07199683 777.595347,5.56966851 778.226017,5.22500011 C778.856687,4.88033172 779.575346,4.7080001 780.382017,4.7080001 Z M792.196017,14.4100003 C792.518685,14.4100003 792.841349,14.3880005 793.164017,14.3440003 L793.076017,15.7520003 C792.738682,15.8106673 792.372019,15.8400003 791.976017,15.8400003 C790.685344,15.8400003 789.713687,15.5026704 789.061017,14.8280003 C788.408347,14.1533303 788.082017,13.214673 788.082017,12.0120003 L788.082017,6.38000014 L785.992017,6.38000014 L785.992017,4.97200011 L788.082017,4.97200011 L788.082017,1.71600004 L789.864017,1.71600004 L789.864017,4.97200011 L792.900017,4.97200011 L792.900017,6.38000014 L789.864017,6.38000014 L789.864017,11.8800003 C789.864017,13.5666754 790.641343,14.4100003 792.196017,14.4100003 Z M800.908017,0.176000004 L806.122017,0.176000004 C808.600697,0.176000004 810.518344,0.846993308 811.875018,2.18900005 C813.231691,3.53100679 813.910018,5.44132106 813.910018,7.92000017 C813.910018,10.3986793 813.231691,12.3126602 811.875018,13.6620003 C810.518344,15.0113404 808.600697,15.6860003 806.122017,15.6860003 L800.908017,15.6860003 L800.908017,0.176000004 Z M806.012017,14.1460003 C810.030704,14.1460003 812.040018,12.0706877 812.040018,7.92000017 C812.040018,3.7839794 810.030704,1.71600004 806.012017,1.71600004 L802.712017,1.71600004 L802.712017,14.1460003 L806.012017,14.1460003 Z M825.878018,10.6040002 L818.046018,10.6040002 C818.104685,11.8506732 818.442015,12.7929971 819.058018,13.4310003 C819.674021,14.0690035 820.546679,14.3880003 821.676018,14.3880003 C822.922691,14.3880003 824.066679,13.9626712 825.108018,13.1120003 L825.702018,14.4100003 C825.232682,14.8500025 824.631355,15.1983324 823.898018,15.4550003 C823.164681,15.7116683 822.416688,15.8400003 821.654018,15.8400003 C819.982009,15.8400003 818.665689,15.3486719 817.705018,14.3660003 C816.744346,13.3833287 816.264018,12.0266756 816.264018,10.2960002 C816.264018,9.1959947 816.476682,8.22433773 816.902018,7.38100016 C817.327353,6.53766259 817.925014,5.88133581 818.695018,5.41200012 C819.465022,4.94266443 820.341346,4.7080001 821.324018,4.7080001 C822.746692,4.7080001 823.861347,5.17366212 824.668018,6.10500013 C825.474689,7.03633814 825.878018,8.31599204 825.878018,9.94400022 L825.878018,10.6040002 Z M821.346018,6.09400013 C820.407346,6.09400013 819.655687,6.38733054 819.091018,6.97400015 C818.526348,7.56066976 818.192685,8.38932816 818.090018,9.46000021 L824.316018,9.46000021 C824.286684,8.37466142 824.015354,7.54233639 823.502018,6.96300015 C822.988682,6.38366391 822.270022,6.09400013 821.346018,6.09400013 Z M832.126018,15.8400003 C830.322009,15.8400003 828.892023,15.378005 827.836018,14.4540003 L828.430018,13.1340003 C829.002021,13.5886692 829.585015,13.9149993 830.179018,14.1130003 C830.773021,14.3110013 831.444014,14.4100003 832.192018,14.4100003 C832.984022,14.4100003 833.589016,14.274335 834.007018,14.0030003 C834.42502,13.7316656 834.634018,13.3393362 834.634018,12.8260003 C834.634018,12.4006648 834.494686,12.0633348 834.216018,11.8140003 C833.93735,11.5646657 833.475355,11.3666676 832.830018,11.2200002 L831.026018,10.8020002 C830.11668,10.5966659 829.42002,10.2446694 828.936018,9.74600021 C828.452015,9.24733104 828.210018,8.63133719 828.210018,7.89800017 C828.210018,6.94466205 828.584014,6.17466973 829.332018,5.58800012 C830.080022,5.00133051 831.077345,4.7080001 832.324018,4.7080001 C833.072022,4.7080001 833.783348,4.82899889 834.458018,5.07100011 C835.132688,5.31300133 835.697349,5.66133118 836.152018,6.11600013 L835.558018,7.41400016 C834.575346,6.57799596 833.497357,6.16000013 832.324018,6.16000013 C831.576014,6.16000013 830.99302,6.30299871 830.575018,6.58900014 C830.157016,6.87500158 829.948018,7.27466426 829.948018,7.78800017 C829.948018,8.21333564 830.07635,8.55433224 830.333018,8.81100019 C830.589686,9.06766815 831.004015,9.26199954 831.576018,9.3940002 L833.402018,9.83400021 C834.399356,10.0686681 835.140016,10.4243312 835.624018,10.9010002 C836.10802,11.3776693 836.350018,11.9973298 836.350018,12.7600003 C836.350018,13.6986717 835.972355,14.4466642 835.217018,15.0040003 C834.461681,15.5613365 833.431358,15.8400003 832.126018,15.8400003 Z M843.588018,15.8400003 C842.532013,15.8400003 841.615355,15.6126693 840.838018,15.1580003 C840.060681,14.7033314 839.46302,14.0616711 839.045018,13.2330003 C838.627016,12.4043295 838.418018,11.4326725 838.418018,10.3180002 C838.418018,9.20332796 838.634349,8.22433773 839.067018,7.38100016 C839.499687,6.53766259 840.108348,5.88133581 840.893018,5.41200012 C841.677689,4.94266443 842.598013,4.7080001 843.654018,4.7080001 C844.372689,4.7080001 845.076681,4.83633215 845.766018,5.09300011 C846.455355,5.34966807 847.012683,5.69066466 847.438018,6.11600013 L846.844018,7.43600016 C845.832013,6.6146627 844.805357,6.20400013 843.764018,6.20400013 C842.664013,6.20400013 841.806021,6.56332988 841.190018,7.28200016 C840.574015,8.00067043 840.266018,9.01266034 840.266018,10.3180002 C840.266018,11.6086734 840.574015,12.6059968 841.190018,13.3100003 C841.806021,14.0140038 842.664013,14.3660003 843.764018,14.3660003 C844.805357,14.3660003 845.832013,13.9553377 846.844018,13.1340003 L847.438018,14.4540003 C846.983349,14.8793358 846.411355,15.2166657 845.722018,15.4660003 C845.032681,15.7153349 844.321355,15.8400003 843.588018,15.8400003 Z M858.570019,10.6040002 L850.738018,10.6040002 C850.796685,11.8506732 851.134015,12.7929971 851.750018,13.4310003 C852.366022,14.0690035 853.238679,14.3880003 854.368018,14.3880003 C855.614691,14.3880003 856.75868,13.9626712 857.800019,13.1120003 L858.394019,14.4100003 C857.924683,14.8500025 857.323356,15.1983324 856.590019,15.4550003 C855.856682,15.7116683 855.108689,15.8400003 854.346018,15.8400003 C852.67401,15.8400003 851.35769,15.3486719 850.397018,14.3660003 C849.436347,13.3833287 848.956018,12.0266756 848.956018,10.2960002 C848.956018,9.1959947 849.168683,8.22433773 849.594018,7.38100016 C850.019354,6.53766259 850.617015,5.88133581 851.387018,5.41200012 C852.157022,4.94266443 853.033347,4.7080001 854.016018,4.7080001 C855.438692,4.7080001 856.553348,5.17366212 857.360019,6.10500013 C858.166689,7.03633814 858.570019,8.31599204 858.570019,9.94400022 L858.570019,10.6040002 Z M854.038018,6.09400013 C853.099347,6.09400013 852.347688,6.38733054 851.783018,6.97400015 C851.218349,7.56066976 850.884686,8.38932816 850.782018,9.46000021 L857.008019,9.46000021 C856.978685,8.37466142 856.707354,7.54233639 856.194019,6.96300015 C855.680683,6.38366391 854.962023,6.09400013 854.038018,6.09400013 Z M866.578019,4.7080001 C869.144698,4.7080001 870.428019,6.12331931 870.428019,8.95400019 L870.428019,15.6860003 L868.646019,15.6860003 L868.646019,9.0640002 C868.646019,8.06666185 868.451687,7.3406691 868.063019,6.88600015 C867.67435,6.4313312 867.05469,6.20400013 866.204019,6.20400013 C865.221347,6.20400013 864.436688,6.5046638 863.850019,7.10600015 C863.263349,7.70733651 862.970019,8.52132838 862.970019,9.54800021 L862.970019,15.6860003 L861.188019,15.6860003 L861.188019,4.97200011 L862.948019,4.97200011 L862.948019,6.73200015 C863.30002,6.07199683 863.791349,5.56966851 864.422019,5.22500011 C865.052689,4.88033172 865.771348,4.7080001 866.578019,4.7080001 Z M878.392019,14.4100003 C878.714687,14.4100003 879.037351,14.3880005 879.360019,14.3440003 L879.272019,15.7520003 C878.934684,15.8106673 878.568021,15.8400003 878.172019,15.8400003 C876.881346,15.8400003 875.909689,15.5026704 875.257019,14.8280003 C874.604349,14.1533303 874.278019,13.214673 874.278019,12.0120003 L874.278019,6.38000014 L872.188019,6.38000014 L872.188019,4.97200011 L874.278019,4.97200011 L874.278019,1.71600004 L876.060019,1.71600004 L876.060019,4.97200011 L879.096019,4.97200011 L879.096019,6.38000014 L876.060019,6.38000014 L876.060019,11.8800003 C876.060019,13.5666754 876.837345,14.4100003 878.392019,14.4100003 Z" id="GradientDescent" fill="#FFFFFF" fill-rule="nonzero"></path>
            <g id="Group-5" transform="translate(0.000000, 81.886002)">
                <g id="Group-2" fill="#637989" fill-rule="nonzero">
                    <path d="M236.300005,0.349999964 C366.559299,0.349999964 472.25001,39.7979415 472.25001,89.4500019 C472.25001,139.102062 366.559299,178.550004 236.300005,178.550004 C106.040711,178.550004 0.349999964,139.102062 0.349999964,89.4500019 C0.349999964,39.7979415 106.040711,0.349999964 236.300005,0.349999964 Z M236.300005,3.65000004 C107.758659,3.65000004 3.65000004,42.5074574 3.65000004,89.4500019 C3.65000004,136.392546 107.758659,175.250004 236.300005,175.250004 C364.841351,175.250004 468.95001,136.392546 468.95001,89.4500019 C468.95001,42.5074574 364.841351,3.65000004 236.300005,3.65000004 Z" id="Oval"></path>
                    <path d="M268.200006,16.8500003 C374.159169,16.8500003 460.15001,48.9101695 460.15001,89.4500019 C460.15001,129.989834 374.159169,162.050003 268.200006,162.050003 C162.240843,162.050003 76.2500016,129.989834 76.2500016,89.4500019 C76.2500016,48.9101695 162.240843,16.8500003 268.200006,16.8500003 Z M268.200006,20.1500004 C163.959588,20.1500004 79.5500017,51.6206266 79.5500017,89.4500019 C79.5500017,127.279377 163.959588,158.750003 268.200006,158.750003 C372.440423,158.750003 456.85001,127.279377 456.85001,89.4500019 C456.85001,51.6206266 372.440423,20.1500004 268.200006,20.1500004 Z" id="Oval"></path>
                    <path d="M300.100006,33.3500007 C381.759282,33.3500007 448.05001,58.0221138 448.05001,89.4500019 C448.05001,120.87789 381.759282,145.550003 300.100006,145.550003 C218.440731,145.550003 152.150003,120.87789 152.150003,89.4500019 C152.150003,58.0221138 218.440731,33.3500007 300.100006,33.3500007 Z M300.100006,36.6500008 C220.16076,36.6500008 155.450003,60.7340795 155.450003,89.4500019 C155.450003,118.165924 220.16076,142.250003 300.100006,142.250003 C380.039253,142.250003 444.75001,118.165924 444.75001,89.4500019 C444.75001,60.7340795 380.039253,36.6500008 300.100006,36.6500008 Z" id="Oval"></path>
                    <path d="M325.400007,47.650001 C385.796054,47.650001 434.850009,65.9200966 434.850009,89.4500019 C434.850009,112.979907 385.796054,131.250003 325.400007,131.250003 C265.00396,131.250003 215.950005,112.979907 215.950005,89.4500019 C215.950005,65.9200966 265.00396,47.650001 325.400007,47.650001 Z M325.400007,50.9500011 C266.723459,50.9500011 219.250005,68.6314408 219.250005,89.4500011 C219.250005,110.268563 266.723459,127.950001 325.400007,127.950001 C384.076555,127.950001 431.550009,110.268563 431.550009,89.4500011 C431.550009,68.6314408 384.076555,50.9500011 325.400007,50.9500011 Z" id="Oval"></path>
                    <path d="M347.400007,60.8500013 C388.356857,60.8500013 421.650006,73.2088229 421.650006,89.4500019 C421.650006,105.691181 388.356857,118.050003 347.400007,118.050003 C306.443158,118.050003 273.150006,105.691181 273.150006,89.4500019 C273.150006,73.2088229 306.443158,60.8500013 347.400007,60.8500013 Z M347.400007,64.1500013 C308.16511,64.1500013 276.450006,75.9230322 276.450006,89.4500019 C276.450006,102.976972 308.16511,114.750002 347.400007,114.750002 C386.634905,114.750002 418.350009,102.976972 418.350009,89.4500019 C418.350009,75.9230322 386.634905,64.1500013 347.400007,64.1500013 Z" id="Oval"></path>
                    <path d="M360.600008,70.7500015 C386.978723,70.7500015 408.450009,78.6739283 408.450009,89.4500019 C408.450009,100.226075 386.978723,108.150002 360.600008,108.150002 C334.221292,108.150002 312.750007,100.226075 312.750007,89.4500019 C312.750007,78.6739283 334.221292,70.7500015 360.600008,70.7500015 Z M316.050007,89.4500019 C316.050007,97.5068387 335.947611,104.850002 360.600008,104.850002 C385.252404,104.850002 405.150009,97.5068387 405.150009,89.4500019 C405.150009,81.4737335 385.648367,74.1969362 361.338138,74.0521979 L359.861877,74.0521979 C335.551649,74.1969362 316.050007,81.4737335 316.050007,89.4500019 Z" id="Oval"></path>
                    <g id="Group" transform="translate(364.100008, 80.300002)">
                        <polygon id="Line" points="10.2500002 0.899999976 8.05000013 0.899999976 8.05000013 17.4000003 10.2500002 17.4000003"></polygon>
                        <polygon id="Line" points="17.4000003 10.2500002 17.4000003 8.05000013 0.899999976 8.05000013 0.899999976 10.2500002"></polygon>
                    </g>
                </g>
                <polygon id="Path" fill="#FD4D3F" fill-rule="nonzero" points="360.049332 87.8946062 340.809382 94.706367 323.750007 78.4481767 323.750007 117.938142 300.390614 69.188105 268.667528 112.944086 242.653858 43.4912791 225.893739 119.812687 203.526565 67.4307871 195.921984 94.7117938 185.024579 66.9918433 176.09096 102.852844 135.738439 52.1011052 98.1566432 113.660837 49.4780126 60.1395164 20.0163051 88.2563498 22.2946332 90.643654 49.311052 64.8604863 98.6785172 119.139168 136.094379 57.8512408 177.674672 110.147161 185.730898 77.8081597 196.455368 105.08821 204.182037 77.3692159 226.906271 130.587318 243.481309 55.1087229 267.732484 119.855919 299.809399 75.6118981 327.050007 132.461863 327.050007 86.1518268 340.000008 98.4936371 361.150684 91.0053976"></polygon>
                <circle id="Oval" fill="#FD4D3F" cx="20.1500004" cy="90.5500019" r="3.85000008"></circle>
                <circle id="Oval-Copy-7" fill="#FD4D3F" cx="48.750001" cy="61.9500013" r="3.85000008"></circle>
                <circle id="Oval-Copy-8" fill="#FD4D3F" cx="98.2500021" cy="115.850002" r="3.85000008"></circle>
                <circle id="Oval-Copy-9" fill="#FD4D3F" cx="135.650003" cy="54.2500011" r="3.85000008"></circle>
                <circle id="Oval-Copy-10" fill="#FD4D3F" cx="177.450004" cy="108.150002" r="3.85000008"></circle>
                <circle id="Oval-Copy-11" fill="#FD4D3F" cx="185.150004" cy="69.6500015" r="3.85000008"></circle>
                <circle id="Oval-Copy-12" fill="#FD4D3F" cx="196.150004" cy="102.650002" r="3.85000008"></circle>
                <circle id="Oval-Copy-13" fill="#FD4D3F" cx="203.850004" cy="69.6500015" r="3.85000008"></circle>
                <circle id="Oval-Copy-14" fill="#FD4D3F" cx="226.950005" cy="126.850003" r="3.85000008"></circle>
                <circle id="Oval-Copy-15" fill="#FD4D3F" cx="243.450005" cy="46.550001" r="3.85000008"></circle>
                <circle id="Oval-Copy-17" fill="#FD4D3F" cx="300.650006" cy="71.8500015" r="3.85000008"></circle>
                <circle id="Oval-Copy-18" fill="#FD4D3F" cx="324.850007" cy="79.5500017" r="3.85000008"></circle>
                <circle id="Oval-Copy-19" fill="#FD4D3F" cx="340.250007" cy="97.1500021" r="3.85000008"></circle>
                <circle id="Oval-Copy-20" fill="#FD4D3F" cx="358.950008" cy="89.4500019" r="3.85000008"></circle>
                <circle id="Oval-Copy-16" fill="#FD4D3F" cx="267.650006" cy="119.150003" r="3.85000008"></circle>
            </g>
            <g id="Group-4" transform="translate(557.500012, 81.686002)">
                <g id="Group-3" fill="#637989" fill-rule="nonzero">
                    <path d="M236.500005,0.550000012 C366.759299,0.550000012 472.45001,39.9979416 472.45001,89.6500019 C472.45001,139.302062 366.759299,178.750004 236.500005,178.750004 C106.240711,178.750004 0.550000012,139.302062 0.550000012,89.6500019 C0.550000012,39.9979416 106.240711,0.550000012 236.500005,0.550000012 Z M236.500005,3.85000008 C107.95866,3.85000008 3.85000008,42.7074575 3.85000008,89.6500019 C3.85000008,136.592546 107.95866,175.450004 236.500005,175.450004 C365.041351,175.450004 469.15001,136.592546 469.15001,89.6500019 C469.15001,42.7074575 365.041351,3.85000008 236.500005,3.85000008 Z" id="Oval-Copy"></path>
                    <path d="M268.400006,17.0500004 C374.359169,17.0500004 460.35001,49.1101695 460.35001,89.6500019 C460.35001,130.189834 374.359169,162.250004 268.400006,162.250004 C162.440843,162.250004 76.4500017,130.189834 76.4500017,89.6500019 C76.4500017,49.1101695 162.440843,17.0500004 268.400006,17.0500004 Z M268.400006,20.3500004 C164.159588,20.3500004 79.7500017,51.8206267 79.7500017,89.6500019 C79.7500017,127.479377 164.159588,158.950003 268.400006,158.950003 C372.640423,158.950003 457.05001,127.479377 457.05001,89.6500019 C457.05001,51.8206267 372.640423,20.3500004 268.400006,20.3500004 Z" id="Oval-Copy-2"></path>
                    <path d="M300.300007,33.5500007 C381.959282,33.5500007 448.25001,58.2221138 448.25001,89.6500019 C448.25001,121.07789 381.959282,145.750003 300.300007,145.750003 C218.640731,145.750003 152.350003,121.07789 152.350003,89.6500019 C152.350003,58.2221138 218.640731,33.5500007 300.300007,33.5500007 Z M300.300007,36.8500008 C220.36076,36.8500008 155.650003,60.9340795 155.650003,89.6500019 C155.650003,118.365924 220.36076,142.450003 300.300007,142.450003 C380.239253,142.450003 444.95001,118.365924 444.95001,89.6500019 C444.95001,60.9340795 380.239253,36.8500008 300.300007,36.8500008 Z" id="Oval-Copy-3"></path>
                    <path d="M325.600007,47.850001 C385.996054,47.850001 435.050009,66.1200967 435.050009,89.6500019 C435.050009,113.179907 385.996054,131.450003 325.600007,131.450003 C265.20396,131.450003 216.150005,113.179907 216.150005,89.6500019 C216.150005,66.1200967 265.20396,47.850001 325.600007,47.850001 Z M325.600007,51.1500011 C266.923459,51.1500011 219.450005,68.8314408 219.450005,89.6500011 C219.450005,110.468563 266.923459,128.150001 325.600007,128.150001 C384.276555,128.150001 431.750009,110.468563 431.750009,89.6500011 C431.750009,68.8314408 384.276555,51.1500011 325.600007,51.1500011 Z" id="Oval-Copy-4"></path>
                    <path d="M347.600008,61.0500013 C388.556857,61.0500013 421.850006,73.4088229 421.850006,89.6500019 C421.850006,105.891181 388.556857,118.250003 347.600008,118.250003 C306.643158,118.250003 273.350006,105.891181 273.350006,89.6500019 C273.350006,73.4088229 306.643158,61.0500013 347.600008,61.0500013 Z M347.600008,64.3500014 C308.36511,64.3500014 276.650006,76.1230323 276.650006,89.6500019 C276.650006,103.176972 308.36511,114.950002 347.600008,114.950002 C386.834905,114.950002 418.550009,103.176972 418.550009,89.6500019 C418.550009,76.1230323 386.834905,64.3500014 347.600008,64.3500014 Z" id="Oval-Copy-5"></path>
                    <path d="M360.800008,70.9500015 C387.178723,70.9500015 408.650009,78.8739284 408.650009,89.6500019 C408.650009,100.426076 387.178723,108.350002 360.800008,108.350002 C334.421292,108.350002 312.950007,100.426076 312.950007,89.6500019 C312.950007,78.8739284 334.421292,70.9500015 360.800008,70.9500015 Z M316.250007,89.6500019 C316.250007,97.7068387 336.147611,105.050002 360.800008,105.050002 C385.452404,105.050002 405.350009,97.7068387 405.350009,89.6500019 C405.350009,81.6737335 385.848367,74.3969362 361.538138,74.2521979 L360.061878,74.2521979 C335.751649,74.3969362 316.250007,81.6737335 316.250007,89.6500019 Z" id="Oval-Copy-6"></path>
                    <g id="Group-Copy" transform="translate(365.200008, 81.400002)">
                        <polygon id="Line" points="9.3500002 0 7.15000015 0 7.15000015 16.5000004 9.3500002 16.5000004"></polygon>
                        <polygon id="Line" points="16.5000004 9.3500002 16.5000004 7.15000015 0 7.15000015 0 9.3500002"></polygon>
                    </g>
                </g>
                <circle id="Oval-Copy-21" fill="#FD4D3F" cx="354.750008" cy="89.6500019" r="3.85000008"></circle>
                <circle id="Oval-Copy-23" fill="#FD4D3F" cx="239.800005" cy="89.6500019" r="3.85000008"></circle>
                <circle id="Oval-Copy-22" fill="#FD4D3F" cx="296.450006" cy="89.6500019" r="3.85000008"></circle>
                <circle id="Oval-Copy-24" fill="#FD4D3F" cx="181.500004" cy="89.6500019" r="3.85000008"></circle>
                <circle id="Oval-Copy-25" fill="#FD4D3F" cx="124.300003" cy="89.6500019" r="3.85000008"></circle>
                <polygon id="Line-2" fill="#FD4D3F" fill-rule="nonzero" points="356.400008 91.300002 356.400008 88.0000019 303.600007 88.0000019 303.600007 91.300002"></polygon>
                <polygon id="Line-2-Copy" fill="#FD4D3F" fill-rule="nonzero" points="298.100006 91.300002 298.100006 88.0000019 246.400005 88.0000019 246.400005 91.300002"></polygon>
                <polygon id="Line-2-Copy-2" fill="#FD4D3F" fill-rule="nonzero" points="241.450005 91.300002 241.450005 88.0000019 188.650004 88.0000019 188.650004 91.300002"></polygon>
                <polygon id="Line-2-Copy-3" fill="#FD4D3F" fill-rule="nonzero" points="183.150004 91.300002 183.150004 88.0000019 131.450003 88.0000019 131.450003 91.300002"></polygon>
                <polygon id="Line-2-Copy-4" fill="#FD4D3F" fill-rule="nonzero" points="125.950003 91.300002 125.950003 88.0000019 52.2500011 88.0000019 52.2500011 91.300002"></polygon>
            </g>
        </g>
    </g>
</svg>