<?xml version="1.0" encoding="UTF-8"?>
<svg width="1214px" height="866px" viewBox="0 0 1214 866" version="1.1" xmlns="http://www.w3.org/2000/svg" xmlns:xlink="http://www.w3.org/1999/xlink">
    <!-- Generator: Sketch 59.1 (86144) - https://sketch.com -->
    <title>Tensor applet 1</title>
    <desc>Created with Sketch.</desc>
    <defs>
        <rect id="path-1" x="0" y="0" width="50" height="50" rx="5"></rect>
        <filter x="-4.0%" y="-4.0%" width="108.0%" height="108.0%" filterUnits="objectBoundingBox" id="filter-2">
            <feGaussianBlur stdDeviation="2" in="SourceAlpha" result="shadowBlurInner1"></feGaussianBlur>
            <feOffset dx="0" dy="0" in="shadowBlurInner1" result="shadowOffsetInner1"></feOffset>
            <feComposite in="shadowOffsetInner1" in2="SourceAlpha" operator="arithmetic" k2="-1" k3="1" result="shadowInnerInner1"></feComposite>
            <feColorMatrix values="0 0 0 0 0   0 0 0 0 0   0 0 0 0 0  0 0 0 0.5 0" type="matrix" in="shadowInnerInner1"></feColorMatrix>
        </filter>
        <rect id="path-3" x="0" y="0" width="50" height="50" rx="5"></rect>
        <filter x="-4.0%" y="-4.0%" width="108.0%" height="108.0%" filterUnits="objectBoundingBox" id="filter-4">
            <feGaussianBlur stdDeviation="2" in="SourceAlpha" result="shadowBlurInner1"></feGaussianBlur>
            <feOffset dx="0" dy="0" in="shadowBlurInner1" result="shadowOffsetInner1"></feOffset>
            <feComposite in="shadowOffsetInner1" in2="SourceAlpha" operator="arithmetic" k2="-1" k3="1" result="shadowInnerInner1"></feComposite>
            <feColorMatrix values="0 0 0 0 0   0 0 0 0 0   0 0 0 0 0  0 0 0 0.5 0" type="matrix" in="shadowInnerInner1"></feColorMatrix>
        </filter>
        <rect id="path-5" x="0" y="0" width="50" height="50" rx="5"></rect>
        <filter x="-4.0%" y="-4.0%" width="108.0%" height="108.0%" filterUnits="objectBoundingBox" id="filter-6">
            <feGaussianBlur stdDeviation="2" in="SourceAlpha" result="shadowBlurInner1"></feGaussianBlur>
            <feOffset dx="0" dy="0" in="shadowBlurInner1" result="shadowOffsetInner1"></feOffset>
            <feComposite in="shadowOffsetInner1" in2="SourceAlpha" operator="arithmetic" k2="-1" k3="1" result="shadowInnerInner1"></feComposite>
            <feColorMatrix values="0 0 0 0 0   0 0 0 0 0   0 0 0 0 0  0 0 0 0.5 0" type="matrix" in="shadowInnerInner1"></feColorMatrix>
        </filter>
        <rect id="path-7" x="0" y="0" width="50" height="50" rx="5"></rect>
        <filter x="-4.0%" y="-4.0%" width="108.0%" height="108.0%" filterUnits="objectBoundingBox" id="filter-8">
            <feGaussianBlur stdDeviation="2" in="SourceAlpha" result="shadowBlurInner1"></feGaussianBlur>
            <feOffset dx="0" dy="0" in="shadowBlurInner1" result="shadowOffsetInner1"></feOffset>
            <feComposite in="shadowOffsetInner1" in2="SourceAlpha" operator="arithmetic" k2="-1" k3="1" result="shadowInnerInner1"></feComposite>
            <feColorMatrix values="0 0 0 0 0   0 0 0 0 0   0 0 0 0 0  0 0 0 0.5 0" type="matrix" in="shadowInnerInner1"></feColorMatrix>
        </filter>
        <rect id="path-9" x="0" y="0" width="50" height="50" rx="5"></rect>
        <filter x="-4.0%" y="-4.0%" width="108.0%" height="108.0%" filterUnits="objectBoundingBox" id="filter-10">
            <feGaussianBlur stdDeviation="2" in="SourceAlpha" result="shadowBlurInner1"></feGaussianBlur>
            <feOffset dx="0" dy="0" in="shadowBlurInner1" result="shadowOffsetInner1"></feOffset>
            <feComposite in="shadowOffsetInner1" in2="SourceAlpha" operator="arithmetic" k2="-1" k3="1" result="shadowInnerInner1"></feComposite>
            <feColorMatrix values="0 0 0 0 0   0 0 0 0 0   0 0 0 0 0  0 0 0 0.5 0" type="matrix" in="shadowInnerInner1"></feColorMatrix>
        </filter>
        <rect id="path-11" x="0" y="0" width="50" height="50" rx="5"></rect>
        <filter x="-4.0%" y="-4.0%" width="108.0%" height="108.0%" filterUnits="objectBoundingBox" id="filter-12">
            <feGaussianBlur stdDeviation="2" in="SourceAlpha" result="shadowBlurInner1"></feGaussianBlur>
            <feOffset dx="0" dy="0" in="shadowBlurInner1" result="shadowOffsetInner1"></feOffset>
            <feComposite in="shadowOffsetInner1" in2="SourceAlpha" operator="arithmetic" k2="-1" k3="1" result="shadowInnerInner1"></feComposite>
            <feColorMatrix values="0 0 0 0 0   0 0 0 0 0   0 0 0 0 0  0 0 0 0.5 0" type="matrix" in="shadowInnerInner1"></feColorMatrix>
        </filter>
        <rect id="path-13" x="0" y="0" width="50" height="50" rx="5"></rect>
        <filter x="-4.0%" y="-4.0%" width="108.0%" height="108.0%" filterUnits="objectBoundingBox" id="filter-14">
            <feGaussianBlur stdDeviation="2" in="SourceAlpha" result="shadowBlurInner1"></feGaussianBlur>
            <feOffset dx="0" dy="0" in="shadowBlurInner1" result="shadowOffsetInner1"></feOffset>
            <feComposite in="shadowOffsetInner1" in2="SourceAlpha" operator="arithmetic" k2="-1" k3="1" result="shadowInnerInner1"></feComposite>
            <feColorMatrix values="0 0 0 0 0   0 0 0 0 0   0 0 0 0 0  0 0 0 0.5 0" type="matrix" in="shadowInnerInner1"></feColorMatrix>
        </filter>
        <rect id="path-15" x="0" y="0" width="50" height="50" rx="5"></rect>
        <filter x="-4.0%" y="-4.0%" width="108.0%" height="108.0%" filterUnits="objectBoundingBox" id="filter-16">
            <feGaussianBlur stdDeviation="2" in="SourceAlpha" result="shadowBlurInner1"></feGaussianBlur>
            <feOffset dx="0" dy="0" in="shadowBlurInner1" result="shadowOffsetInner1"></feOffset>
            <feComposite in="shadowOffsetInner1" in2="SourceAlpha" operator="arithmetic" k2="-1" k3="1" result="shadowInnerInner1"></feComposite>
            <feColorMatrix values="0 0 0 0 0   0 0 0 0 0   0 0 0 0 0  0 0 0 0.5 0" type="matrix" in="shadowInnerInner1"></feColorMatrix>
        </filter>
        <rect id="path-17" x="0" y="0" width="50" height="50" rx="5"></rect>
        <filter x="-4.0%" y="-4.0%" width="108.0%" height="108.0%" filterUnits="objectBoundingBox" id="filter-18">
            <feGaussianBlur stdDeviation="2" in="SourceAlpha" result="shadowBlurInner1"></feGaussianBlur>
            <feOffset dx="0" dy="0" in="shadowBlurInner1" result="shadowOffsetInner1"></feOffset>
            <feComposite in="shadowOffsetInner1" in2="SourceAlpha" operator="arithmetic" k2="-1" k3="1" result="shadowInnerInner1"></feComposite>
            <feColorMatrix values="0 0 0 0 0   0 0 0 0 0   0 0 0 0 0  0 0 0 0.5 0" type="matrix" in="shadowInnerInner1"></feColorMatrix>
        </filter>
        <rect id="path-19" x="0" y="0" width="50" height="50" rx="5"></rect>
        <filter x="-4.0%" y="-4.0%" width="108.0%" height="108.0%" filterUnits="objectBoundingBox" id="filter-20">
            <feGaussianBlur stdDeviation="2" in="SourceAlpha" result="shadowBlurInner1"></feGaussianBlur>
            <feOffset dx="0" dy="0" in="shadowBlurInner1" result="shadowOffsetInner1"></feOffset>
            <feComposite in="shadowOffsetInner1" in2="SourceAlpha" operator="arithmetic" k2="-1" k3="1" result="shadowInnerInner1"></feComposite>
            <feColorMatrix values="0 0 0 0 0   0 0 0 0 0   0 0 0 0 0  0 0 0 0.5 0" type="matrix" in="shadowInnerInner1"></feColorMatrix>
        </filter>
    </defs>
    <g id="Tensor-applet-1" stroke="none" stroke-width="1" fill="none" fill-rule="evenodd">
        <g id="Group-11" transform="translate(703.000000, 162.000000)">
            <path d="M0.052,39.04 L0.052,14.26 L5.568,14.26 L5.568,16.052 L2.292,16.052 L2.292,37.248 L5.568,37.248 L5.568,39.04 L0.052,39.04 Z M8.844,39.04 L8.844,14.26 L14.36,14.26 L14.36,16.052 L11.084,16.052 L11.084,37.248 L14.36,37.248 L14.36,39.04 L8.844,39.04 Z M17.636,39.04 L17.636,14.26 L23.152,14.26 L23.152,16.052 L19.876,16.052 L19.876,37.248 L23.152,37.248 L23.152,39.04 L17.636,39.04 Z M39.84,21.596 C41.0346726,21.596 42.098662,21.8573307 43.032,22.38 C43.965338,22.9026693 44.6933307,23.6399952 45.216,24.592 C45.7386693,25.5440048 46,26.6359938 46,27.868 C46,29.0813394 45.729336,30.1733285 45.188,31.144 C44.646664,32.1146715 43.8906715,32.870664 42.92,33.412 C41.9493285,33.953336 40.8573394,34.224 39.644,34.224 C37.2546547,34.224 35.4113398,33.3933416 34.114,31.732 C32.8166602,30.0706584 32.168,27.7000154 32.168,24.62 C32.168,22.3986556 32.4713303,20.4946746 33.078,18.908 C33.6846697,17.3213254 34.5573276,16.1126708 35.696,15.282 C36.8346724,14.4513292 38.1973254,14.036 39.784,14.036 C40.9226724,14.036 42.0333279,14.2459979 43.116,14.666 C44.1986721,15.0860021 45.1506626,15.6879961 45.972,16.472 L45.104,18.236 C44.170662,17.4519961 43.2793376,16.8780018 42.43,16.514 C41.5806624,16.1499982 40.7173377,15.968 39.84,15.968 C38.1413248,15.968 36.8206714,16.7193258 35.878,18.222 C34.9353286,19.7246742 34.464,21.8479863 34.464,24.592 L34.464,25.012 C34.8933355,23.9666614 35.5839952,23.1360031 36.536,22.52 C37.4880048,21.9039969 38.5893271,21.596 39.84,21.596 Z M39.532,32.292 C40.8013397,32.292 41.8186628,31.8906707 42.584,31.088 C43.3493372,30.2853293 43.732,29.22134 43.732,27.896 C43.732,26.5893268 43.3446705,25.5346707 42.57,24.732 C41.7953295,23.9293293 40.7733397,23.528 39.504,23.528 C38.2159936,23.528 37.1660041,23.9339959 36.354,24.746 C35.5419959,25.5580041 35.136,26.6079936 35.136,27.896 C35.136,29.2026732 35.5419959,30.2619959 36.354,31.074 C37.1660041,31.8860041 38.2253268,32.292 39.532,32.292 Z M51.992,31.144 L51.992,33.16 C51.992,33.9440039 51.8660013,34.6579968 51.614,35.302 C51.3619987,35.9460032 50.9280031,36.5759969 50.312,37.192 L49.248,36.38 C49.9760036,35.5773293 50.3866662,34.7840039 50.48,34 L49.136,34 L49.136,31.144 L51.992,31.144 Z M71.284,32.068 L75.624,32.068 L75.624,34 L64.648,34 L64.648,32.068 L68.988,32.068 L68.988,17.116 L65.516,19.3 L64.452,17.536 L69.632,14.26 L71.284,14.26 L71.284,32.068 Z M82.428,31.144 L82.428,33.16 C82.428,33.9440039 82.3020013,34.6579968 82.05,35.302 C81.7979987,35.9460032 81.3640031,36.5759969 80.748,37.192 L79.684,36.38 C80.4120036,35.5773293 80.8226662,34.7840039 80.916,34 L79.572,34 L79.572,31.144 L82.428,31.144 Z M93.46,27.476 L93.46,25.6 L101.3,25.6 L101.3,27.476 L93.46,27.476 Z M118.436,32.068 L118.436,34 L105.724,34 L105.724,32.264 L112.64,24.648 C113.573338,23.6026614 114.249998,22.6646708 114.67,21.834 C115.090002,21.0033292 115.3,20.1680042 115.3,19.328 C115.3,18.2453279 114.98267,17.4146696 114.348,16.836 C113.71333,16.2573304 112.817339,15.968 111.66,15.968 C109.75599,15.968 107.889342,16.7239924 106.06,18.236 L105.192,16.472 C105.976004,15.7253296 106.960661,15.1326689 108.146,14.694 C109.331339,14.2553311 110.521327,14.036 111.716,14.036 C113.526676,14.036 114.959328,14.502662 116.014,15.436 C117.068672,16.369338 117.596,17.6293254 117.596,19.216 C117.596,20.3546724 117.339336,21.4466614 116.826,22.492 C116.312664,23.5373386 115.468006,24.7039936 114.292,25.992 L108.692,32.068 L118.436,32.068 Z M124.764,31.144 L124.764,33.16 C124.764,33.9440039 124.638001,34.6579968 124.386,35.302 C124.133999,35.9460032 123.700003,36.5759969 123.084,37.192 L122.02,36.38 C122.748004,35.5773293 123.158666,34.7840039 123.252,34 L121.908,34 L121.908,31.144 L124.764,31.144 Z" id="[[[6,1,-2," fill="#FFFFFF" fill-rule="nonzero"></path>
            <path d="M3.052,250.04 L3.052,225.26 L8.568,225.26 L8.568,227.052 L5.292,227.052 L5.292,248.248 L8.568,248.248 L8.568,250.04 L3.052,250.04 Z M11.844,250.04 L11.844,225.26 L17.36,225.26 L17.36,227.052 L14.084,227.052 L14.084,248.248 L17.36,248.248 L17.36,250.04 L11.844,250.04 Z M26.824,238.476 L26.824,236.6 L34.664,236.6 L34.664,238.476 L26.824,238.476 Z M47.824,234.864 C48.9813391,235.200002 49.8679969,235.773996 50.484,236.586 C51.1000031,237.398004 51.408,238.419994 51.408,239.652 C51.408,241.369342 50.8246725,242.722662 49.658,243.712 C48.4913275,244.701338 46.9093433,245.196 44.912,245.196 C43.6426603,245.196 42.4200059,244.981335 41.244,244.552 C40.0679941,244.122665 39.0786707,243.525337 38.276,242.76 L39.144,240.996 C40.936009,242.508008 42.8399899,243.264 44.856,243.264 C46.256007,243.264 47.3199964,242.951336 48.048,242.326 C48.776,241.700664 49.14,240.781339 49.14,239.568 C49.14,237.159988 47.6280151,235.956 44.604,235.956 L42.336,235.956 L42.336,234.024 L44.156,234.024 C45.6120073,234.024 46.7319961,233.702003 47.516,233.058 C48.3000039,232.413997 48.692,231.485339 48.692,230.272 C48.692,229.207995 48.3746698,228.391336 47.74,227.822 C47.1053302,227.252664 46.2000059,226.968 45.024,226.968 C43.1199905,226.968 41.2533425,227.723992 39.424,229.236 L38.556,227.472 C39.3586707,226.706663 40.3386609,226.109335 41.496,225.68 C42.6533391,225.250665 43.8573271,225.036 45.108,225.036 C46.900009,225.036 48.3233281,225.488662 49.378,226.394 C50.4326719,227.299338 50.96,228.517326 50.96,230.048 C50.96,231.186672 50.6846694,232.180662 50.134,233.03 C49.5833306,233.879338 48.8133383,234.490665 47.824,234.864 Z M58.128,242.144 L58.128,244.16 C58.128,244.944004 58.0020013,245.657997 57.75,246.302 C57.4979987,246.946003 57.0640031,247.575997 56.448,248.192 L55.384,247.38 C56.1120036,246.577329 56.5226662,245.784004 56.616,245 L55.272,245 L55.272,242.144 L58.128,242.144 Z M69.02,225.26 L82.068,225.26 L82.068,226.968 L72.828,245 L70.336,245 L79.548,227.192 L69.02,227.192 L69.02,225.26 Z M88.564,242.144 L88.564,244.16 C88.564,244.944004 88.4380013,245.657997 88.186,246.302 C87.9339987,246.946003 87.5000031,247.575997 86.884,248.192 L85.82,247.38 C86.5480036,246.577329 86.9586662,245.784004 87.052,245 L85.708,245 L85.708,242.144 L88.564,242.144 Z M99.596,238.476 L99.596,236.6 L107.436,236.6 L107.436,238.476 L99.596,238.476 Z M124.572,243.068 L124.572,245 L111.86,245 L111.86,243.264 L118.776,235.648 C119.709338,234.602661 120.385998,233.664671 120.806,232.834 C121.226002,232.003329 121.436,231.168004 121.436,230.328 C121.436,229.245328 121.11867,228.41467 120.484,227.836 C119.84933,227.25733 118.953339,226.968 117.796,226.968 C115.89199,226.968 114.025342,227.723992 112.196,229.236 L111.328,227.472 C112.112004,226.72533 113.096661,226.132669 114.282,225.694 C115.467339,225.255331 116.657327,225.036 117.852,225.036 C119.662676,225.036 121.095328,225.502662 122.15,226.436 C123.204672,227.369338 123.732,228.629325 123.732,230.216 C123.732,231.354672 123.475336,232.446661 122.962,233.492 C122.448664,234.537339 121.604006,235.703994 120.428,236.992 L114.828,243.068 L124.572,243.068 Z M130.9,242.144 L130.9,244.16 C130.9,244.944004 130.774001,245.657997 130.522,246.302 C130.269999,246.946003 129.836003,247.575997 129.22,248.192 L128.156,247.38 C128.884004,246.577329 129.294666,245.784004 129.388,245 L128.044,245 L128.044,242.144 L130.9,242.144 Z M141.932,238.476 L141.932,236.6 L149.772,236.6 L149.772,238.476 L141.932,238.476 Z M162.092,243.068 L166.432,243.068 L166.432,245 L155.456,245 L155.456,243.068 L159.796,243.068 L159.796,228.116 L156.324,230.3 L155.26,228.536 L160.44,225.26 L162.092,225.26 L162.092,243.068 Z M173.236,242.144 L173.236,244.16 C173.236,244.944004 173.110001,245.657997 172.858,246.302 C172.605999,246.946003 172.172003,247.575997 171.556,248.192 L170.492,247.38 C171.220004,246.577329 171.630666,245.784004 171.724,245 L170.38,245 L170.38,242.144 L173.236,242.144 Z" id="[[-3,7,-2,-1," fill="#FFFFFF" fill-rule="nonzero"></path>
            <path d="M261.74,250.04 L256.224,250.04 L256.224,248.248 L259.5,248.248 L259.5,227.052 L256.224,227.052 L256.224,225.26 L261.74,225.26 L261.74,250.04 Z M269.412,242.144 L269.412,244.16 C269.412,244.944004 269.286001,245.657997 269.034,246.302 C268.781999,246.946003 268.348003,247.575997 267.732,248.192 L266.668,247.38 C267.396004,246.577329 267.806666,245.784004 267.9,245 L266.556,245 L266.556,242.144 L269.412,242.144 Z" id="]," fill="#FFFFFF" fill-rule="nonzero"></path>
            <path d="M3.052,460.04 L3.052,435.26 L8.568,435.26 L8.568,437.052 L5.292,437.052 L5.292,458.248 L8.568,458.248 L8.568,460.04 L3.052,460.04 Z M11.844,460.04 L11.844,435.26 L17.36,435.26 L17.36,437.052 L14.084,437.052 L14.084,458.248 L17.36,458.248 L17.36,460.04 L11.844,460.04 Z M26.824,448.476 L26.824,446.6 L34.664,446.6 L34.664,448.476 L26.824,448.476 Z M38.584,435.26 L51.632,435.26 L51.632,436.968 L42.392,455 L39.9,455 L49.112,437.192 L38.584,437.192 L38.584,435.26 Z M58.128,452.144 L58.128,454.16 C58.128,454.944004 58.0020013,455.657997 57.75,456.302 C57.4979987,456.946003 57.0640031,457.575997 56.448,458.192 L55.384,457.38 C56.1120036,456.577329 56.5226662,455.784004 56.616,455 L55.272,455 L55.272,452.144 L58.128,452.144 Z" id="[[-7," fill="#FFFFFF" fill-rule="nonzero"></path>
            <path d="M142.62,452.144 L142.62,454.16 C142.62,454.944004 142.494001,455.657997 142.242,456.302 C141.989999,456.946003 141.556003,457.575997 140.94,458.192 L139.876,457.38 C140.604004,456.577329 141.014666,455.784004 141.108,455 L139.764,455 L139.764,452.144 L142.62,452.144 Z M160.876,442.596 C162.070673,442.596 163.134662,442.857331 164.068,443.38 C165.001338,443.902669 165.729331,444.639995 166.252,445.592 C166.774669,446.544005 167.036,447.635994 167.036,448.868 C167.036,450.081339 166.765336,451.173328 166.224,452.144 C165.682664,453.114672 164.926672,453.870664 163.956,454.412 C162.985328,454.953336 161.893339,455.224 160.68,455.224 C158.290655,455.224 156.44734,454.393342 155.15,452.732 C153.85266,451.070658 153.204,448.700015 153.204,445.62 C153.204,443.398656 153.50733,441.494675 154.114,439.908 C154.72067,438.321325 155.593328,437.112671 156.732,436.282 C157.870672,435.451329 159.233325,435.036 160.82,435.036 C161.958672,435.036 163.069328,435.245998 164.152,435.666 C165.234672,436.086002 166.186663,436.687996 167.008,437.472 L166.14,439.236 C165.206662,438.451996 164.315338,437.878002 163.466,437.514 C162.616662,437.149998 161.753338,436.968 160.876,436.968 C159.177325,436.968 157.856671,437.719326 156.914,439.222 C155.971329,440.724674 155.5,442.847986 155.5,445.592 L155.5,446.012 C155.929335,444.966661 156.619995,444.136003 157.572,443.52 C158.524005,442.903997 159.625327,442.596 160.876,442.596 Z M160.568,453.292 C161.83734,453.292 162.854663,452.890671 163.62,452.088 C164.385337,451.285329 164.768,450.22134 164.768,448.896 C164.768,447.589327 164.380671,446.534671 163.606,445.732 C162.831329,444.929329 161.80934,444.528 160.54,444.528 C159.251994,444.528 158.202004,444.933996 157.39,445.746 C156.577996,446.558004 156.172,447.607994 156.172,448.896 C156.172,450.202673 156.577996,451.261996 157.39,452.074 C158.202004,452.886004 159.261327,453.292 160.568,453.292 Z M173.028,452.144 L173.028,454.16 C173.028,454.944004 172.902001,455.657997 172.65,456.302 C172.397999,456.946003 171.964003,457.575997 171.348,458.192 L170.284,457.38 C171.012004,456.577329 171.422666,455.784004 171.516,455 L170.172,455 L170.172,452.144 L173.028,452.144 Z M191.284,442.596 C192.478673,442.596 193.542662,442.857331 194.476,443.38 C195.409338,443.902669 196.137331,444.639995 196.66,445.592 C197.182669,446.544005 197.444,447.635994 197.444,448.868 C197.444,450.081339 197.173336,451.173328 196.632,452.144 C196.090664,453.114672 195.334672,453.870664 194.364,454.412 C193.393328,454.953336 192.301339,455.224 191.088,455.224 C188.698655,455.224 186.85534,454.393342 185.558,452.732 C184.26066,451.070658 183.612,448.700015 183.612,445.62 C183.612,443.398656 183.91533,441.494675 184.522,439.908 C185.12867,438.321325 186.001328,437.112671 187.14,436.282 C188.278672,435.451329 189.641325,435.036 191.228,435.036 C192.366672,435.036 193.477328,435.245998 194.56,435.666 C195.642672,436.086002 196.594663,436.687996 197.416,437.472 L196.548,439.236 C195.614662,438.451996 194.723338,437.878002 193.874,437.514 C193.024662,437.149998 192.161338,436.968 191.284,436.968 C189.585325,436.968 188.264671,437.719326 187.322,439.222 C186.379329,440.724674 185.908,442.847986 185.908,445.592 L185.908,446.012 C186.337335,444.966661 187.027995,444.136003 187.98,443.52 C188.932005,442.903997 190.033327,442.596 191.284,442.596 Z M190.976,453.292 C192.24534,453.292 193.262663,452.890671 194.028,452.088 C194.793337,451.285329 195.176,450.22134 195.176,448.896 C195.176,447.589327 194.788671,446.534671 194.014,445.732 C193.239329,444.929329 192.21734,444.528 190.948,444.528 C189.659994,444.528 188.610004,444.933996 187.798,445.746 C186.985996,446.558004 186.58,447.607994 186.58,448.896 C186.58,450.202673 186.985996,451.261996 187.798,452.074 C188.610004,452.886004 189.669327,453.292 190.976,453.292 Z M203.436,452.144 L203.436,454.16 C203.436,454.944004 203.310001,455.657997 203.058,456.302 C202.805999,456.946003 202.372003,457.575997 201.756,458.192 L200.692,457.38 C201.420004,456.577329 201.830666,455.784004 201.924,455 L200.58,455 L200.58,452.144 L203.436,452.144 Z" id=",6,6," fill="#FFFFFF" fill-rule="nonzero"></path>
            <path d="M289.74,460.04 L284.224,460.04 L284.224,458.248 L287.5,458.248 L287.5,437.052 L284.224,437.052 L284.224,435.26 L289.74,435.26 L289.74,460.04 Z M297.412,452.144 L297.412,454.16 C297.412,454.944004 297.286001,455.657997 297.034,456.302 C296.781999,456.946003 296.348003,457.575997 295.732,458.192 L294.668,457.38 C295.396004,456.577329 295.806666,455.784004 295.9,455 L294.556,455 L294.556,452.144 L297.412,452.144 Z" id="]," fill="#FFFFFF" fill-rule="nonzero"></path>
            <path d="M89.62,101.144 L89.62,103.16 C89.62,103.944004 89.4940013,104.657997 89.242,105.302 C88.9899987,105.946003 88.5560031,106.575997 87.94,107.192 L86.876,106.38 C87.6040036,105.577329 88.0146662,104.784004 88.108,104 L86.764,104 L86.764,101.144 L89.62,101.144 Z M107.876,91.596 C109.070673,91.596 110.134662,91.8573307 111.068,92.38 C112.001338,92.9026693 112.729331,93.6399952 113.252,94.592 C113.774669,95.5440048 114.036,96.6359938 114.036,97.868 C114.036,99.0813394 113.765336,100.173328 113.224,101.144 C112.682664,102.114672 111.926672,102.870664 110.956,103.412 C109.985328,103.953336 108.893339,104.224 107.68,104.224 C105.290655,104.224 103.44734,103.393342 102.15,101.732 C100.85266,100.070658 100.204,97.7000154 100.204,94.62 C100.204,92.3986556 100.50733,90.4946746 101.114,88.908 C101.72067,87.3213254 102.593328,86.1126708 103.732,85.282 C104.870672,84.4513292 106.233325,84.036 107.82,84.036 C108.958672,84.036 110.069328,84.2459979 111.152,84.666 C112.234672,85.0860021 113.186663,85.6879961 114.008,86.472 L113.14,88.236 C112.206662,87.4519961 111.315338,86.8780018 110.466,86.514 C109.616662,86.1499982 108.753338,85.968 107.876,85.968 C106.177325,85.968 104.856671,86.7193258 103.914,88.222 C102.971329,89.7246742 102.5,91.8479863 102.5,94.592 L102.5,95.012 C102.929335,93.9666614 103.619995,93.1360031 104.572,92.52 C105.524005,91.9039969 106.625327,91.596 107.876,91.596 Z M107.568,102.292 C108.83734,102.292 109.854663,101.890671 110.62,101.088 C111.385337,100.285329 111.768,99.22134 111.768,97.896 C111.768,96.5893268 111.380671,95.5346707 110.606,94.732 C109.831329,93.9293293 108.80934,93.528 107.54,93.528 C106.251994,93.528 105.202004,93.9339959 104.39,94.746 C103.577996,95.5580041 103.172,96.6079936 103.172,97.896 C103.172,99.2026732 103.577996,100.261996 104.39,101.074 C105.202004,101.886004 106.261327,102.292 107.568,102.292 Z M120.028,101.144 L120.028,103.16 C120.028,103.944004 119.902001,104.657997 119.65,105.302 C119.397999,105.946003 118.964003,106.575997 118.348,107.192 L117.284,106.38 C118.012004,105.577329 118.422666,104.784004 118.516,104 L117.172,104 L117.172,101.144 L120.028,101.144 Z M130.92,84.26 L143.968,84.26 L143.968,85.968 L134.728,104 L132.236,104 L141.448,86.192 L130.92,86.192 L130.92,84.26 Z M150.464,101.144 L150.464,103.16 C150.464,103.944004 150.338001,104.657997 150.086,105.302 C149.833999,105.946003 149.400003,106.575997 148.784,107.192 L147.72,106.38 C148.448004,105.577329 148.858666,104.784004 148.952,104 L147.608,104 L147.608,101.144 L150.464,101.144 Z M161.496,97.476 L161.496,95.6 L169.336,95.6 L169.336,97.476 L161.496,97.476 Z M187.172,97.812 L187.172,99.716 L184.204,99.716 L184.204,104 L181.936,104 L181.936,99.716 L172.808,99.716 L172.808,97.98 L182.328,84.26 L184.204,84.26 L184.204,97.812 L187.172,97.812 Z M175.188,97.812 L181.936,97.812 L181.936,88.096 L175.188,97.812 Z M192.8,101.144 L192.8,103.16 C192.8,103.944004 192.674001,104.657997 192.422,105.302 C192.169999,105.946003 191.736003,106.575997 191.12,107.192 L190.056,106.38 C190.784004,105.577329 191.194666,104.784004 191.288,104 L189.944,104 L189.944,101.144 L192.8,101.144 Z" id=",6,7,-4," fill="#FFFFFF" fill-rule="nonzero"></path>
            <polygon id="[" fill="#FFFFFF" fill-rule="nonzero" points="0.052 109.04 0.052 84.26 5.568 84.26 5.568 86.052 2.292 86.052 2.292 107.248 5.568 107.248 5.568 109.04"></polygon>
            <path d="M277.74,109.04 L272.224,109.04 L272.224,107.248 L275.5,107.248 L275.5,86.052 L272.224,86.052 L272.224,84.26 L277.74,84.26 L277.74,109.04 Z M286.532,109.04 L281.016,109.04 L281.016,107.248 L284.292,107.248 L284.292,86.052 L281.016,86.052 L281.016,84.26 L286.532,84.26 L286.532,109.04 Z M294.204,101.144 L294.204,103.16 C294.204,103.944004 294.078001,104.657997 293.826,105.302 C293.573999,105.946003 293.140003,106.575997 292.524,107.192 L291.46,106.38 C292.188004,105.577329 292.598666,104.784004 292.692,104 L291.348,104 L291.348,101.144 L294.204,101.144 Z" id="]]," fill="#FFFFFF" fill-rule="nonzero"></path>
            <path d="M3.052,320.04 L3.052,295.26 L8.568,295.26 L8.568,297.052 L5.292,297.052 L5.292,318.248 L8.568,318.248 L8.568,320.04 L3.052,320.04 Z M26.292,313.068 L30.632,313.068 L30.632,315 L19.656,315 L19.656,313.068 L23.996,313.068 L23.996,298.116 L20.524,300.3 L19.46,298.536 L24.64,295.26 L26.292,295.26 L26.292,313.068 Z M41.216,315.224 C38.957322,315.224 37.2400059,314.365342 36.064,312.648 C34.8879941,310.930658 34.3,308.42935 34.3,305.144 C34.3,301.839983 34.8879941,299.329342 36.064,297.612 C37.2400059,295.894658 38.957322,295.036 41.216,295.036 C43.474678,295.036 45.1919941,295.889991 46.368,297.598 C47.5440059,299.306009 48.132,301.811983 48.132,305.116 C48.132,308.420017 47.5440059,310.930658 46.368,312.648 C45.1919941,314.365342 43.474678,315.224 41.216,315.224 Z M41.216,313.292 C42.7840078,313.292 43.9413296,312.62934 44.688,311.304 C45.4346704,309.97866 45.808,307.916014 45.808,305.116 C45.808,302.297319 45.439337,300.23934 44.702,298.942 C43.964663,297.64466 42.8026746,296.996 41.216,296.996 C39.6479922,296.996 38.4906704,297.649327 37.744,298.956 C36.9973296,300.262673 36.624,302.315986 36.624,305.116 C36.624,307.916014 36.9973296,309.97866 37.744,311.304 C38.4906704,312.62934 39.6479922,313.292 41.216,313.292 Z M54.236,312.144 L54.236,314.16 C54.236,314.944004 54.1100013,315.657997 53.858,316.302 C53.6059987,316.946003 53.1720031,317.575997 52.556,318.192 L51.492,317.38 C52.2200036,316.577329 52.6306662,315.784004 52.724,315 L51.38,315 L51.38,312.144 L54.236,312.144 Z" id="[10," fill="#FFFFFF" fill-rule="nonzero"></path>
            <path d="M3.052,530.04 L3.052,505.26 L8.568,505.26 L8.568,507.052 L5.292,507.052 L5.292,528.248 L8.568,528.248 L8.568,530.04 L3.052,530.04 Z M31.108,523.068 L31.108,525 L18.396,525 L18.396,523.264 L25.312,515.648 C26.245338,514.602661 26.9219979,513.664671 27.342,512.834 C27.7620021,512.003329 27.972,511.168004 27.972,510.328 C27.972,509.245328 27.6546698,508.41467 27.02,507.836 C26.3853302,507.25733 25.4893391,506.968 24.332,506.968 C22.4279905,506.968 20.5613425,507.723992 18.732,509.236 L17.864,507.472 C18.6480039,506.72533 19.6326607,506.132669 20.818,505.694 C22.0033393,505.255331 23.1933274,505.036 24.388,505.036 C26.1986757,505.036 27.6313281,505.502662 28.686,506.436 C29.7406719,507.369338 30.268,508.629325 30.268,510.216 C30.268,511.354672 30.0113359,512.446661 29.498,513.492 C28.9846641,514.537339 28.1400059,515.703994 26.964,516.992 L21.364,523.068 L31.108,523.068 Z M47.908,523.068 L47.908,525 L35.196,525 L35.196,523.264 L42.112,515.648 C43.045338,514.602661 43.7219979,513.664671 44.142,512.834 C44.5620021,512.003329 44.772,511.168004 44.772,510.328 C44.772,509.245328 44.4546698,508.41467 43.82,507.836 C43.1853302,507.25733 42.2893391,506.968 41.132,506.968 C39.2279905,506.968 37.3613425,507.723992 35.532,509.236 L34.664,507.472 C35.4480039,506.72533 36.4326607,506.132669 37.618,505.694 C38.8033393,505.255331 39.9933274,505.036 41.188,505.036 C42.9986757,505.036 44.4313281,505.502662 45.486,506.436 C46.5406719,507.369338 47.068,508.629325 47.068,510.216 C47.068,511.354672 46.8113359,512.446661 46.298,513.492 C45.7846641,514.537339 44.9400059,515.703994 43.764,516.992 L38.164,523.068 L47.908,523.068 Z M54.236,522.144 L54.236,524.16 C54.236,524.944004 54.1100013,525.657997 53.858,526.302 C53.6059987,526.946003 53.1720031,527.575997 52.556,528.192 L51.492,527.38 C52.2200036,526.577329 52.6306662,525.784004 52.724,525 L51.38,525 L51.38,522.144 L54.236,522.144 Z" id="[22," fill="#FFFFFF" fill-rule="nonzero"></path>
            <path d="M135.62,312.144 L135.62,314.16 C135.62,314.944004 135.494001,315.657997 135.242,316.302 C134.989999,316.946003 134.556003,317.575997 133.94,318.192 L132.876,317.38 C133.604004,316.577329 134.014666,315.784004 134.108,315 L132.764,315 L132.764,312.144 L135.62,312.144 Z M146.652,308.476 L146.652,306.6 L154.492,306.6 L154.492,308.476 L146.652,308.476 Z M166.812,313.068 L171.152,313.068 L171.152,315 L160.176,315 L160.176,313.068 L164.516,313.068 L164.516,298.116 L161.044,300.3 L159.98,298.536 L165.16,295.26 L166.812,295.26 L166.812,313.068 Z M183.612,313.068 L187.952,313.068 L187.952,315 L176.976,315 L176.976,313.068 L181.316,313.068 L181.316,298.116 L177.844,300.3 L176.78,298.536 L181.96,295.26 L183.612,295.26 L183.612,313.068 Z M194.756,312.144 L194.756,314.16 C194.756,314.944004 194.630001,315.657997 194.378,316.302 C194.125999,316.946003 193.692003,317.575997 193.076,318.192 L192.012,317.38 C192.740004,316.577329 193.150666,315.784004 193.244,315 L191.9,315 L191.9,312.144 L194.756,312.144 Z" id=",-11," fill="#FFFFFF" fill-rule="nonzero"></path>
            <path d="M136.62,522.144 L136.62,524.16 C136.62,524.944004 136.494001,525.657997 136.242,526.302 C135.989999,526.946003 135.556003,527.575997 134.94,528.192 L133.876,527.38 C134.604004,526.577329 135.014666,525.784004 135.108,525 L133.764,525 L133.764,522.144 L136.62,522.144 Z M147.652,518.476 L147.652,516.6 L155.492,516.6 L155.492,518.476 L147.652,518.476 Z M166.776,512.624 C168.026673,512.624 169.113995,512.885331 170.038,513.408 C170.962005,513.930669 171.675997,514.663329 172.18,515.606 C172.684003,516.548671 172.936,517.635994 172.936,518.868 C172.936,520.118673 172.660669,521.219995 172.11,522.172 C171.559331,523.124005 170.780005,523.865997 169.772,524.398 C168.763995,524.930003 167.588007,525.196 166.244,525.196 C165.049327,525.196 163.868673,524.976669 162.702,524.538 C161.535327,524.099331 160.550671,523.50667 159.748,522.76 L160.616,520.996 C162.445342,522.508008 164.321324,523.264 166.244,523.264 C167.62534,523.264 168.707996,522.872004 169.492,522.088 C170.276004,521.303996 170.668,520.240007 170.668,518.896 C170.668,517.589327 170.280671,516.534671 169.506,515.732 C168.731329,514.929329 167.700006,514.528 166.412,514.528 C164.526657,514.528 163.024006,515.293326 161.904,516.824 L160.308,516.824 L160.308,505.26 L172.152,505.26 L172.152,507.164 L162.576,507.164 L162.576,514.192 C163.098669,513.687997 163.71933,513.300668 164.438,513.03 C165.15667,512.759332 165.935996,512.624 166.776,512.624 Z M178.956,522.144 L178.956,524.16 C178.956,524.944004 178.830001,525.657997 178.578,526.302 C178.325999,526.946003 177.892003,527.575997 177.276,528.192 L176.212,527.38 C176.940004,526.577329 177.350666,525.784004 177.444,525 L176.1,525 L176.1,522.144 L178.956,522.144 Z M203.064,523.068 L203.064,525 L190.352,525 L190.352,523.264 L197.268,515.648 C198.201338,514.602661 198.877998,513.664671 199.298,512.834 C199.718002,512.003329 199.928,511.168004 199.928,510.328 C199.928,509.245328 199.61067,508.41467 198.976,507.836 C198.34133,507.25733 197.445339,506.968 196.288,506.968 C194.38399,506.968 192.517342,507.723992 190.688,509.236 L189.82,507.472 C190.604004,506.72533 191.588661,506.132669 192.774,505.694 C193.959339,505.255331 195.149327,505.036 196.344,505.036 C198.154676,505.036 199.587328,505.502662 200.642,506.436 C201.696672,507.369338 202.224,508.629325 202.224,510.216 C202.224,511.354672 201.967336,512.446661 201.454,513.492 C200.940664,514.537339 200.096006,515.703994 198.92,516.992 L193.32,523.068 L203.064,523.068 Z M209.392,522.144 L209.392,524.16 C209.392,524.944004 209.266001,525.657997 209.014,526.302 C208.761999,526.946003 208.328003,527.575997 207.712,528.192 L206.648,527.38 C207.376004,526.577329 207.786666,525.784004 207.88,525 L206.536,525 L206.536,522.144 L209.392,522.144 Z" id=",-5,2," fill="#FFFFFF" fill-rule="nonzero"></path>
            <path d="M296.74,530.04 L291.224,530.04 L291.224,528.248 L294.5,528.248 L294.5,507.052 L291.224,507.052 L291.224,505.26 L296.74,505.26 L296.74,530.04 Z M305.532,530.04 L300.016,530.04 L300.016,528.248 L303.292,528.248 L303.292,507.052 L300.016,507.052 L300.016,505.26 L305.532,505.26 L305.532,530.04 Z M314.324,530.04 L308.808,530.04 L308.808,528.248 L312.084,528.248 L312.084,507.052 L308.808,507.052 L308.808,505.26 L314.324,505.26 L314.324,530.04 Z" id="]]]" fill="#FFFFFF" fill-rule="nonzero"></path>
            <path d="M279.12,312.144 L279.12,314.16 C279.12,314.944004 278.994001,315.657997 278.742,316.302 C278.489999,316.946003 278.056003,317.575997 277.44,318.192 L276.376,317.38 C277.104004,316.577329 277.514666,315.784004 277.608,315 L276.264,315 L276.264,312.144 L279.12,312.144 Z M299.252,304.864 C300.409339,305.200002 301.295997,305.773996 301.912,306.586 C302.528003,307.398004 302.836,308.419994 302.836,309.652 C302.836,311.369342 302.252673,312.722662 301.086,313.712 C299.919328,314.701338 298.337343,315.196 296.34,315.196 C295.07066,315.196 293.848006,314.981335 292.672,314.552 C291.495994,314.122665 290.506671,313.525337 289.704,312.76 L290.572,310.996 C292.364009,312.508008 294.26799,313.264 296.284,313.264 C297.684007,313.264 298.747996,312.951336 299.476,312.326 C300.204,311.700664 300.568,310.781339 300.568,309.568 C300.568,307.159988 299.056015,305.956 296.032,305.956 L293.764,305.956 L293.764,304.024 L295.584,304.024 C297.040007,304.024 298.159996,303.702003 298.944,303.058 C299.728004,302.413997 300.12,301.485339 300.12,300.272 C300.12,299.207995 299.80267,298.391336 299.168,297.822 C298.53333,297.252664 297.628006,296.968 296.452,296.968 C294.54799,296.968 292.681342,297.723992 290.852,299.236 L289.984,297.472 C290.786671,296.706663 291.766661,296.109335 292.924,295.68 C294.081339,295.250665 295.285327,295.036 296.536,295.036 C298.328009,295.036 299.751328,295.488662 300.806,296.394 C301.860672,297.299338 302.388,298.517326 302.388,300.048 C302.388,301.186672 302.112669,302.180662 301.562,303.03 C301.011331,303.879338 300.241338,304.490665 299.252,304.864 Z M310.676,320.04 L305.16,320.04 L305.16,318.248 L308.436,318.248 L308.436,297.052 L305.16,297.052 L305.16,295.26 L310.676,295.26 L310.676,320.04 Z M319.468,320.04 L313.952,320.04 L313.952,318.248 L317.228,318.248 L317.228,297.052 L313.952,297.052 L313.952,295.26 L319.468,295.26 L319.468,320.04 Z M327.14,312.144 L327.14,314.16 C327.14,314.944004 327.014001,315.657997 326.762,316.302 C326.509999,316.946003 326.076003,317.575997 325.46,318.192 L324.396,317.38 C325.124004,316.577329 325.534666,315.784004 325.628,315 L324.284,315 L324.284,312.144 L327.14,312.144 Z" id=",3]]," fill="#FFFFFF" fill-rule="nonzero"></path>
            <path d="M208.62,31.144 L208.62,33.16 C208.62,33.9440039 208.494001,34.6579968 208.242,35.302 C207.989999,35.9460032 207.556003,36.5759969 206.94,37.192 L205.876,36.38 C206.604004,35.5773293 207.014666,34.7840039 207.108,34 L205.764,34 L205.764,31.144 L208.62,31.144 Z M233.428,27.812 L233.428,29.716 L230.46,29.716 L230.46,34 L228.192,34 L228.192,29.716 L219.064,29.716 L219.064,27.98 L228.584,14.26 L230.46,14.26 L230.46,27.812 L233.428,27.812 Z M221.444,27.812 L228.192,27.812 L228.192,18.096 L221.444,27.812 Z M240.176,39.04 L234.66,39.04 L234.66,37.248 L237.936,37.248 L237.936,16.052 L234.66,16.052 L234.66,14.26 L240.176,14.26 L240.176,39.04 Z M247.848,31.144 L247.848,33.16 C247.848,33.9440039 247.722001,34.6579968 247.47,35.302 C247.217999,35.9460032 246.784003,36.5759969 246.168,37.192 L245.104,36.38 C245.832004,35.5773293 246.242666,34.7840039 246.336,34 L244.992,34 L244.992,31.144 L247.848,31.144 Z" id=",4]," fill="#FFFFFF" fill-rule="nonzero"></path>
            <g id="Group-10" transform="translate(140.000000, 0.000000)">
                <g id="Rectangle">
                    <use fill="#FFFFFF" fill-rule="evenodd" xlink:href="#path-1"></use>
                    <use fill="black" fill-opacity="1" filter="url(#filter-2)" xlink:href="#path-1"></use>
                </g>
            </g>
            <g id="Group-7" transform="translate(191.000000, 211.000000)">
                <g id="Rectangle-Copy-3">
                    <use fill="#FFFFFF" fill-rule="evenodd" xlink:href="#path-3"></use>
                    <use fill="black" fill-opacity="1" filter="url(#filter-4)" xlink:href="#path-3"></use>
                </g>
            </g>
            <g id="Group-3" transform="translate(73.000000, 421.000000)">
                <g id="Rectangle-Copy-6">
                    <use fill="#FFFFFF" fill-rule="evenodd" xlink:href="#path-5"></use>
                    <use fill="black" fill-opacity="1" filter="url(#filter-6)" xlink:href="#path-5"></use>
                </g>
            </g>
            <g id="Group-5" transform="translate(219.000000, 421.000000)">
                <g id="Rectangle-Copy-8">
                    <use fill="#FFFFFF" fill-rule="evenodd" xlink:href="#path-7"></use>
                    <use fill="black" fill-opacity="1" filter="url(#filter-8)" xlink:href="#path-7"></use>
                </g>
            </g>
            <g id="Group-9" transform="translate(208.000000, 70.000000)">
                <g id="Rectangle-Copy">
                    <use fill="#FFFFFF" fill-rule="evenodd" xlink:href="#path-9"></use>
                    <use fill="black" fill-opacity="1" filter="url(#filter-10)" xlink:href="#path-9"></use>
                </g>
            </g>
            <g id="Group-2" transform="translate(68.000000, 281.000000)">
                <g id="Rectangle-Copy-4">
                    <use fill="#FFFFFF" fill-rule="evenodd" xlink:href="#path-11"></use>
                    <use fill="black" fill-opacity="1" filter="url(#filter-12)" xlink:href="#path-11"></use>
                </g>
            </g>
            <g id="Group-4" transform="translate(69.000000, 491.000000)">
                <g id="Rectangle-Copy-7">
                    <use fill="#FFFFFF" fill-rule="evenodd" xlink:href="#path-13"></use>
                    <use fill="black" fill-opacity="1" filter="url(#filter-14)" xlink:href="#path-13"></use>
                </g>
            </g>
            <g id="Group-4-Copy" transform="translate(226.000000, 491.000000)">
                <g id="Rectangle-Copy-7">
                    <use fill="#FFFFFF" fill-rule="evenodd" xlink:href="#path-15"></use>
                    <use fill="black" fill-opacity="1" filter="url(#filter-16)" xlink:href="#path-15"></use>
                </g>
            </g>
            <g id="Group-6" transform="translate(211.000000, 281.000000)">
                <g id="Rectangle-Copy-5">
                    <use fill="#FFFFFF" fill-rule="evenodd" xlink:href="#path-17"></use>
                    <use fill="black" fill-opacity="1" filter="url(#filter-18)" xlink:href="#path-17"></use>
                </g>
            </g>
            <g id="Group" transform="translate(21.000000, 70.000000)">
                <g id="Rectangle-Copy-2">
                    <use fill="#FFFFFF" fill-rule="evenodd" xlink:href="#path-19"></use>
                    <use fill="black" fill-opacity="1" filter="url(#filter-20)" xlink:href="#path-19"></use>
                </g>
            </g>
        </g>
        <rect id="Rectangle-Copy-13" stroke="#FA4359" stroke-width="2" fill="#FA4359" x="210" y="160" width="60" height="60"></rect>
        <rect id="Rectangle-Copy-23" stroke="#4C7EF3" stroke-width="2" fill="#4C7EF3" x="210" y="371" width="60" height="60"></rect>
        <rect id="Rectangle-Copy-33" stroke="#37C3BE" stroke-width="2" fill="#37C3BE" x="210" y="582" width="60" height="60"></rect>
        <rect id="Rectangle-Copy-18" stroke="#FA4359" stroke-width="2" fill="#FA4359" x="210" y="224" width="60" height="60"></rect>
        <rect id="Rectangle-Copy-24" stroke="#4C7EF3" stroke-width="2" fill="#4C7EF3" x="210" y="435" width="60" height="60"></rect>
        <rect id="Rectangle-Copy-34" stroke="#37C3BE" stroke-width="2" fill="#37C3BE" x="210" y="646" width="60" height="60"></rect>
        <rect id="Rectangle-Copy-14" stroke="#FA4359" stroke-width="2" fill="#FA4359" x="274" y="160" width="60" height="60"></rect>
        <rect id="Rectangle-Copy-25" stroke="#4C7EF3" stroke-width="2" fill="#4C7EF3" x="274" y="371" width="60" height="60"></rect>
        <rect id="Rectangle-Copy-35" stroke="#37C3BE" stroke-width="2" fill="#37C3BE" x="274" y="582" width="60" height="60"></rect>
        <rect id="Rectangle-Copy-19" stroke="#FA4359" stroke-width="2" fill="#FA4359" x="274" y="224" width="60" height="60"></rect>
        <rect id="Rectangle-Copy-26" stroke="#4C7EF3" stroke-width="2" fill="#4C7EF3" x="274" y="435" width="60" height="60"></rect>
        <rect id="Rectangle-Copy-36" stroke="#37C3BE" stroke-width="2" fill="#37C3BE" x="274" y="646" width="60" height="60"></rect>
        <rect id="Rectangle-Copy-15" stroke="#FA4359" stroke-width="2" fill="#FA4359" x="338" y="160" width="60" height="60"></rect>
        <rect id="Rectangle-Copy-27" stroke="#4C7EF3" stroke-width="2" fill="#4C7EF3" x="338" y="371" width="60" height="60"></rect>
        <rect id="Rectangle-Copy-37" stroke="#37C3BE" stroke-width="2" fill="#37C3BE" x="338" y="582" width="60" height="60"></rect>
        <rect id="Rectangle-Copy-20" stroke="#FA4359" stroke-width="2" fill="#FA4359" x="338" y="224" width="60" height="60"></rect>
        <rect id="Rectangle-Copy-28" stroke="#4C7EF3" stroke-width="2" fill="#4C7EF3" x="338" y="435" width="60" height="60"></rect>
        <rect id="Rectangle-Copy-38" stroke="#37C3BE" stroke-width="2" fill="#37C3BE" x="338" y="646" width="60" height="60"></rect>
        <path d="M240.64,182.72 C241.480004,182.72 242.299996,182.863332 243.1,183.15 C243.900004,183.436668 244.59333,183.839997 245.18,184.36 L244.32,186.24 C243.079994,185.266662 241.886672,184.78 240.74,184.78 C239.713328,184.78 238.913336,185.216662 238.34,186.09 C237.766664,186.963338 237.466667,188.226658 237.44,189.88 C237.746668,189.279997 238.206664,188.810002 238.82,188.47 C239.433336,188.129998 240.119996,187.96 240.88,187.96 C241.706671,187.96 242.446663,188.149998 243.1,188.53 C243.753337,188.910002 244.263331,189.44333 244.63,190.13 C244.996668,190.81667 245.18,191.599996 245.18,192.48 C245.18,193.386671 244.980002,194.196663 244.58,194.91 C244.179998,195.623337 243.620004,196.179998 242.9,196.58 C242.179996,196.980002 241.366671,197.18 240.46,197.18 C238.673324,197.18 237.296671,196.576673 236.33,195.37 C235.363328,194.163327 234.88,192.440011 234.88,190.2 C234.88,188.653326 235.109998,187.316672 235.57,186.19 C236.030002,185.063328 236.693329,184.203336 237.56,183.61 C238.426671,183.016664 239.453327,182.72 240.64,182.72 Z M240.32,190 C239.586663,190 238.990002,190.236664 238.53,190.71 C238.069998,191.183336 237.84,191.799996 237.84,192.56 C237.84,193.333337 238.069998,193.956664 238.53,194.43 C238.990002,194.903336 239.59333,195.14 240.34,195.14 C241.073337,195.14 241.656665,194.906669 242.09,194.44 C242.523336,193.973331 242.74,193.346671 242.74,192.56 C242.74,191.786663 242.520002,191.166669 242.08,190.7 C241.639998,190.233331 241.053337,190 240.32,190 Z" id="Combined-Shape" fill="#FFFFFF" fill-rule="nonzero"></path>
        <path d="M231.02,403.64 L231.02,401.66 L236.98,401.66 L236.98,403.64 L231.02,403.64 Z M246.52,400.76 C247.346671,400.973334 247.983331,401.376664 248.43,401.97 C248.876669,402.563336 249.1,403.299996 249.1,404.18 C249.1,405.406673 248.650004,406.376663 247.75,407.09 C246.849996,407.803337 245.626674,408.16 244.08,408.16 C243.133329,408.16 242.223338,408.013335 241.35,407.72 C240.476662,407.426665 239.753336,407.026669 239.18,406.52 L240.04,404.64 C241.266673,405.613338 242.579993,406.1 243.98,406.1 C244.873338,406.1 245.539998,405.923335 245.98,405.57 C246.420002,405.216665 246.64,404.680004 246.64,403.96 C246.64,403.25333 246.416669,402.730002 245.97,402.39 C245.523331,402.049998 244.833338,401.88 243.9,401.88 L242.04,401.88 L242.04,399.84 L243.56,399.84 C245.386676,399.84 246.3,399.15334 246.3,397.78 C246.3,397.139997 246.103335,396.646668 245.71,396.3 C245.316665,395.953332 244.760004,395.78 244.04,395.78 C243.41333,395.78 242.77667,395.903332 242.13,396.15 C241.48333,396.396668 240.853336,396.759998 240.24,397.24 L239.38,395.36 C239.940003,394.853331 240.656662,394.453335 241.53,394.16 C242.403338,393.866665 243.293329,393.72 244.2,393.72 C245.586674,393.72 246.693329,394.056663 247.52,394.73 C248.346671,395.403337 248.76,396.313328 248.76,397.46 C248.746667,398.246671 248.543335,398.929997 248.15,399.51 C247.756665,400.090003 247.213337,400.506665 246.52,400.76 Z" id="-3" fill="#FFFFFF" fill-rule="nonzero"></path>
        <path d="M231.02,614.64 L231.02,612.66 L236.98,612.66 L236.98,614.64 L231.02,614.64 Z M239.44,604.9 L249.26,604.9 L249.26,606.82 L242.86,619 L240.12,619 L246.5,606.98 L239.44,606.98 L239.44,604.9 Z" id="-7" fill="#FFFFFF" fill-rule="nonzero"></path>
        <polygon id="10" fill="#FFFFFF" fill-rule="nonzero" points="235.92 469.92 238.98 469.92 238.98 472 230.28 472 230.28 469.92 233.34 469.92 233.34 460.84 230.92 462.3 229.9 460.42 234.08 457.9 235.92 457.9"></polygon>
        <path d="M246,457.76 C247.666675,457.76 248.939996,458.373327 249.82,459.6 C250.700004,460.826673 251.14,462.606655 251.14,464.94 C251.14,467.286678 250.700004,469.079994 249.82,470.32 C248.939996,471.560006 247.666675,472.18 246,472.18 C244.333325,472.18 243.060004,471.56334 242.18,470.33 C241.299996,469.096661 240.86,467.300012 240.86,464.94 C240.86,462.606655 241.299996,460.826673 242.18,459.6 C243.060004,458.373327 244.333325,457.76 246,457.76 Z M246,459.78 C245.093329,459.78 244.433335,460.189996 244.02,461.01 C243.606665,461.830004 243.4,463.139991 243.4,464.94 C243.4,466.753342 243.606665,468.076662 244.02,468.91 C244.433335,469.743337 245.093329,470.16 246,470.16 C246.906671,470.16 247.566665,469.743337 247.98,468.91 C248.393335,468.076662 248.6,466.753342 248.6,464.94 C248.6,463.139991 248.393335,461.830004 247.98,461.01 C247.566665,460.189996 246.906671,459.78 246,459.78 Z" id="Combined-Shape" fill="#FFFFFF" fill-rule="nonzero"></path>
        <path d="M238.92,680.92 L238.92,683 L229.44,683 L229.44,681.1 L234.24,675.94 C234.800003,675.326664 235.209999,674.763336 235.47,674.25 C235.730001,673.736664 235.86,673.226669 235.86,672.72 C235.86,672.079997 235.676669,671.596668 235.31,671.27 C234.943331,670.943332 234.40667,670.78 233.7,670.78 C232.433327,670.78 231.160006,671.266662 229.88,672.24 L229.02,670.36 C229.580003,669.866664 230.296662,669.470001 231.17,669.17 C232.043338,668.869998 232.919996,668.72 233.8,668.72 C235.21334,668.72 236.333329,669.066663 237.16,669.76 C237.986671,670.453337 238.4,671.386661 238.4,672.56 C238.4,673.373337 238.226668,674.136663 237.88,674.85 C237.533332,675.563337 236.946671,676.359996 236.12,677.24 L232.66,680.92 L238.92,680.92 Z M250.94,680.92 L250.94,683 L241.46,683 L241.46,681.1 L246.26,675.94 C246.820003,675.326664 247.229999,674.763336 247.49,674.25 C247.750001,673.736664 247.88,673.226669 247.88,672.72 C247.88,672.079997 247.696668,671.596668 247.33,671.27 C246.963332,670.943332 246.42667,670.78 245.72,670.78 C244.453327,670.78 243.180006,671.266662 241.9,672.24 L241.04,670.36 C241.600003,669.866664 242.316662,669.470001 243.19,669.17 C244.063338,668.869998 244.939996,668.72 245.82,668.72 C247.23334,668.72 248.353329,669.066663 249.18,669.76 C250.006671,670.453337 250.42,671.386661 250.42,672.56 C250.42,673.373337 250.246668,674.136663 249.9,674.85 C249.553332,675.563337 248.966671,676.359996 248.14,677.24 L244.68,680.92 L250.94,680.92 Z" id="22" fill="#FFFFFF" fill-rule="nonzero"></path>
        <polygon id="1" fill="#FFFFFF" fill-rule="nonzero" points="305.92 194.92 308.98 194.92 308.98 197 300.28 197 300.28 194.92 303.34 194.92 303.34 185.84 300.92 187.3 299.9 185.42 304.08 182.9 305.92 182.9"></polygon>
        <polygon id="7" fill="#FFFFFF" fill-rule="nonzero" points="299.1 393.9 308.92 393.9 308.92 395.82 302.52 408 299.78 408 306.16 395.98 299.1 395.98"></polygon>
        <path d="M304.64,246.72 C305.480004,246.72 306.299996,246.863332 307.1,247.15 C307.900004,247.436668 308.59333,247.839997 309.18,248.36 L308.32,250.24 C307.079994,249.266662 305.886672,248.78 304.74,248.78 C303.713328,248.78 302.913336,249.216662 302.34,250.09 C301.766664,250.963338 301.466667,252.226658 301.44,253.88 C301.746668,253.279997 302.206664,252.810002 302.82,252.47 C303.433336,252.129998 304.119996,251.96 304.88,251.96 C305.706671,251.96 306.446663,252.149998 307.1,252.53 C307.753337,252.910002 308.263331,253.44333 308.63,254.13 C308.996668,254.81667 309.18,255.599996 309.18,256.48 C309.18,257.386671 308.980002,258.196663 308.58,258.91 C308.179998,259.623337 307.620004,260.179998 306.9,260.58 C306.179996,260.980002 305.366671,261.18 304.46,261.18 C302.673324,261.18 301.296671,260.576673 300.33,259.37 C299.363328,258.163327 298.88,256.440011 298.88,254.2 C298.88,252.653326 299.109998,251.316672 299.57,250.19 C300.030002,249.063328 300.693329,248.203336 301.56,247.61 C302.426671,247.016664 303.453327,246.72 304.64,246.72 Z M304.32,254 C303.586663,254 302.990002,254.236664 302.53,254.71 C302.069998,255.183336 301.84,255.799996 301.84,256.56 C301.84,257.333337 302.069998,257.956664 302.53,258.43 C302.990002,258.903336 303.59333,259.14 304.34,259.14 C305.073337,259.14 305.656664,258.906669 306.09,258.44 C306.523336,257.973331 306.74,257.346671 306.74,256.56 C306.74,255.786663 306.520002,255.166669 306.08,254.7 C305.639998,254.233331 305.053337,254 304.32,254 Z" id="Combined-Shape" fill="#FFFFFF" fill-rule="nonzero"></path>
        <path d="M359.02,678.64 L359.02,676.66 L364.98,676.66 L364.98,678.64 L359.02,678.64 Z M373.1,673.98 C373.980004,673.98 374.756663,674.169998 375.43,674.55 C376.103337,674.930002 376.623332,675.459997 376.99,676.14 C377.356669,676.820003 377.54,677.599996 377.54,678.48 C377.54,679.413338 377.326669,680.23333 376.9,680.94 C376.473331,681.64667 375.870004,682.193331 375.09,682.58 C374.309996,682.966669 373.393339,683.16 372.34,683.16 C371.459996,683.16 370.590004,683.010002 369.73,682.71 C368.869996,682.409999 368.160003,682.013336 367.6,681.52 L368.46,679.64 C369.740006,680.613338 371.04666,681.1 372.38,681.1 C373.260004,681.1 373.933331,680.880002 374.4,680.44 C374.866669,679.999998 375.1,679.373337 375.1,678.56 C375.1,677.773329 374.863336,677.150002 374.39,676.69 C373.916664,676.229998 373.273337,676 372.46,676 C371.913331,676 371.396669,676.103332 370.91,676.31 C370.423331,676.516668 369.986669,676.813331 369.6,677.2 L368.06,677.2 L368.06,668.9 L376.9,668.9 L376.9,670.9 L370.58,670.9 L370.58,674.7 C371.260003,674.219998 372.1,673.98 373.1,673.98 Z" id="-5" fill="#FFFFFF" fill-rule="nonzero"></path>
        <path d="M368.76,759.98 C369.640004,759.98 370.416663,760.169998 371.09,760.55 C371.763337,760.930002 372.283331,761.459997 372.65,762.14 C373.016668,762.820003 373.2,763.599996 373.2,764.48 C373.2,765.413338 372.986669,766.23333 372.56,766.94 C372.133331,767.64667 371.530004,768.193331 370.75,768.58 C369.969996,768.966669 369.053339,769.16 368,769.16 C367.119996,769.16 366.250004,769.010002 365.39,768.71 C364.529996,768.409999 363.820003,768.013336 363.26,767.52 L364.12,765.64 C365.400006,766.613338 366.70666,767.1 368.04,767.1 C368.920004,767.1 369.593331,766.880002 370.06,766.44 C370.526669,765.999998 370.76,765.373337 370.76,764.56 C370.76,763.773329 370.523336,763.150002 370.05,762.69 C369.576664,762.229998 368.933337,762 368.12,762 C367.573331,762 367.056669,762.103332 366.57,762.31 C366.083331,762.516668 365.646669,762.813331 365.26,763.2 L363.72,763.2 L363.72,754.9 L372.56,754.9 L372.56,756.9 L366.24,756.9 L366.24,760.7 C366.920003,760.219998 367.76,759.98 368.76,759.98 Z" id="5" fill="#FFFFFF" fill-rule="nonzero"></path>
        <path d="M577.93,225.92 L577.93,228 L568.45,228 L568.45,226.1 L573.25,220.94 C573.810003,220.326664 574.219999,219.763336 574.48,219.25 C574.740001,218.736664 574.87,218.226669 574.87,217.72 C574.87,217.079997 574.686668,216.596668 574.32,216.27 C573.953331,215.943332 573.41667,215.78 572.71,215.78 C571.443327,215.78 570.170006,216.266662 568.89,217.24 L568.03,215.36 C568.590003,214.866664 569.306662,214.470002 570.18,214.17 C571.053338,213.869999 571.929996,213.72 572.81,213.72 C574.22334,213.72 575.343329,214.066663 576.17,214.76 C576.996671,215.453337 577.41,216.386661 577.41,217.56 C577.41,218.373337 577.236668,219.136663 576.89,219.85 C576.543332,220.563337 575.956671,221.359996 575.13,222.24 L571.67,225.92 L577.93,225.92 Z" id="2" fill="#FFFFFF" fill-rule="nonzero"></path>
        <path d="M359.01,192.64 L359.01,190.66 L364.97,190.66 L364.97,192.64 L359.01,192.64 Z M377.27,194.92 L377.27,197 L367.79,197 L367.79,195.1 L372.59,189.94 C373.150003,189.326664 373.559999,188.763336 373.82,188.25 C374.080001,187.736664 374.21,187.226669 374.21,186.72 C374.21,186.079997 374.026669,185.596668 373.66,185.27 C373.293332,184.943332 372.75667,184.78 372.05,184.78 C370.783327,184.78 369.510006,185.266662 368.23,186.24 L367.37,184.36 C367.930003,183.866664 368.646662,183.470001 369.52,183.17 C370.393338,182.869999 371.269996,182.72 372.15,182.72 C373.56334,182.72 374.683329,183.066663 375.51,183.76 C376.336671,184.453337 376.75,185.386661 376.75,186.56 C376.75,187.373337 376.576668,188.136663 376.23,188.85 C375.883332,189.563337 375.296671,190.359996 374.47,191.24 L371.01,194.92 L377.27,194.92 Z" id="-2" fill="#FFFFFF" fill-rule="nonzero"></path>
        <path d="M359.01,403.64 L359.01,401.66 L364.97,401.66 L364.97,403.64 L359.01,403.64 Z M377.27,405.92 L377.27,408 L367.79,408 L367.79,406.1 L372.59,400.94 C373.150003,400.326664 373.559999,399.763336 373.82,399.25 C374.080001,398.736664 374.21,398.226669 374.21,397.72 C374.21,397.079997 374.026669,396.596668 373.66,396.27 C373.293332,395.943332 372.75667,395.78 372.05,395.78 C370.783327,395.78 369.510006,396.266662 368.23,397.24 L367.37,395.36 C367.930003,394.866664 368.646662,394.470002 369.52,394.17 C370.393338,393.869999 371.269996,393.72 372.15,393.72 C373.56334,393.72 374.683329,394.066663 375.51,394.76 C376.336671,395.453337 376.75,396.386661 376.75,397.56 C376.75,398.373337 376.576668,399.136663 376.23,399.85 C375.883332,400.563337 375.296671,401.359996 374.47,402.24 L371.01,405.92 L377.27,405.92 Z" id="-2" fill="#FFFFFF" fill-rule="nonzero"></path>
        <path d="M368.64,604.72 C369.480004,604.72 370.299996,604.863332 371.1,605.15 C371.900004,605.436668 372.59333,605.839997 373.18,606.36 L372.32,608.24 C371.079994,607.266662 369.886672,606.78 368.74,606.78 C367.713328,606.78 366.913336,607.216662 366.34,608.09 C365.766664,608.963338 365.466667,610.226658 365.44,611.88 C365.746668,611.279997 366.206664,610.810002 366.82,610.47 C367.433336,610.129998 368.119996,609.96 368.88,609.96 C369.706671,609.96 370.446663,610.149998 371.1,610.53 C371.753337,610.910002 372.263331,611.44333 372.63,612.13 C372.996668,612.81667 373.18,613.599996 373.18,614.48 C373.18,615.386671 372.980002,616.196663 372.58,616.91 C372.179998,617.623337 371.620004,618.179998 370.9,618.58 C370.179996,618.980002 369.366671,619.18 368.46,619.18 C366.673324,619.18 365.296671,618.576673 364.33,617.37 C363.363328,616.163327 362.88,614.440011 362.88,612.2 C362.88,610.653326 363.109998,609.316672 363.57,608.19 C364.030002,607.063328 364.693329,606.203336 365.56,605.61 C366.426671,605.016664 367.453327,604.72 368.64,604.72 Z M368.32,612 C367.586663,612 366.990002,612.236664 366.53,612.71 C366.069998,613.183336 365.84,613.799996 365.84,614.56 C365.84,615.333337 366.069998,615.956664 366.53,616.43 C366.990002,616.903336 367.59333,617.14 368.34,617.14 C369.073337,617.14 369.656664,616.906669 370.09,616.44 C370.523336,615.973331 370.74,615.346671 370.74,614.56 C370.74,613.786663 370.520002,613.166669 370.08,612.7 C369.639998,612.233331 369.053337,612 368.32,612 Z" id="Combined-Shape" fill="#FFFFFF" fill-rule="nonzero"></path>
        <polygon id="7" fill="#FFFFFF" fill-rule="nonzero" points="363.1 246.9 372.92 246.9 372.92 248.82 366.52 261 363.78 261 370.16 248.98 363.1 248.98"></polygon>
        <path d="M353.02,467.64 L353.02,465.66 L358.98,465.66 L358.98,467.64 L353.02,467.64 Z M368.26,469.92 L371.32,469.92 L371.32,472 L362.62,472 L362.62,469.92 L365.68,469.92 L365.68,460.84 L363.26,462.3 L362.24,460.42 L366.42,457.9 L368.26,457.9 L368.26,469.92 Z M380.26,469.92 L383.32,469.92 L383.32,472 L374.62,472 L374.62,469.92 L377.68,469.92 L377.68,460.84 L375.26,462.3 L374.24,460.42 L378.42,457.9 L380.26,457.9 L380.26,469.92 Z" id="-11" fill="#FFFFFF" fill-rule="nonzero"></path>
        <rect id="Rectangle-Copy-16" stroke="#FA4359" stroke-width="2" fill="#FA4359" x="402" y="160" width="60" height="60"></rect>
        <rect id="Rectangle-Copy-29" stroke="#4C7EF3" stroke-width="2" fill="#4C7EF3" x="402" y="371" width="60" height="60"></rect>
        <rect id="Rectangle-Copy-39" stroke="#37C3BE" stroke-width="2" fill="#37C3BE" x="402" y="582" width="60" height="60"></rect>
        <rect id="Rectangle-Copy-21" stroke="#FA4359" stroke-width="2" fill="#FA4359" x="402" y="224" width="60" height="60"></rect>
        <rect id="Rectangle-Copy-30" stroke="#4C7EF3" stroke-width="2" fill="#4C7EF3" x="402" y="435" width="60" height="60"></rect>
        <rect id="Rectangle-Copy-40" stroke="#37C3BE" stroke-width="2" fill="#37C3BE" x="402" y="646" width="60" height="60"></rect>
        <path d="M423.02,403.64 L423.02,401.66 L428.98,401.66 L428.98,403.64 L423.02,403.64 Z M438.26,405.92 L441.32,405.92 L441.32,408 L432.62,408 L432.62,405.92 L435.68,405.92 L435.68,396.84 L433.26,398.3 L432.24,396.42 L436.42,393.9 L438.26,393.9 L438.26,405.92 Z" id="-1" fill="#FFFFFF" fill-rule="nonzero"></path>
        <path d="M432.64,604.72 C433.480004,604.72 434.299996,604.863332 435.1,605.15 C435.900004,605.436668 436.59333,605.839997 437.18,606.36 L436.32,608.24 C435.079994,607.266662 433.886672,606.78 432.74,606.78 C431.713328,606.78 430.913336,607.216662 430.34,608.09 C429.766664,608.963338 429.466667,610.226658 429.44,611.88 C429.746668,611.279997 430.206664,610.810002 430.82,610.47 C431.433336,610.129998 432.119996,609.96 432.88,609.96 C433.706671,609.96 434.446663,610.149998 435.1,610.53 C435.753337,610.910002 436.263331,611.44333 436.63,612.13 C436.996668,612.81667 437.18,613.599996 437.18,614.48 C437.18,615.386671 436.980002,616.196663 436.58,616.91 C436.179998,617.623337 435.620004,618.179998 434.9,618.58 C434.179996,618.980002 433.366671,619.18 432.46,619.18 C430.673324,619.18 429.296672,618.576673 428.33,617.37 C427.363329,616.163327 426.88,614.440011 426.88,612.2 C426.88,610.653326 427.109998,609.316672 427.57,608.19 C428.030002,607.063328 428.693329,606.203336 429.56,605.61 C430.426671,605.016664 431.453327,604.72 432.64,604.72 Z M432.32,612 C431.586663,612 430.990002,612.236664 430.53,612.71 C430.069998,613.183336 429.84,613.799996 429.84,614.56 C429.84,615.333337 430.069998,615.956664 430.53,616.43 C430.990002,616.903336 431.59333,617.14 432.34,617.14 C433.073337,617.14 433.656664,616.906669 434.09,616.44 C434.523336,615.973331 434.74,615.346671 434.74,614.56 C434.74,613.786663 434.520002,613.166669 434.08,612.7 C433.639998,612.233331 433.053337,612 432.32,612 Z" id="6" fill="#FFFFFF" fill-rule="nonzero"></path>
        <polygon id="-4" fill="#FFFFFF" fill-rule="nonzero" points="423.02 256.64 423.02 254.66 428.98 254.66 428.98 256.64"></polygon>
        <path d="M439.82,246.9 L439.82,256.24 L441.8,256.24 L441.8,258.24 L439.82,258.24 L439.82,261 L437.3,261 L437.3,258.24 L431.18,258.24 L431.18,256.34 L437.74,246.9 L439.82,246.9 Z M437.3,250.86 L433.58,256.24 L437.3,256.24 L437.3,250.86 Z" id="Combined-Shape" fill="#FFFFFF" fill-rule="nonzero"></path>
        <path d="M436.93,680.92 L436.93,683 L427.45,683 L427.45,681.1 L432.25,675.94 C432.810003,675.326664 433.219999,674.763336 433.48,674.25 C433.740001,673.736664 433.87,673.226669 433.87,672.72 C433.87,672.079997 433.686668,671.596668 433.32,671.27 C432.953331,670.943332 432.41667,670.78 431.71,670.78 C430.443327,670.78 429.170006,671.266662 427.89,672.24 L427.03,670.36 C427.590003,669.866664 428.306662,669.470001 429.18,669.17 C430.053338,668.869998 430.929996,668.72 431.81,668.72 C433.22334,668.72 434.343329,669.066663 435.17,669.76 C435.996671,670.453337 436.41,671.386661 436.41,672.56 C436.41,673.373337 436.236668,674.136663 435.89,674.85 C435.543332,675.563337 434.956671,676.359996 434.13,677.24 L430.67,680.92 L436.93,680.92 Z" id="2" fill="#FFFFFF" fill-rule="nonzero"></path>
        <rect id="Rectangle-Copy-17" stroke="#FA4359" stroke-width="2" fill="#FA4359" x="466" y="160" width="60" height="60"></rect>
        <rect id="Rectangle-Copy-31" stroke="#4C7EF3" stroke-width="2" fill="#4C7EF3" x="466" y="371" width="60" height="60"></rect>
        <rect id="Rectangle-Copy-41" stroke="#37C3BE" stroke-width="2" fill="#37C3BE" x="466" y="582" width="60" height="60"></rect>
        <rect id="Rectangle-Copy-22" stroke="#FA4359" stroke-width="2" fill="#FA4359" x="466" y="224" width="60" height="60"></rect>
        <rect id="Rectangle-Copy-32" stroke="#4C7EF3" stroke-width="2" fill="#4C7EF3" x="466" y="435" width="60" height="60"></rect>
        <rect id="Rectangle-Copy-42" stroke="#37C3BE" stroke-width="2" fill="#37C3BE" x="466" y="646" width="60" height="60"></rect>
        <path d="M499.48,182.9 L499.48,192.24 L501.46,192.24 L501.46,194.24 L499.48,194.24 L499.48,197 L496.96,197 L496.96,194.24 L490.84,194.24 L490.84,192.34 L497.4,182.9 L499.48,182.9 Z M496.96,186.86 L493.24,192.24 L496.96,192.24 L496.96,186.86 Z" id="Combined-Shape" fill="#FFFFFF" fill-rule="nonzero"></path>
        <path d="M498.18,464.76 C499.006671,464.973334 499.643331,465.376664 500.09,465.97 C500.536669,466.563336 500.76,467.299996 500.76,468.18 C500.76,469.406673 500.310004,470.376663 499.41,471.09 C498.509996,471.803337 497.286674,472.16 495.74,472.16 C494.793329,472.16 493.883338,472.013335 493.01,471.72 C492.136662,471.426665 491.413336,471.026669 490.84,470.52 L491.7,468.64 C492.926673,469.613338 494.239993,470.1 495.64,470.1 C496.533338,470.1 497.199998,469.923335 497.64,469.57 C498.080002,469.216665 498.3,468.680004 498.3,467.96 C498.3,467.25333 498.076669,466.730002 497.63,466.39 C497.183331,466.049998 496.493338,465.88 495.56,465.88 L493.7,465.88 L493.7,463.84 L495.22,463.84 C497.046676,463.84 497.96,463.15334 497.96,461.78 C497.96,461.139997 497.763335,460.646668 497.37,460.3 C496.976665,459.953332 496.420004,459.78 495.7,459.78 C495.07333,459.78 494.43667,459.903332 493.79,460.15 C493.14333,460.396668 492.513336,460.759998 491.9,461.24 L491.04,459.36 C491.600003,458.853331 492.316662,458.453335 493.19,458.16 C494.063338,457.866665 494.953329,457.72 495.86,457.72 C497.246674,457.72 498.353329,458.056663 499.18,458.73 C500.006671,459.403337 500.42,460.313328 500.42,461.46 C500.406667,462.246671 500.203335,462.929997 499.81,463.51 C499.416665,464.090003 498.873337,464.506665 498.18,464.76 Z" id="3" fill="#FFFFFF" fill-rule="nonzero"></path>
        <g id="Group-8-Copy-5" transform="translate(208.000000, 723.000000)" fill="#FFFFFF" fill-rule="nonzero">
            <g id="Group-8">
                <path d="M159.5,0 C159.5,3.31538298 160.000244,8.01188237 160.656837,9.48741352 C162.197728,12.9501851 164.86353,14.4889458 168.718974,14.7942942 L168.953964,14.8005167 C175.209629,14.8980765 298.982917,14.849102 303.042051,14.7652932 L304.800728,14.6793304 L305.237605,14.6654783 C305.305433,14.6638972 305.371589,14.6626537 305.437303,14.6617083 L307.2106,14.6572938 L307.97089,14.6616817 C309.410588,14.6764446 310.39775,14.7294312 311.522021,14.8620418 C316.675237,15.4698766 319.5,17.5483558 319.5,22 L320.5,22 C320.5,16.9313003 317.235126,14.5289846 311.639161,13.8689265 L311.104712,13.8107053 C310.136566,13.7143708 309.209732,13.673618 307.945936,13.6613394 L305.424671,13.6617514 L305.003877,13.6714755 C304.929738,13.6738081 304.852755,13.6765231 304.771669,13.6796604 L303.075257,13.7641441 L302.293736,13.7740665 C291.299048,13.8528821 170.046435,13.8962968 168.797926,13.7974158 C165.279151,13.5187314 162.945968,12.1719657 161.570464,9.08086061 C160.989846,7.77606504 160.5,3.17718197 160.5,0 L159.5,0 Z" id="Path-2-Copy" transform="translate(240.000000, 11.000000) scale(-1, 1) translate(-240.000000, -11.000000) "></path>
                <path d="M-0.5,0 C-0.5,3.31538298 0.00024383784,8.01188237 0.656837103,9.48741352 C2.19772799,12.9501851 4.86352973,14.4889458 8.71897395,14.7942942 L8.95396384,14.8005167 C15.2096286,14.8980765 138.982917,14.849102 143.042051,14.7652932 L144.800728,14.6793304 L145.237605,14.6654783 C145.305433,14.6638972 145.371589,14.6626537 145.437303,14.6617083 L147.2106,14.6572938 L147.97089,14.6616817 C149.410588,14.6764446 150.39775,14.7294312 151.522021,14.8620418 C156.675237,15.4698766 159.5,17.5483558 159.5,22 L160.5,22 C160.5,16.9313003 157.235126,14.5289846 151.639161,13.8689265 L151.104712,13.8107053 C150.136566,13.7143708 149.209732,13.673618 147.945936,13.6613394 L145.424671,13.6617514 L145.003877,13.6714755 C144.929738,13.6738081 144.852755,13.6765231 144.771669,13.6796604 L143.075257,13.7641441 L142.293736,13.7740665 C131.299048,13.8528821 10.0464351,13.8962968 8.79792599,13.7974158 C5.27915113,13.5187314 2.94596821,12.1719657 1.57046434,9.08086061 C0.989846313,7.77606504 0.5,3.17718197 0.5,0 L-0.5,0 Z" id="Path-2-Copy"></path>
            </g>
        </g>
        <g id="Group-8-Copy-6" transform="translate(186.000000, 434.000000) rotate(-270.000000) translate(-186.000000, -434.000000) translate(-91.000000, 423.000000)" fill="#FFFFFF" fill-rule="nonzero">
            <g id="Group-8" transform="translate(0.000000, 0.000000)">
                <path d="M276.5,-5.68434189e-13 C276.5,3.31538298 277.000244,8.01188237 277.656837,9.48741352 C279.197728,12.9501851 281.86353,14.4889458 285.718974,14.7942942 L286.092571,14.8005225 L289.365572,14.8142107 C320.180217,14.8939649 535.629358,14.8436541 537.129161,14.7626902 L538.800728,14.6793304 L539.237605,14.6654783 C539.305433,14.6638972 539.371589,14.6626537 539.437303,14.6617083 L541.2106,14.6572938 L541.97089,14.6616817 C543.410588,14.6764446 544.39775,14.7294312 545.522021,14.8620418 C550.675237,15.4698766 553.5,17.5483558 553.5,22 L554.5,22 C554.5,16.9313003 551.235126,14.5289846 545.639161,13.8689265 L545.104712,13.8107053 C544.136566,13.7143708 543.209732,13.673618 541.945936,13.6613394 L539.424671,13.6617514 L539.003877,13.6714755 C538.929738,13.6738081 538.852755,13.6765231 538.771669,13.6796604 L537.075257,13.7641441 L536.688809,13.7691883 L529.912406,13.7880833 C489.011625,13.8575494 286.971253,13.8903424 285.797926,13.7974158 C282.279151,13.5187314 279.945968,12.1719657 278.570464,9.08086061 C277.989846,7.77606504 277.5,3.17718197 277.5,-5.68434189e-13 L276.5,-5.68434189e-13 Z" id="Path-2-Copy" transform="translate(415.500000, 11.000000) scale(-1, 1) translate(-415.500000, -11.000000) "></path>
                <path d="M-0.5,1.36424205e-12 C-0.5,3.31538298 0.00024383784,8.01188237 0.656837103,9.48741352 C2.19772799,12.9501851 4.86352973,14.4889458 8.71897395,14.7942942 L9.09257122,14.8005225 L12.3655718,14.8142107 C43.1802172,14.8939649 258.629358,14.8436541 260.129161,14.7626902 L261.800728,14.6793304 L262.237605,14.6654783 C262.305433,14.6638972 262.371589,14.6626537 262.437303,14.6617083 L264.2106,14.6572938 L264.97089,14.6616817 C266.410588,14.6764446 267.39775,14.7294312 268.522021,14.8620418 C273.675237,15.4698766 276.5,17.5483558 276.5,22 L277.5,22 C277.5,16.9313003 274.235126,14.5289846 268.639161,13.8689265 L268.104712,13.8107053 C267.136566,13.7143708 266.209732,13.673618 264.945936,13.6613394 L262.424671,13.6617514 L262.003877,13.6714755 C261.929738,13.6738081 261.852755,13.6765231 261.771669,13.6796604 L260.075257,13.7641441 L259.688809,13.7691883 L252.912406,13.7880833 C212.011625,13.8575494 9.97125288,13.8903424 8.79792599,13.7974158 C5.27915113,13.5187314 2.94596821,12.1719657 1.57046434,9.08086061 C0.989846313,7.77606504 0.5,3.17718197 0.5,1.36424205e-12 L-0.5,1.36424205e-12 Z" id="Path-2-Copy"></path>
            </g>
        </g>
        <g id="Group-8-Copy-7" transform="translate(549.000000, 222.000000) rotate(-90.000000) translate(-549.000000, -222.000000) translate(486.000000, 211.000000)" fill="#FFFFFF" fill-rule="nonzero">
            <g id="Group-8" transform="translate(-0.000000, 0.000000)">
                <path d="M62.5,3.69482223e-13 C62.5,3.31538298 63.0002438,8.01188237 63.6568371,9.48741352 C65.197728,12.9501851 67.8635297,14.4889458 71.7189739,14.7942942 L72.0852701,14.8162526 C73.41186,14.8775066 76.2355015,14.8613637 78.1011461,14.8040356 L79.3377335,14.7574013 L113.2106,14.6572938 L113.97089,14.6616817 C115.410588,14.6764446 116.39775,14.7294312 117.522021,14.8620418 C122.675237,15.4698766 125.5,17.5483558 125.5,22 L126.5,22 C126.5,16.9313003 123.235126,14.5289846 117.639161,13.8689265 L117.104712,13.8107053 C116.136566,13.7143708 115.209732,13.673618 113.945936,13.6613394 L81.1181452,13.7418512 C80.0341059,13.7486035 79.3591688,13.7552911 79.1343727,13.7618966 L78.3480563,13.7953977 L77.5372166,13.8190699 C75.5207084,13.8682331 72.7542645,13.8731571 71.797926,13.7974158 C68.2791511,13.5187314 65.9459682,12.1719657 64.5704643,9.08086061 C63.9898463,7.77606504 63.5,3.17718197 63.5,3.69482223e-13 L62.5,3.69482223e-13 Z" id="Path-2-Copy" transform="translate(94.500000, 11.000000) scale(-1, 1) translate(-94.500000, -11.000000) "></path>
                <path d="M8.71270668,14.8560931 L8.8276611,14.8541391 L9.05388063,14.839065 L11.0943801,14.8067292 L18.0834044,14.7559904 L50.2105996,14.6572938 L50.9708899,14.6616817 C52.410588,14.6764446 53.3977499,14.7294312 54.5220209,14.8620418 C59.6752372,15.4698766 62.5,17.5483558 62.5,22 L63.5,22 C63.5,16.9313003 60.2351262,14.5289846 54.6391614,13.8689265 L54.1047116,13.8107053 C53.1365663,13.7143708 52.2097317,13.673618 50.9459359,13.6613394 L16.0988804,13.7634282 L9.43823945,13.8306861 C9.33563181,13.8326351 9.24258082,13.8345565 9.15899157,13.8364464 C9.10477701,13.8237133 9.02877375,13.8160794 8.90250105,13.8057705 L8.79792599,13.7974158 C5.27915113,13.5187314 2.94596821,12.1719657 1.57046434,9.08086061 C0.989846313,7.77606504 0.5,3.17718197 0.5,2.16004992e-12 L-0.5,2.16004992e-12 C-0.5,3.31538298 0.00024383784,8.01188237 0.656837103,9.48741352 C2.15733163,12.8594043 4.72452829,14.4069425 8.41819996,14.7677234 L8.49996634,14.8221977 C8.52860794,14.8397847 8.54210612,14.8448426 8.55494631,14.8461296 L8.71270668,14.8560931 Z" id="Path-2-Copy"></path>
            </g>
        </g>
        <path d="M161.18,432.76 C162.006671,432.973334 162.643331,433.376664 163.09,433.97 C163.536669,434.563336 163.76,435.299996 163.76,436.18 C163.76,437.406673 163.310004,438.376663 162.41,439.09 C161.509996,439.803337 160.286674,440.16 158.74,440.16 C157.793329,440.16 156.883338,440.013335 156.01,439.72 C155.136662,439.426665 154.413336,439.026669 153.84,438.52 L154.7,436.64 C155.926673,437.613338 157.239993,438.1 158.64,438.1 C159.533338,438.1 160.199998,437.923335 160.64,437.57 C161.080002,437.216665 161.3,436.680004 161.3,435.96 C161.3,435.25333 161.076669,434.730002 160.63,434.39 C160.183331,434.049998 159.493338,433.88 158.56,433.88 L156.7,433.88 L156.7,431.84 L158.22,431.84 C160.046676,431.84 160.96,431.15334 160.96,429.78 C160.96,429.139997 160.763335,428.646668 160.37,428.3 C159.976665,427.953332 159.420004,427.78 158.7,427.78 C158.07333,427.78 157.43667,427.903332 156.79,428.15 C156.14333,428.396668 155.513336,428.759998 154.9,429.24 L154.04,427.36 C154.600003,426.853331 155.316662,426.453335 156.19,426.16 C157.063338,425.866665 157.953329,425.72 158.86,425.72 C160.246674,425.72 161.353329,426.056663 162.18,426.73 C163.006671,427.403337 163.42,428.313328 163.42,429.46 C163.406667,430.246671 163.203335,430.929997 162.81,431.51 C162.416665,432.090003 161.873337,432.506665 161.18,432.76 Z" id="3" fill="#FFFFFF" fill-rule="nonzero"></path>
    </g>
</svg>