<?xml version="1.0" encoding="utf-8"?>
<!-- Generator: Adobe Illustrator 24.1.0, SVG Export Plug-In . SVG Version: 6.00 Build 0)  -->
<svg version="1.1" id="Layer_1" xmlns="http://www.w3.org/2000/svg" xmlns:xlink="http://www.w3.org/1999/xlink" x="0px" y="0px"
	 viewBox="0 0 1223.5 857.8" style="enable-background:new 0 0 1223.5 857.8;" xml:space="preserve">
<style type="text/css">
	.st0{fill:#1AF3C0;stroke:#000000;stroke-width:6;stroke-miterlimit:10;}
	.st1{fill:#18C99A;stroke:#000000;stroke-width:6;stroke-miterlimit:10;}
	.st2{fill:#FD92F3;stroke:#000000;stroke-width:6;stroke-miterlimit:10;}
	.st3{fill:#C967C4;stroke:#000000;stroke-width:6;stroke-miterlimit:10;}
	.st4{fill:#FFC526;stroke:#000000;stroke-width:6;stroke-miterlimit:10;}
	.st5{fill:#D39C22;stroke:#000000;stroke-width:6;stroke-miterlimit:10;}
	.st6{fill:#00AFFF;stroke:#000000;stroke-width:6;stroke-miterlimit:10;}
	.st7{fill:#00A1C6;stroke:#000000;stroke-width:6;stroke-miterlimit:10;}
	.st8{fill:none;stroke:#000000;stroke-width:6;stroke-linecap:round;stroke-linejoin:round;}
</style>
<path class="st0" d="M846.2,507.5c0,20.7,82.8,37.4,185,37.4s185-16.7,185-37.4V363.4h-370V507.5z"/>
<ellipse class="st1" cx="1031.2" cy="362.9" rx="185" ry="37.4"/>
<path d="M926.1,457.4h-8.6v-25.2h8.6c8.2,0,13.1,5.1,13.1,12.6S934.3,457.4,926.1,457.4z M925.9,436.5h-3.5v16.7h3.5
	c4.6,0,8.1-2.7,8.1-8.4S930.5,436.5,925.9,436.5L925.9,436.5z"/>
<path d="M951.2,446.4c0-1.2-0.9-1.9-2.7-1.9c-1.8,0.1-3.5,0.6-5,1.5l-1.8-3.5c2.1-1.3,4.6-2,7.1-2c3.7,0,7.2,1.7,7.2,6.1v10.8h-4.7
	v-1.5c-1.1,1.4-2.8,2.1-4.6,2c-3.5,0-5.8-2.5-5.8-5.2c0-3.1,2.3-5.1,6-5.1h3.2c0.8,0,1.2-0.4,1.2-1L951.2,446.4z M951.2,451.5v-1.2
	c-0.4,0.3-0.9,0.4-1.4,0.4H948c-1.5,0-2.3,0.6-2.3,1.8s0.9,2,2.3,2C949.7,454.4,951.2,453.5,951.2,451.5z"/>
<path d="M965.7,434.6v6.3h3.6v4h-3.6v7.5c0,1,0.8,1.2,1.5,1.2c1.2,0,2.2-0.1,2.2-0.1v4c0,0-2.3,0.2-3.6,0.2c-2.3,0-4.8-0.4-4.8-3.7
	v-9h-2.6v-4h2.6v-6.3L965.7,434.6z"/>
<path d="M981.6,446.4c0-1.2-0.9-1.9-2.7-1.9c-1.8,0.1-3.5,0.6-5,1.5l-1.8-3.5c2.1-1.3,4.5-2,7-2c3.7,0,7.2,1.7,7.2,6.1v10.8h-4.6
	v-1.5c-1.1,1.4-2.8,2.1-4.6,2c-3.5,0-5.8-2.5-5.8-5.2c0-3.1,2.3-5.1,6-5.1h3.2c0.8,0,1.2-0.4,1.2-1L981.6,446.4z M981.6,451.5v-1.2
	c-0.4,0.3-0.9,0.4-1.4,0.4h-1.8c-1.5,0-2.3,0.6-2.3,1.8s0.9,2,2.3,2C980.1,454.4,981.6,453.5,981.6,451.5z"/>
<path d="M1017.2,457.4h-5.4l-2.2-6.9h-7.6l-2,6.9h-5.2l8.1-25.2h6L1017.2,457.4z M1005.8,437.6L1005.8,437.6l-2.6,8.6h5.2
	L1005.8,437.6z"/>
<path d="M1031.2,455.3c-1.2,1.7-3.1,2.6-5.2,2.5c-4.5,0-8-3.6-8-8.7s3.4-8.7,7.9-8.7c2.1-0.1,4.1,0.9,5.3,2.6c0-0.2-0.1-0.5-0.1-1.4
	v-0.8h4.7v22.8h-4.7L1031.2,455.3z M1022.9,449.1c-0.2,2.3,1.5,4.4,3.9,4.6s4.4-1.5,4.6-3.9c0-0.2,0-0.5,0-0.7
	c0.1-2.3-1.7-4.3-4-4.4c-2.3-0.1-4.3,1.7-4.4,4C1022.9,448.9,1022.9,449,1022.9,449.1z"/>
<path d="M1039.7,451.3v-10.4h4.7v9.6c-0.1,1.7,1.2,3.2,3,3.3c1.7,0.1,3.2-1.2,3.3-3c0-0.1,0-0.2,0-0.4v-9.6h4.7v10.4
	c0,3.5-2.7,6.5-7.8,6.5S1039.7,454.8,1039.7,451.3z"/>
<path d="M1064.8,457.4h-4.7v-12.5h-2.3v-4h7L1064.8,457.4z M1062.2,432.2c1.7,0,3,1.3,3,3s-1.3,3-3,3s-3-1.3-3-3l0,0
	C1059.2,433.5,1060.6,432.2,1062.2,432.2z"/>
<path d="M1078.6,445.9c-1.1-1.1-2.5-1.7-4.1-1.7c-1.2,0-1.7,0.6-1.7,1.1s0.4,1,1.2,1.3l2.7,0.9c3.4,1.1,4.5,3,4.5,5.1
	c0,2.4-2,5.2-6.6,5.2c-2.7,0.1-5.3-0.8-7.3-2.6l2.5-3.2c1.3,1.2,3.1,1.9,4.9,2.1c1.1,0,1.8-0.6,1.8-1.2c0-0.8-0.5-1.2-1.9-1.6
	l-2.8-0.8c-2.7-0.9-3.8-2.7-3.8-4.8c0-2.7,2.4-5.1,6.4-5.1c2.4,0,4.8,0.8,6.7,2.5L1078.6,445.9z"/>
<path d="M1090,457.4h-4.7v-12.5h-2.3v-4h7V457.4z M1087.4,432.2c1.7,0,3,1.3,3,3s-1.3,3-3,3s-3-1.3-3-3l0,0
	C1084.4,433.5,1085.8,432.2,1087.4,432.2L1087.4,432.2z"/>
<path d="M1099.9,434.6v6.3h3.6v4h-3.6v7.5c0,1,0.8,1.2,1.6,1.2c1.2,0,2.2-0.1,2.2-0.1v4c0,0-2.3,0.2-3.6,0.2c-2.3,0-4.8-0.4-4.8-3.7
	v-9h-2.6v-4h2.6v-6.3L1099.9,434.6z"/>
<path d="M1112.3,457.4h-4.7v-12.5h-2.3v-4h7L1112.3,457.4z M1109.8,432.2c1.7,0,3,1.3,3,3s-1.3,3-3,3s-3-1.3-3-3l0,0
	C1106.8,433.5,1108.1,432.2,1109.8,432.2L1109.8,432.2L1109.8,432.2z"/>
<path d="M1115.3,449.1c-0.1-4.9,3.8-8.9,8.7-9c4.9-0.1,8.9,3.8,9,8.7c0.1,4.9-3.8,8.9-8.7,9c0,0-0.1,0-0.1,0
	c-4.7,0.1-8.7-3.6-8.8-8.4C1115.3,449.3,1115.3,449.2,1115.3,449.1z M1120,449.1c-0.2,2.3,1.5,4.3,3.8,4.5c2.3,0.2,4.3-1.5,4.5-3.8
	c0-0.2,0-0.5,0-0.7c0-2.6-1.7-4.5-4.1-4.5S1120,446.5,1120,449.1L1120,449.1z"/>
<path d="M1145.5,440.5c3.2-0.2,5.9,2.2,6.1,5.4c0,0.3,0,0.5,0,0.8v10.8h-4.6v-9.6c0.2-1.5-0.9-2.8-2.3-2.9c-0.2,0-0.3,0-0.5,0
	c-1.4,0.1-2.7,0.8-3.5,1.9v10.7h-4.7v-16.5h4.6v0.6c0,0.6-0.1,1.3-0.1,1.3C1141.7,441.3,1143.6,440.5,1145.5,440.5z"/>
<path d="M926.7,500.6h-5.9l-2.6-2.7c-1.6,2.1-4.2,3.3-6.9,3.1c-4.3,0-7.7-2.9-7.7-7c0-2.8,1.6-5.4,4.4-7.4c-1.3-1.4-2-3.2-2-5.1
	c0-2.9,2.2-6.5,7.5-6.5c3.9,0,6.7,2.6,6.7,5.7c0,1.1-0.3,2.2-0.9,3.2l-4.1-0.4c0.3-0.6,0.5-1.2,0.5-1.8c0-1.3-1-2.4-2.3-2.4
	c-1.3-0.1-2.5,0.9-2.6,2.3c0,0.1,0,0.1,0,0.2c0.2,1.5,0.9,2.8,1.9,3.8c1.8,2,4.2,4.5,5.2,5.4c0.7-1.3,1.3-2.7,1.8-4.2h5.4
	c-1,2.6-2.3,5.2-3.8,7.6l5.4,5.6L926.7,500.6z M910.6,490c-1.4,1.4-2,2.5-2,3.8c0,1.6,1.4,2.9,3,2.9c1.4-0.1,2.6-0.8,3.3-2
	C913.5,493.1,912.1,491.5,910.6,490z"/>
<path d="M950.6,491.8v-16.4h4.9v16.9c0,4.9-3.2,8.8-9.4,8.8s-9.4-3.9-9.4-8.8v-16.9h5v16.4c0,2.7,1.5,4.6,4.5,4.6
	S950.6,494.5,950.6,491.8z"/>
<path d="M969.2,483.6c3.2-0.2,5.9,2.2,6.1,5.4c0,0.3,0,0.5,0,0.8v10.8h-4.7V491c0.2-1.5-0.9-2.8-2.3-2.9c-0.2,0-0.3,0-0.5,0
	c-1.4,0.1-2.7,0.8-3.5,1.9v10.7h-4.7v-16.5h4.6v0.6c0,0.6-0.1,1.3-0.1,1.3C965.4,484.5,967.3,483.6,969.2,483.6z"/>
<path d="M991.3,498.5c-1.2,1.7-3.1,2.6-5.1,2.5c-4.5,0-8-3.6-8-8.7s3.4-8.7,8-8.7c2.1-0.1,4.1,0.9,5.2,2.6c0-0.5-0.1-1.9-0.1-3.1
	v-7.7h4.6v25.2h-4.7L991.3,498.5z M983,492.3c-0.2,2.3,1.6,4.3,3.9,4.5c2.3,0.2,4.3-1.6,4.5-3.9c0-0.2,0-0.4,0-0.6
	c0.2-2.3-1.6-4.3-3.9-4.5c-2.3-0.2-4.3,1.6-4.5,3.9C983,491.9,983,492.1,983,492.3z"/>
<path d="M1016.2,493.7h-12.3c0.3,2.1,2.3,3.6,4.5,3.3c1.1-0.2,2-0.8,2.6-1.7l4.9,0.5c-1.5,3.5-4.6,5.2-8.2,5.2
	c-4.8-0.1-8.6-4.1-8.4-8.9c0.1-4.6,3.8-8.2,8.3-8.4c4.5,0,8.6,3,8.6,9.9V493.7z M1003.8,490.6h7.4c-0.3-1.8-1.8-3.1-3.6-3
	C1005.8,487.5,1004.2,488.8,1003.8,490.6L1003.8,490.6z"/>
<path d="M1029.1,488.7h-2c-2.4,0-3.5,1.1-3.5,4v7.9h-4.6v-16.5h4.5v2.6c0.7-1.8,2.4-2.9,4.3-2.8c0.4,0,0.9,0,1.3,0.1L1029.1,488.7z"
	/>
<path d="M1041.4,489.1c-1.1-1.1-2.5-1.7-4.1-1.7c-1.2,0-1.7,0.6-1.7,1.1s0.4,1,1.2,1.3l2.7,0.9c3.4,1.1,4.5,3,4.5,5.1
	c0,2.4-2,5.2-6.6,5.2c-2.7,0.1-5.3-0.8-7.3-2.6l2.5-3.2c1.3,1.2,3.1,1.9,4.9,2c1.1,0,1.8-0.6,1.8-1.2c0-0.8-0.5-1.2-1.9-1.6
	l-2.8-0.8c-2.7-0.9-3.8-2.7-3.8-4.8c0-2.7,2.4-5.1,6.4-5.1c2.4,0,4.8,0.8,6.7,2.5L1041.4,489.1z"/>
<path d="M1053.1,477.8v6.3h3.6v4h-3.6v7.5c0,1,0.8,1.2,1.6,1.2c1.2,0,2.2-0.1,2.2-0.1v4c0,0-2.3,0.2-3.6,0.2c-2.3,0-4.8-0.4-4.8-3.7
	v-9h-2.6v-4h2.6v-6.3L1053.1,477.8z"/>
<path d="M1069.1,489.6c0-1.2-0.9-1.9-2.7-1.9c-1.8,0.1-3.5,0.6-5,1.5l-1.8-3.5c2.1-1.3,4.5-2,7-2c3.7,0,7.2,1.7,7.2,6.1v10.8h-4.7
	V499c-1.1,1.4-2.8,2.1-4.6,2c-3.5,0-5.8-2.5-5.8-5.2c0-3.1,2.3-5.1,6-5.1h3.2c0.8,0,1.2-0.4,1.2-1L1069.1,489.6z M1069.1,494.7v-1.2
	c-0.4,0.3-0.9,0.4-1.4,0.4h-1.8c-1.5,0-2.3,0.6-2.3,1.8s0.9,1.9,2.3,1.9C1067.6,497.6,1069.1,496.7,1069.1,494.7L1069.1,494.7z"/>
<path d="M1087.1,483.6c3.2-0.2,5.9,2.2,6.1,5.4c0,0.3,0,0.5,0,0.8v10.8h-4.7V491c0.2-1.5-0.9-2.8-2.4-2.9c-0.1,0-0.3,0-0.4,0
	c-1.4,0.1-2.7,0.8-3.5,1.9v10.7h-4.7v-16.5h4.6v0.6c0,0.6-0.1,1.3-0.1,1.3C1083.3,484.5,1085.2,483.6,1087.1,483.6z"/>
<path d="M1109.2,498.5c-1.2,1.7-3.1,2.6-5.2,2.5c-4.5,0-8-3.6-8-8.7s3.4-8.7,8-8.7c2.1-0.1,4.1,0.9,5.2,2.6c0-0.5-0.1-1.9-0.1-3.1
	v-7.7h4.7v25.2h-4.7L1109.2,498.5z M1100.9,492.3c-0.2,2.3,1.5,4.4,3.9,4.6c2.3,0.2,4.4-1.5,4.6-3.9c0-0.2,0-0.5,0-0.7
	c0.1-2.3-1.7-4.3-4-4.4c-2.3-0.1-4.3,1.7-4.4,4C1100.9,492.1,1100.9,492.2,1100.9,492.3z"/>
<path d="M1123.6,500.6h-4.7V488h-2.3v-4h7L1123.6,500.6z M1121,475.4c1.7,0,3,1.3,3,3s-1.3,3-3,3s-3-1.3-3-3
	S1119.4,475.4,1121,475.4L1121,475.4L1121,475.4z"/>
<path d="M1137.2,483.6c3.2-0.2,5.9,2.2,6.1,5.4c0,0.3,0,0.5,0,0.8v10.8h-4.7V491c0.2-1.5-0.9-2.8-2.4-2.9c-0.1,0-0.3,0-0.4,0
	c-1.4,0.1-2.7,0.8-3.5,1.9v10.7h-4.7v-16.5h4.6v0.6c0,0.6-0.1,1.3-0.1,1.3C1133.4,484.5,1135.2,483.6,1137.2,483.6z"/>
<path d="M1163.8,484.1v17.7c0,2.6-1.3,5.1-5.3,5.1h-7.2v-4h6c0.8,0,1.8-0.2,1.8-1.5v-3.2c-1.2,1.6-3.1,2.6-5.1,2.5
	c-4.5,0-7.9-3.4-7.9-8.5s3.4-8.6,7.9-8.6c2.1-0.1,4,0.9,5.2,2.6c0-0.2-0.1-0.5-0.1-1.4V484L1163.8,484.1z M1155.1,496.7
	c2.5,0,4.2-1.8,4.2-4.5s-1.7-4.5-4.2-4.5s-4.1,1.8-4.1,4.5S1152.7,496.7,1155.1,496.7z"/>
<path class="st2" d="M9.1,507.5c0,20.7,82.8,37.4,185,37.4s185-16.7,185-37.4V363.4H9.1V507.5z"/>
<ellipse class="st3" cx="194.1" cy="362.9" rx="185" ry="37.4"/>
<path d="M112.3,476.4h-8.6v-25.2h8.6c8.2,0,13.1,5.1,13.1,12.6S120.5,476.4,112.3,476.4z M112.1,455.5h-3.5v16.7h3.5
	c4.6,0,8.1-2.7,8.1-8.4S116.7,455.5,112.1,455.5z"/>
<path d="M144.5,469.5h-12.3c0.3,2.1,2.3,3.6,4.5,3.3c1.1-0.2,2-0.8,2.6-1.7l4.9,0.5c-1.5,3.5-4.6,5.2-8.2,5.2
	c-4.8-0.1-8.6-4.1-8.4-8.9c0.1-4.6,3.8-8.2,8.3-8.4c4.5,0,8.6,3,8.6,9.9L144.5,469.5z M132.1,466.4h7.4c-0.3-1.8-1.8-3.1-3.6-3
	C134,463.3,132.4,464.6,132.1,466.4z"/>
<path d="M152,482.7h-4.7v-22.8h4.7v0.8c0,0.8-0.1,1.1-0.1,1.3c1.2-1.7,3.2-2.7,5.2-2.6c4.5,0,8,3.6,8,8.7s-3.5,8.7-8,8.7
	c-2,0.1-3.9-0.9-5.1-2.5L152,482.7z M151.9,468.1c-0.2,2.3,1.6,4.3,3.9,4.5c2.3,0.2,4.3-1.6,4.5-3.9c0-0.2,0-0.4,0-0.6
	c0.2-2.3-1.6-4.3-3.9-4.5c-2.3-0.2-4.3,1.6-4.5,3.9C151.9,467.7,151.9,467.9,151.9,468.1z"/>
<path d="M172.8,476.4h-4.6v-25.2h4.6V476.4z"/>
<path d="M175.7,468.1c-0.1-4.9,3.8-8.9,8.7-9c4.9-0.1,8.9,3.8,9,8.7c0.1,4.9-3.8,8.9-8.7,9c0,0-0.1,0-0.1,0
	c-4.7,0.1-8.7-3.6-8.8-8.4C175.7,468.3,175.7,468.2,175.7,468.1z M180.4,468.1c-0.2,2.3,1.5,4.3,3.8,4.5c2.3,0.2,4.3-1.5,4.5-3.8
	c0-0.2,0-0.5,0-0.7c0-2.6-1.7-4.5-4.1-4.5S180.4,465.5,180.4,468.1z"/>
<path d="M201.1,476.4h-1.2l-5.6-16.5h5.2l3.5,11.7l3.5-11.7h5.1L205,479c-0.8,2.4-2.1,3.7-5.1,3.7h-3.2v-3.9h2.3
	c0.9,0.1,1.6-0.5,1.8-1.3L201.1,476.4z"/>
<path d="M235.6,466.7c0.2-1.4-0.9-2.7-2.3-2.9c-0.1,0-0.3,0-0.4,0c-1.4,0.1-2.6,0.8-3.4,1.9v10.7h-4.7v-9.7c0.2-1.4-0.9-2.7-2.3-2.9
	c-0.1,0-0.3,0-0.4,0c-1.4,0.1-2.6,0.8-3.4,1.9v10.7h-4.7v-16.5h4.6v0.6c0,0.6-0.1,1.3-0.1,1.3c1.2-1.5,3-2.4,4.9-2.4
	c2.2-0.2,4.3,1,5.3,3c1.2-1.9,3.3-3,5.6-3c3.2-0.2,5.9,2.2,6.1,5.3c0,0.3,0,0.5,0,0.8v10.8h-4.7V466.7z"/>
<path d="M260.3,469.5H248c0.3,2.1,2.3,3.6,4.5,3.3c1.1-0.2,2-0.8,2.6-1.7l4.9,0.5c-1.5,3.5-4.6,5.2-8.2,5.2
	c-4.8-0.1-8.6-4.1-8.4-8.9c0.1-4.6,3.8-8.2,8.3-8.4c4.5,0,8.6,3,8.6,9.9L260.3,469.5z M247.9,466.4h7.4c-0.3-1.8-1.8-3.1-3.6-3
	C249.8,463.3,248.3,464.6,247.9,466.4z"/>
<path d="M272.6,459.5c3.2-0.2,5.9,2.2,6.1,5.4c0,0.3,0,0.5,0,0.8v10.8h-4.7v-9.6c0.2-1.5-0.9-2.8-2.3-2.9c-0.2,0-0.3,0-0.5,0
	c-1.4,0.1-2.7,0.8-3.5,1.9v10.7h-4.7v-16.5h4.6v0.6c0,0.6-0.1,1.3-0.1,1.3C268.8,460.3,270.7,459.4,272.6,459.5z"/>
<path d="M288.5,453.6v6.3h3.6v4h-3.6v7.5c0,1,0.8,1.2,1.5,1.2c1.2,0,2.2-0.1,2.2-0.1v4c0,0-2.3,0.2-3.6,0.2c-2.3,0-4.8-0.4-4.8-3.7
	v-9h-2.6v-4h2.6v-6.3L288.5,453.6z"/>
<path class="st4" d="M425.1,191.5c0,20.7,82.8,37.4,185,37.4s185-16.7,185-37.4V47.4h-370L425.1,191.5z"/>
<ellipse class="st5" cx="610.2" cy="46.9" rx="185" ry="37.4"/>
<path d="M561.1,123.8L561.1,123.8c2.9,1.3,4.7,3.4,4.7,6.3c0,4-3,7.2-8.3,7.2h-9v-25.2h8.1c5.2,0,7.8,3.2,7.8,6.4
	C564.4,120.9,563.1,122.9,561.1,123.8z M553.5,116.4v5.6h2.6c1.8,0,3.3-0.9,3.3-2.8s-1.5-2.8-3.3-2.8L553.5,116.4z M553.5,133.2h2.6
	c3,0,4.5-1.4,4.5-3.4s-1.8-3.2-4.2-3.2h-2.8V133.2z"/>
<path d="M568.4,131.3v-10.4h4.7v9.6c0,1.8,1.4,3.2,3.2,3.2c1.8,0,3.2-1.4,3.2-3.2v-9.6h4.6v10.4c0,3.4-2.7,6.5-7.8,6.5
	S568.4,134.8,568.4,131.3z"/>
<path d="M597.6,125.9c-1.1-1.1-2.5-1.7-4.1-1.7c-1.2,0-1.7,0.6-1.7,1.1s0.4,1,1.2,1.3l2.7,0.9c3.4,1.1,4.5,3,4.5,5.1
	c0,2.4-2,5.2-6.5,5.2c-2.7,0.1-5.3-0.8-7.3-2.6l2.5-3.2c1.3,1.2,3.1,1.9,4.9,2.1c1.1,0,1.8-0.6,1.8-1.2c0-0.8-0.5-1.2-1.9-1.6
	l-2.8-0.8c-2.7-0.9-3.8-2.7-3.8-4.8c0-2.7,2.5-5.1,6.4-5.1c2.4,0,4.8,0.8,6.7,2.4L597.6,125.9z"/>
<path d="M609,137.4h-4.7v-12.5H602v-4h7V137.4z M606.5,112.2c1.7,0,3,1.3,3,3s-1.3,3-3,3s-3-1.3-3-3S604.8,112.2,606.5,112.2z"/>
<path d="M622.6,120.4c3.2-0.2,5.9,2.2,6.1,5.3c0,0.3,0,0.5,0,0.8v10.8H624v-9.6c0.2-1.5-0.9-2.8-2.3-3c-0.2,0-0.3,0-0.5,0
	c-1.4,0.1-2.7,0.8-3.5,1.9v10.7H613v-16.4h4.6v0.6c0,0.6-0.1,1.3-0.1,1.3C618.7,121.3,620.6,120.4,622.6,120.4z"/>
<path d="M648.7,130.5h-12.3c0.3,2.1,2.3,3.6,4.5,3.3c1.1-0.2,2-0.8,2.6-1.7l4.9,0.5c-1.5,3.5-4.6,5.2-8.2,5.2
	c-4.8-0.1-8.6-4.1-8.4-8.9c0.1-4.6,3.8-8.2,8.3-8.4c4.5,0,8.6,3,8.6,9.9V130.5z M636.3,127.4h7.4c-0.3-1.8-1.8-3.1-3.6-3
	C638.3,124.3,636.7,125.6,636.3,127.4z"/>
<path d="M661.2,125.9c-1.1-1.1-2.5-1.7-4.1-1.7c-1.2,0-1.7,0.6-1.7,1.1s0.4,1,1.2,1.3l2.7,0.9c3.4,1.1,4.5,3,4.5,5.1
	c0,2.4-2,5.2-6.5,5.2c-2.7,0.1-5.3-0.8-7.3-2.6l2.5-3.2c1.3,1.2,3.1,1.9,4.9,2c1.1,0,1.8-0.6,1.8-1.2c0-0.8-0.5-1.2-1.9-1.6
	l-2.8-0.8c-2.7-0.9-3.8-2.7-3.8-4.8c0-2.7,2.5-5.1,6.4-5.1c2.4,0,4.8,0.8,6.7,2.4L661.2,125.9z"/>
<path d="M676.7,125.9c-1.1-1.1-2.5-1.7-4.1-1.7c-1.2,0-1.7,0.6-1.7,1.1s0.4,1,1.2,1.3l2.7,0.9c3.4,1.1,4.5,3,4.5,5.1
	c0,2.4-2,5.2-6.5,5.2c-2.7,0.1-5.3-0.8-7.3-2.6l2.5-3.2c1.4,1.2,3.1,1.9,4.9,2c1.1,0,1.8-0.6,1.8-1.2c0-0.8-0.5-1.2-1.9-1.6
	l-2.8-0.8c-2.7-0.9-3.8-2.7-3.8-4.8c0-2.7,2.5-5.1,6.4-5.1c2.4,0,4.8,0.8,6.7,2.4L676.7,125.9z"/>
<path d="M513.7,171.8v-16.4h4.9v16.9c0,4.9-3.2,8.8-9.4,8.8s-9.4-3.9-9.4-8.8v-16.9h5v16.4c0,2.7,1.5,4.6,4.5,4.6
	S513.7,174.5,513.7,171.8z"/>
<path d="M532.3,163.6c3.2-0.2,5.9,2.2,6.1,5.4c0,0.3,0,0.5,0,0.8v10.8h-4.7V171c0.2-1.5-0.8-2.8-2.3-3c-0.2,0-0.3,0-0.5,0
	c-1.4,0.1-2.7,0.8-3.5,1.9v10.7h-4.7v-16.5h4.6v0.6c0,0.6-0.1,1.3-0.1,1.3C528.5,164.5,530.4,163.6,532.3,163.6z"/>
<path d="M554.4,178.5c-1.2,1.7-3.1,2.6-5.2,2.5c-4.5,0-8-3.6-8-8.7s3.4-8.7,8-8.7c2.1-0.1,4.1,0.9,5.2,2.6c0-0.5-0.1-1.9-0.1-3.1
	v-7.7h4.7v25.2h-4.7L554.4,178.5z M546.1,172.3c-0.2,2.3,1.6,4.3,3.9,4.5c2.3,0.2,4.3-1.6,4.5-3.9c0-0.2,0-0.4,0-0.6
	c0.2-2.3-1.6-4.3-3.9-4.5c-2.3-0.2-4.3,1.6-4.5,3.9C546.1,171.9,546.1,172.1,546.1,172.3z"/>
<path d="M579.3,173.7H567c0.3,2.1,2.3,3.6,4.5,3.3c1.1-0.2,2-0.8,2.6-1.7l4.9,0.5c-1.5,3.5-4.6,5.2-8.2,5.2
	c-4.8-0.1-8.6-4.1-8.4-8.9c0.1-4.6,3.8-8.2,8.3-8.4c4.5,0,8.6,3,8.6,9.9L579.3,173.7z M566.9,170.6h7.4c-0.3-1.8-1.8-3.1-3.6-3
	C568.8,167.5,567.2,168.8,566.9,170.6L566.9,170.6z"/>
<path d="M592.2,168.7h-2c-2.4,0-3.5,1.1-3.5,4v7.9H582v-16.5h4.5v2.6c0.7-1.8,2.4-2.9,4.3-2.8c0.4,0,0.9,0,1.3,0.1L592.2,168.7z"/>
<path d="M604.5,169.1c-1.1-1.1-2.5-1.7-4.1-1.7c-1.2,0-1.7,0.6-1.7,1.1s0.4,1,1.2,1.3l2.7,0.9c3.4,1.1,4.5,3,4.5,5.1
	c0,2.4-2,5.2-6.5,5.2c-2.7,0.1-5.3-0.8-7.3-2.6l2.5-3.2c1.3,1.2,3.1,1.9,4.9,2.1c1.1,0,1.8-0.6,1.8-1.2c0-0.8-0.5-1.2-1.9-1.6
	l-2.8-0.8c-2.7-0.9-3.8-2.7-3.8-4.8c0-2.7,2.5-5.1,6.4-5.1c2.4,0,4.8,0.8,6.7,2.4L604.5,169.1z"/>
<path d="M616.2,157.8v6.3h3.6v4h-3.6v7.4c0,1,0.8,1.2,1.5,1.2c1.2,0,2.2-0.1,2.2-0.1v4c0,0-2.3,0.2-3.6,0.2c-2.3,0-4.8-0.4-4.8-3.7
	v-9h-2.6v-4h2.6v-6.3L616.2,157.8z"/>
<path d="M632.1,169.6c0-1.2-0.9-1.9-2.7-1.9c-1.8,0.1-3.5,0.6-5,1.6l-1.8-3.5c2.1-1.3,4.5-2,7-2c3.7,0,7.2,1.7,7.2,6.1v10.8H632V179
	c-1.1,1.4-2.8,2.1-4.6,2c-3.5,0-5.8-2.5-5.8-5.2c0-3.1,2.3-5.1,6-5.1h3.3c0.8,0,1.2-0.4,1.2-1L632.1,169.6z M632.1,174.7v-1.2
	c-0.4,0.3-0.9,0.4-1.4,0.4h-1.8c-1.5,0-2.3,0.6-2.3,1.8s0.9,1.9,2.3,1.9C630.6,177.6,632.1,176.7,632.1,174.7z"/>
<path d="M650.2,163.6c3.2-0.2,5.9,2.2,6.1,5.3c0,0.3,0,0.5,0,0.8v10.8h-4.7V171c0.2-1.5-0.9-2.8-2.3-3c-0.2,0-0.3,0-0.5,0
	c-1.4,0.1-2.7,0.8-3.5,1.9v10.7h-4.7v-16.5h4.6v0.6c0,0.6-0.1,1.3-0.1,1.3C646.4,164.5,648.3,163.6,650.2,163.6z"/>
<path d="M672.3,178.5c-1.2,1.7-3.1,2.6-5.2,2.5c-4.5,0-8-3.6-8-8.7s3.4-8.7,8-8.7c2.1-0.1,4.1,0.9,5.2,2.6c0-0.5-0.1-1.9-0.1-3.1
	v-7.7h4.7v25.2h-4.7L672.3,178.5z M664,172.3c-0.2,2.3,1.5,4.4,3.9,4.6c2.3,0.2,4.4-1.5,4.6-3.9c0-0.2,0-0.5,0-0.7
	c0.1-2.3-1.7-4.3-4-4.4c-2.3-0.1-4.3,1.7-4.4,4C664,172.1,664,172.2,664,172.3z"/>
<path d="M686.7,180.6H682v-12.5h-2.3v-4h7L686.7,180.6z M684.1,155.4c1.7,0,3,1.3,3,3s-1.3,3-3,3s-3-1.3-3-3
	S682.5,155.4,684.1,155.4L684.1,155.4L684.1,155.4z"/>
<path d="M700.2,163.6c3.2-0.2,5.9,2.2,6.1,5.3c0,0.3,0,0.5,0,0.8v10.8h-4.7V171c0.2-1.5-0.8-2.8-2.3-3c-0.2,0-0.3,0-0.5,0
	c-1.4,0.1-2.7,0.7-3.5,1.9v10.7h-4.7v-16.5h4.6v0.6c0,0.6-0.1,1.3-0.1,1.3C696.4,164.5,698.3,163.6,700.2,163.6z"/>
<path d="M726.9,164.1v17.7c0,2.6-1.3,5.1-5.3,5.1h-7.2v-4h6c0.8,0,1.8-0.2,1.8-1.5v-3.2c-1.2,1.6-3.1,2.6-5.1,2.5
	c-4.5,0-7.9-3.4-7.9-8.5s3.4-8.6,7.9-8.6c2.1-0.1,4,0.9,5.2,2.6c0-0.2-0.1-0.5-0.1-1.4v-0.8L726.9,164.1z M718.2,176.7
	c2.5,0,4.2-1.8,4.2-4.5s-1.7-4.5-4.2-4.5s-4.1,1.8-4.1,4.5S715.7,176.7,718.2,176.7z"/>
<path class="st6" d="M425.1,810.5c0,20.7,82.8,37.4,185,37.4s185-16.7,185-37.4V666.4h-370L425.1,810.5z"/>
<ellipse class="st7" cx="610.2" cy="665.9" rx="185" ry="37.4"/>
<path d="M549.8,775l-5-12.4v17.8h-4.9v-25.2h7.1l5.5,14.3l5.6-14.3h6.7v25.2h-5v-17.8L555,775H549.8z"/>
<path d="M568,772.1c-0.1-4.9,3.8-8.9,8.7-9c4.9-0.1,8.9,3.8,9,8.7c0.1,4.9-3.8,8.9-8.7,9c0,0-0.1,0-0.1,0c-4.7,0.1-8.7-3.6-8.8-8.3
	C568,772.4,568,772.2,568,772.1z M572.7,772.1c-0.2,2.3,1.6,4.3,3.9,4.5c0.1,0,0.2,0,0.3,0c2.4,0,4.1-1.9,4.1-4.5s-1.7-4.5-4.1-4.5
	S572.7,769.5,572.7,772.1z"/>
<path d="M600.8,778.3c-1.2,1.7-3.1,2.6-5.2,2.5c-4.5,0-8-3.6-8-8.7s3.4-8.7,8-8.7c2.1-0.1,4.1,0.9,5.2,2.6c0-0.5-0.1-1.9-0.1-3.1
	v-7.7h4.7v25.2h-4.7L600.8,778.3z M592.4,772.1c-0.2,2.3,1.5,4.4,3.9,4.6c2.3,0.2,4.4-1.5,4.6-3.9c0-0.2,0-0.5,0-0.7
	c0.1-2.3-1.7-4.3-4-4.4s-4.3,1.7-4.4,4C592.4,771.9,592.4,772,592.4,772.1z"/>
<path d="M625.6,773.5h-12.3c0.3,2.1,2.3,3.6,4.5,3.3c1.1-0.2,2-0.8,2.6-1.7l4.9,0.5c-1.5,3.5-4.6,5.2-8.2,5.2
	c-4.8-0.1-8.6-4.1-8.4-8.9c0.1-4.6,3.8-8.2,8.3-8.4c4.5,0,8.6,3,8.6,9.9V773.5z M613.2,770.4h7.4c-0.3-1.8-1.8-3.1-3.6-3
	C615.2,767.3,613.6,768.6,613.2,770.4z"/>
<path d="M633,780.4h-4.6v-25.2h4.6V780.4z"/>
<path d="M642.7,780.4h-4.7v-12.5h-2.3v-4h7L642.7,780.4z M640.2,755.2c1.7,0,3,1.3,3,3s-1.3,3-3,3s-3-1.3-3-3
	S638.5,755.2,640.2,755.2z"/>
<path d="M656.3,763.5c3.2-0.2,5.9,2.2,6.1,5.4c0,0.3,0,0.5,0,0.8v10.8h-4.7v-9.6c0.2-1.5-0.9-2.8-2.3-3c-0.2,0-0.3,0-0.5,0
	c-1.4,0.1-2.7,0.8-3.5,1.9v10.7h-4.7v-16.4h4.6v0.6c0,0.6-0.1,1.3-0.1,1.3C652.5,764.3,654.4,763.4,656.3,763.5z"/>
<path d="M683,763.9v17.7c0,2.6-1.3,5.1-5.3,5.1h-7.2v-4h6c0.8,0,1.8-0.2,1.8-1.5V778c-1.2,1.6-3.1,2.6-5.1,2.5
	c-4.5,0-7.9-3.4-7.9-8.5s3.4-8.6,7.9-8.6c2.1-0.1,4,0.9,5.2,2.6c0-0.2-0.1-0.5-0.1-1.4v-0.8L683,763.9z M674.2,776.5
	c2.5,0,4.2-1.8,4.2-4.5s-1.7-4.5-4.2-4.5s-4.1,1.8-4.1,4.5S671.8,776.5,674.2,776.5L674.2,776.5z"/>
<line class="st8" x1="849.3" y1="140" x2="1021.2" y2="288.9"/>
<polyline class="st8" points="1021.9,264.7 1021.9,290.7 995.9,290.7 "/>
<polyline class="st8" points="848.5,164.6 847.7,138.6 873.6,137.7 "/>
<line class="st8" x1="370.6" y1="140" x2="198.7" y2="288.9"/>
<polyline class="st8" points="371.3,164.6 372.2,138.6 346.2,137.7 "/>
<line class="st8" x1="849.3" y1="732.2" x2="1021.2" y2="583.2"/>
<polyline class="st8" points="1021.9,607.5 1021.9,581.5 995.9,581.5 "/>
<polyline class="st8" points="848.5,707.5 847.7,733.5 873.6,734.4 "/>
<line class="st8" x1="370.6" y1="732.2" x2="198.7" y2="583.2"/>
<polyline class="st8" points="198,607.5 198,581.5 224,581.5 "/>
<polyline class="st8" points="371.3,707.5 372.2,733.5 346.2,734.4 "/>
<polyline class="st8" points="593.2,280.4 611.5,262 630,280.4 "/>
<line class="st8" x1="611.7" y1="599.8" x2="611.7" y2="264.9"/>
<polyline class="st8" points="783.5,412.5 801.9,430.9 783.6,449.3 "/>
<line class="st8" x1="421.4" y1="431" x2="799" y2="431"/>
</svg>
